<?xml version="1.0" encoding="utf-8" standalone="no"?>
<!DOCTYPE svg PUBLIC "-//W3C//DTD SVG 1.1//EN"
  "http://www.w3.org/Graphics/SVG/1.1/DTD/svg11.dtd">
<svg xmlns:xlink="http://www.w3.org/1999/xlink" width="820.8pt" height="493.2pt" viewBox="0 0 820.8 493.2" xmlns="http://www.w3.org/2000/svg" version="1.1">
 <metadata>
  <rdf:RDF xmlns:dc="http://purl.org/dc/elements/1.1/" xmlns:cc="http://creativecommons.org/ns#" xmlns:rdf="http://www.w3.org/1999/02/22-rdf-syntax-ns#">
   <cc:Work>
    <dc:type rdf:resource="http://purl.org/dc/dcmitype/StillImage"/>
    <dc:date>2024-12-09T11:16:59.145292</dc:date>
    <dc:format>image/svg+xml</dc:format>
    <dc:creator>
     <cc:Agent>
      <dc:title>Matplotlib v3.9.3, https://matplotlib.org/</dc:title>
     </cc:Agent>
    </dc:creator>
   </cc:Work>
  </rdf:RDF>
 </metadata>
 <defs>
  <style type="text/css">*{stroke-linejoin: round; stroke-linecap: butt}</style>
 </defs>
 <g id="figure_1">
  <g id="patch_1">
   <path d="M 0 493.2 
L 820.8 493.2 
L 820.8 0 
L 0 0 
z
" style="fill: #ffffff"/>
  </g>
  <g id="axes_1">
   <g id="patch_2">
    <path d="M 102.6 124.660552 
L 738.72 124.660552 
L 738.72 59.184 
L 102.6 59.184 
L 102.6 124.660552 
z
" style="fill: none; opacity: 0"/>
   </g>
   <g id="matplotlib.axis_1"/>
   <g id="matplotlib.axis_2">
    <g id="ytick_1">
     <g id="line2d_1">
      <defs>
       <path id="m54f85dbd7e" d="M 0 0 
L -3.5 0 
" style="stroke: #000000; stroke-width: 0.8"/>
      </defs>
      <g>
       <use xlink:href="#m54f85dbd7e" x="102.6" y="124.660552" style="stroke: #000000; stroke-width: 0.8"/>
      </g>
     </g>
     <g id="text_1">
      <text style="font: 8px 'Lato', sans-serif; text-anchor: end" x="95.6" y="127.606802" transform="rotate(-0 95.6 127.606802)">0</text>
     </g>
    </g>
    <g id="ytick_2">
     <g id="line2d_2">
      <g>
       <use xlink:href="#m54f85dbd7e" x="102.6" y="108.291414" style="stroke: #000000; stroke-width: 0.8"/>
      </g>
     </g>
     <g id="text_2">
      <text style="font: 8px 'Lato', sans-serif; text-anchor: end" x="95.6" y="111.237664" transform="rotate(-0 95.6 111.237664)">2</text>
     </g>
    </g>
    <g id="ytick_3">
     <g id="line2d_3">
      <g>
       <use xlink:href="#m54f85dbd7e" x="102.6" y="91.922276" style="stroke: #000000; stroke-width: 0.8"/>
      </g>
     </g>
     <g id="text_3">
      <text style="font: 8px 'Lato', sans-serif; text-anchor: end" x="95.6" y="94.868526" transform="rotate(-0 95.6 94.868526)">4</text>
     </g>
    </g>
    <g id="ytick_4">
     <g id="line2d_4">
      <g>
       <use xlink:href="#m54f85dbd7e" x="102.6" y="75.553138" style="stroke: #000000; stroke-width: 0.8"/>
      </g>
     </g>
     <g id="text_4">
      <text style="font: 8px 'Lato', sans-serif; text-anchor: end" x="95.6" y="78.499388" transform="rotate(-0 95.6 78.499388)">6</text>
     </g>
    </g>
    <g id="ytick_5">
     <g id="line2d_5">
      <g>
       <use xlink:href="#m54f85dbd7e" x="102.6" y="59.184" style="stroke: #000000; stroke-width: 0.8"/>
      </g>
     </g>
     <g id="text_5">
      <text style="font: 8px 'Lato', sans-serif; text-anchor: end" x="95.6" y="62.13025" transform="rotate(-0 95.6 62.13025)">8</text>
     </g>
    </g>
   </g>
   <g id="line2d_6">
    <path d="M 660.294247 103.390572 
L 665.273659 92.094884 
L 665.273659 88.19371 
L 665.273659 90.057121 
L 670.253072 90.04683 
L 670.253072 87.452697 
L 670.253072 89.202402 
L 675.232485 89.393143 
L 675.232485 89.327105 
L 675.232485 87.172884 
L 675.232485 89.527385 
L 680.211898 89.782589 
L 680.211898 89.755822 
L 680.211898 87.670608 
L 680.211898 90.044315 
L 685.191311 90.134087 
L 685.191311 90.034478 
L 685.191311 87.722138 
L 685.191311 90.164955 
L 690.170724 90.26812 
L 690.170724 87.839195 
L 690.170724 90.361742 
L 695.150137 90.486499 
L 695.150137 88.117093 
L 695.150137 90.596649 
L 700.12955 90.770735 
L 700.12955 90.663118 
L 700.12955 88.155934 
L 700.12955 90.488161 
L 705.108963 90.530919 
L 705.108963 90.396281 
L 705.108963 88.086275 
L 705.108963 90.422291 
L 710.088376 90.533564 
L 710.088376 90.354188 
L 710.088376 88.274561 
L 710.088376 91.104455 
L 715.067789 91.223333 
L 715.067789 88.897518 
L 715.067789 91.623464 
L 720.047202 91.643455 
L 720.047202 91.532802 
L 720.047202 89.135563 
L 720.047202 91.873208 
L 720.047202 91.867604 
L 725.026614 91.894306 
L 725.026614 91.798279 
L 725.026614 89.359107 
L 725.026614 92.051124 
L 725.026614 92.044864 
L 730.006027 92.119597 
L 730.006027 92.011175 
L 730.006027 89.596549 
L 730.006027 95.342907 
L 730.006027 92.550915 
L 734.98544 92.694621 
L 734.98544 92.757455 
L 734.98544 91.875312 
L 734.98544 91.875312 
" clip-path="url(#pd246157239)" style="fill: none; stroke: #1f77b4; stroke-width: 1.5; stroke-linecap: square"/>
   </g>
   <g id="patch_3">
    <path d="M 102.6 124.660552 
L 738.72 124.660552 
" style="fill: none; stroke: #000000; stroke-width: 0.8; stroke-linejoin: miter; stroke-linecap: square"/>
   </g>
   <g id="legend_1">
    <g id="patch_4">
     <path d="M 678.37625 76.849 
L 733.12 76.849 
Q 734.72 76.849 734.72 75.249 
L 734.72 64.784 
Q 734.72 63.184 733.12 63.184 
L 678.37625 63.184 
Q 676.77625 63.184 676.77625 64.784 
L 676.77625 75.249 
Q 676.77625 76.849 678.37625 76.849 
z
" style="fill: #ffffff; opacity: 0.8; stroke: #cccccc; stroke-linejoin: miter"/>
    </g>
    <g id="line2d_7">
     <path d="M 679.97625 69.4765 
L 687.97625 69.4765 
L 695.97625 69.4765 
" style="fill: none; stroke: #1f77b4; stroke-width: 1.5; stroke-linecap: square"/>
    </g>
    <g id="text_6">
     <text style="font: 8px 'Lato', sans-serif; text-anchor: start" x="702.37625" y="72.2765" transform="rotate(-0 702.37625 72.2765)">Strinova</text>
    </g>
   </g>
  </g>
  <g id="axes_2">
   <g id="patch_5">
    <path d="M 102.6 203.232414 
L 738.72 203.232414 
L 738.72 137.755862 
L 102.6 137.755862 
L 102.6 203.232414 
z
" style="fill: none; opacity: 0"/>
   </g>
   <g id="matplotlib.axis_3"/>
   <g id="matplotlib.axis_4">
    <g id="ytick_6">
     <g id="line2d_8">
      <g>
       <use xlink:href="#m54f85dbd7e" x="102.6" y="203.232414" style="stroke: #000000; stroke-width: 0.8"/>
      </g>
     </g>
     <g id="text_7">
      <text style="font: 8px 'Lato', sans-serif; text-anchor: end" x="95.6" y="206.178664" transform="rotate(-0 95.6 206.178664)">0</text>
     </g>
    </g>
    <g id="ytick_7">
     <g id="line2d_9">
      <g>
       <use xlink:href="#m54f85dbd7e" x="102.6" y="186.863276" style="stroke: #000000; stroke-width: 0.8"/>
      </g>
     </g>
     <g id="text_8">
      <text style="font: 8px 'Lato', sans-serif; text-anchor: end" x="95.6" y="189.809526" transform="rotate(-0 95.6 189.809526)">2</text>
     </g>
    </g>
    <g id="ytick_8">
     <g id="line2d_10">
      <g>
       <use xlink:href="#m54f85dbd7e" x="102.6" y="170.494138" style="stroke: #000000; stroke-width: 0.8"/>
      </g>
     </g>
     <g id="text_9">
      <text style="font: 8px 'Lato', sans-serif; text-anchor: end" x="95.6" y="173.440388" transform="rotate(-0 95.6 173.440388)">4</text>
     </g>
    </g>
    <g id="ytick_9">
     <g id="line2d_11">
      <g>
       <use xlink:href="#m54f85dbd7e" x="102.6" y="154.125" style="stroke: #000000; stroke-width: 0.8"/>
      </g>
     </g>
     <g id="text_10">
      <text style="font: 8px 'Lato', sans-serif; text-anchor: end" x="95.6" y="157.07125" transform="rotate(-0 95.6 157.07125)">6</text>
     </g>
    </g>
    <g id="ytick_10">
     <g id="line2d_12">
      <g>
       <use xlink:href="#m54f85dbd7e" x="102.6" y="137.755862" style="stroke: #000000; stroke-width: 0.8"/>
      </g>
     </g>
     <g id="text_11">
      <text style="font: 8px 'Lato', sans-serif; text-anchor: end" x="95.6" y="140.702112" transform="rotate(-0 95.6 140.702112)">8</text>
     </g>
    </g>
   </g>
   <g id="line2d_13">
    <path d="M 485.893627 184.243017 
L 490.807648 187.483017 
L 495.721669 187.933558 
L 500.635689 184.956303 
L 505.54971 181.517013 
L 510.463731 180.028702 
L 520.291773 178.689386 
L 525.205794 177.727041 
L 530.119815 177.268416 
L 535.033835 177.659693 
L 539.947856 177.667708 
L 554.689919 177.185722 
L 559.60394 176.501641 
L 564.517961 176.160234 
L 569.431981 176.736571 
L 574.346002 176.996982 
L 579.260023 177.557114 
L 579.260023 179.654196 
L 579.260023 176.838882 
L 579.260023 177.345743 
L 584.174044 177.314126 
L 584.174044 177.407348 
L 584.174044 179.489691 
L 584.174044 176.685485 
L 584.174044 177.167087 
L 589.088065 177.150862 
L 589.088065 179.375444 
L 589.088065 176.503568 
L 589.088065 176.828306 
L 594.002086 176.736571 
L 594.002086 176.845242 
L 594.002086 178.298164 
L 594.002086 175.742934 
L 594.002086 176.532601 
L 598.916107 176.691577 
L 598.916107 177.820732 
L 598.916107 175.596587 
L 598.916107 176.575615 
L 603.830127 176.73863 
L 603.830127 178.925213 
L 603.830127 176.341543 
L 603.830127 176.581521 
L 608.744148 176.775894 
L 608.744148 179.248029 
L 608.744148 176.499715 
L 608.744148 176.890088 
L 613.658169 176.790492 
L 613.658169 176.807248 
L 613.658169 179.235535 
L 613.658169 176.429175 
L 613.658169 176.663238 
L 618.57219 176.667272 
L 618.57219 176.639126 
L 618.57219 179.285776 
L 618.57219 175.931487 
L 618.57219 176.538436 
L 623.486211 176.448103 
L 623.486211 178.219207 
L 623.486211 175.372321 
L 623.486211 176.004437 
L 628.400232 176.039789 
L 628.400232 177.422294 
L 628.400232 175.011302 
L 628.400232 176.02628 
L 633.314253 176.18482 
L 633.314253 177.181054 
L 633.314253 174.912612 
L 633.314253 175.918383 
L 638.228273 176.03134 
L 638.228273 178.175745 
L 638.228273 175.544695 
L 638.228273 176.08405 
L 643.142294 176.033028 
L 643.142294 176.043174 
L 643.142294 178.827514 
L 643.142294 175.942993 
L 643.142294 176.389754 
L 648.056315 176.328675 
L 648.056315 175.35414 
L 648.056315 178.385455 
L 648.056315 176.167241 
L 652.970336 176.325006 
L 652.970336 178.288596 
L 652.970336 175.749164 
L 652.970336 176.308546 
L 657.884357 176.23451 
L 657.884357 176.275852 
L 657.884357 178.081358 
L 657.884357 175.445993 
L 657.884357 175.982727 
L 662.798378 175.796245 
L 662.798378 175.938057 
L 662.798378 177.27799 
L 662.798378 174.818986 
L 662.798378 175.598081 
L 667.712399 175.789931 
L 667.712399 175.698086 
L 667.712399 176.711958 
L 667.712399 174.61495 
L 667.712399 175.682752 
L 672.626419 175.853577 
L 672.626419 178.285412 
L 672.626419 175.440271 
L 672.626419 175.999415 
L 677.54044 176.10639 
L 677.54044 178.26637 
L 677.54044 175.406134 
L 677.54044 176.206031 
L 682.454461 176.225586 
L 682.454461 175.57871 
L 682.454461 178.090384 
L 682.454461 176.127136 
L 687.368482 176.139294 
L 687.368482 178.401858 
L 687.368482 175.512461 
L 687.368482 176.402846 
L 692.282503 176.304899 
L 692.282503 176.345229 
L 692.282503 178.253732 
L 692.282503 175.460337 
L 692.282503 176.135816 
L 697.196524 175.972752 
L 697.196524 176.104666 
L 697.196524 177.482712 
L 697.196524 175.013837 
L 697.196524 176.041481 
L 702.110545 176.061851 
L 702.110545 175.977736 
L 702.110545 175.066195 
L 702.110545 177.270807 
L 702.110545 176.261418 
L 707.024565 176.168995 
L 707.024565 176.293978 
L 707.024565 178.902427 
L 707.024565 175.80257 
L 707.024565 176.160234 
L 711.938586 176.082338 
L 711.938586 176.127136 
L 711.938586 178.743271 
L 711.938586 175.767922 
L 711.938586 176.303076 
L 716.852607 176.389754 
L 716.852607 178.696524 
L 716.852607 175.77891 
L 716.852607 176.314024 
L 721.766628 176.216684 
L 721.766628 176.352611 
L 721.766628 179.744189 
L 721.766628 175.133728 
L 721.766628 175.575739 
L 726.680649 175.716575 
L 726.680649 175.705778 
L 726.680649 178.216085 
L 726.680649 177.289995 
" clip-path="url(#pb87646d8e1)" style="fill: none; stroke: #1f77b4; stroke-width: 1.5; stroke-linecap: square"/>
   </g>
   <g id="patch_6">
    <path d="M 102.6 203.232414 
L 738.72 203.232414 
" style="fill: none; stroke: #000000; stroke-width: 0.8; stroke-linejoin: miter; stroke-linecap: square"/>
   </g>
   <g id="legend_2">
    <g id="patch_7">
     <path d="M 667.45625 155.420862 
L 733.12 155.420862 
Q 734.72 155.420862 734.72 153.820862 
L 734.72 143.355862 
Q 734.72 141.755862 733.12 141.755862 
L 667.45625 141.755862 
Q 665.85625 141.755862 665.85625 143.355862 
L 665.85625 153.820862 
Q 665.85625 155.420862 667.45625 155.420862 
z
" style="fill: #ffffff; opacity: 0.8; stroke: #cccccc; stroke-linejoin: miter"/>
    </g>
    <g id="line2d_14">
     <path d="M 669.05625 148.048362 
L 677.05625 148.048362 
L 685.05625 148.048362 
" style="fill: none; stroke: #1f77b4; stroke-width: 1.5; stroke-linecap: square"/>
    </g>
    <g id="text_12">
     <text style="font: 8px 'Lato', sans-serif; text-anchor: start" x="691.45625" y="150.848362" transform="rotate(-0 691.45625 150.848362)">Bloodstrike</text>
    </g>
   </g>
  </g>
  <g id="axes_3">
   <g id="patch_8">
    <path d="M 102.6 281.804276 
L 738.72 281.804276 
L 738.72 216.327724 
L 102.6 216.327724 
L 102.6 281.804276 
z
" style="fill: none; opacity: 0"/>
   </g>
   <g id="matplotlib.axis_5"/>
   <g id="matplotlib.axis_6">
    <g id="ytick_11">
     <g id="line2d_15">
      <g>
       <use xlink:href="#m54f85dbd7e" x="102.6" y="281.804276" style="stroke: #000000; stroke-width: 0.8"/>
      </g>
     </g>
     <g id="text_13">
      <text style="font: 8px 'Lato', sans-serif; text-anchor: end" x="95.6" y="284.750526" transform="rotate(-0 95.6 284.750526)">0</text>
     </g>
    </g>
    <g id="ytick_12">
     <g id="line2d_16">
      <g>
       <use xlink:href="#m54f85dbd7e" x="102.6" y="265.435138" style="stroke: #000000; stroke-width: 0.8"/>
      </g>
     </g>
     <g id="text_14">
      <text style="font: 8px 'Lato', sans-serif; text-anchor: end" x="95.6" y="268.381388" transform="rotate(-0 95.6 268.381388)">2</text>
     </g>
    </g>
    <g id="ytick_13">
     <g id="line2d_17">
      <g>
       <use xlink:href="#m54f85dbd7e" x="102.6" y="249.066" style="stroke: #000000; stroke-width: 0.8"/>
      </g>
     </g>
     <g id="text_15">
      <text style="font: 8px 'Lato', sans-serif; text-anchor: end" x="95.6" y="252.01225" transform="rotate(-0 95.6 252.01225)">4</text>
     </g>
    </g>
    <g id="ytick_14">
     <g id="line2d_18">
      <g>
       <use xlink:href="#m54f85dbd7e" x="102.6" y="232.696862" style="stroke: #000000; stroke-width: 0.8"/>
      </g>
     </g>
     <g id="text_16">
      <text style="font: 8px 'Lato', sans-serif; text-anchor: end" x="95.6" y="235.643112" transform="rotate(-0 95.6 235.643112)">6</text>
     </g>
    </g>
    <g id="ytick_15">
     <g id="line2d_19">
      <g>
       <use xlink:href="#m54f85dbd7e" x="102.6" y="216.327724" style="stroke: #000000; stroke-width: 0.8"/>
      </g>
     </g>
     <g id="text_17">
      <text style="font: 8px 'Lato', sans-serif; text-anchor: end" x="95.6" y="219.273974" transform="rotate(-0 95.6 219.273974)">8</text>
     </g>
    </g>
   </g>
   <g id="line2d_20">
    <path d="M 131.514545 258.462952 
L 134.48014 257.632982 
L 140.411329 257.261249 
L 143.376923 257.399376 
L 146.342517 256.88924 
L 149.308112 256.844568 
L 155.239301 256.041902 
L 158.204895 256.057114 
L 164.136084 256.803585 
L 167.101678 255.937203 
L 170.067273 255.60222 
L 178.964056 255.725037 
L 181.92965 254.818904 
L 184.895245 254.725102 
L 190.826434 255.466251 
L 193.792028 255.121997 
L 196.757622 255.335291 
L 199.723217 255.175124 
L 202.688811 254.809948 
L 208.62 254.65934 
L 211.585594 255.457655 
L 214.551189 254.937429 
L 217.516783 254.559587 
L 220.482378 254.685154 
L 223.447972 254.957884 
L 229.379161 254.8028 
L 232.344755 254.922626 
L 235.31035 254.608269 
L 238.275944 254.178919 
L 250.138322 254.709417 
L 253.103916 254.26074 
L 256.06951 254.177421 
L 259.035105 253.787825 
L 262.000699 253.996446 
L 264.966294 254.588044 
L 267.931888 255.021863 
L 270.897483 254.876761 
L 273.863077 254.62012 
L 276.828671 254.178919 
L 279.794266 254.068315 
L 282.75986 254.6938 
L 285.725455 254.918935 
L 288.691049 254.891373 
L 291.656643 255.57106 
L 294.622238 254.599828 
L 297.587832 254.174428 
L 300.553427 254.230216 
L 303.519021 254.511564 
L 306.484615 254.495153 
L 309.45021 254.633713 
L 312.415804 254.594773 
L 315.381399 254.44153 
L 318.346993 254.407823 
L 321.312587 253.726631 
L 324.278182 253.884396 
L 327.243776 253.82831 
L 333.174965 254.3492 
L 336.140559 254.314796 
L 339.106154 252.812873 
L 342.071748 252.179287 
L 345.037343 252.192968 
L 350.968531 250.955361 
L 359.865315 248.415271 
L 362.830909 247.190764 
L 365.796503 246.926702 
L 368.762098 246.055081 
L 371.727692 246.053862 
L 374.693287 245.518531 
L 377.658881 244.635655 
L 380.624476 244.001552 
L 383.59007 243.758415 
L 386.555664 244.561517 
L 389.521259 244.888506 
L 395.452448 245.239798 
L 398.418042 245.892906 
L 401.383636 242.464711 
L 404.349231 241.287514 
L 407.314825 241.567461 
L 410.28042 241.150562 
L 416.211608 240.659322 
L 419.177203 240.024657 
L 422.142797 239.55769 
L 425.108392 239.440176 
L 428.073986 239.440176 
L 431.03958 239.843601 
L 436.970769 239.861297 
L 439.936364 239.71793 
L 442.901958 239.440176 
L 445.867552 239.440176 
L 448.833147 240.054783 
L 451.798741 240.374152 
L 457.72993 240.495049 
L 460.695524 239.942734 
L 463.661119 239.588414 
L 466.626713 239.440176 
L 469.592308 239.924928 
L 472.557902 240.126 
L 475.523497 240.161904 
L 481.454685 239.970383 
L 484.42028 239.56242 
L 487.385874 239.440176 
L 490.351469 240.144845 
L 493.317063 240.011748 
L 496.282657 240.372488 
L 499.248252 240.592306 
L 502.213846 240.242472 
L 505.179441 240.067651 
L 508.145035 240.063526 
L 511.110629 240.635361 
L 520.007413 241.204065 
L 522.973007 241.115539 
L 525.938601 240.890934 
L 528.904196 240.796783 
L 531.86979 241.407916 
L 534.835385 241.604558 
L 540.766573 241.800268 
L 549.663357 241.160122 
L 552.628951 241.560612 
L 555.594545 241.739207 
L 558.56014 241.52184 
L 564.491329 241.78933 
L 567.456923 241.40841 
L 570.422517 241.485297 
L 573.388112 241.995598 
L 582.284895 242.139754 
L 591.181678 241.685812 
L 594.147273 242.331934 
L 597.112867 242.417525 
L 603.044056 242.891108 
L 611.940839 242.179631 
L 614.906434 242.9195 
L 617.872028 242.990459 
L 620.837622 244.545936 
L 620.837622 243.166056 
L 620.837622 246.395752 
L 620.837622 244.730636 
L 623.803217 244.74821 
L 623.803217 243.247834 
L 623.803217 246.537042 
L 623.803217 244.769053 
L 626.768811 244.360983 
L 626.768811 243.012207 
L 626.768811 246.304532 
L 626.768811 243.870274 
L 629.734406 244.392723 
L 629.734406 242.823252 
L 629.734406 245.147133 
L 629.734406 243.679054 
L 632.7 244.152913 
L 632.7 245.10863 
L 632.7 242.770792 
L 632.7 244.045084 
L 635.665594 244.475874 
L 635.665594 244.374158 
L 635.665594 246.545602 
L 635.665594 243.253026 
L 635.665594 244.633305 
L 638.631189 244.650095 
L 638.631189 243.601504 
L 638.631189 246.88932 
L 638.631189 245.090115 
L 641.596783 245.072042 
L 641.596783 243.689769 
L 641.596783 246.984216 
L 641.596783 245.210602 
L 644.562378 245.244405 
L 644.562378 243.843511 
L 644.562378 247.053153 
L 644.562378 245.263743 
L 647.527972 245.284415 
L 647.527972 243.715001 
L 647.527972 246.97868 
L 647.527972 244.607152 
L 650.493566 245.065808 
L 650.493566 245.78565 
L 650.493566 243.401553 
L 650.493566 244.21157 
L 653.459161 244.885106 
L 653.459161 245.647543 
L 653.459161 243.309793 
L 653.459161 244.572745 
L 656.424755 244.95687 
L 656.424755 244.934454 
L 656.424755 243.944299 
L 656.424755 247.260658 
L 656.424755 245.567343 
L 659.39035 245.302616 
L 659.39035 243.995828 
L 659.39035 247.390704 
L 659.39035 245.434371 
L 662.355944 245.448988 
L 662.355944 244.208034 
L 662.355944 247.502718 
L 662.355944 245.789041 
L 665.321538 245.749673 
L 665.321538 244.349649 
L 665.321538 247.603977 
L 665.321538 245.851369 
L 668.287133 245.866509 
L 668.287133 243.674216 
L 668.287133 246.567711 
L 668.287133 244.576061 
L 671.252727 244.785326 
L 671.252727 245.926106 
L 671.252727 243.551732 
L 671.252727 244.404387 
L 674.218322 244.798355 
L 674.218322 245.734186 
L 674.218322 243.583974 
L 674.218322 244.690345 
L 677.183916 245.13535 
L 677.183916 245.129356 
L 677.183916 247.08314 
L 677.183916 244.059221 
L 677.183916 245.267038 
L 680.14951 245.530606 
L 680.14951 244.302248 
L 680.14951 247.20695 
L 680.14951 245.66252 
L 683.115105 245.805622 
L 683.115105 244.34814 
L 683.115105 247.349455 
L 683.115105 245.585989 
L 686.080699 246.015382 
L 686.080699 246.013274 
L 686.080699 244.617407 
L 686.080699 247.214754 
L 686.080699 245.996897 
L 689.046294 246.666763 
L 689.046294 246.646911 
L 689.046294 244.340889 
L 689.046294 247.431763 
L 689.046294 245.430534 
L 692.011888 245.586657 
L 692.011888 246.764747 
L 692.011888 244.35012 
L 692.011888 245.440134 
L 694.977483 245.597357 
L 694.977483 246.609672 
L 694.977483 244.315207 
L 694.977483 245.698724 
L 697.943077 245.856265 
L 697.943077 247.957915 
L 697.943077 244.816698 
L 697.943077 246.209382 
L 700.908671 246.244564 
L 700.908671 246.127427 
L 700.908671 245.019849 
L 700.908671 248.018282 
L 700.908671 246.487482 
L 703.874266 246.5245 
L 703.874266 246.445401 
L 703.874266 245.089766 
L 703.874266 248.116511 
L 703.874266 246.358883 
L 706.83986 246.433516 
L 706.83986 246.323542 
L 706.83986 245.174858 
L 706.83986 248.061158 
L 706.83986 246.647451 
L 709.805455 246.78658 
L 709.805455 248.514009 
L 709.805455 246.757313 
L 709.805455 248.292223 
" clip-path="url(#pdda15b9220)" style="fill: none; stroke: #1f77b4; stroke-width: 1.5; stroke-linecap: square"/>
   </g>
   <g id="patch_9">
    <path d="M 102.6 281.804276 
L 738.72 281.804276 
" style="fill: none; stroke: #000000; stroke-width: 0.8; stroke-linejoin: miter; stroke-linecap: square"/>
   </g>
   <g id="legend_3">
    <g id="patch_10">
     <path d="M 674.44875 233.992724 
L 733.12 233.992724 
Q 734.72 233.992724 734.72 232.392724 
L 734.72 221.927724 
Q 734.72 220.327724 733.12 220.327724 
L 674.44875 220.327724 
Q 672.84875 220.327724 672.84875 221.927724 
L 672.84875 232.392724 
Q 672.84875 233.992724 674.44875 233.992724 
z
" style="fill: #ffffff; opacity: 0.8; stroke: #cccccc; stroke-linejoin: miter"/>
    </g>
    <g id="line2d_21">
     <path d="M 676.04875 226.620224 
L 684.04875 226.620224 
L 692.04875 226.620224 
" style="fill: none; stroke: #1f77b4; stroke-width: 1.5; stroke-linecap: square"/>
    </g>
    <g id="text_18">
     <text style="font: 8px 'Lato', sans-serif; text-anchor: start" x="698.44875" y="229.420224" transform="rotate(-0 698.44875 229.420224)">Deadlock</text>
    </g>
   </g>
  </g>
  <g id="axes_4">
   <g id="patch_11">
    <path d="M 102.6 360.376138 
L 738.72 360.376138 
L 738.72 294.899586 
L 102.6 294.899586 
L 102.6 360.376138 
z
" style="fill: none; opacity: 0"/>
   </g>
   <g id="matplotlib.axis_7"/>
   <g id="matplotlib.axis_8">
    <g id="ytick_16">
     <g id="line2d_22">
      <g>
       <use xlink:href="#m54f85dbd7e" x="102.6" y="360.376138" style="stroke: #000000; stroke-width: 0.8"/>
      </g>
     </g>
     <g id="text_19">
      <text style="font: 8px 'Lato', sans-serif; text-anchor: end" x="95.6" y="363.322388" transform="rotate(-0 95.6 363.322388)">0</text>
     </g>
    </g>
    <g id="ytick_17">
     <g id="line2d_23">
      <g>
       <use xlink:href="#m54f85dbd7e" x="102.6" y="344.007" style="stroke: #000000; stroke-width: 0.8"/>
      </g>
     </g>
     <g id="text_20">
      <text style="font: 8px 'Lato', sans-serif; text-anchor: end" x="95.6" y="346.95325" transform="rotate(-0 95.6 346.95325)">2</text>
     </g>
    </g>
    <g id="ytick_18">
     <g id="line2d_24">
      <g>
       <use xlink:href="#m54f85dbd7e" x="102.6" y="327.637862" style="stroke: #000000; stroke-width: 0.8"/>
      </g>
     </g>
     <g id="text_21">
      <text style="font: 8px 'Lato', sans-serif; text-anchor: end" x="95.6" y="330.584112" transform="rotate(-0 95.6 330.584112)">4</text>
     </g>
    </g>
    <g id="ytick_19">
     <g id="line2d_25">
      <g>
       <use xlink:href="#m54f85dbd7e" x="102.6" y="311.268724" style="stroke: #000000; stroke-width: 0.8"/>
      </g>
     </g>
     <g id="text_22">
      <text style="font: 8px 'Lato', sans-serif; text-anchor: end" x="95.6" y="314.214974" transform="rotate(-0 95.6 314.214974)">6</text>
     </g>
    </g>
    <g id="ytick_20">
     <g id="line2d_26">
      <g>
       <use xlink:href="#m54f85dbd7e" x="102.6" y="294.899586" style="stroke: #000000; stroke-width: 0.8"/>
      </g>
     </g>
     <g id="text_23">
      <text style="font: 8px 'Lato', sans-serif; text-anchor: end" x="95.6" y="297.845836" transform="rotate(-0 95.6 297.845836)">8</text>
     </g>
    </g>
   </g>
   <g id="line2d_27">
    <path d="M 733.503866 347.263967 
L 733.503866 320.41655 
L 733.503866 318.012038 
L 733.503866 318.012038 
L 733.503866 318.012038 
L 733.503866 318.012038 
L 733.503866 318.012038 
L 733.503866 318.012038 
L 733.503866 318.012038 
L 733.503866 318.012038 
L 733.503866 318.012038 
L 733.503866 318.012038 
L 733.503866 318.012038 
L 733.503866 318.012038 
L 733.503866 318.012038 
L 733.503866 318.012038 
L 733.503866 318.012038 
L 733.503866 318.012038 
L 733.503866 318.012038 
L 733.503866 318.012038 
L 733.503866 318.012038 
L 733.503866 318.012038 
L 733.503866 318.012038 
L 733.503866 318.012038 
L 733.503866 318.012038 
L 733.503866 318.012038 
L 733.503866 318.012038 
L 733.503866 318.012038 
L 733.503866 318.012038 
L 733.503866 318.012038 
L 733.503866 318.012038 
L 733.503866 318.012038 
L 733.503866 318.012038 
L 733.503866 318.012038 
L 733.503866 318.012038 
L 733.503866 318.012038 
L 733.503866 318.012038 
L 733.503866 318.012038 
L 733.503866 318.012038 
L 733.503866 318.012038 
L 733.503866 318.012038 
L 733.503866 318.012038 
L 733.503866 318.012038 
L 733.503866 318.012038 
L 733.503866 318.012038 
L 733.503866 318.012038 
L 733.503866 318.012038 
L 733.503866 318.012038 
L 733.503866 318.012038 
L 733.503866 318.012038 
L 733.503866 318.012038 
L 733.503866 318.012038 
L 733.503866 318.012038 
L 733.503866 318.012038 
L 738.471613 318.012038 
L 738.471613 318.012038 
L 738.471613 318.012038 
L 738.471613 318.012038 
L 738.471613 318.012038 
L 738.471613 318.012038 
L 738.471613 318.012038 
L 738.471613 318.012038 
L 738.471613 318.012038 
L 738.471613 318.012038 
" clip-path="url(#p64bd5d9514)" style="fill: none; stroke: #1f77b4; stroke-width: 1.5; stroke-linecap: square"/>
   </g>
   <g id="patch_12">
    <path d="M 102.6 360.376138 
L 738.72 360.376138 
" style="fill: none; stroke: #000000; stroke-width: 0.8; stroke-linejoin: miter; stroke-linecap: square"/>
   </g>
   <g id="legend_4">
    <g id="patch_13">
     <path d="M 662.5775 312.564586 
L 733.12 312.564586 
Q 734.72 312.564586 734.72 310.964586 
L 734.72 300.499586 
Q 734.72 298.899586 733.12 298.899586 
L 662.5775 298.899586 
Q 660.9775 298.899586 660.9775 300.499586 
L 660.9775 310.964586 
Q 660.9775 312.564586 662.5775 312.564586 
z
" style="fill: #ffffff; opacity: 0.8; stroke: #cccccc; stroke-linejoin: miter"/>
    </g>
    <g id="line2d_28">
     <path d="M 664.1775 305.192086 
L 672.1775 305.192086 
L 680.1775 305.192086 
" style="fill: none; stroke: #1f77b4; stroke-width: 1.5; stroke-linecap: square"/>
    </g>
    <g id="text_24">
     <text style="font: 8px 'Lato', sans-serif; text-anchor: start" x="686.5775" y="307.992086" transform="rotate(-0 686.5775 307.992086)">MarvelRivals</text>
    </g>
   </g>
  </g>
  <g id="axes_5">
   <g id="patch_14">
    <path d="M 102.6 438.948 
L 738.72 438.948 
L 738.72 373.471448 
L 102.6 373.471448 
L 102.6 438.948 
z
" style="fill: none; opacity: 0"/>
   </g>
   <g id="matplotlib.axis_9">
    <g id="xtick_1">
     <g id="line2d_29">
      <defs>
       <path id="m130506242d" d="M 0 0 
L 0 3.5 
" style="stroke: #000000; stroke-width: 0.8"/>
      </defs>
      <g>
       <use xlink:href="#m130506242d" x="102.6" y="438.948" style="stroke: #000000; stroke-width: 0.8"/>
      </g>
     </g>
     <g id="text_25">
      <text style="font: 8px 'Lato', sans-serif; text-anchor: middle" x="102.6" y="451.753" transform="rotate(-0 102.6 451.753)">Ago 2024</text>
     </g>
    </g>
    <g id="xtick_2">
     <g id="line2d_30">
      <g>
       <use xlink:href="#m130506242d" x="251.709414" y="438.948" style="stroke: #000000; stroke-width: 0.8"/>
      </g>
     </g>
     <g id="text_26">
      <text style="font: 8px 'Lato', sans-serif; text-anchor: middle" x="251.709414" y="451.8405" transform="rotate(-0 251.709414 451.8405)">Set 2024</text>
     </g>
    </g>
    <g id="xtick_3">
     <g id="line2d_31">
      <g>
       <use xlink:href="#m130506242d" x="400.818828" y="438.948" style="stroke: #000000; stroke-width: 0.8"/>
      </g>
     </g>
     <g id="text_27">
      <text style="font: 8px 'Lato', sans-serif; text-anchor: middle" x="400.818828" y="451.8405" transform="rotate(-0 400.818828 451.8405)">Ott 2024</text>
     </g>
    </g>
    <g id="xtick_4">
     <g id="line2d_32">
      <g>
       <use xlink:href="#m130506242d" x="549.928242" y="438.948" style="stroke: #000000; stroke-width: 0.8"/>
      </g>
     </g>
     <g id="text_28">
      <text style="font: 8px 'Lato', sans-serif; text-anchor: middle" x="549.928242" y="451.8405" transform="rotate(-0 549.928242 451.8405)">Nov 2024</text>
     </g>
    </g>
    <g id="xtick_5">
     <g id="line2d_33">
      <g>
       <use xlink:href="#m130506242d" x="699.037656" y="438.948" style="stroke: #000000; stroke-width: 0.8"/>
      </g>
     </g>
     <g id="text_29">
      <text style="font: 8px 'Lato', sans-serif; text-anchor: middle" x="699.037656" y="451.8405" transform="rotate(-0 699.037656 451.8405)">Dic 2024</text>
     </g>
    </g>
   </g>
   <g id="matplotlib.axis_10">
    <g id="ytick_21">
     <g id="line2d_34">
      <path d="M 102.6 438.948 
L 738.72 438.948 
" clip-path="url(#pefa3ee4c54)" style="fill: none; stroke: #cccccc; stroke-width: 0.8; stroke-linecap: square"/>
     </g>
     <g id="line2d_35">
      <g>
       <use xlink:href="#m54f85dbd7e" x="102.6" y="438.948" style="stroke: #000000; stroke-width: 0.8"/>
      </g>
     </g>
     <g id="text_30">
      <text style="font: 8px 'Lato', sans-serif; text-anchor: end" x="95.6" y="441.89425" transform="rotate(-0 95.6 441.89425)">0</text>
     </g>
    </g>
    <g id="ytick_22">
     <g id="line2d_36">
      <path d="M 102.6 422.578862 
L 738.72 422.578862 
" clip-path="url(#pefa3ee4c54)" style="fill: none; stroke: #cccccc; stroke-width: 0.8; stroke-linecap: square"/>
     </g>
     <g id="line2d_37">
      <g>
       <use xlink:href="#m54f85dbd7e" x="102.6" y="422.578862" style="stroke: #000000; stroke-width: 0.8"/>
      </g>
     </g>
     <g id="text_31">
      <text style="font: 8px 'Lato', sans-serif; text-anchor: end" x="95.6" y="425.525112" transform="rotate(-0 95.6 425.525112)">2</text>
     </g>
    </g>
    <g id="ytick_23">
     <g id="line2d_38">
      <path d="M 102.6 406.209724 
L 738.72 406.209724 
" clip-path="url(#pefa3ee4c54)" style="fill: none; stroke: #cccccc; stroke-width: 0.8; stroke-linecap: square"/>
     </g>
     <g id="line2d_39">
      <g>
       <use xlink:href="#m54f85dbd7e" x="102.6" y="406.209724" style="stroke: #000000; stroke-width: 0.8"/>
      </g>
     </g>
     <g id="text_32">
      <text style="font: 8px 'Lato', sans-serif; text-anchor: end" x="95.6" y="409.155974" transform="rotate(-0 95.6 409.155974)">4</text>
     </g>
    </g>
    <g id="ytick_24">
     <g id="line2d_40">
      <path d="M 102.6 389.840586 
L 738.72 389.840586 
" clip-path="url(#pefa3ee4c54)" style="fill: none; stroke: #cccccc; stroke-width: 0.8; stroke-linecap: square"/>
     </g>
     <g id="line2d_41">
      <g>
       <use xlink:href="#m54f85dbd7e" x="102.6" y="389.840586" style="stroke: #000000; stroke-width: 0.8"/>
      </g>
     </g>
     <g id="text_33">
      <text style="font: 8px 'Lato', sans-serif; text-anchor: end" x="95.6" y="392.786836" transform="rotate(-0 95.6 392.786836)">6</text>
     </g>
    </g>
    <g id="ytick_25">
     <g id="line2d_42">
      <path d="M 102.6 373.471448 
L 738.72 373.471448 
" clip-path="url(#pefa3ee4c54)" style="fill: none; stroke: #cccccc; stroke-width: 0.8; stroke-linecap: square"/>
     </g>
     <g id="line2d_43">
      <g>
       <use xlink:href="#m54f85dbd7e" x="102.6" y="373.471448" style="stroke: #000000; stroke-width: 0.8"/>
      </g>
     </g>
     <g id="text_34">
      <text style="font: 8px 'Lato', sans-serif; text-anchor: end" x="95.6" y="376.417698" transform="rotate(-0 95.6 376.417698)">8</text>
     </g>
    </g>
   </g>
   <g id="line2d_44">
    <path d="M 208.419584 420.353956 
L 213.229565 416.162949 
L 222.849527 418.67383 
L 232.46949 419.437499 
L 237.279471 420.132878 
L 242.089452 420.509369 
L 246.899433 421.090551 
L 251.709414 421.901299 
L 256.519395 421.930798 
L 261.329376 421.56519 
L 266.139357 423.897813 
L 270.949338 424.703882 
L 275.759319 424.835545 
L 280.569301 429.567436 
L 285.379282 430.763431 
L 290.189263 430.115367 
L 294.999244 430.115367 
L 299.809225 431.137936 
L 304.619206 432.579167 
L 309.429187 433.227232 
L 314.239168 434.020398 
L 319.049149 434.020398 
L 323.85913 435.042968 
L 328.669112 436.484199 
L 333.479093 435.042968 
L 338.289074 435.042968 
L 343.099055 436.484199 
L 347.909036 435.042968 
L 357.528998 435.042968 
L 362.338979 434.020398 
L 367.14896 435.042968 
L 371.958941 434.020398 
L 376.768922 434.020398 
L 381.578904 436.484199 
L 386.388885 435.042968 
L 391.198866 435.042968 
L 396.008847 436.484199 
L 400.818828 436.484199 
L 405.628809 435.042968 
L 410.43879 432.579167 
L 415.248771 436.484199 
L 420.058752 436.484199 
L 424.868733 435.042968 
L 429.678715 436.484199 
L 448.918639 436.484199 
L 453.72862 438.948 
L 458.538601 436.484199 
L 463.348582 436.484199 
L 468.158563 435.042968 
L 472.968544 436.484199 
L 477.778526 436.484199 
L 482.588507 435.042968 
L 487.398488 436.484199 
L 492.208469 438.948 
L 497.01845 436.484199 
L 501.828431 438.948 
L 506.638412 436.484199 
L 511.448393 436.484199 
L 516.258374 438.948 
L 521.068355 436.484199 
L 540.30828 436.484199 
L 545.118261 438.948 
L 554.738223 438.948 
L 559.548204 436.484199 
L 564.358185 436.484199 
L 569.168166 438.948 
L 569.168166 438.948 
L 583.59811 438.948 
L 583.59811 438.948 
L 583.59811 436.484199 
L 583.59811 438.948 
L 593.218072 438.948 
L 593.218072 438.948 
L 593.218072 436.484199 
L 593.218072 438.948 
L 607.648015 438.948 
L 607.648015 438.948 
L 607.648015 436.484199 
L 607.648015 438.948 
L 622.077958 438.948 
L 622.077958 438.948 
L 622.077958 436.484199 
L 622.077958 438.948 
L 626.88794 436.484199 
L 626.88794 438.948 
L 626.88794 438.948 
L 650.937845 438.948 
L 650.937845 438.948 
L 650.937845 436.484199 
L 650.937845 438.948 
L 655.747826 438.948 
L 655.747826 438.948 
L 655.747826 436.484199 
L 655.747826 438.948 
L 670.177769 438.948 
L 670.177769 438.948 
L 674.98775 436.484199 
L 674.98775 438.948 
L 674.98775 438.948 
L 689.417694 438.948 
L 689.417694 438.948 
L 689.417694 436.484199 
L 689.417694 438.948 
L 699.037656 438.948 
L 699.037656 438.948 
L 699.037656 436.484199 
L 699.037656 438.948 
L 708.657618 438.948 
L 708.657618 438.948 
L 708.657618 436.484199 
L 708.657618 438.948 
L 713.467599 438.948 
L 713.467599 438.948 
" clip-path="url(#pefa3ee4c54)" style="fill: none; stroke: #1f77b4; stroke-width: 1.5; stroke-linecap: square"/>
   </g>
   <g id="patch_15">
    <path d="M 102.6 438.948 
L 738.72 438.948 
" style="fill: none; stroke: #000000; stroke-width: 0.8; stroke-linejoin: miter; stroke-linecap: square"/>
   </g>
   <g id="legend_5">
    <g id="patch_16">
     <path d="M 677.4275 391.136448 
L 733.12 391.136448 
Q 734.72 391.136448 734.72 389.536448 
L 734.72 379.071448 
Q 734.72 377.471448 733.12 377.471448 
L 677.4275 377.471448 
Q 675.8275 377.471448 675.8275 379.071448 
L 675.8275 389.536448 
Q 675.8275 391.136448 677.4275 391.136448 
z
" style="fill: #ffffff; opacity: 0.8; stroke: #cccccc; stroke-linejoin: miter"/>
    </g>
    <g id="line2d_45">
     <path d="M 679.0275 383.763948 
L 687.0275 383.763948 
L 695.0275 383.763948 
" style="fill: none; stroke: #1f77b4; stroke-width: 1.5; stroke-linecap: square"/>
    </g>
    <g id="text_35">
     <text style="font: 8px 'Lato', sans-serif; text-anchor: start" x="701.4275" y="386.563948" transform="rotate(-0 701.4275 386.563948)">Concord</text>
    </g>
   </g>
  </g>
 </g>
 <defs>
  <clipPath id="pd246157239">
   <rect x="102.6" y="59.184" width="636.12" height="65.476552"/>
  </clipPath>
  <clipPath id="pb87646d8e1">
   <rect x="102.6" y="137.755862" width="636.12" height="65.476552"/>
  </clipPath>
  <clipPath id="pdda15b9220">
   <rect x="102.6" y="216.327724" width="636.12" height="65.476552"/>
  </clipPath>
  <clipPath id="p64bd5d9514">
   <rect x="102.6" y="294.899586" width="636.12" height="65.476552"/>
  </clipPath>
  <clipPath id="pefa3ee4c54">
   <rect x="102.6" y="373.471448" width="636.12" height="65.476552"/>
  </clipPath>
 </defs>
</svg>
