<?xml version="1.0" encoding="utf-8" standalone="no"?>
<!DOCTYPE svg PUBLIC "-//W3C//DTD SVG 1.1//EN"
  "http://www.w3.org/Graphics/SVG/1.1/DTD/svg11.dtd">
<svg xmlns:xlink="http://www.w3.org/1999/xlink" width="720pt" height="144pt" viewBox="0 0 720 144" xmlns="http://www.w3.org/2000/svg" version="1.1">
 <metadata>
  <rdf:RDF xmlns:dc="http://purl.org/dc/elements/1.1/" xmlns:cc="http://creativecommons.org/ns#" xmlns:rdf="http://www.w3.org/1999/02/22-rdf-syntax-ns#">
   <cc:Work>
    <dc:type rdf:resource="http://purl.org/dc/dcmitype/StillImage"/>
    <dc:date>2024-12-07T15:46:54.884325</dc:date>
    <dc:format>image/svg+xml</dc:format>
    <dc:creator>
     <cc:Agent>
      <dc:title>Matplotlib v3.9.3, https://matplotlib.org/</dc:title>
     </cc:Agent>
    </dc:creator>
   </cc:Work>
  </rdf:RDF>
 </metadata>
 <defs>
  <style type="text/css">*{stroke-linejoin: round; stroke-linecap: butt}</style>
 </defs>
 <g id="figure_1">
  <g id="patch_1">
   <path d="M 0 144 
L 720 144 
L 720 0 
L 0 0 
z
" style="fill: #ffffff"/>
  </g>
  <g id="axes_1">
   <g id="patch_2">
    <path d="M 90 128.16 
L 648 128.16 
L 648 17.28 
L 90 17.28 
L 90 128.16 
z
" style="fill: none; opacity: 0"/>
   </g>
   <g id="PolyCollection_1">
    <defs>
     <path id="m972797766f" d="M 115.363636 -51.767644 
L 115.363636 -51.767644 
L 120.175076 -121.68 
L 124.986515 -90.626293 
L 129.797955 -70.532718 
L 134.609394 -65.218715 
L 139.420833 -60.901087 
L 144.232273 -53.760395 
L 147.119136 -51.767644 
L 144.232273 -51.767644 
L 139.420833 -51.767644 
L 134.609394 -51.767644 
L 129.797955 -51.767644 
L 124.986515 -51.767644 
L 120.175076 -51.767644 
L 115.363636 -51.767644 
z
" style="stroke: #0000ff"/>
    </defs>
    <g clip-path="url(#pce5656f0d1)">
     <use xlink:href="#m972797766f" x="0" y="144" style="fill: #0000ff; stroke: #0000ff"/>
    </g>
   </g>
   <g id="PolyCollection_2">
    <path d="M 115.363636 92.232356 
L 115.363636 92.232356 
L 115.363636 92.232356 
L 115.363636 92.232356 
z
" clip-path="url(#pce5656f0d1)" style="fill: #ff0000; stroke: #ff0000"/>
    <path d="M 147.119136 92.232356 
L 149.043712 93.560857 
L 153.855151 98.044547 
L 158.666591 103.192488 
L 163.47803 103.35855 
L 168.28947 101.199736 
L 173.100909 111.827743 
L 177.912348 114.152619 
L 182.723788 114.484745 
L 187.535227 120.961186 
L 192.346667 121.625437 
L 197.158106 121.293311 
L 201.969545 121.293311 
L 206.780985 121.791499 
L 211.592424 122.289687 
L 216.403863 122.45575 
L 221.215303 122.621812 
L 226.026742 122.621812 
L 230.838182 122.787875 
L 235.649621 122.953937 
L 240.46106 122.787875 
L 245.2725 122.787875 
L 250.083939 122.953937 
L 254.895378 122.787875 
L 259.706818 122.787875 
L 264.518257 122.787875 
L 269.329697 122.621812 
L 274.141136 122.787875 
L 278.952575 122.621812 
L 283.764015 122.621812 
L 288.575454 122.953937 
L 293.386894 122.787875 
L 298.198333 122.787875 
L 303.009772 122.953937 
L 307.821212 122.953937 
L 312.632651 122.787875 
L 317.44409 122.289687 
L 322.25553 122.953937 
L 327.066969 122.953937 
L 331.878409 122.787875 
L 336.689848 122.953937 
L 341.501287 122.953937 
L 346.312727 122.953937 
L 351.124166 122.953937 
L 355.935606 122.953937 
L 360.747045 123.12 
L 365.558484 122.953937 
L 370.369924 122.953937 
L 375.181363 122.787875 
L 379.992802 122.953937 
L 384.804242 122.953937 
L 389.615681 122.787875 
L 394.427121 122.953937 
L 399.23856 123.12 
L 404.049999 122.953937 
L 408.861439 123.12 
L 413.672878 122.953937 
L 418.484318 122.953937 
L 423.295757 123.12 
L 428.107196 122.953937 
L 432.918636 122.953937 
L 437.730075 122.953937 
L 442.541514 122.953937 
L 447.352954 122.953937 
L 452.164393 123.12 
L 456.975833 123.12 
L 461.787272 123.12 
L 466.598711 122.953937 
L 471.410151 122.953937 
L 476.22159 123.12 
L 476.422067 123.12 
L 476.622543 123.12 
L 476.82302 123.12 
L 477.023497 123.12 
L 477.223973 123.12 
L 477.42445 123.12 
L 477.624927 123.12 
L 477.825403 123.12 
L 478.02588 123.12 
L 478.226357 123.12 
L 478.426833 123.12 
L 478.62731 123.12 
L 478.827786 123.12 
L 479.028263 123.12 
L 479.22874 123.12 
L 479.429216 123.12 
L 479.629693 123.12 
L 479.83017 123.12 
L 480.030646 123.12 
L 480.231123 123.12 
L 480.4316 123.12 
L 480.632076 123.12 
L 480.832553 123.12 
L 481.03303 123.12 
L 481.233506 123.12 
L 481.433983 123.12 
L 481.634459 123.12 
L 481.834936 123.12 
L 482.035413 123.12 
L 482.235889 123.12 
L 482.436366 123.12 
L 482.636843 123.12 
L 482.837319 123.12 
L 483.037796 123.12 
L 483.238273 123.12 
L 483.438749 123.12 
L 483.639226 123.12 
L 483.839703 123.12 
L 484.040179 123.12 
L 484.240656 123.12 
L 484.441132 123.12 
L 484.641609 123.12 
L 484.842086 123.12 
L 485.042562 123.12 
L 485.243039 123.12 
L 485.443516 123.12 
L 485.643992 123.12 
L 485.844469 123.12 
L 486.044946 123.12 
L 486.245422 123.12 
L 486.445899 123.12 
L 486.646375 123.12 
L 486.846852 123.12 
L 487.047329 123.12 
L 487.247805 123.12 
L 487.448282 123.12 
L 487.648759 123.12 
L 487.849235 123.12 
L 488.049712 123.12 
L 488.250189 123.12 
L 488.450665 123.12 
L 488.651142 123.12 
L 488.851619 123.12 
L 489.052095 123.12 
L 489.252572 123.12 
L 489.453048 123.12 
L 489.653525 123.12 
L 489.854002 123.12 
L 490.054478 123.12 
L 490.254955 123.12 
L 490.455432 123.12 
L 490.655908 123.12 
L 490.856385 123.12 
L 491.056862 123.12 
L 491.257338 122.953937 
L 491.457815 123.12 
L 491.658292 123.12 
L 491.858768 123.12 
L 492.059245 123.12 
L 492.259721 123.12 
L 492.460198 123.12 
L 492.660675 123.12 
L 492.861151 123.12 
L 493.061628 123.12 
L 493.262105 123.12 
L 493.462581 123.12 
L 493.663058 123.12 
L 493.863535 123.12 
L 494.064011 123.12 
L 494.264488 123.12 
L 494.464964 123.12 
L 494.665441 123.12 
L 494.865918 123.12 
L 495.066394 123.12 
L 495.266871 123.12 
L 495.467348 123.12 
L 495.667824 123.12 
L 495.868301 123.12 
L 496.068778 123.12 
L 496.269254 123.12 
L 496.469731 123.12 
L 496.670208 123.12 
L 496.870684 123.12 
L 497.071161 123.12 
L 497.271637 123.12 
L 497.472114 123.12 
L 497.672591 123.12 
L 497.873067 123.12 
L 498.073544 123.12 
L 498.274021 123.12 
L 498.474497 123.12 
L 498.674974 123.12 
L 498.875451 123.12 
L 499.075927 123.12 
L 499.276404 123.12 
L 499.476881 123.12 
L 499.677357 123.12 
L 499.877834 123.12 
L 500.07831 123.12 
L 500.278787 123.12 
L 500.479264 123.12 
L 500.67974 123.12 
L 500.880217 123.12 
L 501.080694 123.12 
L 501.28117 123.12 
L 501.481647 123.12 
L 501.682124 123.12 
L 501.8826 123.12 
L 502.083077 123.12 
L 502.283553 123.12 
L 502.48403 123.12 
L 502.684507 123.12 
L 502.884983 123.12 
L 503.08546 123.12 
L 503.285937 123.12 
L 503.486413 122.953937 
L 503.68689 123.12 
L 503.887367 123.12 
L 504.087843 123.12 
L 504.28832 123.12 
L 504.488797 123.12 
L 504.689273 123.12 
L 504.88975 123.12 
L 505.090226 123.12 
L 505.290703 123.12 
L 505.49118 123.12 
L 505.691656 123.12 
L 505.892133 123.12 
L 506.09261 123.12 
L 506.293086 123.12 
L 506.493563 123.12 
L 506.69404 123.12 
L 506.894516 123.12 
L 507.094993 123.12 
L 507.29547 123.12 
L 507.495946 123.12 
L 507.696423 123.12 
L 507.896899 123.12 
L 508.097376 123.12 
L 508.297853 123.12 
L 508.498329 123.12 
L 508.698806 123.12 
L 508.899283 123.12 
L 509.099759 123.12 
L 509.300236 123.12 
L 509.500713 123.12 
L 509.701189 123.12 
L 509.901666 123.12 
L 510.102142 123.12 
L 510.302619 123.12 
L 510.503096 123.12 
L 510.703572 123.12 
L 510.904049 123.12 
L 511.104526 123.12 
L 511.305002 123.12 
L 511.505479 123.12 
L 511.705956 123.12 
L 511.906432 123.12 
L 512.106909 123.12 
L 512.307386 123.12 
L 512.507862 123.12 
L 512.708339 123.12 
L 512.908815 123.12 
L 513.109292 123.12 
L 513.309769 123.12 
L 513.510245 123.12 
L 513.710722 123.12 
L 513.911199 123.12 
L 514.111675 123.12 
L 514.312152 123.12 
L 514.512629 123.12 
L 514.713105 123.12 
L 514.913582 123.12 
L 515.114059 123.12 
L 515.314535 122.953937 
L 515.515012 122.953937 
L 515.715488 122.953937 
L 515.915965 122.953937 
L 516.116442 122.953937 
L 516.316918 122.953937 
L 516.517395 122.953937 
L 516.717872 122.953937 
L 516.918348 122.953937 
L 517.118825 122.953937 
L 517.319302 122.953937 
L 517.519778 122.953937 
L 517.720255 122.953937 
L 517.920731 122.953937 
L 518.121208 122.953937 
L 518.321685 122.953937 
L 518.522161 123.12 
L 518.722638 123.12 
L 518.923115 122.953937 
L 519.123591 123.12 
L 519.324068 123.12 
L 519.524545 123.12 
L 519.725021 123.12 
L 519.925498 123.12 
L 520.125975 123.12 
L 520.326451 123.12 
L 520.526928 123.12 
L 520.727404 123.12 
L 520.927881 123.12 
L 521.128358 123.12 
L 521.328834 123.12 
L 521.529311 123.12 
L 521.729788 123.12 
L 521.930264 123.12 
L 522.130741 123.12 
L 522.331218 123.12 
L 522.531694 123.12 
L 522.732171 123.12 
L 522.932648 123.12 
L 523.133124 123.12 
L 523.333601 123.12 
L 523.534077 123.12 
L 523.734554 123.12 
L 523.935031 123.12 
L 524.135507 123.12 
L 524.335984 123.12 
L 524.536461 123.12 
L 524.736937 123.12 
L 524.937414 123.12 
L 525.137891 123.12 
L 525.338367 123.12 
L 525.538844 123.12 
L 525.73932 123.12 
L 525.939797 123.12 
L 526.140274 123.12 
L 526.34075 123.12 
L 526.541227 123.12 
L 526.741704 123.12 
L 526.94218 123.12 
L 527.142657 123.12 
L 527.343134 123.12 
L 527.54361 123.12 
L 527.744087 123.12 
L 527.944564 123.12 
L 528.14504 123.12 
L 528.345517 123.12 
L 528.545993 123.12 
L 528.74647 123.12 
L 528.946947 123.12 
L 529.147423 123.12 
L 529.3479 123.12 
L 529.548377 122.953937 
L 529.748853 123.12 
L 529.94933 123.12 
L 530.149807 123.12 
L 530.350283 123.12 
L 530.55076 123.12 
L 530.751237 123.12 
L 530.951713 123.12 
L 531.15219 123.12 
L 531.352666 123.12 
L 531.553143 123.12 
L 531.75362 123.12 
L 531.954096 123.12 
L 532.154573 123.12 
L 532.35505 123.12 
L 532.555526 123.12 
L 532.756003 123.12 
L 532.95648 123.12 
L 533.156956 123.12 
L 533.357433 123.12 
L 533.557909 123.12 
L 533.758386 123.12 
L 533.958863 122.953937 
L 534.159339 123.12 
L 534.359816 123.12 
L 534.560293 123.12 
L 534.760769 123.12 
L 534.961246 123.12 
L 535.161723 123.12 
L 535.362199 123.12 
L 535.562676 123.12 
L 535.763153 123.12 
L 535.963629 123.12 
L 536.164106 123.12 
L 536.364582 123.12 
L 536.565059 123.12 
L 536.765536 123.12 
L 536.966012 123.12 
L 537.166489 123.12 
L 537.366966 123.12 
L 537.567442 123.12 
L 537.767919 123.12 
L 537.968396 123.12 
L 538.168872 123.12 
L 538.369349 123.12 
L 538.569826 123.12 
L 538.770302 123.12 
L 538.970779 123.12 
L 539.171255 123.12 
L 539.371732 123.12 
L 539.572209 123.12 
L 539.772685 123.12 
L 539.973162 123.12 
L 540.173639 123.12 
L 540.374115 123.12 
L 540.574592 123.12 
L 540.775069 123.12 
L 540.975545 123.12 
L 541.176022 123.12 
L 541.376498 123.12 
L 541.576975 123.12 
L 541.777452 123.12 
L 541.977928 123.12 
L 542.178405 123.12 
L 542.378882 123.12 
L 542.579358 123.12 
L 542.779835 123.12 
L 542.980312 123.12 
L 543.180788 123.12 
L 543.381265 123.12 
L 543.581742 123.12 
L 543.782218 123.12 
L 543.982695 123.12 
L 544.183171 123.12 
L 544.383648 123.12 
L 544.584125 123.12 
L 544.784601 123.12 
L 544.985078 123.12 
L 545.185555 123.12 
L 545.386031 123.12 
L 545.586508 123.12 
L 545.786985 123.12 
L 545.987461 123.12 
L 546.187938 123.12 
L 546.388415 123.12 
L 546.588891 123.12 
L 546.789368 123.12 
L 546.989844 123.12 
L 547.190321 123.12 
L 547.390798 123.12 
L 547.591274 123.12 
L 547.791751 123.12 
L 547.992228 123.12 
L 548.192704 123.12 
L 548.393181 123.12 
L 548.593658 123.12 
L 548.794134 123.12 
L 548.994611 123.12 
L 549.195087 123.12 
L 549.395564 123.12 
L 549.596041 123.12 
L 549.796517 123.12 
L 549.996994 123.12 
L 550.197471 123.12 
L 550.397947 123.12 
L 550.598424 123.12 
L 550.798901 123.12 
L 550.999377 123.12 
L 551.199854 123.12 
L 551.400331 123.12 
L 551.600807 123.12 
L 551.801284 123.12 
L 552.00176 123.12 
L 552.202237 123.12 
L 552.402714 123.12 
L 552.60319 123.12 
L 552.803667 123.12 
L 553.004144 123.12 
L 553.20462 123.12 
L 553.405097 123.12 
L 553.605574 123.12 
L 553.80605 123.12 
L 554.006527 123.12 
L 554.207004 123.12 
L 554.40748 123.12 
L 554.607957 123.12 
L 554.808433 123.12 
L 555.00891 123.12 
L 555.209387 123.12 
L 555.409863 123.12 
L 555.61034 123.12 
L 555.810817 123.12 
L 556.011293 123.12 
L 556.21177 123.12 
L 556.412247 123.12 
L 556.612723 123.12 
L 556.8132 123.12 
L 557.013676 123.12 
L 557.214153 123.12 
L 557.41463 123.12 
L 557.615106 123.12 
L 557.815583 123.12 
L 558.01606 123.12 
L 558.216536 123.12 
L 558.417013 123.12 
L 558.61749 123.12 
L 558.817966 123.12 
L 559.018443 123.12 
L 559.21892 123.12 
L 559.419396 123.12 
L 559.619873 123.12 
L 559.820349 122.953937 
L 560.020826 123.12 
L 560.221303 123.12 
L 560.421779 123.12 
L 560.622256 123.12 
L 560.822733 123.12 
L 561.023209 123.12 
L 561.223686 123.12 
L 561.424163 123.12 
L 561.624639 123.12 
L 561.825116 123.12 
L 562.025593 123.12 
L 562.226069 123.12 
L 562.426546 123.12 
L 562.627022 123.12 
L 562.827499 123.12 
L 563.027976 123.12 
L 563.228452 123.12 
L 563.428929 123.12 
L 563.629406 123.12 
L 563.829882 123.12 
L 564.030359 123.12 
L 564.230836 123.12 
L 564.431312 123.12 
L 564.631789 123.12 
L 564.832265 123.12 
L 565.032742 123.12 
L 565.233219 123.12 
L 565.433695 123.12 
L 565.634172 123.12 
L 565.834649 122.953937 
L 566.035125 123.12 
L 566.235602 123.12 
L 566.436079 123.12 
L 566.636555 123.12 
L 566.837032 123.12 
L 567.037509 123.12 
L 567.237985 123.12 
L 567.438462 123.12 
L 567.638938 123.12 
L 567.839415 123.12 
L 568.039892 123.12 
L 568.240368 123.12 
L 568.440845 123.12 
L 568.641322 123.12 
L 568.841798 123.12 
L 569.042275 123.12 
L 569.242752 123.12 
L 569.443228 123.12 
L 569.643705 123.12 
L 569.844182 123.12 
L 570.044658 123.12 
L 570.245135 123.12 
L 570.445611 123.12 
L 570.646088 123.12 
L 570.846565 123.12 
L 571.047041 123.12 
L 571.247518 123.12 
L 571.447995 123.12 
L 571.648471 123.12 
L 571.848948 123.12 
L 572.049425 123.12 
L 572.249901 123.12 
L 572.450378 123.12 
L 572.650854 123.12 
L 572.851331 123.12 
L 573.051808 123.12 
L 573.252284 123.12 
L 573.452761 123.12 
L 573.653238 123.12 
L 573.853714 123.12 
L 574.054191 123.12 
L 574.254668 123.12 
L 574.455144 123.12 
L 574.655621 123.12 
L 574.856098 123.12 
L 575.056574 123.12 
L 575.257051 123.12 
L 575.457527 123.12 
L 575.658004 123.12 
L 575.858481 123.12 
L 576.058957 123.12 
L 576.259434 123.12 
L 576.459911 123.12 
L 576.660387 123.12 
L 576.860864 123.12 
L 577.061341 123.12 
L 577.261817 123.12 
L 577.462294 123.12 
L 577.662771 123.12 
L 577.863247 123.12 
L 578.063724 123.12 
L 578.2642 123.12 
L 578.464677 123.12 
L 578.665154 123.12 
L 578.86563 123.12 
L 579.066107 123.12 
L 579.266584 123.12 
L 579.46706 123.12 
L 579.667537 123.12 
L 579.868014 123.12 
L 580.06849 123.12 
L 580.268967 123.12 
L 580.469443 123.12 
L 580.66992 123.12 
L 580.870397 123.12 
L 581.070873 123.12 
L 581.27135 123.12 
L 581.471827 123.12 
L 581.672303 123.12 
L 581.87278 123.12 
L 582.073257 122.953937 
L 582.273733 123.12 
L 582.47421 123.12 
L 582.674687 123.12 
L 582.875163 123.12 
L 583.07564 123.12 
L 583.276116 123.12 
L 583.476593 123.12 
L 583.67707 123.12 
L 583.877546 123.12 
L 584.078023 123.12 
L 584.2785 123.12 
L 584.478976 123.12 
L 584.679453 123.12 
L 584.87993 123.12 
L 585.080406 123.12 
L 585.280883 123.12 
L 585.48136 123.12 
L 585.681836 123.12 
L 585.882313 123.12 
L 586.082789 123.12 
L 586.283266 123.12 
L 586.483743 123.12 
L 586.684219 123.12 
L 586.884696 123.12 
L 587.085173 123.12 
L 587.285649 123.12 
L 587.486126 123.12 
L 587.686603 123.12 
L 587.887079 123.12 
L 588.087556 123.12 
L 588.288032 123.12 
L 588.488509 123.12 
L 588.688986 123.12 
L 588.889462 123.12 
L 588.989701 123.12 
L 589.023113 123.12 
L 589.056526 123.12 
L 589.089939 123.12 
L 589.123352 123.12 
L 589.156765 123.12 
L 589.190177 123.12 
L 589.22359 123.12 
L 589.257003 123.12 
L 589.290416 123.12 
L 589.323828 123.12 
L 589.357241 123.12 
L 589.390654 123.12 
L 589.424067 123.12 
L 589.45748 123.12 
L 589.490892 123.12 
L 589.524305 123.12 
L 589.557718 123.12 
L 589.591131 123.12 
L 589.624543 123.12 
L 589.657956 123.12 
L 589.691369 123.12 
L 589.724782 123.12 
L 589.758195 123.12 
L 589.791607 123.12 
L 589.82502 123.12 
L 589.858433 123.12 
L 589.891846 123.12 
L 589.925258 123.12 
L 589.958671 123.12 
L 589.992084 123.12 
L 590.025497 123.12 
L 590.058909 123.12 
L 590.092322 123.12 
L 590.125735 123.12 
L 590.159148 123.12 
L 590.192561 123.12 
L 590.225973 123.12 
L 590.259386 123.12 
L 590.292799 123.12 
L 590.326212 123.12 
L 590.359624 123.12 
L 590.393037 123.12 
L 590.42645 123.12 
L 590.459863 123.12 
L 590.493276 123.12 
L 590.526688 123.12 
L 590.560101 123.12 
L 590.593514 123.12 
L 590.626927 123.12 
L 590.660339 123.12 
L 590.693752 123.12 
L 590.727165 123.12 
L 590.760578 123.12 
L 590.79399 123.12 
L 590.827403 123.12 
L 590.860816 123.12 
L 590.894229 123.12 
L 590.927642 123.12 
L 590.961054 123.12 
L 590.994467 123.12 
L 591.02788 123.12 
L 591.061293 123.12 
L 591.094705 123.12 
L 591.128118 123.12 
L 591.161531 123.12 
L 591.194944 123.12 
L 591.228357 123.12 
L 591.261769 123.12 
L 591.295182 123.12 
L 591.328595 123.12 
L 591.362008 123.12 
L 591.39542 123.12 
L 591.428833 123.12 
L 591.462246 123.12 
L 591.495659 123.12 
L 591.529072 123.12 
L 591.562484 123.12 
L 591.595897 123.12 
L 591.62931 123.12 
L 591.662723 123.12 
L 591.696135 123.12 
L 591.729548 123.12 
L 591.762961 123.12 
L 591.796374 123.12 
L 591.829786 123.12 
L 591.863199 123.12 
L 591.896612 123.12 
L 591.930025 123.12 
L 591.963438 123.12 
L 591.99685 123.12 
L 592.030263 123.12 
L 592.063676 123.12 
L 592.097089 123.12 
L 592.130501 123.12 
L 592.163914 123.12 
L 592.197327 123.12 
L 592.23074 123.12 
L 592.264153 123.12 
L 592.297565 123.12 
L 592.330978 123.12 
L 592.364391 123.12 
L 592.397804 123.12 
L 592.431216 123.12 
L 592.464629 123.12 
L 592.498042 123.12 
L 592.531455 123.12 
L 592.564867 123.12 
L 592.59828 123.12 
L 592.631693 123.12 
L 592.665106 123.12 
L 592.698519 123.12 
L 592.731931 123.12 
L 592.765344 123.12 
L 592.798757 123.12 
L 592.83217 123.12 
L 592.865582 123.12 
L 592.898995 123.12 
L 592.932408 123.12 
L 592.965821 123.12 
L 592.999234 123.12 
L 593.032646 123.12 
L 593.066059 123.12 
L 593.099472 123.12 
L 593.132885 123.12 
L 593.166297 123.12 
L 593.19971 123.12 
L 593.233123 123.12 
L 593.266536 123.12 
L 593.299949 123.12 
L 593.333361 123.12 
L 593.366774 123.12 
L 593.400187 123.12 
L 593.4336 123.12 
L 593.467012 123.12 
L 593.500425 123.12 
L 593.533838 123.12 
L 593.567251 123.12 
L 593.600663 123.12 
L 593.634076 123.12 
L 593.667489 123.12 
L 593.700902 123.12 
L 593.734315 123.12 
L 593.767727 123.12 
L 593.80114 123.12 
L 593.834553 123.12 
L 593.867966 123.12 
L 593.901378 123.12 
L 593.934791 123.12 
L 593.968204 123.12 
L 594.001617 123.12 
L 594.03503 123.12 
L 594.068442 123.12 
L 594.101855 123.12 
L 594.135268 123.12 
L 594.168681 123.12 
L 594.202093 123.12 
L 594.235506 123.12 
L 594.268919 123.12 
L 594.302332 123.12 
L 594.335744 123.12 
L 594.369157 123.12 
L 594.40257 123.12 
L 594.435983 123.12 
L 594.469396 123.12 
L 594.502808 123.12 
L 594.536221 123.12 
L 594.569634 123.12 
L 594.603047 123.12 
L 594.636459 123.12 
L 594.669872 123.12 
L 594.703285 123.12 
L 594.736698 123.12 
L 594.770111 123.12 
L 594.803523 123.12 
L 594.836936 123.12 
L 594.870349 123.12 
L 594.903762 123.12 
L 594.937174 123.12 
L 594.970587 123.12 
L 595.004 123.12 
L 595.037413 123.12 
L 595.070825 123.12 
L 595.104238 123.12 
L 595.137651 123.12 
L 595.171064 123.12 
L 595.204477 123.12 
L 595.237889 123.12 
L 595.271302 123.12 
L 595.304715 123.12 
L 595.338128 123.12 
L 595.37154 123.12 
L 595.404953 123.12 
L 595.438366 123.12 
L 595.471779 123.12 
L 595.505192 123.12 
L 595.538604 123.12 
L 595.572017 123.12 
L 595.60543 123.12 
L 595.638843 123.12 
L 595.672255 123.12 
L 595.705668 123.12 
L 595.739081 123.12 
L 595.772494 123.12 
L 595.805907 123.12 
L 595.839319 123.12 
L 595.872732 123.12 
L 595.906145 123.12 
L 595.939558 123.12 
L 595.97297 123.12 
L 596.006383 123.12 
L 596.039796 123.12 
L 596.073209 123.12 
L 596.106621 123.12 
L 596.140034 123.12 
L 596.173447 123.12 
L 596.20686 123.12 
L 596.240273 123.12 
L 596.273685 123.12 
L 596.307098 123.12 
L 596.340511 123.12 
L 596.373924 123.12 
L 596.407336 123.12 
L 596.440749 123.12 
L 596.474162 123.12 
L 596.507575 123.12 
L 596.540988 123.12 
L 596.5744 123.12 
L 596.607813 123.12 
L 596.641226 123.12 
L 596.674639 123.12 
L 596.708051 123.12 
L 596.741464 123.12 
L 596.774877 123.12 
L 596.80829 123.12 
L 596.841702 123.12 
L 596.875115 123.12 
L 596.908528 123.12 
L 596.941941 123.12 
L 596.975354 123.12 
L 597.008766 123.12 
L 597.042179 123.12 
L 597.075592 123.12 
L 597.109005 123.12 
L 597.142417 123.12 
L 597.17583 123.12 
L 597.209243 123.12 
L 597.242656 123.12 
L 597.276069 123.12 
L 597.309481 123.12 
L 597.342894 123.12 
L 597.376307 123.12 
L 597.40972 123.12 
L 597.443132 123.12 
L 597.476545 123.12 
L 597.509958 123.12 
L 597.543371 123.12 
L 597.576784 123.12 
L 597.610196 123.12 
L 597.643609 123.12 
L 597.677022 123.12 
L 597.710435 123.12 
L 597.743847 123.12 
L 597.77726 123.12 
L 597.810673 123.12 
L 597.844086 123.12 
L 597.877498 123.12 
L 597.910911 123.12 
L 597.944324 123.12 
L 597.977737 123.12 
L 598.01115 123.12 
L 598.044562 123.12 
L 598.077975 123.12 
L 598.111388 123.12 
L 598.144801 123.12 
L 598.178213 123.12 
L 598.211626 123.12 
L 598.245039 123.12 
L 598.278452 123.12 
L 598.311865 123.12 
L 598.345277 123.12 
L 598.37869 123.12 
L 598.412103 123.12 
L 598.445516 123.12 
L 598.478928 123.12 
L 598.512341 123.12 
L 598.545754 123.12 
L 598.579167 123.12 
L 598.612579 123.12 
L 598.645992 123.12 
L 598.679405 123.12 
L 598.712818 123.12 
L 598.746231 123.12 
L 598.779643 123.12 
L 598.813056 123.12 
L 598.846469 123.12 
L 598.879882 123.12 
L 598.913294 123.12 
L 598.946707 123.12 
L 598.98012 123.12 
L 599.013533 122.953937 
L 599.046946 123.12 
L 599.080358 123.12 
L 599.113771 123.12 
L 599.147184 123.12 
L 599.180597 123.12 
L 599.214009 123.12 
L 599.247422 123.12 
L 599.280835 123.12 
L 599.314248 123.12 
L 599.347661 123.12 
L 599.381073 122.953937 
L 599.414486 122.953937 
L 599.447899 122.953937 
L 599.481312 122.953937 
L 599.514724 122.953937 
L 599.548137 122.953937 
L 599.58155 122.953937 
L 599.614963 123.12 
L 599.648375 123.12 
L 599.681788 123.12 
L 599.715201 123.12 
L 599.748614 123.12 
L 599.782027 123.12 
L 599.815439 123.12 
L 599.848852 123.12 
L 599.882265 123.12 
L 599.915678 123.12 
L 599.94909 123.12 
L 599.982503 123.12 
L 600.015916 123.12 
L 600.049329 123.12 
L 600.082742 123.12 
L 600.116154 123.12 
L 600.149567 123.12 
L 600.18298 123.12 
L 600.216393 123.12 
L 600.249805 123.12 
L 600.283218 123.12 
L 600.316631 123.12 
L 600.350044 123.12 
L 600.383456 123.12 
L 600.416869 123.12 
L 600.450282 123.12 
L 600.483695 123.12 
L 600.517108 123.12 
L 600.55052 123.12 
L 600.583933 123.12 
L 600.617346 123.12 
L 600.650759 123.12 
L 600.684171 123.12 
L 600.717584 123.12 
L 600.750997 123.12 
L 600.78441 123.12 
L 600.817823 123.12 
L 600.851235 123.12 
L 600.884648 123.12 
L 600.918061 123.12 
L 600.951474 123.12 
L 600.984886 123.12 
L 601.018299 123.12 
L 601.051712 123.12 
L 601.085125 123.12 
L 601.118538 123.12 
L 601.15195 123.12 
L 601.185363 123.12 
L 601.218776 123.12 
L 601.252189 123.12 
L 601.285601 123.12 
L 601.319014 123.12 
L 601.352427 123.12 
L 601.38584 123.12 
L 601.419252 123.12 
L 601.452665 123.12 
L 601.486078 123.12 
L 601.519491 123.12 
L 601.552904 123.12 
L 601.586316 123.12 
L 601.619729 123.12 
L 601.653142 123.12 
L 601.686555 123.12 
L 601.719967 123.12 
L 601.75338 123.12 
L 601.786793 123.12 
L 601.820206 123.12 
L 601.853619 123.12 
L 601.887031 123.12 
L 601.920444 123.12 
L 601.953857 123.12 
L 601.98727 123.12 
L 602.020682 123.12 
L 602.054095 123.12 
L 602.087508 123.12 
L 602.120921 123.12 
L 602.154333 123.12 
L 602.187746 123.12 
L 602.221159 123.12 
L 602.254572 123.12 
L 602.287985 123.12 
L 602.321397 123.12 
L 602.35481 123.12 
L 602.388223 123.12 
L 602.421636 123.12 
L 602.455048 123.12 
L 602.488461 123.12 
L 602.521874 123.12 
L 602.555287 123.12 
L 602.5887 123.12 
L 602.622112 123.12 
L 602.655525 123.12 
L 602.688938 123.12 
L 602.722351 123.12 
L 602.755763 123.12 
L 602.789176 123.12 
L 602.822589 123.12 
L 602.856002 123.12 
L 602.889414 123.12 
L 602.922827 123.12 
L 602.95624 123.12 
L 602.989653 123.12 
L 603.023066 123.12 
L 603.056478 123.12 
L 603.089891 123.12 
L 603.123304 123.12 
L 603.156717 123.12 
L 603.190129 123.12 
L 603.223542 123.12 
L 603.256955 123.12 
L 603.290368 123.12 
L 603.323781 123.12 
L 603.357193 123.12 
L 603.390606 123.12 
L 603.424019 123.12 
L 603.457432 123.12 
L 603.490844 123.12 
L 603.524257 123.12 
L 603.55767 123.12 
L 603.591083 123.12 
L 603.624496 123.12 
L 603.657908 123.12 
L 603.691321 123.12 
L 603.724734 123.12 
L 603.758147 123.12 
L 603.791559 123.12 
L 603.824972 123.12 
L 603.858385 123.12 
L 603.891798 123.12 
L 603.92521 123.12 
L 603.958623 123.12 
L 603.992036 123.12 
L 604.025449 123.12 
L 604.058862 123.12 
L 604.092274 123.12 
L 604.125687 123.12 
L 604.1591 123.12 
L 604.192513 123.12 
L 604.225925 123.12 
L 604.259338 123.12 
L 604.292751 123.12 
L 604.326164 123.12 
L 604.359577 123.12 
L 604.392989 123.12 
L 604.426402 123.12 
L 604.459815 123.12 
L 604.493228 123.12 
L 604.52664 123.12 
L 604.560053 123.12 
L 604.593466 123.12 
L 604.626879 123.12 
L 604.660291 123.12 
L 604.693704 123.12 
L 604.727117 123.12 
L 604.76053 123.12 
L 604.793943 123.12 
L 604.827355 123.12 
L 604.860768 123.12 
L 604.894181 123.12 
L 604.927594 123.12 
L 604.961006 123.12 
L 604.994419 123.12 
L 605.027832 123.12 
L 605.061245 123.12 
L 605.094658 123.12 
L 605.12807 123.12 
L 605.161483 123.12 
L 605.194896 123.12 
L 605.228309 123.12 
L 605.261721 123.12 
L 605.295134 123.12 
L 605.328547 123.12 
L 605.36196 123.12 
L 605.395373 123.12 
L 605.428785 123.12 
L 605.462198 123.12 
L 605.495611 123.12 
L 605.529024 123.12 
L 605.562436 123.12 
L 605.595849 123.12 
L 605.629262 123.12 
L 605.662675 123.12 
L 605.696087 123.12 
L 605.7295 123.12 
L 605.762913 123.12 
L 605.796326 123.12 
L 605.829739 123.12 
L 605.863151 123.12 
L 605.896564 123.12 
L 605.929977 123.12 
L 605.96339 123.12 
L 605.996802 123.12 
L 606.030215 123.12 
L 606.063628 123.12 
L 606.097041 123.12 
L 606.130454 123.12 
L 606.163866 123.12 
L 606.197279 123.12 
L 606.230692 123.12 
L 606.264105 123.12 
L 606.297517 123.12 
L 606.33093 123.12 
L 606.364343 123.12 
L 606.397756 123.12 
L 606.431168 123.12 
L 606.464581 123.12 
L 606.497994 122.953937 
L 606.531407 123.12 
L 606.56482 123.12 
L 606.598232 123.12 
L 606.631645 123.12 
L 606.665058 123.12 
L 606.698471 123.12 
L 606.731883 123.12 
L 606.765296 123.12 
L 606.798709 123.12 
L 606.832122 123.12 
L 606.865535 123.12 
L 606.898947 123.12 
L 606.93236 123.12 
L 606.965773 123.12 
L 606.999186 123.12 
L 607.032598 123.12 
L 607.066011 123.12 
L 607.099424 123.12 
L 607.132837 123.12 
L 607.16625 123.12 
L 607.199662 123.12 
L 607.233075 123.12 
L 607.266488 123.12 
L 607.299901 123.12 
L 607.333313 123.12 
L 607.366726 123.12 
L 607.400139 123.12 
L 607.433552 123.12 
L 607.466964 123.12 
L 607.500377 123.12 
L 607.53379 123.12 
L 607.567203 123.12 
L 607.600616 123.12 
L 607.634028 123.12 
L 607.667441 123.12 
L 607.700854 123.12 
L 607.734267 123.12 
L 607.767679 123.12 
L 607.801092 123.12 
L 607.834505 123.12 
L 607.867918 123.12 
L 607.901331 123.12 
L 607.934743 123.12 
L 607.968156 123.12 
L 608.001569 123.12 
L 608.034982 123.12 
L 608.068394 123.12 
L 608.101807 123.12 
L 608.13522 123.12 
L 608.168633 123.12 
L 608.202045 123.12 
L 608.235458 123.12 
L 608.268871 123.12 
L 608.302284 123.12 
L 608.335697 123.12 
L 608.369109 123.12 
L 608.402522 123.12 
L 608.435935 123.12 
L 608.469348 123.12 
L 608.50276 123.12 
L 608.536173 123.12 
L 608.569586 123.12 
L 608.602999 123.12 
L 608.636412 123.12 
L 608.669824 123.12 
L 608.703237 123.12 
L 608.73665 123.12 
L 608.770063 123.12 
L 608.803475 123.12 
L 608.836888 123.12 
L 608.870301 123.12 
L 608.903714 123.12 
L 608.937127 123.12 
L 608.970539 123.12 
L 609.003952 123.12 
L 609.037365 123.12 
L 609.070778 123.12 
L 609.10419 123.12 
L 609.137603 123.12 
L 609.171016 123.12 
L 609.204429 123.12 
L 609.237841 123.12 
L 609.271254 123.12 
L 609.304667 123.12 
L 609.33808 123.12 
L 609.371493 123.12 
L 609.404905 123.12 
L 609.438318 123.12 
L 609.471731 123.12 
L 609.505144 123.12 
L 609.538556 123.12 
L 609.571969 123.12 
L 609.605382 123.12 
L 609.638795 123.12 
L 609.672208 123.12 
L 609.70562 123.12 
L 609.739033 123.12 
L 609.772446 123.12 
L 609.805859 123.12 
L 609.839271 123.12 
L 609.872684 123.12 
L 609.906097 123.12 
L 609.93951 123.12 
L 609.972922 123.12 
L 610.006335 123.12 
L 610.039748 123.12 
L 610.073161 123.12 
L 610.106574 123.12 
L 610.139986 123.12 
L 610.173399 123.12 
L 610.206812 123.12 
L 610.240225 123.12 
L 610.273637 123.12 
L 610.30705 123.12 
L 610.340463 123.12 
L 610.373876 123.12 
L 610.407289 123.12 
L 610.440701 123.12 
L 610.474114 123.12 
L 610.507527 123.12 
L 610.54094 123.12 
L 610.574352 123.12 
L 610.607765 123.12 
L 610.641178 123.12 
L 610.674591 123.12 
L 610.708003 123.12 
L 610.741416 123.12 
L 610.774829 123.12 
L 610.808242 123.12 
L 610.841655 123.12 
L 610.875067 123.12 
L 610.90848 123.12 
L 610.941893 123.12 
L 610.975306 123.12 
L 611.008718 123.12 
L 611.042131 123.12 
L 611.075544 123.12 
L 611.108957 123.12 
L 611.14237 123.12 
L 611.175782 123.12 
L 611.209195 123.12 
L 611.242608 123.12 
L 611.276021 123.12 
L 611.309433 123.12 
L 611.342846 123.12 
L 611.376259 123.12 
L 611.409672 123.12 
L 611.443085 123.12 
L 611.476497 123.12 
L 611.50991 123.12 
L 611.543323 123.12 
L 611.576736 123.12 
L 611.610148 123.12 
L 611.643561 123.12 
L 611.676974 123.12 
L 611.710387 123.12 
L 611.743799 123.12 
L 611.777212 123.12 
L 611.810625 123.12 
L 611.844038 123.12 
L 611.877451 123.12 
L 611.910863 123.12 
L 611.944276 123.12 
L 611.977689 123.12 
L 612.011102 123.12 
L 612.044514 123.12 
L 612.077927 123.12 
L 612.11134 123.12 
L 612.144753 123.12 
L 612.178166 123.12 
L 612.211578 123.12 
L 612.244991 123.12 
L 612.278404 123.12 
L 612.311817 123.12 
L 612.345229 123.12 
L 612.378642 123.12 
L 612.412055 123.12 
L 612.445468 123.12 
L 612.47888 123.12 
L 612.512293 123.12 
L 612.545706 123.12 
L 612.579119 123.12 
L 612.612532 123.12 
L 612.645944 123.12 
L 612.679357 123.12 
L 612.71277 123.12 
L 612.746183 123.12 
L 612.779595 123.12 
L 612.813008 123.12 
L 612.846421 123.12 
L 612.879834 123.12 
L 612.913247 123.12 
L 612.946659 123.12 
L 612.980072 123.12 
L 613.013485 123.12 
L 613.046898 123.12 
L 613.08031 123.12 
L 613.113723 123.12 
L 613.147136 123.12 
L 613.180549 123.12 
L 613.213962 123.12 
L 613.247374 123.12 
L 613.280787 123.12 
L 613.3142 123.12 
L 613.347613 123.12 
L 613.381025 123.12 
L 613.414438 123.12 
L 613.447851 123.12 
L 613.481264 123.12 
L 613.514676 123.12 
L 613.548089 123.12 
L 613.581502 123.12 
L 613.614915 123.12 
L 613.648328 123.12 
L 613.68174 123.12 
L 613.715153 123.12 
L 613.748566 123.12 
L 613.781979 123.12 
L 613.815391 123.12 
L 613.848804 123.12 
L 613.882217 123.12 
L 613.91563 123.12 
L 613.949043 123.12 
L 613.982455 123.12 
L 614.015868 123.12 
L 614.049281 123.12 
L 614.082694 123.12 
L 614.116106 123.12 
L 614.149519 123.12 
L 614.182932 123.12 
L 614.216345 123.12 
L 614.249757 123.12 
L 614.28317 123.12 
L 614.316583 123.12 
L 614.349996 123.12 
L 614.383409 123.12 
L 614.416821 123.12 
L 614.450234 123.12 
L 614.483647 123.12 
L 614.51706 123.12 
L 614.550472 123.12 
L 614.583885 123.12 
L 614.617298 123.12 
L 614.650711 123.12 
L 614.684124 123.12 
L 614.717536 123.12 
L 614.750949 123.12 
L 614.784362 123.12 
L 614.817775 123.12 
L 614.851187 123.12 
L 614.8846 123.12 
L 614.918013 123.12 
L 614.951426 123.12 
L 614.984839 123.12 
L 615.018251 123.12 
L 615.051664 123.12 
L 615.085077 123.12 
L 615.11849 123.12 
L 615.151902 123.12 
L 615.185315 123.12 
L 615.218728 123.12 
L 615.252141 123.12 
L 615.285553 123.12 
L 615.318966 123.12 
L 615.352379 123.12 
L 615.385792 123.12 
L 615.419205 123.12 
L 615.452617 123.12 
L 615.48603 123.12 
L 615.519443 123.12 
L 615.552856 123.12 
L 615.586268 123.12 
L 615.619681 123.12 
L 615.653094 123.12 
L 615.686507 123.12 
L 615.71992 123.12 
L 615.753332 123.12 
L 615.786745 123.12 
L 615.820158 123.12 
L 615.853571 123.12 
L 615.886983 123.12 
L 615.920396 123.12 
L 615.953809 123.12 
L 615.987222 123.12 
L 616.020634 123.12 
L 616.054047 123.12 
L 616.08746 123.12 
L 616.120873 123.12 
L 616.154286 123.12 
L 616.187698 123.12 
L 616.221111 123.12 
L 616.254524 123.12 
L 616.287937 123.12 
L 616.321349 123.12 
L 616.354762 123.12 
L 616.388175 123.12 
L 616.421588 123.12 
L 616.455001 123.12 
L 616.488413 123.12 
L 616.521826 123.12 
L 616.555239 123.12 
L 616.588652 123.12 
L 616.622064 123.12 
L 616.655477 123.12 
L 616.68889 123.12 
L 616.722303 123.12 
L 616.755716 123.12 
L 616.789128 123.12 
L 616.822541 123.12 
L 616.855954 123.12 
L 616.889367 123.12 
L 616.922779 123.12 
L 616.956192 123.12 
L 616.989605 123.12 
L 617.023018 123.12 
L 617.05643 123.12 
L 617.089843 123.12 
L 617.123256 123.12 
L 617.156669 123.12 
L 617.190082 123.12 
L 617.223494 123.12 
L 617.256907 123.12 
L 617.29032 123.12 
L 617.323733 123.12 
L 617.357145 123.12 
L 617.390558 123.12 
L 617.423971 123.12 
L 617.457384 123.12 
L 617.490797 123.12 
L 617.524209 123.12 
L 617.557622 123.12 
L 617.591035 123.12 
L 617.624448 123.12 
L 617.65786 123.12 
L 617.691273 123.12 
L 617.724686 123.12 
L 617.758099 123.12 
L 617.791511 123.12 
L 617.824924 123.12 
L 617.858337 123.12 
L 617.89175 123.12 
L 617.925163 123.12 
L 617.958575 123.12 
L 617.991988 123.12 
L 618.025401 123.12 
L 618.058814 123.12 
L 618.092226 123.12 
L 618.125639 123.12 
L 618.159052 123.12 
L 618.192465 123.12 
L 618.225878 123.12 
L 618.25929 123.12 
L 618.292703 123.12 
L 618.326116 123.12 
L 618.359529 123.12 
L 618.392941 123.12 
L 618.426354 123.12 
L 618.459767 123.12 
L 618.49318 123.12 
L 618.526592 123.12 
L 618.560005 123.12 
L 618.593418 123.12 
L 618.626831 123.12 
L 618.660244 123.12 
L 618.693656 123.12 
L 618.727069 123.12 
L 618.760482 123.12 
L 618.793895 123.12 
L 618.827307 123.12 
L 618.86072 123.12 
L 618.894133 123.12 
L 618.927546 123.12 
L 618.960959 123.12 
L 618.994371 123.12 
L 619.027784 123.12 
L 619.061197 123.12 
L 619.09461 123.12 
L 619.128022 123.12 
L 619.161435 123.12 
L 619.194848 123.12 
L 619.228261 123.12 
L 619.261674 123.12 
L 619.295086 123.12 
L 619.328499 123.12 
L 619.361912 123.12 
L 619.395325 123.12 
L 619.428737 123.12 
L 619.46215 123.12 
L 619.495563 123.12 
L 619.528976 123.12 
L 619.562388 123.12 
L 619.595801 123.12 
L 619.629214 123.12 
L 619.662627 123.12 
L 619.69604 123.12 
L 619.729452 123.12 
L 619.762865 123.12 
L 619.796278 123.12 
L 619.829691 123.12 
L 619.863103 123.12 
L 619.896516 123.12 
L 619.929929 123.12 
L 619.963342 123.12 
L 619.996755 123.12 
L 620.030167 123.12 
L 620.06358 123.12 
L 620.096993 123.12 
L 620.130406 123.12 
L 620.163818 122.953937 
L 620.197231 123.12 
L 620.230644 123.12 
L 620.264057 123.12 
L 620.297469 123.12 
L 620.330882 123.12 
L 620.364295 123.12 
L 620.397708 123.12 
L 620.431121 123.12 
L 620.464533 123.12 
L 620.497946 123.12 
L 620.531359 123.12 
L 620.564772 123.12 
L 620.598184 123.12 
L 620.631597 123.12 
L 620.66501 123.12 
L 620.698423 123.12 
L 620.731836 123.12 
L 620.765248 123.12 
L 620.798661 123.12 
L 620.832074 123.12 
L 620.865487 123.12 
L 620.898899 123.12 
L 620.932312 123.12 
L 620.965725 123.12 
L 620.999138 123.12 
L 621.032551 123.12 
L 621.065963 123.12 
L 621.099376 123.12 
L 621.132789 123.12 
L 621.166202 123.12 
L 621.199614 123.12 
L 621.233027 123.12 
L 621.26644 123.12 
L 621.299853 123.12 
L 621.333265 123.12 
L 621.366678 123.12 
L 621.400091 123.12 
L 621.433504 123.12 
L 621.466917 123.12 
L 621.500329 123.12 
L 621.533742 123.12 
L 621.567155 123.12 
L 621.600568 123.12 
L 621.63398 123.12 
L 621.667393 123.12 
L 621.700806 123.12 
L 621.734219 123.12 
L 621.767632 123.12 
L 621.801044 123.12 
L 621.834457 123.12 
L 621.86787 123.12 
L 621.901283 123.12 
L 621.934695 123.12 
L 621.968108 123.12 
L 622.001521 123.12 
L 622.034934 123.12 
L 622.068346 123.12 
L 622.101759 123.12 
L 622.135172 123.12 
L 622.168585 123.12 
L 622.201998 123.12 
L 622.23541 123.12 
L 622.268823 123.12 
L 622.302236 123.12 
L 622.335649 123.12 
L 622.369061 123.12 
L 622.402474 123.12 
L 622.435887 123.12 
L 622.4693 123.12 
L 622.502713 123.12 
L 622.536125 123.12 
L 622.569538 123.12 
L 622.602951 123.12 
L 622.636364 123.12 
L 622.636364 123.12 
L 622.636364 92.232356 
L 622.602951 92.232356 
L 622.569538 92.232356 
L 622.536125 92.232356 
L 622.502713 92.232356 
L 622.4693 92.232356 
L 622.435887 92.232356 
L 622.402474 92.232356 
L 622.369061 92.232356 
L 622.335649 92.232356 
L 622.302236 92.232356 
L 622.268823 92.232356 
L 622.23541 92.232356 
L 622.201998 92.232356 
L 622.168585 92.232356 
L 622.135172 92.232356 
L 622.101759 92.232356 
L 622.068346 92.232356 
L 622.034934 92.232356 
L 622.001521 92.232356 
L 621.968108 92.232356 
L 621.934695 92.232356 
L 621.901283 92.232356 
L 621.86787 92.232356 
L 621.834457 92.232356 
L 621.801044 92.232356 
L 621.767632 92.232356 
L 621.734219 92.232356 
L 621.700806 92.232356 
L 621.667393 92.232356 
L 621.63398 92.232356 
L 621.600568 92.232356 
L 621.567155 92.232356 
L 621.533742 92.232356 
L 621.500329 92.232356 
L 621.466917 92.232356 
L 621.433504 92.232356 
L 621.400091 92.232356 
L 621.366678 92.232356 
L 621.333265 92.232356 
L 621.299853 92.232356 
L 621.26644 92.232356 
L 621.233027 92.232356 
L 621.199614 92.232356 
L 621.166202 92.232356 
L 621.132789 92.232356 
L 621.099376 92.232356 
L 621.065963 92.232356 
L 621.032551 92.232356 
L 620.999138 92.232356 
L 620.965725 92.232356 
L 620.932312 92.232356 
L 620.898899 92.232356 
L 620.865487 92.232356 
L 620.832074 92.232356 
L 620.798661 92.232356 
L 620.765248 92.232356 
L 620.731836 92.232356 
L 620.698423 92.232356 
L 620.66501 92.232356 
L 620.631597 92.232356 
L 620.598184 92.232356 
L 620.564772 92.232356 
L 620.531359 92.232356 
L 620.497946 92.232356 
L 620.464533 92.232356 
L 620.431121 92.232356 
L 620.397708 92.232356 
L 620.364295 92.232356 
L 620.330882 92.232356 
L 620.297469 92.232356 
L 620.264057 92.232356 
L 620.230644 92.232356 
L 620.197231 92.232356 
L 620.163818 92.232356 
L 620.130406 92.232356 
L 620.096993 92.232356 
L 620.06358 92.232356 
L 620.030167 92.232356 
L 619.996755 92.232356 
L 619.963342 92.232356 
L 619.929929 92.232356 
L 619.896516 92.232356 
L 619.863103 92.232356 
L 619.829691 92.232356 
L 619.796278 92.232356 
L 619.762865 92.232356 
L 619.729452 92.232356 
L 619.69604 92.232356 
L 619.662627 92.232356 
L 619.629214 92.232356 
L 619.595801 92.232356 
L 619.562388 92.232356 
L 619.528976 92.232356 
L 619.495563 92.232356 
L 619.46215 92.232356 
L 619.428737 92.232356 
L 619.395325 92.232356 
L 619.361912 92.232356 
L 619.328499 92.232356 
L 619.295086 92.232356 
L 619.261674 92.232356 
L 619.228261 92.232356 
L 619.194848 92.232356 
L 619.161435 92.232356 
L 619.128022 92.232356 
L 619.09461 92.232356 
L 619.061197 92.232356 
L 619.027784 92.232356 
L 618.994371 92.232356 
L 618.960959 92.232356 
L 618.927546 92.232356 
L 618.894133 92.232356 
L 618.86072 92.232356 
L 618.827307 92.232356 
L 618.793895 92.232356 
L 618.760482 92.232356 
L 618.727069 92.232356 
L 618.693656 92.232356 
L 618.660244 92.232356 
L 618.626831 92.232356 
L 618.593418 92.232356 
L 618.560005 92.232356 
L 618.526592 92.232356 
L 618.49318 92.232356 
L 618.459767 92.232356 
L 618.426354 92.232356 
L 618.392941 92.232356 
L 618.359529 92.232356 
L 618.326116 92.232356 
L 618.292703 92.232356 
L 618.25929 92.232356 
L 618.225878 92.232356 
L 618.192465 92.232356 
L 618.159052 92.232356 
L 618.125639 92.232356 
L 618.092226 92.232356 
L 618.058814 92.232356 
L 618.025401 92.232356 
L 617.991988 92.232356 
L 617.958575 92.232356 
L 617.925163 92.232356 
L 617.89175 92.232356 
L 617.858337 92.232356 
L 617.824924 92.232356 
L 617.791511 92.232356 
L 617.758099 92.232356 
L 617.724686 92.232356 
L 617.691273 92.232356 
L 617.65786 92.232356 
L 617.624448 92.232356 
L 617.591035 92.232356 
L 617.557622 92.232356 
L 617.524209 92.232356 
L 617.490797 92.232356 
L 617.457384 92.232356 
L 617.423971 92.232356 
L 617.390558 92.232356 
L 617.357145 92.232356 
L 617.323733 92.232356 
L 617.29032 92.232356 
L 617.256907 92.232356 
L 617.223494 92.232356 
L 617.190082 92.232356 
L 617.156669 92.232356 
L 617.123256 92.232356 
L 617.089843 92.232356 
L 617.05643 92.232356 
L 617.023018 92.232356 
L 616.989605 92.232356 
L 616.956192 92.232356 
L 616.922779 92.232356 
L 616.889367 92.232356 
L 616.855954 92.232356 
L 616.822541 92.232356 
L 616.789128 92.232356 
L 616.755716 92.232356 
L 616.722303 92.232356 
L 616.68889 92.232356 
L 616.655477 92.232356 
L 616.622064 92.232356 
L 616.588652 92.232356 
L 616.555239 92.232356 
L 616.521826 92.232356 
L 616.488413 92.232356 
L 616.455001 92.232356 
L 616.421588 92.232356 
L 616.388175 92.232356 
L 616.354762 92.232356 
L 616.321349 92.232356 
L 616.287937 92.232356 
L 616.254524 92.232356 
L 616.221111 92.232356 
L 616.187698 92.232356 
L 616.154286 92.232356 
L 616.120873 92.232356 
L 616.08746 92.232356 
L 616.054047 92.232356 
L 616.020634 92.232356 
L 615.987222 92.232356 
L 615.953809 92.232356 
L 615.920396 92.232356 
L 615.886983 92.232356 
L 615.853571 92.232356 
L 615.820158 92.232356 
L 615.786745 92.232356 
L 615.753332 92.232356 
L 615.71992 92.232356 
L 615.686507 92.232356 
L 615.653094 92.232356 
L 615.619681 92.232356 
L 615.586268 92.232356 
L 615.552856 92.232356 
L 615.519443 92.232356 
L 615.48603 92.232356 
L 615.452617 92.232356 
L 615.419205 92.232356 
L 615.385792 92.232356 
L 615.352379 92.232356 
L 615.318966 92.232356 
L 615.285553 92.232356 
L 615.252141 92.232356 
L 615.218728 92.232356 
L 615.185315 92.232356 
L 615.151902 92.232356 
L 615.11849 92.232356 
L 615.085077 92.232356 
L 615.051664 92.232356 
L 615.018251 92.232356 
L 614.984839 92.232356 
L 614.951426 92.232356 
L 614.918013 92.232356 
L 614.8846 92.232356 
L 614.851187 92.232356 
L 614.817775 92.232356 
L 614.784362 92.232356 
L 614.750949 92.232356 
L 614.717536 92.232356 
L 614.684124 92.232356 
L 614.650711 92.232356 
L 614.617298 92.232356 
L 614.583885 92.232356 
L 614.550472 92.232356 
L 614.51706 92.232356 
L 614.483647 92.232356 
L 614.450234 92.232356 
L 614.416821 92.232356 
L 614.383409 92.232356 
L 614.349996 92.232356 
L 614.316583 92.232356 
L 614.28317 92.232356 
L 614.249757 92.232356 
L 614.216345 92.232356 
L 614.182932 92.232356 
L 614.149519 92.232356 
L 614.116106 92.232356 
L 614.082694 92.232356 
L 614.049281 92.232356 
L 614.015868 92.232356 
L 613.982455 92.232356 
L 613.949043 92.232356 
L 613.91563 92.232356 
L 613.882217 92.232356 
L 613.848804 92.232356 
L 613.815391 92.232356 
L 613.781979 92.232356 
L 613.748566 92.232356 
L 613.715153 92.232356 
L 613.68174 92.232356 
L 613.648328 92.232356 
L 613.614915 92.232356 
L 613.581502 92.232356 
L 613.548089 92.232356 
L 613.514676 92.232356 
L 613.481264 92.232356 
L 613.447851 92.232356 
L 613.414438 92.232356 
L 613.381025 92.232356 
L 613.347613 92.232356 
L 613.3142 92.232356 
L 613.280787 92.232356 
L 613.247374 92.232356 
L 613.213962 92.232356 
L 613.180549 92.232356 
L 613.147136 92.232356 
L 613.113723 92.232356 
L 613.08031 92.232356 
L 613.046898 92.232356 
L 613.013485 92.232356 
L 612.980072 92.232356 
L 612.946659 92.232356 
L 612.913247 92.232356 
L 612.879834 92.232356 
L 612.846421 92.232356 
L 612.813008 92.232356 
L 612.779595 92.232356 
L 612.746183 92.232356 
L 612.71277 92.232356 
L 612.679357 92.232356 
L 612.645944 92.232356 
L 612.612532 92.232356 
L 612.579119 92.232356 
L 612.545706 92.232356 
L 612.512293 92.232356 
L 612.47888 92.232356 
L 612.445468 92.232356 
L 612.412055 92.232356 
L 612.378642 92.232356 
L 612.345229 92.232356 
L 612.311817 92.232356 
L 612.278404 92.232356 
L 612.244991 92.232356 
L 612.211578 92.232356 
L 612.178166 92.232356 
L 612.144753 92.232356 
L 612.11134 92.232356 
L 612.077927 92.232356 
L 612.044514 92.232356 
L 612.011102 92.232356 
L 611.977689 92.232356 
L 611.944276 92.232356 
L 611.910863 92.232356 
L 611.877451 92.232356 
L 611.844038 92.232356 
L 611.810625 92.232356 
L 611.777212 92.232356 
L 611.743799 92.232356 
L 611.710387 92.232356 
L 611.676974 92.232356 
L 611.643561 92.232356 
L 611.610148 92.232356 
L 611.576736 92.232356 
L 611.543323 92.232356 
L 611.50991 92.232356 
L 611.476497 92.232356 
L 611.443085 92.232356 
L 611.409672 92.232356 
L 611.376259 92.232356 
L 611.342846 92.232356 
L 611.309433 92.232356 
L 611.276021 92.232356 
L 611.242608 92.232356 
L 611.209195 92.232356 
L 611.175782 92.232356 
L 611.14237 92.232356 
L 611.108957 92.232356 
L 611.075544 92.232356 
L 611.042131 92.232356 
L 611.008718 92.232356 
L 610.975306 92.232356 
L 610.941893 92.232356 
L 610.90848 92.232356 
L 610.875067 92.232356 
L 610.841655 92.232356 
L 610.808242 92.232356 
L 610.774829 92.232356 
L 610.741416 92.232356 
L 610.708003 92.232356 
L 610.674591 92.232356 
L 610.641178 92.232356 
L 610.607765 92.232356 
L 610.574352 92.232356 
L 610.54094 92.232356 
L 610.507527 92.232356 
L 610.474114 92.232356 
L 610.440701 92.232356 
L 610.407289 92.232356 
L 610.373876 92.232356 
L 610.340463 92.232356 
L 610.30705 92.232356 
L 610.273637 92.232356 
L 610.240225 92.232356 
L 610.206812 92.232356 
L 610.173399 92.232356 
L 610.139986 92.232356 
L 610.106574 92.232356 
L 610.073161 92.232356 
L 610.039748 92.232356 
L 610.006335 92.232356 
L 609.972922 92.232356 
L 609.93951 92.232356 
L 609.906097 92.232356 
L 609.872684 92.232356 
L 609.839271 92.232356 
L 609.805859 92.232356 
L 609.772446 92.232356 
L 609.739033 92.232356 
L 609.70562 92.232356 
L 609.672208 92.232356 
L 609.638795 92.232356 
L 609.605382 92.232356 
L 609.571969 92.232356 
L 609.538556 92.232356 
L 609.505144 92.232356 
L 609.471731 92.232356 
L 609.438318 92.232356 
L 609.404905 92.232356 
L 609.371493 92.232356 
L 609.33808 92.232356 
L 609.304667 92.232356 
L 609.271254 92.232356 
L 609.237841 92.232356 
L 609.204429 92.232356 
L 609.171016 92.232356 
L 609.137603 92.232356 
L 609.10419 92.232356 
L 609.070778 92.232356 
L 609.037365 92.232356 
L 609.003952 92.232356 
L 608.970539 92.232356 
L 608.937127 92.232356 
L 608.903714 92.232356 
L 608.870301 92.232356 
L 608.836888 92.232356 
L 608.803475 92.232356 
L 608.770063 92.232356 
L 608.73665 92.232356 
L 608.703237 92.232356 
L 608.669824 92.232356 
L 608.636412 92.232356 
L 608.602999 92.232356 
L 608.569586 92.232356 
L 608.536173 92.232356 
L 608.50276 92.232356 
L 608.469348 92.232356 
L 608.435935 92.232356 
L 608.402522 92.232356 
L 608.369109 92.232356 
L 608.335697 92.232356 
L 608.302284 92.232356 
L 608.268871 92.232356 
L 608.235458 92.232356 
L 608.202045 92.232356 
L 608.168633 92.232356 
L 608.13522 92.232356 
L 608.101807 92.232356 
L 608.068394 92.232356 
L 608.034982 92.232356 
L 608.001569 92.232356 
L 607.968156 92.232356 
L 607.934743 92.232356 
L 607.901331 92.232356 
L 607.867918 92.232356 
L 607.834505 92.232356 
L 607.801092 92.232356 
L 607.767679 92.232356 
L 607.734267 92.232356 
L 607.700854 92.232356 
L 607.667441 92.232356 
L 607.634028 92.232356 
L 607.600616 92.232356 
L 607.567203 92.232356 
L 607.53379 92.232356 
L 607.500377 92.232356 
L 607.466964 92.232356 
L 607.433552 92.232356 
L 607.400139 92.232356 
L 607.366726 92.232356 
L 607.333313 92.232356 
L 607.299901 92.232356 
L 607.266488 92.232356 
L 607.233075 92.232356 
L 607.199662 92.232356 
L 607.16625 92.232356 
L 607.132837 92.232356 
L 607.099424 92.232356 
L 607.066011 92.232356 
L 607.032598 92.232356 
L 606.999186 92.232356 
L 606.965773 92.232356 
L 606.93236 92.232356 
L 606.898947 92.232356 
L 606.865535 92.232356 
L 606.832122 92.232356 
L 606.798709 92.232356 
L 606.765296 92.232356 
L 606.731883 92.232356 
L 606.698471 92.232356 
L 606.665058 92.232356 
L 606.631645 92.232356 
L 606.598232 92.232356 
L 606.56482 92.232356 
L 606.531407 92.232356 
L 606.497994 92.232356 
L 606.464581 92.232356 
L 606.431168 92.232356 
L 606.397756 92.232356 
L 606.364343 92.232356 
L 606.33093 92.232356 
L 606.297517 92.232356 
L 606.264105 92.232356 
L 606.230692 92.232356 
L 606.197279 92.232356 
L 606.163866 92.232356 
L 606.130454 92.232356 
L 606.097041 92.232356 
L 606.063628 92.232356 
L 606.030215 92.232356 
L 605.996802 92.232356 
L 605.96339 92.232356 
L 605.929977 92.232356 
L 605.896564 92.232356 
L 605.863151 92.232356 
L 605.829739 92.232356 
L 605.796326 92.232356 
L 605.762913 92.232356 
L 605.7295 92.232356 
L 605.696087 92.232356 
L 605.662675 92.232356 
L 605.629262 92.232356 
L 605.595849 92.232356 
L 605.562436 92.232356 
L 605.529024 92.232356 
L 605.495611 92.232356 
L 605.462198 92.232356 
L 605.428785 92.232356 
L 605.395373 92.232356 
L 605.36196 92.232356 
L 605.328547 92.232356 
L 605.295134 92.232356 
L 605.261721 92.232356 
L 605.228309 92.232356 
L 605.194896 92.232356 
L 605.161483 92.232356 
L 605.12807 92.232356 
L 605.094658 92.232356 
L 605.061245 92.232356 
L 605.027832 92.232356 
L 604.994419 92.232356 
L 604.961006 92.232356 
L 604.927594 92.232356 
L 604.894181 92.232356 
L 604.860768 92.232356 
L 604.827355 92.232356 
L 604.793943 92.232356 
L 604.76053 92.232356 
L 604.727117 92.232356 
L 604.693704 92.232356 
L 604.660291 92.232356 
L 604.626879 92.232356 
L 604.593466 92.232356 
L 604.560053 92.232356 
L 604.52664 92.232356 
L 604.493228 92.232356 
L 604.459815 92.232356 
L 604.426402 92.232356 
L 604.392989 92.232356 
L 604.359577 92.232356 
L 604.326164 92.232356 
L 604.292751 92.232356 
L 604.259338 92.232356 
L 604.225925 92.232356 
L 604.192513 92.232356 
L 604.1591 92.232356 
L 604.125687 92.232356 
L 604.092274 92.232356 
L 604.058862 92.232356 
L 604.025449 92.232356 
L 603.992036 92.232356 
L 603.958623 92.232356 
L 603.92521 92.232356 
L 603.891798 92.232356 
L 603.858385 92.232356 
L 603.824972 92.232356 
L 603.791559 92.232356 
L 603.758147 92.232356 
L 603.724734 92.232356 
L 603.691321 92.232356 
L 603.657908 92.232356 
L 603.624496 92.232356 
L 603.591083 92.232356 
L 603.55767 92.232356 
L 603.524257 92.232356 
L 603.490844 92.232356 
L 603.457432 92.232356 
L 603.424019 92.232356 
L 603.390606 92.232356 
L 603.357193 92.232356 
L 603.323781 92.232356 
L 603.290368 92.232356 
L 603.256955 92.232356 
L 603.223542 92.232356 
L 603.190129 92.232356 
L 603.156717 92.232356 
L 603.123304 92.232356 
L 603.089891 92.232356 
L 603.056478 92.232356 
L 603.023066 92.232356 
L 602.989653 92.232356 
L 602.95624 92.232356 
L 602.922827 92.232356 
L 602.889414 92.232356 
L 602.856002 92.232356 
L 602.822589 92.232356 
L 602.789176 92.232356 
L 602.755763 92.232356 
L 602.722351 92.232356 
L 602.688938 92.232356 
L 602.655525 92.232356 
L 602.622112 92.232356 
L 602.5887 92.232356 
L 602.555287 92.232356 
L 602.521874 92.232356 
L 602.488461 92.232356 
L 602.455048 92.232356 
L 602.421636 92.232356 
L 602.388223 92.232356 
L 602.35481 92.232356 
L 602.321397 92.232356 
L 602.287985 92.232356 
L 602.254572 92.232356 
L 602.221159 92.232356 
L 602.187746 92.232356 
L 602.154333 92.232356 
L 602.120921 92.232356 
L 602.087508 92.232356 
L 602.054095 92.232356 
L 602.020682 92.232356 
L 601.98727 92.232356 
L 601.953857 92.232356 
L 601.920444 92.232356 
L 601.887031 92.232356 
L 601.853619 92.232356 
L 601.820206 92.232356 
L 601.786793 92.232356 
L 601.75338 92.232356 
L 601.719967 92.232356 
L 601.686555 92.232356 
L 601.653142 92.232356 
L 601.619729 92.232356 
L 601.586316 92.232356 
L 601.552904 92.232356 
L 601.519491 92.232356 
L 601.486078 92.232356 
L 601.452665 92.232356 
L 601.419252 92.232356 
L 601.38584 92.232356 
L 601.352427 92.232356 
L 601.319014 92.232356 
L 601.285601 92.232356 
L 601.252189 92.232356 
L 601.218776 92.232356 
L 601.185363 92.232356 
L 601.15195 92.232356 
L 601.118538 92.232356 
L 601.085125 92.232356 
L 601.051712 92.232356 
L 601.018299 92.232356 
L 600.984886 92.232356 
L 600.951474 92.232356 
L 600.918061 92.232356 
L 600.884648 92.232356 
L 600.851235 92.232356 
L 600.817823 92.232356 
L 600.78441 92.232356 
L 600.750997 92.232356 
L 600.717584 92.232356 
L 600.684171 92.232356 
L 600.650759 92.232356 
L 600.617346 92.232356 
L 600.583933 92.232356 
L 600.55052 92.232356 
L 600.517108 92.232356 
L 600.483695 92.232356 
L 600.450282 92.232356 
L 600.416869 92.232356 
L 600.383456 92.232356 
L 600.350044 92.232356 
L 600.316631 92.232356 
L 600.283218 92.232356 
L 600.249805 92.232356 
L 600.216393 92.232356 
L 600.18298 92.232356 
L 600.149567 92.232356 
L 600.116154 92.232356 
L 600.082742 92.232356 
L 600.049329 92.232356 
L 600.015916 92.232356 
L 599.982503 92.232356 
L 599.94909 92.232356 
L 599.915678 92.232356 
L 599.882265 92.232356 
L 599.848852 92.232356 
L 599.815439 92.232356 
L 599.782027 92.232356 
L 599.748614 92.232356 
L 599.715201 92.232356 
L 599.681788 92.232356 
L 599.648375 92.232356 
L 599.614963 92.232356 
L 599.58155 92.232356 
L 599.548137 92.232356 
L 599.514724 92.232356 
L 599.481312 92.232356 
L 599.447899 92.232356 
L 599.414486 92.232356 
L 599.381073 92.232356 
L 599.347661 92.232356 
L 599.314248 92.232356 
L 599.280835 92.232356 
L 599.247422 92.232356 
L 599.214009 92.232356 
L 599.180597 92.232356 
L 599.147184 92.232356 
L 599.113771 92.232356 
L 599.080358 92.232356 
L 599.046946 92.232356 
L 599.013533 92.232356 
L 598.98012 92.232356 
L 598.946707 92.232356 
L 598.913294 92.232356 
L 598.879882 92.232356 
L 598.846469 92.232356 
L 598.813056 92.232356 
L 598.779643 92.232356 
L 598.746231 92.232356 
L 598.712818 92.232356 
L 598.679405 92.232356 
L 598.645992 92.232356 
L 598.612579 92.232356 
L 598.579167 92.232356 
L 598.545754 92.232356 
L 598.512341 92.232356 
L 598.478928 92.232356 
L 598.445516 92.232356 
L 598.412103 92.232356 
L 598.37869 92.232356 
L 598.345277 92.232356 
L 598.311865 92.232356 
L 598.278452 92.232356 
L 598.245039 92.232356 
L 598.211626 92.232356 
L 598.178213 92.232356 
L 598.144801 92.232356 
L 598.111388 92.232356 
L 598.077975 92.232356 
L 598.044562 92.232356 
L 598.01115 92.232356 
L 597.977737 92.232356 
L 597.944324 92.232356 
L 597.910911 92.232356 
L 597.877498 92.232356 
L 597.844086 92.232356 
L 597.810673 92.232356 
L 597.77726 92.232356 
L 597.743847 92.232356 
L 597.710435 92.232356 
L 597.677022 92.232356 
L 597.643609 92.232356 
L 597.610196 92.232356 
L 597.576784 92.232356 
L 597.543371 92.232356 
L 597.509958 92.232356 
L 597.476545 92.232356 
L 597.443132 92.232356 
L 597.40972 92.232356 
L 597.376307 92.232356 
L 597.342894 92.232356 
L 597.309481 92.232356 
L 597.276069 92.232356 
L 597.242656 92.232356 
L 597.209243 92.232356 
L 597.17583 92.232356 
L 597.142417 92.232356 
L 597.109005 92.232356 
L 597.075592 92.232356 
L 597.042179 92.232356 
L 597.008766 92.232356 
L 596.975354 92.232356 
L 596.941941 92.232356 
L 596.908528 92.232356 
L 596.875115 92.232356 
L 596.841702 92.232356 
L 596.80829 92.232356 
L 596.774877 92.232356 
L 596.741464 92.232356 
L 596.708051 92.232356 
L 596.674639 92.232356 
L 596.641226 92.232356 
L 596.607813 92.232356 
L 596.5744 92.232356 
L 596.540988 92.232356 
L 596.507575 92.232356 
L 596.474162 92.232356 
L 596.440749 92.232356 
L 596.407336 92.232356 
L 596.373924 92.232356 
L 596.340511 92.232356 
L 596.307098 92.232356 
L 596.273685 92.232356 
L 596.240273 92.232356 
L 596.20686 92.232356 
L 596.173447 92.232356 
L 596.140034 92.232356 
L 596.106621 92.232356 
L 596.073209 92.232356 
L 596.039796 92.232356 
L 596.006383 92.232356 
L 595.97297 92.232356 
L 595.939558 92.232356 
L 595.906145 92.232356 
L 595.872732 92.232356 
L 595.839319 92.232356 
L 595.805907 92.232356 
L 595.772494 92.232356 
L 595.739081 92.232356 
L 595.705668 92.232356 
L 595.672255 92.232356 
L 595.638843 92.232356 
L 595.60543 92.232356 
L 595.572017 92.232356 
L 595.538604 92.232356 
L 595.505192 92.232356 
L 595.471779 92.232356 
L 595.438366 92.232356 
L 595.404953 92.232356 
L 595.37154 92.232356 
L 595.338128 92.232356 
L 595.304715 92.232356 
L 595.271302 92.232356 
L 595.237889 92.232356 
L 595.204477 92.232356 
L 595.171064 92.232356 
L 595.137651 92.232356 
L 595.104238 92.232356 
L 595.070825 92.232356 
L 595.037413 92.232356 
L 595.004 92.232356 
L 594.970587 92.232356 
L 594.937174 92.232356 
L 594.903762 92.232356 
L 594.870349 92.232356 
L 594.836936 92.232356 
L 594.803523 92.232356 
L 594.770111 92.232356 
L 594.736698 92.232356 
L 594.703285 92.232356 
L 594.669872 92.232356 
L 594.636459 92.232356 
L 594.603047 92.232356 
L 594.569634 92.232356 
L 594.536221 92.232356 
L 594.502808 92.232356 
L 594.469396 92.232356 
L 594.435983 92.232356 
L 594.40257 92.232356 
L 594.369157 92.232356 
L 594.335744 92.232356 
L 594.302332 92.232356 
L 594.268919 92.232356 
L 594.235506 92.232356 
L 594.202093 92.232356 
L 594.168681 92.232356 
L 594.135268 92.232356 
L 594.101855 92.232356 
L 594.068442 92.232356 
L 594.03503 92.232356 
L 594.001617 92.232356 
L 593.968204 92.232356 
L 593.934791 92.232356 
L 593.901378 92.232356 
L 593.867966 92.232356 
L 593.834553 92.232356 
L 593.80114 92.232356 
L 593.767727 92.232356 
L 593.734315 92.232356 
L 593.700902 92.232356 
L 593.667489 92.232356 
L 593.634076 92.232356 
L 593.600663 92.232356 
L 593.567251 92.232356 
L 593.533838 92.232356 
L 593.500425 92.232356 
L 593.467012 92.232356 
L 593.4336 92.232356 
L 593.400187 92.232356 
L 593.366774 92.232356 
L 593.333361 92.232356 
L 593.299949 92.232356 
L 593.266536 92.232356 
L 593.233123 92.232356 
L 593.19971 92.232356 
L 593.166297 92.232356 
L 593.132885 92.232356 
L 593.099472 92.232356 
L 593.066059 92.232356 
L 593.032646 92.232356 
L 592.999234 92.232356 
L 592.965821 92.232356 
L 592.932408 92.232356 
L 592.898995 92.232356 
L 592.865582 92.232356 
L 592.83217 92.232356 
L 592.798757 92.232356 
L 592.765344 92.232356 
L 592.731931 92.232356 
L 592.698519 92.232356 
L 592.665106 92.232356 
L 592.631693 92.232356 
L 592.59828 92.232356 
L 592.564867 92.232356 
L 592.531455 92.232356 
L 592.498042 92.232356 
L 592.464629 92.232356 
L 592.431216 92.232356 
L 592.397804 92.232356 
L 592.364391 92.232356 
L 592.330978 92.232356 
L 592.297565 92.232356 
L 592.264153 92.232356 
L 592.23074 92.232356 
L 592.197327 92.232356 
L 592.163914 92.232356 
L 592.130501 92.232356 
L 592.097089 92.232356 
L 592.063676 92.232356 
L 592.030263 92.232356 
L 591.99685 92.232356 
L 591.963438 92.232356 
L 591.930025 92.232356 
L 591.896612 92.232356 
L 591.863199 92.232356 
L 591.829786 92.232356 
L 591.796374 92.232356 
L 591.762961 92.232356 
L 591.729548 92.232356 
L 591.696135 92.232356 
L 591.662723 92.232356 
L 591.62931 92.232356 
L 591.595897 92.232356 
L 591.562484 92.232356 
L 591.529072 92.232356 
L 591.495659 92.232356 
L 591.462246 92.232356 
L 591.428833 92.232356 
L 591.39542 92.232356 
L 591.362008 92.232356 
L 591.328595 92.232356 
L 591.295182 92.232356 
L 591.261769 92.232356 
L 591.228357 92.232356 
L 591.194944 92.232356 
L 591.161531 92.232356 
L 591.128118 92.232356 
L 591.094705 92.232356 
L 591.061293 92.232356 
L 591.02788 92.232356 
L 590.994467 92.232356 
L 590.961054 92.232356 
L 590.927642 92.232356 
L 590.894229 92.232356 
L 590.860816 92.232356 
L 590.827403 92.232356 
L 590.79399 92.232356 
L 590.760578 92.232356 
L 590.727165 92.232356 
L 590.693752 92.232356 
L 590.660339 92.232356 
L 590.626927 92.232356 
L 590.593514 92.232356 
L 590.560101 92.232356 
L 590.526688 92.232356 
L 590.493276 92.232356 
L 590.459863 92.232356 
L 590.42645 92.232356 
L 590.393037 92.232356 
L 590.359624 92.232356 
L 590.326212 92.232356 
L 590.292799 92.232356 
L 590.259386 92.232356 
L 590.225973 92.232356 
L 590.192561 92.232356 
L 590.159148 92.232356 
L 590.125735 92.232356 
L 590.092322 92.232356 
L 590.058909 92.232356 
L 590.025497 92.232356 
L 589.992084 92.232356 
L 589.958671 92.232356 
L 589.925258 92.232356 
L 589.891846 92.232356 
L 589.858433 92.232356 
L 589.82502 92.232356 
L 589.791607 92.232356 
L 589.758195 92.232356 
L 589.724782 92.232356 
L 589.691369 92.232356 
L 589.657956 92.232356 
L 589.624543 92.232356 
L 589.591131 92.232356 
L 589.557718 92.232356 
L 589.524305 92.232356 
L 589.490892 92.232356 
L 589.45748 92.232356 
L 589.424067 92.232356 
L 589.390654 92.232356 
L 589.357241 92.232356 
L 589.323828 92.232356 
L 589.290416 92.232356 
L 589.257003 92.232356 
L 589.22359 92.232356 
L 589.190177 92.232356 
L 589.156765 92.232356 
L 589.123352 92.232356 
L 589.089939 92.232356 
L 589.056526 92.232356 
L 589.023113 92.232356 
L 588.989701 92.232356 
L 588.889462 92.232356 
L 588.688986 92.232356 
L 588.488509 92.232356 
L 588.288032 92.232356 
L 588.087556 92.232356 
L 587.887079 92.232356 
L 587.686603 92.232356 
L 587.486126 92.232356 
L 587.285649 92.232356 
L 587.085173 92.232356 
L 586.884696 92.232356 
L 586.684219 92.232356 
L 586.483743 92.232356 
L 586.283266 92.232356 
L 586.082789 92.232356 
L 585.882313 92.232356 
L 585.681836 92.232356 
L 585.48136 92.232356 
L 585.280883 92.232356 
L 585.080406 92.232356 
L 584.87993 92.232356 
L 584.679453 92.232356 
L 584.478976 92.232356 
L 584.2785 92.232356 
L 584.078023 92.232356 
L 583.877546 92.232356 
L 583.67707 92.232356 
L 583.476593 92.232356 
L 583.276116 92.232356 
L 583.07564 92.232356 
L 582.875163 92.232356 
L 582.674687 92.232356 
L 582.47421 92.232356 
L 582.273733 92.232356 
L 582.073257 92.232356 
L 581.87278 92.232356 
L 581.672303 92.232356 
L 581.471827 92.232356 
L 581.27135 92.232356 
L 581.070873 92.232356 
L 580.870397 92.232356 
L 580.66992 92.232356 
L 580.469443 92.232356 
L 580.268967 92.232356 
L 580.06849 92.232356 
L 579.868014 92.232356 
L 579.667537 92.232356 
L 579.46706 92.232356 
L 579.266584 92.232356 
L 579.066107 92.232356 
L 578.86563 92.232356 
L 578.665154 92.232356 
L 578.464677 92.232356 
L 578.2642 92.232356 
L 578.063724 92.232356 
L 577.863247 92.232356 
L 577.662771 92.232356 
L 577.462294 92.232356 
L 577.261817 92.232356 
L 577.061341 92.232356 
L 576.860864 92.232356 
L 576.660387 92.232356 
L 576.459911 92.232356 
L 576.259434 92.232356 
L 576.058957 92.232356 
L 575.858481 92.232356 
L 575.658004 92.232356 
L 575.457527 92.232356 
L 575.257051 92.232356 
L 575.056574 92.232356 
L 574.856098 92.232356 
L 574.655621 92.232356 
L 574.455144 92.232356 
L 574.254668 92.232356 
L 574.054191 92.232356 
L 573.853714 92.232356 
L 573.653238 92.232356 
L 573.452761 92.232356 
L 573.252284 92.232356 
L 573.051808 92.232356 
L 572.851331 92.232356 
L 572.650854 92.232356 
L 572.450378 92.232356 
L 572.249901 92.232356 
L 572.049425 92.232356 
L 571.848948 92.232356 
L 571.648471 92.232356 
L 571.447995 92.232356 
L 571.247518 92.232356 
L 571.047041 92.232356 
L 570.846565 92.232356 
L 570.646088 92.232356 
L 570.445611 92.232356 
L 570.245135 92.232356 
L 570.044658 92.232356 
L 569.844182 92.232356 
L 569.643705 92.232356 
L 569.443228 92.232356 
L 569.242752 92.232356 
L 569.042275 92.232356 
L 568.841798 92.232356 
L 568.641322 92.232356 
L 568.440845 92.232356 
L 568.240368 92.232356 
L 568.039892 92.232356 
L 567.839415 92.232356 
L 567.638938 92.232356 
L 567.438462 92.232356 
L 567.237985 92.232356 
L 567.037509 92.232356 
L 566.837032 92.232356 
L 566.636555 92.232356 
L 566.436079 92.232356 
L 566.235602 92.232356 
L 566.035125 92.232356 
L 565.834649 92.232356 
L 565.634172 92.232356 
L 565.433695 92.232356 
L 565.233219 92.232356 
L 565.032742 92.232356 
L 564.832265 92.232356 
L 564.631789 92.232356 
L 564.431312 92.232356 
L 564.230836 92.232356 
L 564.030359 92.232356 
L 563.829882 92.232356 
L 563.629406 92.232356 
L 563.428929 92.232356 
L 563.228452 92.232356 
L 563.027976 92.232356 
L 562.827499 92.232356 
L 562.627022 92.232356 
L 562.426546 92.232356 
L 562.226069 92.232356 
L 562.025593 92.232356 
L 561.825116 92.232356 
L 561.624639 92.232356 
L 561.424163 92.232356 
L 561.223686 92.232356 
L 561.023209 92.232356 
L 560.822733 92.232356 
L 560.622256 92.232356 
L 560.421779 92.232356 
L 560.221303 92.232356 
L 560.020826 92.232356 
L 559.820349 92.232356 
L 559.619873 92.232356 
L 559.419396 92.232356 
L 559.21892 92.232356 
L 559.018443 92.232356 
L 558.817966 92.232356 
L 558.61749 92.232356 
L 558.417013 92.232356 
L 558.216536 92.232356 
L 558.01606 92.232356 
L 557.815583 92.232356 
L 557.615106 92.232356 
L 557.41463 92.232356 
L 557.214153 92.232356 
L 557.013676 92.232356 
L 556.8132 92.232356 
L 556.612723 92.232356 
L 556.412247 92.232356 
L 556.21177 92.232356 
L 556.011293 92.232356 
L 555.810817 92.232356 
L 555.61034 92.232356 
L 555.409863 92.232356 
L 555.209387 92.232356 
L 555.00891 92.232356 
L 554.808433 92.232356 
L 554.607957 92.232356 
L 554.40748 92.232356 
L 554.207004 92.232356 
L 554.006527 92.232356 
L 553.80605 92.232356 
L 553.605574 92.232356 
L 553.405097 92.232356 
L 553.20462 92.232356 
L 553.004144 92.232356 
L 552.803667 92.232356 
L 552.60319 92.232356 
L 552.402714 92.232356 
L 552.202237 92.232356 
L 552.00176 92.232356 
L 551.801284 92.232356 
L 551.600807 92.232356 
L 551.400331 92.232356 
L 551.199854 92.232356 
L 550.999377 92.232356 
L 550.798901 92.232356 
L 550.598424 92.232356 
L 550.397947 92.232356 
L 550.197471 92.232356 
L 549.996994 92.232356 
L 549.796517 92.232356 
L 549.596041 92.232356 
L 549.395564 92.232356 
L 549.195087 92.232356 
L 548.994611 92.232356 
L 548.794134 92.232356 
L 548.593658 92.232356 
L 548.393181 92.232356 
L 548.192704 92.232356 
L 547.992228 92.232356 
L 547.791751 92.232356 
L 547.591274 92.232356 
L 547.390798 92.232356 
L 547.190321 92.232356 
L 546.989844 92.232356 
L 546.789368 92.232356 
L 546.588891 92.232356 
L 546.388415 92.232356 
L 546.187938 92.232356 
L 545.987461 92.232356 
L 545.786985 92.232356 
L 545.586508 92.232356 
L 545.386031 92.232356 
L 545.185555 92.232356 
L 544.985078 92.232356 
L 544.784601 92.232356 
L 544.584125 92.232356 
L 544.383648 92.232356 
L 544.183171 92.232356 
L 543.982695 92.232356 
L 543.782218 92.232356 
L 543.581742 92.232356 
L 543.381265 92.232356 
L 543.180788 92.232356 
L 542.980312 92.232356 
L 542.779835 92.232356 
L 542.579358 92.232356 
L 542.378882 92.232356 
L 542.178405 92.232356 
L 541.977928 92.232356 
L 541.777452 92.232356 
L 541.576975 92.232356 
L 541.376498 92.232356 
L 541.176022 92.232356 
L 540.975545 92.232356 
L 540.775069 92.232356 
L 540.574592 92.232356 
L 540.374115 92.232356 
L 540.173639 92.232356 
L 539.973162 92.232356 
L 539.772685 92.232356 
L 539.572209 92.232356 
L 539.371732 92.232356 
L 539.171255 92.232356 
L 538.970779 92.232356 
L 538.770302 92.232356 
L 538.569826 92.232356 
L 538.369349 92.232356 
L 538.168872 92.232356 
L 537.968396 92.232356 
L 537.767919 92.232356 
L 537.567442 92.232356 
L 537.366966 92.232356 
L 537.166489 92.232356 
L 536.966012 92.232356 
L 536.765536 92.232356 
L 536.565059 92.232356 
L 536.364582 92.232356 
L 536.164106 92.232356 
L 535.963629 92.232356 
L 535.763153 92.232356 
L 535.562676 92.232356 
L 535.362199 92.232356 
L 535.161723 92.232356 
L 534.961246 92.232356 
L 534.760769 92.232356 
L 534.560293 92.232356 
L 534.359816 92.232356 
L 534.159339 92.232356 
L 533.958863 92.232356 
L 533.758386 92.232356 
L 533.557909 92.232356 
L 533.357433 92.232356 
L 533.156956 92.232356 
L 532.95648 92.232356 
L 532.756003 92.232356 
L 532.555526 92.232356 
L 532.35505 92.232356 
L 532.154573 92.232356 
L 531.954096 92.232356 
L 531.75362 92.232356 
L 531.553143 92.232356 
L 531.352666 92.232356 
L 531.15219 92.232356 
L 530.951713 92.232356 
L 530.751237 92.232356 
L 530.55076 92.232356 
L 530.350283 92.232356 
L 530.149807 92.232356 
L 529.94933 92.232356 
L 529.748853 92.232356 
L 529.548377 92.232356 
L 529.3479 92.232356 
L 529.147423 92.232356 
L 528.946947 92.232356 
L 528.74647 92.232356 
L 528.545993 92.232356 
L 528.345517 92.232356 
L 528.14504 92.232356 
L 527.944564 92.232356 
L 527.744087 92.232356 
L 527.54361 92.232356 
L 527.343134 92.232356 
L 527.142657 92.232356 
L 526.94218 92.232356 
L 526.741704 92.232356 
L 526.541227 92.232356 
L 526.34075 92.232356 
L 526.140274 92.232356 
L 525.939797 92.232356 
L 525.73932 92.232356 
L 525.538844 92.232356 
L 525.338367 92.232356 
L 525.137891 92.232356 
L 524.937414 92.232356 
L 524.736937 92.232356 
L 524.536461 92.232356 
L 524.335984 92.232356 
L 524.135507 92.232356 
L 523.935031 92.232356 
L 523.734554 92.232356 
L 523.534077 92.232356 
L 523.333601 92.232356 
L 523.133124 92.232356 
L 522.932648 92.232356 
L 522.732171 92.232356 
L 522.531694 92.232356 
L 522.331218 92.232356 
L 522.130741 92.232356 
L 521.930264 92.232356 
L 521.729788 92.232356 
L 521.529311 92.232356 
L 521.328834 92.232356 
L 521.128358 92.232356 
L 520.927881 92.232356 
L 520.727404 92.232356 
L 520.526928 92.232356 
L 520.326451 92.232356 
L 520.125975 92.232356 
L 519.925498 92.232356 
L 519.725021 92.232356 
L 519.524545 92.232356 
L 519.324068 92.232356 
L 519.123591 92.232356 
L 518.923115 92.232356 
L 518.722638 92.232356 
L 518.522161 92.232356 
L 518.321685 92.232356 
L 518.121208 92.232356 
L 517.920731 92.232356 
L 517.720255 92.232356 
L 517.519778 92.232356 
L 517.319302 92.232356 
L 517.118825 92.232356 
L 516.918348 92.232356 
L 516.717872 92.232356 
L 516.517395 92.232356 
L 516.316918 92.232356 
L 516.116442 92.232356 
L 515.915965 92.232356 
L 515.715488 92.232356 
L 515.515012 92.232356 
L 515.314535 92.232356 
L 515.114059 92.232356 
L 514.913582 92.232356 
L 514.713105 92.232356 
L 514.512629 92.232356 
L 514.312152 92.232356 
L 514.111675 92.232356 
L 513.911199 92.232356 
L 513.710722 92.232356 
L 513.510245 92.232356 
L 513.309769 92.232356 
L 513.109292 92.232356 
L 512.908815 92.232356 
L 512.708339 92.232356 
L 512.507862 92.232356 
L 512.307386 92.232356 
L 512.106909 92.232356 
L 511.906432 92.232356 
L 511.705956 92.232356 
L 511.505479 92.232356 
L 511.305002 92.232356 
L 511.104526 92.232356 
L 510.904049 92.232356 
L 510.703572 92.232356 
L 510.503096 92.232356 
L 510.302619 92.232356 
L 510.102142 92.232356 
L 509.901666 92.232356 
L 509.701189 92.232356 
L 509.500713 92.232356 
L 509.300236 92.232356 
L 509.099759 92.232356 
L 508.899283 92.232356 
L 508.698806 92.232356 
L 508.498329 92.232356 
L 508.297853 92.232356 
L 508.097376 92.232356 
L 507.896899 92.232356 
L 507.696423 92.232356 
L 507.495946 92.232356 
L 507.29547 92.232356 
L 507.094993 92.232356 
L 506.894516 92.232356 
L 506.69404 92.232356 
L 506.493563 92.232356 
L 506.293086 92.232356 
L 506.09261 92.232356 
L 505.892133 92.232356 
L 505.691656 92.232356 
L 505.49118 92.232356 
L 505.290703 92.232356 
L 505.090226 92.232356 
L 504.88975 92.232356 
L 504.689273 92.232356 
L 504.488797 92.232356 
L 504.28832 92.232356 
L 504.087843 92.232356 
L 503.887367 92.232356 
L 503.68689 92.232356 
L 503.486413 92.232356 
L 503.285937 92.232356 
L 503.08546 92.232356 
L 502.884983 92.232356 
L 502.684507 92.232356 
L 502.48403 92.232356 
L 502.283553 92.232356 
L 502.083077 92.232356 
L 501.8826 92.232356 
L 501.682124 92.232356 
L 501.481647 92.232356 
L 501.28117 92.232356 
L 501.080694 92.232356 
L 500.880217 92.232356 
L 500.67974 92.232356 
L 500.479264 92.232356 
L 500.278787 92.232356 
L 500.07831 92.232356 
L 499.877834 92.232356 
L 499.677357 92.232356 
L 499.476881 92.232356 
L 499.276404 92.232356 
L 499.075927 92.232356 
L 498.875451 92.232356 
L 498.674974 92.232356 
L 498.474497 92.232356 
L 498.274021 92.232356 
L 498.073544 92.232356 
L 497.873067 92.232356 
L 497.672591 92.232356 
L 497.472114 92.232356 
L 497.271637 92.232356 
L 497.071161 92.232356 
L 496.870684 92.232356 
L 496.670208 92.232356 
L 496.469731 92.232356 
L 496.269254 92.232356 
L 496.068778 92.232356 
L 495.868301 92.232356 
L 495.667824 92.232356 
L 495.467348 92.232356 
L 495.266871 92.232356 
L 495.066394 92.232356 
L 494.865918 92.232356 
L 494.665441 92.232356 
L 494.464964 92.232356 
L 494.264488 92.232356 
L 494.064011 92.232356 
L 493.863535 92.232356 
L 493.663058 92.232356 
L 493.462581 92.232356 
L 493.262105 92.232356 
L 493.061628 92.232356 
L 492.861151 92.232356 
L 492.660675 92.232356 
L 492.460198 92.232356 
L 492.259721 92.232356 
L 492.059245 92.232356 
L 491.858768 92.232356 
L 491.658292 92.232356 
L 491.457815 92.232356 
L 491.257338 92.232356 
L 491.056862 92.232356 
L 490.856385 92.232356 
L 490.655908 92.232356 
L 490.455432 92.232356 
L 490.254955 92.232356 
L 490.054478 92.232356 
L 489.854002 92.232356 
L 489.653525 92.232356 
L 489.453048 92.232356 
L 489.252572 92.232356 
L 489.052095 92.232356 
L 488.851619 92.232356 
L 488.651142 92.232356 
L 488.450665 92.232356 
L 488.250189 92.232356 
L 488.049712 92.232356 
L 487.849235 92.232356 
L 487.648759 92.232356 
L 487.448282 92.232356 
L 487.247805 92.232356 
L 487.047329 92.232356 
L 486.846852 92.232356 
L 486.646375 92.232356 
L 486.445899 92.232356 
L 486.245422 92.232356 
L 486.044946 92.232356 
L 485.844469 92.232356 
L 485.643992 92.232356 
L 485.443516 92.232356 
L 485.243039 92.232356 
L 485.042562 92.232356 
L 484.842086 92.232356 
L 484.641609 92.232356 
L 484.441132 92.232356 
L 484.240656 92.232356 
L 484.040179 92.232356 
L 483.839703 92.232356 
L 483.639226 92.232356 
L 483.438749 92.232356 
L 483.238273 92.232356 
L 483.037796 92.232356 
L 482.837319 92.232356 
L 482.636843 92.232356 
L 482.436366 92.232356 
L 482.235889 92.232356 
L 482.035413 92.232356 
L 481.834936 92.232356 
L 481.634459 92.232356 
L 481.433983 92.232356 
L 481.233506 92.232356 
L 481.03303 92.232356 
L 480.832553 92.232356 
L 480.632076 92.232356 
L 480.4316 92.232356 
L 480.231123 92.232356 
L 480.030646 92.232356 
L 479.83017 92.232356 
L 479.629693 92.232356 
L 479.429216 92.232356 
L 479.22874 92.232356 
L 479.028263 92.232356 
L 478.827786 92.232356 
L 478.62731 92.232356 
L 478.426833 92.232356 
L 478.226357 92.232356 
L 478.02588 92.232356 
L 477.825403 92.232356 
L 477.624927 92.232356 
L 477.42445 92.232356 
L 477.223973 92.232356 
L 477.023497 92.232356 
L 476.82302 92.232356 
L 476.622543 92.232356 
L 476.422067 92.232356 
L 476.22159 92.232356 
L 471.410151 92.232356 
L 466.598711 92.232356 
L 461.787272 92.232356 
L 456.975833 92.232356 
L 452.164393 92.232356 
L 447.352954 92.232356 
L 442.541514 92.232356 
L 437.730075 92.232356 
L 432.918636 92.232356 
L 428.107196 92.232356 
L 423.295757 92.232356 
L 418.484318 92.232356 
L 413.672878 92.232356 
L 408.861439 92.232356 
L 404.049999 92.232356 
L 399.23856 92.232356 
L 394.427121 92.232356 
L 389.615681 92.232356 
L 384.804242 92.232356 
L 379.992802 92.232356 
L 375.181363 92.232356 
L 370.369924 92.232356 
L 365.558484 92.232356 
L 360.747045 92.232356 
L 355.935606 92.232356 
L 351.124166 92.232356 
L 346.312727 92.232356 
L 341.501287 92.232356 
L 336.689848 92.232356 
L 331.878409 92.232356 
L 327.066969 92.232356 
L 322.25553 92.232356 
L 317.44409 92.232356 
L 312.632651 92.232356 
L 307.821212 92.232356 
L 303.009772 92.232356 
L 298.198333 92.232356 
L 293.386894 92.232356 
L 288.575454 92.232356 
L 283.764015 92.232356 
L 278.952575 92.232356 
L 274.141136 92.232356 
L 269.329697 92.232356 
L 264.518257 92.232356 
L 259.706818 92.232356 
L 254.895378 92.232356 
L 250.083939 92.232356 
L 245.2725 92.232356 
L 240.46106 92.232356 
L 235.649621 92.232356 
L 230.838182 92.232356 
L 226.026742 92.232356 
L 221.215303 92.232356 
L 216.403863 92.232356 
L 211.592424 92.232356 
L 206.780985 92.232356 
L 201.969545 92.232356 
L 197.158106 92.232356 
L 192.346667 92.232356 
L 187.535227 92.232356 
L 182.723788 92.232356 
L 177.912348 92.232356 
L 173.100909 92.232356 
L 168.28947 92.232356 
L 163.47803 92.232356 
L 158.666591 92.232356 
L 153.855151 92.232356 
L 149.043712 92.232356 
z
" clip-path="url(#pce5656f0d1)" style="fill: #ff0000; stroke: #ff0000"/>
   </g>
   <g id="matplotlib.axis_1">
    <g id="xtick_1">
     <g id="line2d_1">
      <defs>
       <path id="m910727cee6" d="M 0 0 
L 0 3.5 
" style="stroke: #000000; stroke-width: 0.8"/>
      </defs>
      <g>
       <use xlink:href="#m910727cee6" x="94.692267" y="128.16" style="stroke: #000000; stroke-width: 0.8"/>
      </g>
     </g>
     <g id="text_1">
      <text style="font: 10px 'Lato', sans-serif; text-anchor: middle" x="94.692267" y="142.41625" transform="rotate(-0 94.692267 142.41625)">Aug 2024</text>
     </g>
    </g>
    <g id="xtick_2">
     <g id="line2d_2">
      <g>
       <use xlink:href="#m910727cee6" x="206.068179" y="128.16" style="stroke: #000000; stroke-width: 0.8"/>
      </g>
     </g>
     <g id="text_2">
      <text style="font: 10px 'Lato', sans-serif; text-anchor: middle" x="206.068179" y="142.525625" transform="rotate(-0 206.068179 142.525625)">Sep 2024</text>
     </g>
    </g>
    <g id="xtick_3">
     <g id="line2d_3">
      <g>
       <use xlink:href="#m910727cee6" x="317.44409" y="128.16" style="stroke: #000000; stroke-width: 0.8"/>
      </g>
     </g>
     <g id="text_3">
      <text style="font: 10px 'Lato', sans-serif; text-anchor: middle" x="317.44409" y="142.525625" transform="rotate(-0 317.44409 142.525625)">Oct 2024</text>
     </g>
    </g>
    <g id="xtick_4">
     <g id="line2d_4">
      <g>
       <use xlink:href="#m910727cee6" x="428.820002" y="128.16" style="stroke: #000000; stroke-width: 0.8"/>
      </g>
     </g>
     <g id="text_4">
      <text style="font: 10px 'Lato', sans-serif; text-anchor: middle" x="428.820002" y="142.525625" transform="rotate(-0 428.820002 142.525625)">Oct 2024</text>
     </g>
    </g>
    <g id="xtick_5">
     <g id="line2d_5">
      <g>
       <use xlink:href="#m910727cee6" x="540.195914" y="128.16" style="stroke: #000000; stroke-width: 0.8"/>
      </g>
     </g>
     <g id="text_5">
      <text style="font: 10px 'Lato', sans-serif; text-anchor: middle" x="540.195914" y="142.525625" transform="rotate(-0 540.195914 142.525625)">Nov 2024</text>
     </g>
    </g>
   </g>
   <g id="matplotlib.axis_2">
    <g id="ytick_1">
     <g id="line2d_6">
      <path d="M 90 123.12 
L 648 123.12 
" clip-path="url(#pce5656f0d1)" style="fill: none; stroke: #cccccc; stroke-width: 0.8; stroke-linecap: square"/>
     </g>
     <g id="line2d_7">
      <defs>
       <path id="me579744be9" d="M 0 0 
L -3.5 0 
" style="stroke: #000000; stroke-width: 0.8"/>
      </defs>
      <g>
       <use xlink:href="#me579744be9" x="90" y="123.12" style="stroke: #000000; stroke-width: 0.8"/>
      </g>
     </g>
     <g id="text_6">
      <text style="font: 10px 'Lato', sans-serif; text-anchor: end" x="83" y="126.802813" transform="rotate(-0 83 126.802813)">100</text>
     </g>
    </g>
    <g id="ytick_2">
     <g id="line2d_8">
      <path d="M 90 92.232356 
L 648 92.232356 
" clip-path="url(#pce5656f0d1)" style="fill: none; stroke: #cccccc; stroke-width: 0.8; stroke-linecap: square"/>
     </g>
     <g id="line2d_9">
      <g>
       <use xlink:href="#me579744be9" x="90" y="92.232356" style="stroke: #000000; stroke-width: 0.8"/>
      </g>
     </g>
     <g id="text_7">
      <text style="font: 10px 'Lato', sans-serif; text-anchor: end" x="83" y="95.915168" transform="rotate(-0 83 95.915168)">0</text>
     </g>
    </g>
    <g id="ytick_3">
     <g id="line2d_10">
      <path d="M 90 61.344712 
L 648 61.344712 
" clip-path="url(#pce5656f0d1)" style="fill: none; stroke: #cccccc; stroke-width: 0.8; stroke-linecap: square"/>
     </g>
     <g id="line2d_11">
      <g>
       <use xlink:href="#me579744be9" x="90" y="61.344712" style="stroke: #000000; stroke-width: 0.8"/>
      </g>
     </g>
     <g id="text_8">
      <text style="font: 10px 'Lato', sans-serif; text-anchor: end" x="83" y="65.027524" transform="rotate(-0 83 65.027524)">100</text>
     </g>
    </g>
    <g id="ytick_4">
     <g id="line2d_12">
      <path d="M 90 30.457068 
L 648 30.457068 
" clip-path="url(#pce5656f0d1)" style="fill: none; stroke: #cccccc; stroke-width: 0.8; stroke-linecap: square"/>
     </g>
     <g id="line2d_13">
      <g>
       <use xlink:href="#me579744be9" x="90" y="30.457068" style="stroke: #000000; stroke-width: 0.8"/>
      </g>
     </g>
     <g id="text_9">
      <text style="font: 10px 'Lato', sans-serif; text-anchor: end" x="83" y="34.13988" transform="rotate(-0 83 34.13988)">200</text>
     </g>
    </g>
   </g>
   <g id="line2d_14">
    <path d="M 115.363636 92.232356 
L 120.175076 22.32 
L 124.986515 53.373707 
L 129.797955 73.467282 
L 134.609394 78.781285 
L 139.420833 83.098913 
L 144.232273 90.239605 
L 149.043712 93.560857 
L 153.855151 98.044547 
L 158.666591 103.192488 
L 163.47803 103.35855 
L 168.28947 101.199736 
L 173.100909 111.827743 
L 177.912348 114.152619 
L 182.723788 114.484745 
L 187.535227 120.961186 
L 192.346667 121.625437 
L 197.158106 121.293311 
L 201.969545 121.293311 
L 211.592424 122.289687 
L 221.215303 122.621812 
L 226.026742 122.621812 
L 235.649621 122.953937 
L 240.46106 122.787875 
L 245.2725 122.787875 
L 250.083939 122.953937 
L 254.895378 122.787875 
L 264.518257 122.787875 
L 269.329697 122.621812 
L 274.141136 122.787875 
L 278.952575 122.621812 
L 283.764015 122.621812 
L 288.575454 122.953937 
L 293.386894 122.787875 
L 298.198333 122.787875 
L 303.009772 122.953937 
L 307.821212 122.953937 
L 312.632651 122.787875 
L 317.44409 122.289687 
L 322.25553 122.953937 
L 327.066969 122.953937 
L 331.878409 122.787875 
L 336.689848 122.953937 
L 355.935606 122.953937 
L 360.747045 123.12 
L 365.558484 122.953937 
L 370.369924 122.953937 
L 375.181363 122.787875 
L 379.992802 122.953937 
L 384.804242 122.953937 
L 389.615681 122.787875 
L 399.23856 123.12 
L 404.049999 122.953937 
L 408.861439 123.12 
L 413.672878 122.953937 
L 418.484318 122.953937 
L 423.295757 123.12 
L 428.107196 122.953937 
L 447.352954 122.953937 
L 452.164393 123.12 
L 461.787272 123.12 
L 466.598711 122.953937 
L 471.410151 122.953937 
L 479.429216 123.12 
L 491.056862 123.12 
L 491.257338 122.953937 
L 491.457815 123.12 
L 503.285937 123.12 
L 503.486413 122.953937 
L 503.68689 123.12 
L 515.114059 123.12 
L 515.314535 122.953937 
L 518.321685 122.953937 
L 518.522161 123.12 
L 518.722638 123.12 
L 518.923115 122.953937 
L 519.123591 123.12 
L 529.3479 123.12 
L 529.548377 122.953937 
L 529.748853 123.12 
L 533.758386 123.12 
L 533.958863 122.953937 
L 534.159339 123.12 
L 559.619873 123.12 
L 559.820349 122.953937 
L 560.020826 123.12 
L 565.634172 123.12 
L 565.834649 122.953937 
L 566.035125 123.12 
L 581.87278 123.12 
L 582.073257 122.953937 
L 582.273733 123.12 
L 598.98012 123.12 
L 599.013533 122.953937 
L 599.080358 123.12 
L 599.347661 123.12 
L 599.481312 122.953937 
L 599.58155 122.953937 
L 599.715201 123.12 
L 606.464581 123.12 
L 606.497994 122.953937 
L 606.56482 123.12 
L 620.130406 123.12 
L 620.163818 122.953937 
L 620.230644 123.12 
L 622.636364 123.12 
L 622.636364 123.12 
" clip-path="url(#pce5656f0d1)" style="fill: none; stroke: #1f77b4; stroke-width: 1.5; stroke-linecap: square"/>
   </g>
   <g id="line2d_15">
    <path d="M 90 92.232356 
L 648 92.232356 
" clip-path="url(#pce5656f0d1)" style="fill: none; stroke-dasharray: 2.96,1.28; stroke-dashoffset: 0; stroke: #808080; stroke-width: 0.8"/>
   </g>
  </g>
 </g>
 <defs>
  <clipPath id="pce5656f0d1">
   <rect x="90" y="17.28" width="558" height="110.88"/>
  </clipPath>
 </defs>
</svg>
