<?xml version="1.0" encoding="utf-8" standalone="no"?>
<!DOCTYPE svg PUBLIC "-//W3C//DTD SVG 1.1//EN"
  "http://www.w3.org/Graphics/SVG/1.1/DTD/svg11.dtd">
<svg xmlns:xlink="http://www.w3.org/1999/xlink" width="720pt" height="144pt" viewBox="0 0 720 144" xmlns="http://www.w3.org/2000/svg" version="1.1">
 <metadata>
  <rdf:RDF xmlns:dc="http://purl.org/dc/elements/1.1/" xmlns:cc="http://creativecommons.org/ns#" xmlns:rdf="http://www.w3.org/1999/02/22-rdf-syntax-ns#">
   <cc:Work>
    <dc:type rdf:resource="http://purl.org/dc/dcmitype/StillImage"/>
    <dc:date>2024-12-08T11:02:01.465857</dc:date>
    <dc:format>image/svg+xml</dc:format>
    <dc:creator>
     <cc:Agent>
      <dc:title>Matplotlib v3.9.3, https://matplotlib.org/</dc:title>
     </cc:Agent>
    </dc:creator>
   </cc:Work>
  </rdf:RDF>
 </metadata>
 <defs>
  <style type="text/css">*{stroke-linejoin: round; stroke-linecap: butt}</style>
 </defs>
 <g id="figure_1">
  <g id="patch_1">
   <path d="M 0 144 
L 720 144 
L 720 0 
L 0 0 
z
" style="fill: #ffffff"/>
  </g>
  <g id="axes_1">
   <g id="patch_2">
    <path d="M 90 128.16 
L 648 128.16 
L 648 17.28 
L 90 17.28 
L 90 128.16 
z
" style="fill: none; opacity: 0"/>
   </g>
   <g id="PolyCollection_1">
    <defs>
     <path id="m6ed483b67d" d="M 115.363636 -51.767644 
L 115.363636 -51.767644 
L 120.194805 -121.68 
L 125.025974 -90.626293 
L 129.857143 -70.532718 
L 134.688312 -65.218715 
L 139.519481 -60.901087 
L 144.350649 -53.760395 
L 147.249351 -51.767644 
L 144.350649 -51.767644 
L 139.519481 -51.767644 
L 134.688312 -51.767644 
L 129.857143 -51.767644 
L 125.025974 -51.767644 
L 120.194805 -51.767644 
L 115.363636 -51.767644 
z
" style="stroke: #0000ff"/>
    </defs>
    <g clip-path="url(#p415095bd68)">
     <use xlink:href="#m6ed483b67d" x="0" y="144" style="fill: #0000ff; stroke: #0000ff"/>
    </g>
   </g>
   <g id="PolyCollection_2">
    <path d="M 115.363636 92.232356 
L 115.363636 92.232356 
L 115.363636 92.232356 
L 115.363636 92.232356 
z
" clip-path="url(#p415095bd68)" style="fill: #ff0000; stroke: #ff0000"/>
    <path d="M 147.249351 92.232356 
L 149.181818 93.560857 
L 154.012987 98.044547 
L 158.844156 103.192488 
L 163.675325 103.35855 
L 168.506494 101.199736 
L 173.337662 111.827743 
L 178.168831 114.152619 
L 183 114.484745 
L 187.831169 120.961186 
L 192.662338 121.625437 
L 197.493506 121.293311 
L 202.324675 121.293311 
L 207.155844 121.791499 
L 211.987013 122.289687 
L 216.818182 122.45575 
L 221.649351 122.621812 
L 226.480519 122.621812 
L 231.311688 122.787875 
L 236.142857 122.953937 
L 240.974026 122.787875 
L 245.805195 122.787875 
L 250.636364 122.953937 
L 255.467532 122.787875 
L 260.298701 122.787875 
L 265.12987 122.787875 
L 269.961039 122.621812 
L 274.792208 122.787875 
L 279.623377 122.621812 
L 284.454545 122.621812 
L 289.285714 122.953937 
L 294.116883 122.787875 
L 298.948052 122.787875 
L 303.779221 122.953937 
L 308.61039 122.953937 
L 313.441558 122.787875 
L 318.272727 122.289687 
L 323.103896 122.953937 
L 327.935065 122.953937 
L 332.766234 122.787875 
L 337.597403 122.953937 
L 342.428571 122.953937 
L 347.25974 122.953937 
L 352.090909 122.953937 
L 356.922078 122.953937 
L 361.753247 123.12 
L 366.584416 122.953937 
L 371.415584 122.953937 
L 376.246753 122.787875 
L 381.077922 122.953937 
L 385.909091 122.953937 
L 390.74026 122.787875 
L 395.571429 122.953937 
L 400.402597 123.12 
L 405.233766 122.953937 
L 410.064935 123.12 
L 414.896104 122.953937 
L 419.727273 122.953937 
L 424.558442 123.12 
L 429.38961 122.953937 
L 434.220779 122.953937 
L 439.051948 122.953937 
L 443.883117 122.953937 
L 448.714286 122.953937 
L 453.545455 123.12 
L 458.376623 123.12 
L 463.207792 123.12 
L 468.038961 122.953937 
L 472.87013 122.953937 
L 477.701299 123.12 
L 482.532468 123.12 
L 487.363636 123.12 
L 492.194805 122.953937 
L 497.025974 123.12 
L 501.857143 122.953937 
L 506.688312 123.12 
L 511.519481 123.12 
L 516.350649 120.296936 
L 521.181818 123.12 
L 526.012987 123.12 
L 530.844156 122.953937 
L 535.675325 122.953937 
L 540.506494 123.12 
L 545.337662 123.12 
L 550.168831 123.12 
L 555 123.12 
L 559.831169 122.953937 
L 564.662338 122.953937 
L 569.493506 123.12 
L 574.324675 123.12 
L 579.155844 123.12 
L 583.987013 122.953937 
L 588.818182 123.12 
L 593.649351 123.12 
L 598.480519 121.791499 
L 603.311688 123.12 
L 608.142857 122.953937 
L 612.974026 123.12 
L 617.805195 122.953937 
L 622.636364 123.12 
L 622.636364 123.12 
L 622.636364 92.232356 
L 617.805195 92.232356 
L 612.974026 92.232356 
L 608.142857 92.232356 
L 603.311688 92.232356 
L 598.480519 92.232356 
L 593.649351 92.232356 
L 588.818182 92.232356 
L 583.987013 92.232356 
L 579.155844 92.232356 
L 574.324675 92.232356 
L 569.493506 92.232356 
L 564.662338 92.232356 
L 559.831169 92.232356 
L 555 92.232356 
L 550.168831 92.232356 
L 545.337662 92.232356 
L 540.506494 92.232356 
L 535.675325 92.232356 
L 530.844156 92.232356 
L 526.012987 92.232356 
L 521.181818 92.232356 
L 516.350649 92.232356 
L 511.519481 92.232356 
L 506.688312 92.232356 
L 501.857143 92.232356 
L 497.025974 92.232356 
L 492.194805 92.232356 
L 487.363636 92.232356 
L 482.532468 92.232356 
L 477.701299 92.232356 
L 472.87013 92.232356 
L 468.038961 92.232356 
L 463.207792 92.232356 
L 458.376623 92.232356 
L 453.545455 92.232356 
L 448.714286 92.232356 
L 443.883117 92.232356 
L 439.051948 92.232356 
L 434.220779 92.232356 
L 429.38961 92.232356 
L 424.558442 92.232356 
L 419.727273 92.232356 
L 414.896104 92.232356 
L 410.064935 92.232356 
L 405.233766 92.232356 
L 400.402597 92.232356 
L 395.571429 92.232356 
L 390.74026 92.232356 
L 385.909091 92.232356 
L 381.077922 92.232356 
L 376.246753 92.232356 
L 371.415584 92.232356 
L 366.584416 92.232356 
L 361.753247 92.232356 
L 356.922078 92.232356 
L 352.090909 92.232356 
L 347.25974 92.232356 
L 342.428571 92.232356 
L 337.597403 92.232356 
L 332.766234 92.232356 
L 327.935065 92.232356 
L 323.103896 92.232356 
L 318.272727 92.232356 
L 313.441558 92.232356 
L 308.61039 92.232356 
L 303.779221 92.232356 
L 298.948052 92.232356 
L 294.116883 92.232356 
L 289.285714 92.232356 
L 284.454545 92.232356 
L 279.623377 92.232356 
L 274.792208 92.232356 
L 269.961039 92.232356 
L 265.12987 92.232356 
L 260.298701 92.232356 
L 255.467532 92.232356 
L 250.636364 92.232356 
L 245.805195 92.232356 
L 240.974026 92.232356 
L 236.142857 92.232356 
L 231.311688 92.232356 
L 226.480519 92.232356 
L 221.649351 92.232356 
L 216.818182 92.232356 
L 211.987013 92.232356 
L 207.155844 92.232356 
L 202.324675 92.232356 
L 197.493506 92.232356 
L 192.662338 92.232356 
L 187.831169 92.232356 
L 183 92.232356 
L 178.168831 92.232356 
L 173.337662 92.232356 
L 168.506494 92.232356 
L 163.675325 92.232356 
L 158.844156 92.232356 
L 154.012987 92.232356 
L 149.181818 92.232356 
z
" clip-path="url(#p415095bd68)" style="fill: #ff0000; stroke: #ff0000"/>
   </g>
   <g id="matplotlib.axis_1">
    <g id="xtick_1">
     <g id="line2d_1">
      <defs>
       <path id="m3d3073c978" d="M 0 0 
L 0 3.5 
" style="stroke: #000000; stroke-width: 0.8"/>
      </defs>
      <g>
       <use xlink:href="#m3d3073c978" x="125.025974" y="128.16" style="stroke: #000000; stroke-width: 0.8"/>
      </g>
     </g>
     <g id="text_1">
      <text style="font: 8px 'Lato', sans-serif; text-anchor: middle" x="125.025974" y="141.0525" transform="rotate(-0 125.025974 141.0525)">Jan 1970</text>
     </g>
    </g>
    <g id="xtick_2">
     <g id="line2d_2">
      <g>
       <use xlink:href="#m3d3073c978" x="221.649351" y="128.16" style="stroke: #000000; stroke-width: 0.8"/>
      </g>
     </g>
     <g id="text_2">
      <text style="font: 8px 'Lato', sans-serif; text-anchor: middle" x="221.649351" y="141.0525" transform="rotate(-0 221.649351 141.0525)">Jan 1970</text>
     </g>
    </g>
    <g id="xtick_3">
     <g id="line2d_3">
      <g>
       <use xlink:href="#m3d3073c978" x="318.272727" y="128.16" style="stroke: #000000; stroke-width: 0.8"/>
      </g>
     </g>
     <g id="text_3">
      <text style="font: 8px 'Lato', sans-serif; text-anchor: middle" x="318.272727" y="141.0525" transform="rotate(-0 318.272727 141.0525)">Jan 1970</text>
     </g>
    </g>
    <g id="xtick_4">
     <g id="line2d_4">
      <g>
       <use xlink:href="#m3d3073c978" x="414.896104" y="128.16" style="stroke: #000000; stroke-width: 0.8"/>
      </g>
     </g>
     <g id="text_4">
      <text style="font: 8px 'Lato', sans-serif; text-anchor: middle" x="414.896104" y="141.0525" transform="rotate(-0 414.896104 141.0525)">Jan 1970</text>
     </g>
    </g>
    <g id="xtick_5">
     <g id="line2d_5">
      <g>
       <use xlink:href="#m3d3073c978" x="511.519481" y="128.16" style="stroke: #000000; stroke-width: 0.8"/>
      </g>
     </g>
     <g id="text_5">
      <text style="font: 8px 'Lato', sans-serif; text-anchor: middle" x="511.519481" y="141.0525" transform="rotate(-0 511.519481 141.0525)">Jan 1970</text>
     </g>
    </g>
    <g id="xtick_6">
     <g id="line2d_6">
      <g>
       <use xlink:href="#m3d3073c978" x="608.142857" y="128.16" style="stroke: #000000; stroke-width: 0.8"/>
      </g>
     </g>
     <g id="text_6">
      <text style="font: 8px 'Lato', sans-serif; text-anchor: middle" x="608.142857" y="141.0525" transform="rotate(-0 608.142857 141.0525)">Jan 1970</text>
     </g>
    </g>
   </g>
   <g id="matplotlib.axis_2">
    <g id="ytick_1">
     <g id="line2d_7">
      <path d="M 90 123.12 
L 648 123.12 
" clip-path="url(#p415095bd68)" style="fill: none; stroke: #cccccc; stroke-width: 0.8; stroke-linecap: square"/>
     </g>
     <g id="line2d_8">
      <defs>
       <path id="mc7506cd9ed" d="M 0 0 
L -3.5 0 
" style="stroke: #000000; stroke-width: 0.8"/>
      </defs>
      <g>
       <use xlink:href="#mc7506cd9ed" x="90" y="123.12" style="stroke: #000000; stroke-width: 0.8"/>
      </g>
     </g>
     <g id="text_7">
      <text style="font: 8px 'Lato', sans-serif; text-anchor: end" x="83" y="126.06625" transform="rotate(-0 83 126.06625)">−100</text>
     </g>
    </g>
    <g id="ytick_2">
     <g id="line2d_9">
      <path d="M 90 92.232356 
L 648 92.232356 
" clip-path="url(#p415095bd68)" style="fill: none; stroke: #cccccc; stroke-width: 0.8; stroke-linecap: square"/>
     </g>
     <g id="line2d_10">
      <g>
       <use xlink:href="#mc7506cd9ed" x="90" y="92.232356" style="stroke: #000000; stroke-width: 0.8"/>
      </g>
     </g>
     <g id="text_8">
      <text style="font: 8px 'Lato', sans-serif; text-anchor: end" x="83" y="95.178606" transform="rotate(-0 83 95.178606)">0</text>
     </g>
    </g>
    <g id="ytick_3">
     <g id="line2d_11">
      <path d="M 90 61.344712 
L 648 61.344712 
" clip-path="url(#p415095bd68)" style="fill: none; stroke: #cccccc; stroke-width: 0.8; stroke-linecap: square"/>
     </g>
     <g id="line2d_12">
      <g>
       <use xlink:href="#mc7506cd9ed" x="90" y="61.344712" style="stroke: #000000; stroke-width: 0.8"/>
      </g>
     </g>
     <g id="text_9">
      <text style="font: 8px 'Lato', sans-serif; text-anchor: end" x="83" y="64.290962" transform="rotate(-0 83 64.290962)">100</text>
     </g>
    </g>
    <g id="ytick_4">
     <g id="line2d_13">
      <path d="M 90 30.457068 
L 648 30.457068 
" clip-path="url(#p415095bd68)" style="fill: none; stroke: #cccccc; stroke-width: 0.8; stroke-linecap: square"/>
     </g>
     <g id="line2d_14">
      <g>
       <use xlink:href="#mc7506cd9ed" x="90" y="30.457068" style="stroke: #000000; stroke-width: 0.8"/>
      </g>
     </g>
     <g id="text_10">
      <text style="font: 8px 'Lato', sans-serif; text-anchor: end" x="83" y="33.403318" transform="rotate(-0 83 33.403318)">200</text>
     </g>
    </g>
   </g>
   <g id="line2d_15">
    <path d="M 115.363636 92.232356 
L 120.194805 22.32 
L 125.025974 53.373707 
L 129.857143 73.467282 
L 134.688312 78.781285 
L 139.519481 83.098913 
L 144.350649 90.239605 
L 149.181818 93.560857 
L 154.012987 98.044547 
L 158.844156 103.192488 
L 163.675325 103.35855 
L 168.506494 101.199736 
L 173.337662 111.827743 
L 178.168831 114.152619 
L 183 114.484745 
L 187.831169 120.961186 
L 192.662338 121.625437 
L 197.493506 121.293311 
L 202.324675 121.293311 
L 207.155844 121.791499 
L 211.987013 122.289687 
L 216.818182 122.45575 
L 221.649351 122.621812 
L 226.480519 122.621812 
L 231.311688 122.787875 
L 236.142857 122.953937 
L 240.974026 122.787875 
L 245.805195 122.787875 
L 250.636364 122.953937 
L 255.467532 122.787875 
L 260.298701 122.787875 
L 265.12987 122.787875 
L 269.961039 122.621812 
L 274.792208 122.787875 
L 279.623377 122.621812 
L 284.454545 122.621812 
L 289.285714 122.953937 
L 294.116883 122.787875 
L 298.948052 122.787875 
L 303.779221 122.953937 
L 308.61039 122.953937 
L 313.441558 122.787875 
L 318.272727 122.289687 
L 323.103896 122.953937 
L 327.935065 122.953937 
L 332.766234 122.787875 
L 337.597403 122.953937 
L 342.428571 122.953937 
L 347.25974 122.953937 
L 352.090909 122.953937 
L 356.922078 122.953937 
L 361.753247 123.12 
L 366.584416 122.953937 
L 371.415584 122.953937 
L 376.246753 122.787875 
L 381.077922 122.953937 
L 385.909091 122.953937 
L 390.74026 122.787875 
L 395.571429 122.953937 
L 400.402597 123.12 
L 405.233766 122.953937 
L 410.064935 123.12 
L 414.896104 122.953937 
L 419.727273 122.953937 
L 424.558442 123.12 
L 429.38961 122.953937 
L 434.220779 122.953937 
L 439.051948 122.953937 
L 443.883117 122.953937 
L 448.714286 122.953937 
L 453.545455 123.12 
L 458.376623 123.12 
L 463.207792 123.12 
L 468.038961 122.953937 
L 472.87013 122.953937 
L 477.701299 123.12 
L 482.532468 123.12 
L 487.363636 123.12 
L 492.194805 122.953937 
L 497.025974 123.12 
L 501.857143 122.953937 
L 506.688312 123.12 
L 511.519481 123.12 
L 516.350649 120.296936 
L 521.181818 123.12 
L 526.012987 123.12 
L 530.844156 122.953937 
L 535.675325 122.953937 
L 540.506494 123.12 
L 545.337662 123.12 
L 550.168831 123.12 
L 555 123.12 
L 559.831169 122.953937 
L 564.662338 122.953937 
L 569.493506 123.12 
L 574.324675 123.12 
L 579.155844 123.12 
L 583.987013 122.953937 
L 588.818182 123.12 
L 593.649351 123.12 
L 598.480519 121.791499 
L 603.311688 123.12 
L 608.142857 122.953937 
L 612.974026 123.12 
L 617.805195 122.953937 
L 622.636364 123.12 
" clip-path="url(#p415095bd68)" style="fill: none; stroke: #1f77b4; stroke-width: 1.5; stroke-linecap: square"/>
   </g>
   <g id="line2d_16">
    <path d="M 90 92.232356 
L 648 92.232356 
" clip-path="url(#p415095bd68)" style="fill: none; stroke-dasharray: 2.96,1.28; stroke-dashoffset: 0; stroke: #808080; stroke-width: 0.8"/>
   </g>
  </g>
 </g>
 <defs>
  <clipPath id="p415095bd68">
   <rect x="90" y="17.28" width="558" height="110.88"/>
  </clipPath>
 </defs>
</svg>
