<?xml version="1.0" encoding="utf-8" standalone="no"?>
<!DOCTYPE svg PUBLIC "-//W3C//DTD SVG 1.1//EN"
  "http://www.w3.org/Graphics/SVG/1.1/DTD/svg11.dtd">
<svg xmlns:xlink="http://www.w3.org/1999/xlink" width="720pt" height="432pt" viewBox="0 0 720 432" xmlns="http://www.w3.org/2000/svg" version="1.1">
 <metadata>
  <rdf:RDF xmlns:dc="http://purl.org/dc/elements/1.1/" xmlns:cc="http://creativecommons.org/ns#" xmlns:rdf="http://www.w3.org/1999/02/22-rdf-syntax-ns#">
   <cc:Work>
    <dc:type rdf:resource="http://purl.org/dc/dcmitype/StillImage"/>
    <dc:date>2024-12-04T19:43:17.723339</dc:date>
    <dc:format>image/svg+xml</dc:format>
    <dc:creator>
     <cc:Agent>
      <dc:title>Matplotlib v3.9.3, https://matplotlib.org/</dc:title>
     </cc:Agent>
    </dc:creator>
   </cc:Work>
  </rdf:RDF>
 </metadata>
 <defs>
  <style type="text/css">*{stroke-linejoin: round; stroke-linecap: butt}</style>
 </defs>
 <g id="figure_1">
  <g id="patch_1">
   <path d="M 0 432 
L 720 432 
L 720 0 
L 0 0 
z
" style="fill: #ffffff"/>
  </g>
  <g id="axes_1">
   <g id="patch_2">
    <path d="M 35.17 405.56 
L 709.2 405.56 
L 709.2 13.081506 
L 35.17 13.081506 
z
" style="fill: #ffffff"/>
   </g>
   <g id="line2d_1">
    <path d="M 65.807727 115.308566 
L 70.956925 115.308566 
L 76.106123 115.308566 
L 81.255321 115.308566 
L 86.404519 61.643277 
L 91.553717 60.020447 
L 96.702914 60.020447 
L 101.852112 60.468124 
L 107.00131 59.908528 
L 112.150508 59.908528 
L 117.299706 60.244286 
L 122.448904 59.908528 
L 127.598102 59.908528 
L 132.747299 59.348932 
L 137.896497 59.740649 
L 143.045695 59.740649 
L 148.194893 60.859842 
L 153.344091 60.859842 
L 158.493289 61.587317 
L 163.642487 61.587317 
L 168.791684 62.202873 
L 173.940882 62.202873 
L 179.09008 63.601864 
L 184.239278 63.993581 
L 189.388476 63.993581 
L 194.537674 64.385299 
L 199.686872 71.716011 
L 204.83607 71.716011 
L 209.985267 73.3948 
L 215.134465 74.010356 
L 220.283663 74.010356 
L 225.432861 73.954396 
L 230.582059 73.954396 
L 235.731257 74.178235 
L 240.880455 77.088136 
L 246.029652 77.088136 
L 251.17885 79.4944 
L 256.328048 79.4944 
L 261.477246 80.557633 
L 266.626444 80.557633 
L 271.775642 80.893391 
L 276.92484 80.893391 
L 282.074037 81.452987 
L 287.223235 81.452987 
L 292.372433 81.900664 
L 297.521631 81.900664 
L 302.670829 82.012584 
L 307.820027 82.51622 
L 312.969225 82.51622 
L 318.118422 82.796019 
L 323.26762 82.796019 
L 328.416818 83.691373 
L 333.566016 83.803292 
L 338.715214 83.803292 
L 343.864412 84.195009 
L 349.01361 84.195009 
L 354.162807 84.586727 
L 359.312005 84.922485 
L 364.461203 84.922485 
L 369.610401 85.370162 
L 374.759599 85.70592 
L 379.908797 85.70592 
L 385.057995 86.992991 
L 390.207193 88.839659 
L 395.35639 88.839659 
L 400.505588 92.700874 
L 405.654786 93.764107 
L 410.803984 93.764107 
L 415.953182 101.934214 
L 421.10238 101.934214 
L 426.251578 110.887755 
L 431.400775 120.90453 
L 436.549973 123.870391 
L 441.699171 127.283928 
L 446.848369 132.488174 
L 451.997567 137.74838 
L 457.146765 141.889393 
L 462.295963 145.862527 
L 467.44516 147.429397 
L 472.594358 149.220105 
L 477.743556 150.731015 
L 482.892754 151.850208 
L 488.041952 153.13728 
L 493.19115 154.032634 
L 498.340348 154.59223 
L 503.489545 155.823342 
L 508.638743 156.662737 
L 513.787941 159.964355 
L 518.937139 162.594458 
L 524.086337 165.616278 
L 529.235535 167.351027 
L 534.384733 168.526179 
L 539.53393 169.98113 
L 544.683128 171.324161 
L 549.832326 172.387394 
L 554.981524 173.170829 
L 560.130722 173.618506 
L 565.27992 174.290021 
L 570.429118 174.961537 
L 575.578316 175.241335 
L 580.727513 175.968811 
L 585.876711 176.528407 
L 591.025909 176.976084 
L 596.175107 177.423761 
L 601.324305 177.759519 
L 606.473503 177.927398 
L 611.622701 178.151236 
L 616.771898 178.710833 
L 621.921096 178.766792 
L 627.070294 179.04659 
L 632.219492 179.438308 
L 637.36869 179.550227 
L 642.517888 179.662146 
L 647.667086 179.885985 
L 652.816283 180.165783 
L 657.965481 180.389622 
L 663.114679 180.333662 
L 668.263877 180.277702 
L 673.413075 180.501541 
L 678.562273 180.557501 
" clip-path="url(#p7fa95d6c52)" style="fill: none; stroke: #e6e6e6; stroke-width: 1.5; stroke-linecap: square"/>
   </g>
   <g id="line2d_2">
    <path d="M 65.807727 58.509537 
L 70.956925 69.757424 
L 76.106123 76.248741 
L 81.255321 78.487127 
L 86.404519 79.886118 
L 91.553717 81.11723 
L 96.702914 82.348342 
L 101.852112 82.740059 
L 107.00131 82.907938 
L 112.150508 83.299655 
L 117.299706 83.075817 
L 122.448904 83.131776 
L 127.598102 83.411575 
L 132.747299 83.747332 
L 137.896497 83.747332 
L 143.045695 82.684099 
L 148.194893 82.51622 
L 153.344091 82.236422 
L 158.493289 82.012584 
L 163.642487 82.012584 
L 168.791684 82.012584 
L 173.940882 81.956624 
L 179.09008 82.124503 
L 184.239278 82.236422 
L 189.388476 82.348342 
L 194.537674 82.460261 
L 199.686872 82.180463 
L 204.83607 82.124503 
L 209.985267 82.124503 
L 215.134465 82.124503 
L 220.283663 82.068543 
L 225.432861 82.180463 
L 230.582059 82.180463 
L 235.731257 82.236422 
L 240.880455 82.236422 
L 246.029652 82.236422 
L 251.17885 82.068543 
L 256.328048 81.956624 
L 261.477246 82.012584 
L 266.626444 81.956624 
L 271.775642 81.956624 
L 276.92484 81.956624 
L 282.074037 81.956624 
L 287.223235 82.012584 
L 292.372433 82.068543 
L 297.521631 82.124503 
L 302.670829 82.124503 
L 307.820027 81.788745 
L 312.969225 81.732786 
L 318.118422 81.620866 
L 323.26762 81.508947 
L 328.416818 81.620866 
L 333.566016 81.620866 
L 338.715214 81.620866 
L 343.864412 81.676826 
L 349.01361 81.676826 
L 354.162807 81.676826 
L 359.312005 81.620866 
L 364.461203 81.620866 
L 369.610401 81.732786 
L 374.759599 81.732786 
L 379.908797 81.732786 
L 385.057995 81.732786 
L 390.207193 81.788745 
L 395.35639 81.900664 
L 400.505588 82.124503 
L 405.654786 82.124503 
L 410.803984 82.180463 
L 415.953182 82.236422 
L 421.10238 82.292382 
L 426.251578 82.292382 
L 431.400775 82.460261 
L 436.549973 82.57218 
L 441.699171 82.62814 
L 446.848369 82.907938 
L 451.997567 82.963898 
L 457.146765 83.075817 
L 462.295963 83.131776 
L 467.44516 83.187736 
L 472.594358 83.299655 
L 477.743556 83.411575 
L 482.892754 83.523494 
L 488.041952 83.635413 
L 493.19115 83.747332 
L 498.340348 83.915211 
L 503.489545 84.027131 
L 508.638743 84.08309 
L 513.787941 84.250969 
L 518.937139 84.250969 
L 524.086337 84.306929 
L 529.235535 84.306929 
L 534.384733 84.306929 
L 539.53393 84.306929 
L 544.683128 84.418848 
L 549.832326 84.530767 
L 554.981524 84.530767 
L 560.130722 84.474808 
L 565.27992 84.474808 
L 570.429118 84.586727 
L 575.578316 84.698646 
L 580.727513 84.754606 
L 585.876711 84.810565 
L 591.025909 84.978444 
L 596.175107 84.978444 
L 601.324305 84.978444 
L 606.473503 85.090364 
L 611.622701 85.146323 
L 616.771898 85.258243 
L 621.921096 85.314202 
L 627.070294 85.314202 
L 632.219492 85.426121 
L 637.36869 85.538041 
L 642.517888 85.538041 
L 647.667086 85.70592 
L 652.816283 85.761879 
L 657.965481 85.817839 
L 663.114679 85.873799 
L 668.263877 85.929758 
L 673.413075 85.817839 
L 678.562273 85.761879 
" clip-path="url(#p7fa95d6c52)" style="fill: none; stroke: #e6e6e6; stroke-width: 1.5; stroke-linecap: square"/>
   </g>
   <g id="line2d_3">
    <path d="M 65.807727 77.535813 
L 70.956925 48.88448 
L 76.106123 45.526902 
L 81.255321 44.575588 
L 86.404519 46.646095 
L 91.553717 47.429529 
L 96.702914 48.324884 
L 101.852112 49.444076 
L 107.00131 50.33943 
L 112.150508 52.186098 
L 117.299706 52.913574 
L 122.448904 53.864887 
L 127.598102 54.200645 
L 132.747299 54.872161 
L 137.896497 55.655596 
L 143.045695 56.327111 
L 148.194893 57.446304 
L 153.344091 57.614183 
L 158.493289 57.838022 
L 163.642487 58.173779 
L 168.791684 58.453578 
L 173.940882 59.013174 
L 179.09008 59.404891 
L 184.239278 59.908528 
L 189.388476 60.244286 
L 194.537674 60.524084 
L 199.686872 61.08368 
L 204.83607 61.475398 
L 209.985267 61.923075 
L 215.134465 62.370752 
L 220.283663 62.762469 
L 225.432861 63.210146 
L 230.582059 63.489945 
L 235.731257 63.993581 
L 240.880455 64.385299 
L 246.029652 65.056814 
L 251.17885 65.392572 
L 256.328048 65.78429 
L 261.477246 66.064088 
L 266.626444 66.343886 
L 271.775642 66.511765 
L 276.92484 66.735603 
L 282.074037 67.183281 
L 287.223235 67.2952 
L 292.372433 67.630958 
L 297.521631 67.798837 
L 302.670829 67.966715 
L 307.820027 68.022675 
L 312.969225 68.358433 
L 318.118422 68.638231 
L 323.26762 68.694191 
L 328.416818 68.414392 
L 333.566016 67.23924 
L 338.715214 66.903482 
L 343.864412 66.623684 
L 349.01361 66.399846 
L 354.162807 66.231967 
" clip-path="url(#p7fa95d6c52)" style="fill: none; stroke: #e6e6e6; stroke-width: 1.5; stroke-linecap: square"/>
   </g>
   <g id="line2d_4">
    <path d="M 65.807727 320.904265 
L 70.956925 306.410719 
L 76.106123 287.88808 
L 81.255321 283.24343 
L 86.404519 281.172924 
L 91.553717 278.65474 
L 96.702914 279.438175 
L 101.852112 280.557368 
L 107.00131 281.116964 
L 112.150508 281.396762 
L 117.299706 276.472315 
L 122.448904 274.905445 
L 127.598102 270.932311 
L 132.747299 270.484634 
L 137.896497 268.078369 
L 143.045695 267.742612 
L 148.194893 266.959177 
L 153.344091 266.007863 
L 158.493289 264.217155 
L 163.642487 262.930083 
L 168.791684 261.978769 
L 173.940882 262.146648 
L 179.09008 262.202608 
L 184.239278 262.258567 
L 189.388476 262.818164 
L 194.537674 262.874123 
L 199.686872 262.370487 
L 204.83607 261.922809 
L 209.985267 261.531092 
L 215.134465 261.251294 
L 220.283663 260.803617 
L 225.432861 261.419173 
L 230.582059 260.971496 
L 235.731257 261.363213 
L 240.880455 261.419173 
L 246.029652 261.587052 
L 251.17885 261.531092 
L 256.328048 261.754931 
L 261.477246 261.81089 
L 266.626444 261.643011 
L 271.775642 261.307254 
L 276.92484 260.859576 
L 282.074037 260.691698 
L 287.223235 259.964222 
L 292.372433 259.852303 
L 297.521631 260.29998 
L 302.670829 259.908263 
L 307.820027 260.579778 
L 312.969225 260.747657 
L 318.118422 260.971496 
L 323.26762 260.915536 
L 328.416818 261.475132 
L 333.566016 261.698971 
L 338.715214 261.698971 
L 343.864412 262.258567 
L 349.01361 262.202608 
L 354.162807 262.538365 
L 359.312005 263.881397 
L 364.461203 263.993316 
L 369.610401 263.825437 
L 374.759599 263.265841 
L 379.908797 263.265841 
L 385.057995 262.818164 
L 390.207193 262.594325 
L 395.35639 262.594325 
L 400.505588 262.594325 
L 405.654786 262.034729 
L 410.803984 262.146648 
L 415.953182 261.978769 
L 421.10238 261.86685 
L 426.251578 261.86685 
L 431.400775 261.419173 
L 436.549973 261.419173 
L 441.699171 261.81089 
L 446.848369 262.034729 
L 451.997567 261.754931 
L 457.146765 261.754931 
L 462.295963 261.698971 
L 467.44516 261.86685 
L 472.594358 261.643011 
L 477.743556 261.475132 
L 482.892754 261.307254 
L 488.041952 261.419173 
L 493.19115 261.307254 
L 498.340348 260.188061 
L 503.489545 256.830483 
L 508.638743 253.528864 
L 513.787941 251.570277 
L 518.937139 250.842802 
L 524.086337 249.499771 
L 529.235535 249.275932 
" clip-path="url(#p7fa95d6c52)" style="fill: none; stroke: #e6e6e6; stroke-width: 1.5; stroke-linecap: square"/>
   </g>
   <g id="line2d_5">
    <path d="M 65.807727 71.771971 
L 70.956925 71.771971 
L 76.106123 71.771971 
L 81.255321 71.771971 
L 86.404519 71.660051 
L 91.553717 70.428939 
L 96.702914 70.428939 
L 101.852112 69.645504 
L 107.00131 68.078635 
L 112.150508 68.078635 
L 117.299706 67.23924 
L 122.448904 67.519038 
L 127.598102 67.519038 
L 132.747299 67.574998 
L 137.896497 66.511765 
L 143.045695 66.511765 
L 148.194893 66.064088 
L 153.344091 66.064088 
L 158.493289 65.224693 
L 163.642487 65.224693 
L 168.791684 64.385299 
L 173.940882 64.385299 
L 179.09008 65.224693 
L 184.239278 65.392572 
L 189.388476 65.392572 
L 194.537674 64.832976 
L 199.686872 64.609137 
L 204.83607 64.609137 
L 209.985267 64.944895 
L 215.134465 64.944895 
L 220.283663 64.944895 
L 225.432861 64.497218 
L 230.582059 64.497218 
L 235.731257 64.329339 
L 240.880455 63.825702 
L 246.029652 63.825702 
L 251.17885 63.937622 
L 256.328048 63.937622 
L 261.477246 63.993581 
L 266.626444 63.993581 
L 271.775642 63.881662 
L 276.92484 63.881662 
L 282.074037 63.825702 
L 287.223235 63.825702 
L 292.372433 64.049541 
L 297.521631 64.049541 
L 302.670829 64.16146 
L 307.820027 63.937622 
L 312.969225 63.937622 
L 318.118422 64.16146 
L 323.26762 64.16146 
L 328.416818 64.049541 
L 333.566016 63.881662 
L 338.715214 63.881662 
L 343.864412 63.881662 
L 349.01361 63.881662 
L 354.162807 64.049541 
L 359.312005 64.21742 
L 364.461203 64.21742 
L 369.610401 63.993581 
L 374.759599 64.16146 
L 379.908797 64.16146 
L 385.057995 64.049541 
L 390.207193 63.881662 
L 395.35639 63.881662 
L 400.505588 63.825702 
L 405.654786 63.825702 
L 410.803984 63.825702 
L 415.953182 63.881662 
L 421.10238 63.881662 
L 426.251578 64.16146 
L 431.400775 64.16146 
L 436.549973 64.21742 
L 441.699171 64.21742 
L 446.848369 64.21742 
L 451.997567 64.049541 
L 457.146765 64.105501 
L 462.295963 63.993581 
L 467.44516 64.049541 
L 472.594358 63.993581 
L 477.743556 63.825702 
L 482.892754 63.937622 
L 488.041952 63.937622 
L 493.19115 63.881662 
L 498.340348 63.881662 
L 503.489545 63.937622 
L 508.638743 63.937622 
L 513.787941 63.825702 
L 518.937139 63.713783 
L 524.086337 63.545904 
L 529.235535 63.657824 
L 534.384733 63.713783 
L 539.53393 63.657824 
L 544.683128 63.545904 
L 549.832326 63.545904 
L 554.981524 63.489945 
L 560.130722 63.657824 
L 565.27992 63.713783 
L 570.429118 63.713783 
L 575.578316 63.713783 
L 580.727513 63.713783 
L 585.876711 63.769743 
L 591.025909 63.825702 
L 596.175107 63.937622 
L 601.324305 63.993581 
L 606.473503 64.049541 
L 611.622701 63.993581 
L 616.771898 63.993581 
L 621.921096 63.993581 
L 627.070294 63.993581 
L 632.219492 64.049541 
L 637.36869 64.105501 
L 642.517888 64.049541 
L 647.667086 63.937622 
L 652.816283 63.937622 
L 657.965481 64.105501 
L 663.114679 64.049541 
L 668.263877 64.049541 
L 673.413075 64.21742 
L 678.562273 64.21742 
" clip-path="url(#p7fa95d6c52)" style="fill: none; stroke: #e6e6e6; stroke-width: 1.5; stroke-linecap: square"/>
   </g>
   <g id="line2d_6">
    <path d="M 65.807727 30.977397 
L 70.956925 30.921437 
L 76.106123 30.977397 
L 81.255321 31.481034 
L 86.404519 32.488307 
L 91.553717 33.49558 
L 96.702914 34.446894 
L 101.852112 35.733966 
L 107.00131 37.132957 
L 112.150508 37.300836 
L 117.299706 37.580634 
L 122.448904 37.804472 
L 127.598102 37.860432 
L 132.747299 37.860432 
L 137.896497 37.860432 
L 143.045695 37.804472 
L 148.194893 37.748513 
L 153.344091 37.748513 
L 158.493289 37.524674 
L 163.642487 37.524674 
L 168.791684 37.468714 
L 173.940882 37.412755 
L 179.09008 37.300836 
L 184.239278 37.300836 
L 189.388476 37.244876 
L 194.537674 37.188916 
L 199.686872 37.132957 
L 204.83607 37.021037 
L 209.985267 36.965078 
L 215.134465 36.853158 
L 220.283663 36.797199 
L 225.432861 36.741239 
L 230.582059 36.62932 
L 235.731257 36.517401 
L 240.880455 36.461441 
L 246.029652 36.405481 
L 251.17885 36.349522 
L 256.328048 36.237603 
L 261.477246 36.181643 
L 266.626444 36.125683 
L 271.775642 36.125683 
L 276.92484 36.069724 
L 282.074037 36.013764 
L 287.223235 35.957804 
L 292.372433 35.901845 
L 297.521631 35.901845 
L 302.670829 35.845885 
L 307.820027 35.789925 
L 312.969225 35.789925 
L 318.118422 35.733966 
L 323.26762 35.733966 
L 328.416818 35.733966 
L 333.566016 35.678006 
L 338.715214 35.678006 
L 343.864412 35.678006 
L 349.01361 35.678006 
L 354.162807 35.622047 
L 359.312005 35.622047 
L 364.461203 35.622047 
L 369.610401 35.622047 
L 374.759599 35.566087 
L 379.908797 35.566087 
L 385.057995 35.566087 
L 390.207193 35.566087 
L 395.35639 35.510127 
L 400.505588 35.510127 
L 405.654786 35.510127 
L 410.803984 35.510127 
L 415.953182 35.510127 
L 421.10238 35.454168 
L 426.251578 35.454168 
L 431.400775 35.454168 
L 436.549973 35.454168 
L 441.699171 35.454168 
L 446.848369 35.454168 
L 451.997567 35.398208 
L 457.146765 35.398208 
L 462.295963 35.398208 
L 467.44516 35.398208 
L 472.594358 35.398208 
L 477.743556 35.398208 
L 482.892754 35.398208 
L 488.041952 35.342248 
L 493.19115 35.342248 
L 498.340348 35.342248 
L 503.489545 35.398208 
L 508.638743 35.510127 
L 513.787941 35.510127 
L 518.937139 35.398208 
L 524.086337 35.286289 
L 529.235535 35.230329 
L 534.384733 35.174369 
L 539.53393 35.174369 
L 544.683128 35.11841 
L 549.832326 35.11841 
L 554.981524 35.06245 
L 560.130722 35.06245 
L 565.27992 35.06245 
L 570.429118 35.06245 
L 575.578316 35.06245 
L 580.727513 34.726692 
L 585.876711 34.446894 
L 591.025909 34.279015 
L 596.175107 34.167096 
L 601.324305 34.111136 
L 606.473503 33.999217 
" clip-path="url(#p7fa95d6c52)" style="fill: none; stroke: #e6e6e6; stroke-width: 1.5; stroke-linecap: square"/>
   </g>
   <g id="line2d_7">
    <path d="M 65.807727 78.263288 
L 70.956925 78.710965 
L 76.106123 84.474808 
L 81.255321 83.131776 
L 86.404519 84.13905 
L 91.553717 81.620866 
L 96.702914 79.774198 
L 101.852112 80.053997 
L 107.00131 81.00531 
L 112.150508 81.564907 
L 117.299706 81.732786 
L 122.448904 82.180463 
L 127.598102 81.844705 
L 132.747299 81.229149 
L 137.896497 81.173189 
L 143.045695 81.285108 
L 148.194893 81.341068 
L 153.344091 81.564907 
L 158.493289 81.732786 
L 163.642487 81.900664 
L 168.791684 81.844705 
L 173.940882 81.564907 
L 179.09008 81.508947 
L 184.239278 82.236422 
L 189.388476 82.404301 
L 194.537674 82.62814 
L 199.686872 82.460261 
L 204.83607 82.124503 
L 209.985267 81.956624 
L 215.134465 81.788745 
L 220.283663 81.732786 
L 225.432861 81.732786 
L 230.582059 81.788745 
L 235.731257 81.900664 
L 240.880455 81.956624 
L 246.029652 82.068543 
L 251.17885 81.956624 
L 256.328048 81.788745 
L 261.477246 81.676826 
L 266.626444 82.012584 
L 271.775642 81.956624 
L 276.92484 82.236422 
L 282.074037 82.292382 
L 287.223235 82.236422 
L 292.372433 82.62814 
L 297.521631 82.460261 
L 302.670829 82.404301 
L 307.820027 82.62814 
L 312.969225 82.684099 
L 318.118422 82.51622 
L 323.26762 82.348342 
L 328.416818 82.404301 
L 333.566016 82.348342 
L 338.715214 82.348342 
L 343.864412 82.460261 
L 349.01361 82.57218 
L 354.162807 82.51622 
L 359.312005 82.51622 
L 364.461203 82.57218 
L 369.610401 82.62814 
L 374.759599 82.57218 
L 379.908797 82.740059 
L 385.057995 82.963898 
L 390.207193 82.740059 
L 395.35639 82.740059 
L 400.505588 82.51622 
L 405.654786 82.62814 
L 410.803984 82.57218 
L 415.953182 82.51622 
L 421.10238 82.404301 
L 426.251578 82.460261 
L 431.400775 82.404301 
L 436.549973 82.62814 
L 441.699171 82.404301 
L 446.848369 82.404301 
L 451.997567 82.51622 
L 457.146765 82.404301 
L 462.295963 82.292382 
L 467.44516 82.404301 
L 472.594358 82.348342 
L 477.743556 82.292382 
L 482.892754 82.180463 
L 488.041952 82.124503 
L 493.19115 82.124503 
L 498.340348 82.180463 
L 503.489545 82.404301 
L 508.638743 82.404301 
L 513.787941 82.124503 
L 518.937139 82.236422 
L 524.086337 82.348342 
L 529.235535 82.292382 
L 534.384733 82.348342 
L 539.53393 82.404301 
L 544.683128 82.57218 
L 549.832326 82.51622 
L 554.981524 82.51622 
L 560.130722 82.907938 
L 565.27992 83.075817 
L 570.429118 83.131776 
L 575.578316 83.243696 
L 580.727513 83.187736 
L 585.876711 83.243696 
L 591.025909 83.131776 
L 596.175107 83.187736 
L 601.324305 83.019857 
L 606.473503 83.187736 
L 611.622701 83.299655 
L 616.771898 83.411575 
L 621.921096 83.411575 
L 627.070294 83.355615 
L 632.219492 83.467534 
L 637.36869 83.467534 
L 642.517888 83.523494 
L 647.667086 83.579454 
L 652.816283 83.579454 
L 657.965481 83.579454 
L 663.114679 83.467534 
L 668.263877 83.579454 
L 673.413075 83.523494 
L 678.562273 83.523494 
" clip-path="url(#p7fa95d6c52)" style="fill: none; stroke: #e6e6e6; stroke-width: 1.5; stroke-linecap: square"/>
   </g>
   <g id="line2d_8">
    <path d="M 65.807727 88.503901 
L 70.956925 88.503901 
L 76.106123 93.092591 
L 81.255321 96.226331 
L 86.404519 96.226331 
L 91.553717 101.486537 
L 96.702914 105.123913 
L 101.852112 105.123913 
L 107.00131 107.13846 
L 112.150508 107.13846 
L 117.299706 108.145733 
L 122.448904 108.145733 
L 127.598102 110.384119 
L 132.747299 110.384119 
L 137.896497 112.174827 
L 143.045695 114.133414 
L 148.194893 114.133414 
L 153.344091 115.476445 
L 158.493289 117.043315 
L 163.642487 117.043315 
L 168.791684 120.121095 
L 173.940882 123.198875 
L 179.09008 123.198875 
L 184.239278 126.108776 
L 189.388476 126.108776 
L 194.537674 126.668372 
L 199.686872 127.116049 
L 204.83607 127.116049 
L 209.985267 128.571 
L 215.134465 128.571 
L 220.283663 129.466354 
L 225.432861 129.466354 
L 230.582059 131.201103 
L 235.731257 131.201103 
L 240.880455 132.544134 
L 246.029652 132.544134 
L 251.17885 134.446762 
L 256.328048 134.446762 
L 261.477246 135.118277 
L 266.626444 136.013631 
L 271.775642 136.013631 
L 276.92484 137.244743 
L 282.074037 137.244743 
L 287.223235 137.916259 
L 292.372433 138.307976 
L 297.521631 138.307976 
L 302.670829 139.31525 
L 307.820027 139.31525 
L 312.969225 139.595048 
L 318.118422 139.930806 
L 323.26762 139.930806 
L 328.416818 140.490402 
L 333.566016 140.434442 
L 338.715214 140.434442 
L 343.864412 140.658281 
L 349.01361 144.351617 
L 354.162807 144.351617 
L 359.312005 149.667782 
L 364.461203 152.185966 
L 369.610401 152.185966 
L 374.759599 153.361118 
L 379.908797 153.361118 
L 385.057995 155.207786 
L 390.207193 155.207786 
L 395.35639 156.494858 
L 400.505588 157.334252 
L 405.654786 157.67001 
L 410.803984 158.173647 
L 415.953182 158.341526 
L 421.10238 158.285566 
L 426.251578 158.453445 
L 431.400775 158.789203 
L 436.549973 158.957082 
L 441.699171 159.013041 
L 446.848369 159.23688 
L 451.997567 159.572638 
L 457.146765 159.852436 
L 462.295963 160.020315 
L 467.44516 160.020315 
L 472.594358 160.356072 
L 477.743556 160.74779 
L 482.892754 161.027588 
L 488.041952 161.083548 
L 493.19115 161.251427 
L 498.340348 161.419305 
L 503.489545 161.475265 
L 508.638743 161.587184 
L 513.787941 162.090821 
L 518.937139 162.2587 
L 524.086337 162.20274 
L 529.235535 162.31466 
L 534.384733 162.594458 
L 539.53393 162.762337 
L 544.683128 163.042135 
L 549.832326 163.265973 
L 554.981524 163.545772 
L 560.130722 163.76961 
L 565.27992 163.881529 
L 570.429118 164.105368 
L 575.578316 164.329206 
L 580.727513 164.553045 
L 585.876711 164.832843 
L 591.025909 165.000722 
L 596.175107 165.112641 
L 601.324305 165.28052 
L 606.473503 165.504359 
L 611.622701 165.616278 
L 616.771898 165.728197 
L 621.921096 166.007996 
L 627.070294 166.119915 
L 632.219492 166.399713 
L 637.36869 167.127188 
L 642.517888 167.518906 
L 647.667086 167.798704 
L 652.816283 168.190421 
L 657.965481 168.470219 
L 663.114679 168.582139 
L 668.263877 169.029816 
L 673.413075 169.085775 
L 678.562273 169.309614 
" clip-path="url(#p7fa95d6c52)" style="fill: none; stroke: #e6e6e6; stroke-width: 1.5; stroke-linecap: square"/>
   </g>
   <g id="line2d_9">
    <path d="M 65.807727 318.945677 
L 70.956925 318.945677 
L 76.106123 289.007273 
L 81.255321 274.681606 
L 86.404519 274.681606 
L 91.553717 267.183015 
L 96.702914 261.307254 
L 101.852112 261.307254 
L 107.00131 255.375532 
L 112.150508 251.570277 
L 117.299706 251.570277 
L 122.448904 248.04482 
L 127.598102 248.04482 
L 132.747299 245.526637 
L 137.896497 244.127646 
L 143.045695 243.51209 
L 148.194893 242.336937 
L 153.344091 241.665422 
L 158.493289 241.105825 
L 163.642487 240.770068 
L 168.791684 240.490269 
L 173.940882 240.210471 
L 179.09008 240.042592 
L 184.239278 239.762794 
L 189.388476 239.706834 
L 194.537674 239.482996 
L 199.686872 239.427036 
L 204.83607 239.259157 
L 209.985267 239.259157 
L 215.134465 239.259157 
L 220.283663 239.147238 
L 225.432861 239.091279 
L 230.582059 238.9234 
L 235.731257 238.9234 
L 240.880455 238.9234 
L 246.029652 238.81148 
L 251.17885 238.86744 
L 256.328048 238.81148 
L 261.477246 238.81148 
L 266.626444 238.755521 
L 271.775642 238.699561 
L 276.92484 238.699561 
L 282.074037 238.699561 
L 287.223235 238.587642 
L 292.372433 238.475723 
L 297.521631 238.475723 
L 302.670829 238.475723 
L 307.820027 238.475723 
L 312.969225 238.475723 
L 318.118422 238.475723 
L 323.26762 238.475723 
L 328.416818 238.531682 
L 333.566016 238.475723 
L 338.715214 238.643601 
L 343.864412 238.643601 
L 349.01361 238.755521 
L 354.162807 238.81148 
L 359.312005 238.81148 
L 364.461203 238.86744 
L 369.610401 238.81148 
L 374.759599 238.81148 
L 379.908797 238.755521 
L 385.057995 238.755521 
L 390.207193 238.755521 
L 395.35639 238.81148 
L 400.505588 238.81148 
L 405.654786 238.86744 
L 410.803984 238.9234 
L 415.953182 238.979359 
L 421.10238 238.9234 
L 426.251578 238.979359 
L 431.400775 238.979359 
L 436.549973 239.035319 
L 441.699171 239.035319 
L 446.848369 239.035319 
L 451.997567 238.979359 
L 457.146765 239.035319 
L 462.295963 239.035319 
L 467.44516 239.035319 
L 472.594358 239.091279 
L 477.743556 239.091279 
L 482.892754 239.147238 
L 488.041952 239.147238 
L 493.19115 239.203198 
L 498.340348 239.259157 
L 503.489545 239.259157 
L 508.638743 239.315117 
L 513.787941 239.315117 
L 518.937139 239.315117 
L 524.086337 239.315117 
L 529.235535 239.315117 
L 534.384733 239.371077 
L 539.53393 239.371077 
L 544.683128 239.427036 
L 549.832326 239.427036 
L 554.981524 239.427036 
L 560.130722 239.427036 
L 565.27992 239.538956 
L 570.429118 239.762794 
L 575.578316 239.986633 
L 580.727513 240.154512 
L 585.876711 240.266431 
L 591.025909 240.37835 
L 596.175107 240.546229 
L 601.324305 240.546229 
L 606.473503 240.658148 
L 611.622701 240.770068 
L 616.771898 240.770068 
L 621.921096 240.770068 
L 627.070294 240.826027 
L 632.219492 240.881987 
L 637.36869 241.105825 
L 642.517888 241.105825 
L 647.667086 241.217745 
L 652.816283 241.329664 
L 657.965481 241.385624 
L 663.114679 241.385624 
L 668.263877 241.441583 
L 673.413075 241.497543 
L 678.562273 241.497543 
" clip-path="url(#p7fa95d6c52)" style="fill: none; stroke: #e6e6e6; stroke-width: 1.5; stroke-linecap: square"/>
   </g>
   <g id="line2d_10">
    <path d="M 65.807727 171.38012 
L 70.956925 154.368391 
L 76.106123 143.176465 
L 81.255321 137.356663 
L 86.404519 127.395848 
L 91.553717 132.152416 
L 96.702914 129.858071 
L 101.852112 128.962717 
L 107.00131 127.787565 
L 112.150508 127.283928 
L 117.299706 127.283928 
L 122.448904 127.116049 
L 127.598102 126.332614 
L 132.747299 125.54918 
L 137.896497 124.765745 
L 143.045695 124.541906 
L 148.194893 124.429987 
L 153.344091 124.206148 
L 158.493289 123.814431 
L 163.642487 123.478673 
L 168.791684 123.086956 
L 173.940882 122.807157 
L 179.09008 121.576046 
L 184.239278 121.464126 
L 189.388476 121.408167 
L 194.537674 121.743924 
L 199.686872 121.687965 
L 204.83607 121.799884 
L 209.985267 121.799884 
L 215.134465 121.743924 
L 220.283663 121.632005 
L 225.432861 121.520086 
L 230.582059 121.296247 
L 235.731257 121.016449 
L 240.880455 120.456853 
L 246.029652 119.953216 
L 251.17885 119.505539 
L 256.328048 118.945943 
L 261.477246 118.666145 
L 266.626444 118.274427 
L 271.775642 118.106548 
L 276.92484 117.88271 
L 282.074037 120.84857 
L 287.223235 129.298475 
L 292.372433 132.096457 
L 297.521631 133.10373 
L 302.670829 134.055044 
L 307.820027 134.61464 
L 312.969225 135.062317 
L 318.118422 133.719286 
L 323.26762 132.096457 
L 328.416818 130.977264 
L 333.566016 130.361708 
L 338.715214 130.08191 
L 343.864412 129.690193 
L 349.01361 129.522314 
L 354.162807 129.242515 
L 359.312005 128.906758 
L 364.461203 128.626959 
L 369.610401 128.459081 
L 374.759599 128.291202 
L 379.908797 128.067363 
L 385.057995 127.843525 
L 390.207193 127.787565 
L 395.35639 127.675646 
L 400.505588 127.563726 
L 405.654786 127.395848 
L 410.803984 127.339888 
L 415.953182 127.172009 
L 421.10238 127.06009 
L 426.251578 126.94817 
L 431.400775 126.892211 
L 436.549973 126.836251 
L 441.699171 126.612413 
L 446.848369 126.556453 
L 451.997567 126.388574 
L 457.146765 126.276655 
L 462.295963 126.108776 
L 467.44516 125.996857 
L 472.594358 125.996857 
L 477.743556 125.884937 
L 482.892754 125.717058 
L 488.041952 125.661099 
L 493.19115 124.038269 
L 498.340348 120.84857 
L 503.489545 118.498266 
L 508.638743 116.819477 
L 513.787941 115.364526 
L 518.937139 114.581091 
L 524.086337 113.853616 
" clip-path="url(#p7fa95d6c52)" style="fill: none; stroke: #e6e6e6; stroke-width: 1.5; stroke-linecap: square"/>
   </g>
   <g id="line2d_11">
    <path d="M 65.807727 138.979492 
L 70.956925 221.743792 
L 76.106123 228.626827 
L 81.255321 225.716926 
L 86.404519 216.427626 
L 91.553717 216.595505 
L 96.702914 206.131054 
L 101.852112 188.615688 
L 107.00131 180.61346 
L 112.150508 166.231834 
L 117.299706 154.983947 
L 122.448904 149.555863 
L 127.598102 148.324751 
L 132.747299 143.792021 
L 137.896497 141.161918 
L 143.045695 140.378483 
L 148.194893 137.244743 
L 153.344091 132.544134 
L 158.493289 129.858071 
L 163.642487 129.466354 
L 168.791684 127.899484 
L 173.940882 126.94817 
L 179.09008 125.828978 
L 184.239278 125.045543 
L 189.388476 122.639279 
L 194.537674 121.464126 
L 199.686872 120.792611 
L 204.83607 120.680691 
L 209.985267 119.39362 
L 215.134465 119.39362 
L 220.283663 117.490992 
L 225.432861 115.980082 
L 230.582059 115.644324 
L 235.731257 115.364526 
L 240.880455 114.413212 
L 246.029652 113.853616 
L 251.17885 114.413212 
L 256.328048 113.517858 
L 261.477246 112.790383 
L 266.626444 112.006948 
L 271.775642 111.783109 
L 276.92484 111.391392 
L 282.074037 110.887755 
L 287.223235 110.384119 
L 292.372433 110.551997 
L 297.521631 110.440078 
L 302.670829 110.719876 
L 307.820027 110.440078 
L 312.969225 110.663917 
L 318.118422 110.10432 
L 323.26762 109.712603 
L 328.416818 109.153007 
L 333.566016 109.097047 
L 338.715214 109.320886 
L 343.864412 108.59341 
L 349.01361 108.033814 
L 354.162807 107.586137 
L 359.312005 107.530177 
L 364.461203 107.418258 
L 369.610401 107.586137 
L 374.759599 106.466944 
L 379.908797 106.802702 
L 385.057995 107.418258 
L 390.207193 106.914621 
L 395.35639 107.02654 
L 400.505588 107.0825 
L 405.654786 106.914621 
L 410.803984 106.466944 
L 415.953182 106.634823 
L 421.10238 106.131186 
L 426.251578 106.019267 
L 431.400775 106.355025 
L 436.549973 105.907348 
L 441.699171 105.291792 
L 446.848369 104.788155 
L 451.997567 104.620276 
L 457.146765 104.00472 
L 462.295963 104.116639 
L 467.44516 104.452397 
L 472.594358 104.06068 
L 477.743556 104.340478 
L 482.892754 104.116639 
L 488.041952 103.948761 
L 493.19115 103.836841 
L 498.340348 104.00472 
L 503.489545 104.172599 
L 508.638743 103.445124 
L 513.787941 103.613003 
L 518.937139 103.389164 
L 524.086337 103.557043 
L 529.235535 103.333205 
L 534.384733 103.277245 
L 539.53393 102.829568 
L 544.683128 102.54977 
L 549.832326 101.822294 
L 554.981524 101.990173 
L 560.130722 101.430577 
L 565.27992 101.150779 
L 570.429118 101.430577 
L 575.578316 101.150779 
L 580.727513 101.094819 
L 585.876711 101.374617 
L 591.025909 101.094819 
L 596.175107 100.759061 
L 601.324305 100.199465 
L 606.473503 99.807748 
L 611.622701 99.639869 
L 616.771898 99.47199 
L 621.921096 99.248151 
L 627.070294 99.360071 
L 632.219492 99.248151 
L 637.36869 98.017039 
L 642.517888 95.107138 
L 647.667086 94.491582 
L 652.816283 93.708147 
L 657.965481 94.323703 
L 663.114679 94.435623 
L 668.263877 94.491582 
" clip-path="url(#p7fa95d6c52)" style="fill: none; stroke: #e6e6e6; stroke-width: 1.5; stroke-linecap: square"/>
   </g>
   <g id="line2d_12">
    <path d="M 65.807727 387.720068 
L 70.956925 340.210339 
L 76.106123 296.785662 
L 81.255321 269.47736 
L 86.404519 244.687242 
L 91.553717 220.736518 
L 96.702914 210.719744 
L 101.852112 208.761156 
L 107.00131 206.522771 
L 112.150508 205.571457 
L 117.299706 199.583776 
L 122.448904 196.394077 
L 127.598102 193.819934 
L 132.747299 194.43549 
L 137.896497 192.532862 
L 143.045695 193.708015 
L 148.194893 193.596095 
L 153.344091 195.442763 
L 158.493289 194.099732 
L 163.642487 195.442763 
L 168.791684 195.330844 
L 173.940882 195.330844 
L 179.09008 195.9464 
L 184.239278 197.56923 
L 189.388476 197.401351 
L 194.537674 196.282158 
L 199.686872 194.995086 
L 204.83607 194.659329 
L 209.985267 195.218925 
L 215.134465 195.442763 
L 220.283663 194.715288 
L 225.432861 195.107006 
L 230.582059 196.282158 
L 235.731257 196.114279 
L 240.880455 195.330844 
L 246.029652 194.659329 
L 251.17885 194.659329 
L 256.328048 194.099732 
L 261.477246 195.051046 
L 266.626444 194.883167 
L 271.775642 195.274884 
L 276.92484 194.939127 
L 282.074037 195.107006 
L 287.223235 196.058319 
L 292.372433 195.722562 
L 297.521631 197.009633 
L 302.670829 196.673875 
L 307.820027 198.128826 
L 312.969225 197.625189 
L 318.118422 198.520543 
L 323.26762 198.744382 
L 328.416818 199.583776 
L 333.566016 199.248019 
L 338.715214 199.136099 
L 343.864412 199.471857 
L 349.01361 199.303978 
L 354.162807 199.303978 
L 359.312005 199.303978 
L 364.461203 199.471857 
L 369.610401 199.807615 
L 374.759599 199.975494 
L 379.908797 199.807615 
L 385.057995 199.807615 
L 390.207193 200.143373 
L 395.35639 200.031453 
L 400.505588 200.031453 
L 405.654786 200.199332 
L 410.803984 200.479131 
L 415.953182 200.199332 
L 421.10238 199.863575 
L 426.251578 199.527817 
L 431.400775 199.359938 
L 436.549973 199.359938 
L 441.699171 199.192059 
L 446.848369 199.02418 
L 451.997567 199.02418 
L 457.146765 198.520543 
L 462.295963 198.408624 
L 467.44516 198.408624 
L 472.594358 198.240745 
L 477.743556 198.576503 
L 482.892754 198.408624 
L 488.041952 198.408624 
L 493.19115 198.576503 
L 498.340348 198.744382 
L 503.489545 198.240745 
L 508.638743 198.072866 
L 513.787941 198.072866 
L 518.937139 198.072866 
L 524.086337 198.240745 
L 529.235535 199.248019 
L 534.384733 199.583776 
L 539.53393 199.919534 
L 544.683128 200.031453 
L 549.832326 200.199332 
L 554.981524 201.318525 
L 560.130722 201.150646 
L 565.27992 201.150646 
L 570.429118 201.038727 
L 575.578316 199.192059 
L 580.727513 199.359938 
L 585.876711 198.912261 
L 591.025909 199.415897 
L 596.175107 198.632463 
" clip-path="url(#p7fa95d6c52)" style="fill: none; stroke: #e6e6e6; stroke-width: 1.5; stroke-linecap: square"/>
   </g>
   <g id="matplotlib.axis_1">
    <g id="xtick_1">
     <g id="line2d_13">
      <defs>
       <path id="m62ff5affba" d="M 0 0 
L 0 3.5 
" style="stroke: #cccccc; stroke-width: 0.8"/>
      </defs>
      <g>
       <use xlink:href="#m62ff5affba" x="65.807727" y="405.56" style="fill: #cccccc; stroke: #cccccc; stroke-width: 0.8"/>
      </g>
     </g>
     <g id="text_1">
      <text style="fill: #cccccc; font: 10px 'Lato', sans-serif; text-anchor: middle" x="65.807727" y="419.925625" transform="rotate(-0 65.807727 419.925625)">0</text>
     </g>
    </g>
    <g id="xtick_2">
     <g id="line2d_14">
      <g>
       <use xlink:href="#m62ff5affba" x="168.791684" y="405.56" style="fill: #cccccc; stroke: #cccccc; stroke-width: 0.8"/>
      </g>
     </g>
     <g id="text_2">
      <text style="fill: #cccccc; font: 10px 'Lato', sans-serif; text-anchor: middle" x="168.791684" y="419.925625" transform="rotate(-0 168.791684 419.925625)">20</text>
     </g>
    </g>
    <g id="xtick_3">
     <g id="line2d_15">
      <g>
       <use xlink:href="#m62ff5affba" x="271.775642" y="405.56" style="fill: #cccccc; stroke: #cccccc; stroke-width: 0.8"/>
      </g>
     </g>
     <g id="text_3">
      <text style="fill: #cccccc; font: 10px 'Lato', sans-serif; text-anchor: middle" x="271.775642" y="419.925625" transform="rotate(-0 271.775642 419.925625)">40</text>
     </g>
    </g>
    <g id="xtick_4">
     <g id="line2d_16">
      <g>
       <use xlink:href="#m62ff5affba" x="374.759599" y="405.56" style="fill: #cccccc; stroke: #cccccc; stroke-width: 0.8"/>
      </g>
     </g>
     <g id="text_4">
      <text style="fill: #cccccc; font: 10px 'Lato', sans-serif; text-anchor: middle" x="374.759599" y="419.925625" transform="rotate(-0 374.759599 419.925625)">60</text>
     </g>
    </g>
    <g id="xtick_5">
     <g id="line2d_17">
      <g>
       <use xlink:href="#m62ff5affba" x="477.743556" y="405.56" style="fill: #cccccc; stroke: #cccccc; stroke-width: 0.8"/>
      </g>
     </g>
     <g id="text_5">
      <text style="fill: #cccccc; font: 10px 'Lato', sans-serif; text-anchor: middle" x="477.743556" y="419.925625" transform="rotate(-0 477.743556 419.925625)">80</text>
     </g>
    </g>
    <g id="xtick_6">
     <g id="line2d_18">
      <g>
       <use xlink:href="#m62ff5affba" x="580.727513" y="405.56" style="fill: #cccccc; stroke: #cccccc; stroke-width: 0.8"/>
      </g>
     </g>
     <g id="text_6">
      <text style="fill: #cccccc; font: 10px 'Lato', sans-serif; text-anchor: middle" x="580.727513" y="419.925625" transform="rotate(-0 580.727513 419.925625)">100</text>
     </g>
    </g>
    <g id="xtick_7">
     <g id="line2d_19">
      <g>
       <use xlink:href="#m62ff5affba" x="683.711471" y="405.56" style="fill: #cccccc; stroke: #cccccc; stroke-width: 0.8"/>
      </g>
     </g>
     <g id="text_7">
      <text style="fill: #cccccc; font: 10px 'Lato', sans-serif; text-anchor: middle" x="683.711471" y="419.925625" transform="rotate(-0 683.711471 419.925625)">120</text>
     </g>
    </g>
   </g>
   <g id="matplotlib.axis_2">
    <g id="ytick_1">
     <g id="line2d_20">
      <path d="M 35.17 350.394992 
L 709.2 350.394992 
" clip-path="url(#p7fa95d6c52)" style="fill: none; stroke: #cccccc; stroke-width: 0.8; stroke-linecap: square"/>
     </g>
     <g id="line2d_21">
      <defs>
       <path id="m1521ed50db" d="M 0 0 
L -3.5 0 
" style="stroke: #cccccc; stroke-width: 0.8"/>
      </defs>
      <g>
       <use xlink:href="#m1521ed50db" x="35.17" y="350.394992" style="fill: #cccccc; stroke: #cccccc; stroke-width: 0.8"/>
      </g>
     </g>
     <g id="text_8">
      <text style="fill: #cccccc; font: 10px 'Lato', sans-serif; text-anchor: end" x="28.17" y="354.077805" transform="rotate(-0 28.17 354.077805)">40</text>
     </g>
    </g>
    <g id="ytick_2">
     <g id="line2d_22">
      <path d="M 35.17 294.435357 
L 709.2 294.435357 
" clip-path="url(#p7fa95d6c52)" style="fill: none; stroke: #cccccc; stroke-width: 0.8; stroke-linecap: square"/>
     </g>
     <g id="line2d_23">
      <g>
       <use xlink:href="#m1521ed50db" x="35.17" y="294.435357" style="fill: #cccccc; stroke: #cccccc; stroke-width: 0.8"/>
      </g>
     </g>
     <g id="text_9">
      <text style="fill: #cccccc; font: 10px 'Lato', sans-serif; text-anchor: end" x="28.17" y="298.11817" transform="rotate(-0 28.17 298.11817)">50</text>
     </g>
    </g>
    <g id="ytick_3">
     <g id="line2d_24">
      <path d="M 35.17 238.475723 
L 709.2 238.475723 
" clip-path="url(#p7fa95d6c52)" style="fill: none; stroke: #cccccc; stroke-width: 0.8; stroke-linecap: square"/>
     </g>
     <g id="line2d_25">
      <g>
       <use xlink:href="#m1521ed50db" x="35.17" y="238.475723" style="fill: #cccccc; stroke: #cccccc; stroke-width: 0.8"/>
      </g>
     </g>
     <g id="text_10">
      <text style="fill: #cccccc; font: 10px 'Lato', sans-serif; text-anchor: end" x="28.17" y="242.158535" transform="rotate(-0 28.17 242.158535)">60</text>
     </g>
    </g>
    <g id="ytick_4">
     <g id="line2d_26">
      <path d="M 35.17 182.516088 
L 709.2 182.516088 
" clip-path="url(#p7fa95d6c52)" style="fill: none; stroke: #cccccc; stroke-width: 0.8; stroke-linecap: square"/>
     </g>
     <g id="line2d_27">
      <g>
       <use xlink:href="#m1521ed50db" x="35.17" y="182.516088" style="fill: #cccccc; stroke: #cccccc; stroke-width: 0.8"/>
      </g>
     </g>
     <g id="text_11">
      <text style="fill: #cccccc; font: 10px 'Lato', sans-serif; text-anchor: end" x="28.17" y="186.1989" transform="rotate(-0 28.17 186.1989)">70</text>
     </g>
    </g>
    <g id="ytick_5">
     <g id="line2d_28">
      <path d="M 35.17 126.556453 
L 709.2 126.556453 
" clip-path="url(#p7fa95d6c52)" style="fill: none; stroke: #cccccc; stroke-width: 0.8; stroke-linecap: square"/>
     </g>
     <g id="line2d_29">
      <g>
       <use xlink:href="#m1521ed50db" x="35.17" y="126.556453" style="fill: #cccccc; stroke: #cccccc; stroke-width: 0.8"/>
      </g>
     </g>
     <g id="text_12">
      <text style="fill: #cccccc; font: 10px 'Lato', sans-serif; text-anchor: end" x="28.17" y="130.239266" transform="rotate(-0 28.17 130.239266)">80</text>
     </g>
    </g>
    <g id="ytick_6">
     <g id="line2d_30">
      <path d="M 35.17 70.596818 
L 709.2 70.596818 
" clip-path="url(#p7fa95d6c52)" style="fill: none; stroke: #cccccc; stroke-width: 0.8; stroke-linecap: square"/>
     </g>
     <g id="line2d_31">
      <g>
       <use xlink:href="#m1521ed50db" x="35.17" y="70.596818" style="fill: #cccccc; stroke: #cccccc; stroke-width: 0.8"/>
      </g>
     </g>
     <g id="text_13">
      <text style="fill: #cccccc; font: 10px 'Lato', sans-serif; text-anchor: end" x="28.17" y="74.279631" transform="rotate(-0 28.17 74.279631)">90</text>
     </g>
    </g>
    <g id="ytick_7">
     <g id="line2d_32">
      <path d="M 35.17 14.637183 
L 709.2 14.637183 
" clip-path="url(#p7fa95d6c52)" style="fill: none; stroke: #cccccc; stroke-width: 0.8; stroke-linecap: square"/>
     </g>
     <g id="line2d_33">
      <g>
       <use xlink:href="#m1521ed50db" x="35.17" y="14.637183" style="fill: #cccccc; stroke: #cccccc; stroke-width: 0.8"/>
      </g>
     </g>
     <g id="text_14">
      <text style="fill: #cccccc; font: 10px 'Lato', sans-serif; text-anchor: end" x="28.17" y="18.319996" transform="rotate(-0 28.17 18.319996)">100</text>
     </g>
    </g>
   </g>
   <g id="line2d_34">
    <path d="M 65.807727 171.883757 
L 70.956925 171.883757 
L 76.106123 139.818886 
L 81.255321 139.818886 
L 86.404519 148.100912 
L 91.553717 148.100912 
L 96.702914 135.789793 
L 101.852112 135.789793 
L 107.00131 132.879892 
L 112.150508 161.139507 
L 117.299706 161.139507 
L 122.448904 181.340935 
L 127.598102 190.294477 
L 132.747299 190.294477 
L 137.896497 175.017497 
L 143.045695 155.375665 
L 148.194893 155.375665 
L 153.344091 140.714241 
L 158.493289 140.714241 
L 163.642487 131.760699 
L 168.791684 126.108776 
L 173.940882 126.108776 
L 179.09008 119.113822 
L 184.239278 119.113822 
L 189.388476 112.678464 
L 194.537674 112.678464 
L 199.686872 108.929168 
L 204.83607 108.929168 
L 209.985267 117.994629 
L 215.134465 117.994629 
L 220.283663 118.106548 
L 225.432861 118.106548 
L 230.582059 116.31584 
L 235.731257 114.69301 
L 240.880455 114.69301 
L 246.029652 112.958262 
L 251.17885 112.958262 
L 256.328048 111.167553 
L 261.477246 109.880482 
L 266.626444 109.880482 
L 271.775642 108.481491 
L 276.92484 108.481491 
L 282.074037 108.145733 
L 287.223235 107.530177 
L 292.372433 107.530177 
L 297.521631 106.802702 
L 302.670829 106.075227 
L 307.820027 106.075227 
L 312.969225 105.067953 
L 318.118422 104.340478 
L 323.26762 104.340478 
L 328.416818 103.389164 
L 333.566016 102.773608 
L 338.715214 102.773608 
L 343.864412 101.318658 
L 349.01361 101.318658 
L 354.162807 100.423304 
L 359.312005 100.255425 
L 364.461203 99.807748 
L 369.610401 99.248151 
L 374.759599 99.136232 
L 379.908797 98.352797 
L 385.057995 97.84916 
L 390.207193 97.513403 
L 395.35639 97.289564 
L 400.505588 97.009766 
L 405.654786 96.729968 
L 410.803984 96.282291 
L 415.953182 96.114412 
L 421.10238 95.890573 
L 426.251578 95.722694 
L 431.400775 95.442896 
L 436.549973 95.275017 
L 441.699171 95.163098 
L 446.848369 94.995219 
L 451.997567 94.82734 
L 457.146765 94.659461 
L 462.295963 94.547542 
L 467.44516 94.379663 
L 472.594358 94.267744 
L 477.743556 94.939259 
L 482.892754 97.569362 
L 488.041952 98.072999 
L 493.19115 98.688555 
L 498.340348 159.069001 
L 503.489545 241.385624 
L 508.638743 316.98709 
L 513.787941 258.677151 
L 518.937139 184.026998 
L 524.086337 165.840117 
L 529.235535 160.188194 
L 534.384733 158.341526 
L 539.53393 160.523951 
L 544.683128 163.601731 
L 549.832326 164.720924 
L 554.981524 165.112641 
L 560.130722 165.784157 
L 565.27992 166.343753 
L 570.429118 166.623552 
L 575.578316 166.679511 
L 580.727513 166.679511 
L 585.876711 166.679511 
L 591.025909 166.623552 
L 596.175107 166.679511 
L 601.324305 166.79143 
L 606.473503 166.959309 
L 611.622701 166.90335 
L 616.771898 166.90335 
L 621.921096 166.90335 
L 627.070294 166.84739 
L 632.219492 166.84739 
L 637.36869 166.84739 
L 642.517888 166.90335 
L 647.667086 166.959309 
L 652.816283 166.959309 
L 657.965481 166.959309 
L 663.114679 166.90335 
L 668.263877 166.79143 
L 673.413075 166.735471 
L 678.562273 166.679511 
" clip-path="url(#p7fa95d6c52)" style="fill: none; stroke: #0f9d58; stroke-width: 3; stroke-linecap: square"/>
   </g>
   <g id="legend_1">
    <g id="patch_3">
     <path d="M 585.4875 400.56 
L 702.2 400.56 
Q 704.2 400.56 704.2 398.56 
L 704.2 216.175625 
Q 704.2 214.175625 702.2 214.175625 
L 585.4875 214.175625 
Q 583.4875 214.175625 583.4875 216.175625 
L 583.4875 398.56 
Q 583.4875 400.56 585.4875 400.56 
z
" style="fill: #ffffff; opacity: 0.8; stroke: #cccccc; stroke-linejoin: miter"/>
    </g>
    <g id="line2d_35">
     <path d="M 587.4875 222.04125 
L 597.4875 222.04125 
L 607.4875 222.04125 
" style="fill: none; stroke: #e6e6e6; stroke-width: 1.5; stroke-linecap: square"/>
    </g>
    <g id="text_15">
     <text style="font: 10px 'Lato', sans-serif; text-anchor: start" x="615.4875" y="225.54125" transform="rotate(-0 615.4875 225.54125)">Tekken8</text>
    </g>
    <g id="line2d_36">
     <path d="M 587.4875 236.1225 
L 597.4875 236.1225 
L 607.4875 236.1225 
" style="fill: none; stroke: #e6e6e6; stroke-width: 1.5; stroke-linecap: square"/>
    </g>
    <g id="text_16">
     <text style="font: 10px 'Lato', sans-serif; text-anchor: start" x="615.4875" y="239.6225" transform="rotate(-0 615.4875 239.6225)">ManorLords</text>
    </g>
    <g id="line2d_37">
     <path d="M 587.4875 250.20375 
L 597.4875 250.20375 
L 607.4875 250.20375 
" style="fill: none; stroke: #e6e6e6; stroke-width: 1.5; stroke-linecap: square"/>
    </g>
    <g id="text_17">
     <text style="font: 10px 'Lato', sans-serif; text-anchor: start" x="615.4875" y="253.70375" transform="rotate(-0 615.4875 253.70375)">DragonBall</text>
    </g>
    <g id="line2d_38">
     <path d="M 587.4875 264.394375 
L 597.4875 264.394375 
L 607.4875 264.394375 
" style="fill: none; stroke: #e6e6e6; stroke-width: 1.5; stroke-linecap: square"/>
    </g>
    <g id="text_18">
     <text style="font: 10px 'Lato', sans-serif; text-anchor: start" x="615.4875" y="267.894375" transform="rotate(-0 615.4875 267.894375)">NBA2K25</text>
    </g>
    <g id="line2d_39">
     <path d="M 587.4875 278.475625 
L 597.4875 278.475625 
L 607.4875 278.475625 
" style="fill: none; stroke: #e6e6e6; stroke-width: 1.5; stroke-linecap: square"/>
    </g>
    <g id="text_19">
     <text style="font: 10px 'Lato', sans-serif; text-anchor: start" x="615.4875" y="281.975625" transform="rotate(-0 615.4875 281.975625)">InfiniteWealth</text>
    </g>
    <g id="line2d_40">
     <path d="M 587.4875 292.556875 
L 597.4875 292.556875 
L 607.4875 292.556875 
" style="fill: none; stroke: #e6e6e6; stroke-width: 1.5; stroke-linecap: square"/>
    </g>
    <g id="text_20">
     <text style="font: 10px 'Lato', sans-serif; text-anchor: start" x="615.4875" y="296.056875" transform="rotate(-0 615.4875 296.056875)">BlackMythWukong</text>
    </g>
    <g id="line2d_41">
     <path d="M 587.4875 306.7475 
L 597.4875 306.7475 
L 607.4875 306.7475 
" style="fill: none; stroke: #e6e6e6; stroke-width: 1.5; stroke-linecap: square"/>
    </g>
    <g id="text_21">
     <text style="font: 10px 'Lato', sans-serif; text-anchor: start" x="615.4875" y="310.2475" transform="rotate(-0 615.4875 310.2475)">Hellblade2</text>
    </g>
    <g id="line2d_42">
     <path d="M 587.4875 320.82875 
L 597.4875 320.82875 
L 607.4875 320.82875 
" style="fill: none; stroke: #e6e6e6; stroke-width: 1.5; stroke-linecap: square"/>
    </g>
    <g id="text_22">
     <text style="font: 10px 'Lato', sans-serif; text-anchor: start" x="615.4875" y="324.32875" transform="rotate(-0 615.4875 324.32875)">SuicideSquad</text>
    </g>
    <g id="line2d_43">
     <path d="M 587.4875 334.91 
L 597.4875 334.91 
L 607.4875 334.91 
" style="fill: none; stroke: #0f9d58; stroke-width: 3; stroke-linecap: square"/>
    </g>
    <g id="text_23">
     <text style="font: 10px 'Lato', sans-serif; text-anchor: start" x="615.4875" y="338.41" transform="rotate(-0 615.4875 338.41)">HelldiversII</text>
    </g>
    <g id="line2d_44">
     <path d="M 587.4875 348.99125 
L 597.4875 348.99125 
L 607.4875 348.99125 
" style="fill: none; stroke: #e6e6e6; stroke-width: 1.5; stroke-linecap: square"/>
    </g>
    <g id="text_24">
     <text style="font: 10px 'Lato', sans-serif; text-anchor: start" x="615.4875" y="352.49125" transform="rotate(-0 615.4875 352.49125)">DragonsDogma2</text>
    </g>
    <g id="line2d_45">
     <path d="M 587.4875 363.181875 
L 597.4875 363.181875 
L 607.4875 363.181875 
" style="fill: none; stroke: #e6e6e6; stroke-width: 1.5; stroke-linecap: square"/>
    </g>
    <g id="text_25">
     <text style="font: 10px 'Lato', sans-serif; text-anchor: start" x="615.4875" y="366.681875" transform="rotate(-0 615.4875 366.681875)">SpaceMarineII</text>
    </g>
    <g id="line2d_46">
     <path d="M 587.4875 377.263125 
L 597.4875 377.263125 
L 607.4875 377.263125 
" style="fill: none; stroke: #e6e6e6; stroke-width: 1.5; stroke-linecap: square"/>
    </g>
    <g id="text_26">
     <text style="font: 10px 'Lato', sans-serif; text-anchor: start" x="615.4875" y="380.763125" transform="rotate(-0 615.4875 380.763125)">TheLostCrown</text>
    </g>
    <g id="line2d_47">
     <path d="M 587.4875 391.344375 
L 597.4875 391.344375 
L 607.4875 391.344375 
" style="fill: none; stroke: #e6e6e6; stroke-width: 1.5; stroke-linecap: square"/>
    </g>
    <g id="text_27">
     <text style="font: 10px 'Lato', sans-serif; text-anchor: start" x="615.4875" y="394.844375" transform="rotate(-0 615.4875 394.844375)">SkullAndBones</text>
    </g>
   </g>
  </g>
 </g>
 <defs>
  <clipPath id="p7fa95d6c52">
   <rect x="35.17" y="13.081506" width="674.03" height="392.478494"/>
  </clipPath>
 </defs>
</svg>
