<?xml version="1.0" encoding="utf-8" standalone="no"?>
<!DOCTYPE svg PUBLIC "-//W3C//DTD SVG 1.1//EN"
  "http://www.w3.org/Graphics/SVG/1.1/DTD/svg11.dtd">
<svg xmlns:xlink="http://www.w3.org/1999/xlink" width="720pt" height="432pt" viewBox="0 0 720 432" xmlns="http://www.w3.org/2000/svg" version="1.1">
 <metadata>
  <rdf:RDF xmlns:dc="http://purl.org/dc/elements/1.1/" xmlns:cc="http://creativecommons.org/ns#" xmlns:rdf="http://www.w3.org/1999/02/22-rdf-syntax-ns#">
   <cc:Work>
    <dc:type rdf:resource="http://purl.org/dc/dcmitype/StillImage"/>
    <dc:date>2024-12-08T21:26:17.393906</dc:date>
    <dc:format>image/svg+xml</dc:format>
    <dc:creator>
     <cc:Agent>
      <dc:title>Matplotlib v3.9.3, https://matplotlib.org/</dc:title>
     </cc:Agent>
    </dc:creator>
   </cc:Work>
  </rdf:RDF>
 </metadata>
 <defs>
  <style type="text/css">*{stroke-linejoin: round; stroke-linecap: butt}</style>
 </defs>
 <g id="figure_1">
  <g id="patch_1">
   <path d="M 0 432 
L 720 432 
L 720 0 
L 0 0 
z
" style="fill: #ffffff"/>
  </g>
  <g id="axes_1">
   <g id="patch_2">
    <path d="M 29.68 408.44 
L 711.36 408.44 
L 711.36 11.88 
L 29.68 11.88 
L 29.68 408.44 
z
" style="fill: none; opacity: 0"/>
   </g>
   <g id="matplotlib.axis_1">
    <g id="xtick_1">
     <g id="line2d_1">
      <defs>
       <path id="m7be7337108" d="M 0 0 
L 0 3.5 
" style="stroke: #cccccc; stroke-width: 0.8"/>
      </defs>
      <g>
       <use xlink:href="#m7be7337108" x="60.665455" y="408.44" style="fill: #cccccc; stroke: #cccccc; stroke-width: 0.8"/>
      </g>
     </g>
     <g id="text_1">
      <text style="fill: #cccccc; font: 8px 'Lato', sans-serif; text-anchor: middle" x="60.665455" y="421.3325" transform="rotate(-0 60.665455 421.3325)">0</text>
     </g>
    </g>
    <g id="xtick_2">
     <g id="line2d_2">
      <g>
       <use xlink:href="#m7be7337108" x="164.818243" y="408.44" style="fill: #cccccc; stroke: #cccccc; stroke-width: 0.8"/>
      </g>
     </g>
     <g id="text_2">
      <text style="fill: #cccccc; font: 8px 'Lato', sans-serif; text-anchor: middle" x="164.818243" y="421.3325" transform="rotate(-0 164.818243 421.3325)">20</text>
     </g>
    </g>
    <g id="xtick_3">
     <g id="line2d_3">
      <g>
       <use xlink:href="#m7be7337108" x="268.971031" y="408.44" style="fill: #cccccc; stroke: #cccccc; stroke-width: 0.8"/>
      </g>
     </g>
     <g id="text_3">
      <text style="fill: #cccccc; font: 8px 'Lato', sans-serif; text-anchor: middle" x="268.971031" y="421.3325" transform="rotate(-0 268.971031 421.3325)">40</text>
     </g>
    </g>
    <g id="xtick_4">
     <g id="line2d_4">
      <g>
       <use xlink:href="#m7be7337108" x="373.12382" y="408.44" style="fill: #cccccc; stroke: #cccccc; stroke-width: 0.8"/>
      </g>
     </g>
     <g id="text_4">
      <text style="fill: #cccccc; font: 8px 'Lato', sans-serif; text-anchor: middle" x="373.12382" y="421.3325" transform="rotate(-0 373.12382 421.3325)">60</text>
     </g>
    </g>
    <g id="xtick_5">
     <g id="line2d_5">
      <g>
       <use xlink:href="#m7be7337108" x="477.276608" y="408.44" style="fill: #cccccc; stroke: #cccccc; stroke-width: 0.8"/>
      </g>
     </g>
     <g id="text_5">
      <text style="fill: #cccccc; font: 8px 'Lato', sans-serif; text-anchor: middle" x="477.276608" y="421.3325" transform="rotate(-0 477.276608 421.3325)">80</text>
     </g>
    </g>
    <g id="xtick_6">
     <g id="line2d_6">
      <g>
       <use xlink:href="#m7be7337108" x="581.429396" y="408.44" style="fill: #cccccc; stroke: #cccccc; stroke-width: 0.8"/>
      </g>
     </g>
     <g id="text_6">
      <text style="fill: #cccccc; font: 8px 'Lato', sans-serif; text-anchor: middle" x="581.429396" y="421.3325" transform="rotate(-0 581.429396 421.3325)">100</text>
     </g>
    </g>
    <g id="xtick_7">
     <g id="line2d_7">
      <g>
       <use xlink:href="#m7be7337108" x="685.582185" y="408.44" style="fill: #cccccc; stroke: #cccccc; stroke-width: 0.8"/>
      </g>
     </g>
     <g id="text_7">
      <text style="fill: #cccccc; font: 8px 'Lato', sans-serif; text-anchor: middle" x="685.582185" y="421.3325" transform="rotate(-0 685.582185 421.3325)">120</text>
     </g>
    </g>
   </g>
   <g id="matplotlib.axis_2">
    <g id="ytick_1">
     <g id="line2d_8">
      <path d="M 29.68 408.44 
L 711.36 408.44 
" clip-path="url(#p8a93769bfd)" style="fill: none; stroke: #cccccc; stroke-width: 0.8; stroke-linecap: square"/>
     </g>
     <g id="line2d_9">
      <defs>
       <path id="md9fc3ce783" d="M 0 0 
L -3.5 0 
" style="stroke: #cccccc; stroke-width: 0.8"/>
      </defs>
      <g>
       <use xlink:href="#md9fc3ce783" x="29.68" y="408.44" style="fill: #cccccc; stroke: #cccccc; stroke-width: 0.8"/>
      </g>
     </g>
     <g id="text_8">
      <text style="fill: #cccccc; font: 8px 'Lato', sans-serif; text-anchor: end" x="22.68" y="411.38625" transform="rotate(-0 22.68 411.38625)">0</text>
     </g>
    </g>
    <g id="ytick_2">
     <g id="line2d_10">
      <path d="M 29.68 329.128 
L 711.36 329.128 
" clip-path="url(#p8a93769bfd)" style="fill: none; stroke: #cccccc; stroke-width: 0.8; stroke-linecap: square"/>
     </g>
     <g id="line2d_11">
      <g>
       <use xlink:href="#md9fc3ce783" x="29.68" y="329.128" style="fill: #cccccc; stroke: #cccccc; stroke-width: 0.8"/>
      </g>
     </g>
     <g id="text_9">
      <text style="fill: #cccccc; font: 8px 'Lato', sans-serif; text-anchor: end" x="22.68" y="332.07425" transform="rotate(-0 22.68 332.07425)">20</text>
     </g>
    </g>
    <g id="ytick_3">
     <g id="line2d_12">
      <path d="M 29.68 249.816 
L 711.36 249.816 
" clip-path="url(#p8a93769bfd)" style="fill: none; stroke: #cccccc; stroke-width: 0.8; stroke-linecap: square"/>
     </g>
     <g id="line2d_13">
      <g>
       <use xlink:href="#md9fc3ce783" x="29.68" y="249.816" style="fill: #cccccc; stroke: #cccccc; stroke-width: 0.8"/>
      </g>
     </g>
     <g id="text_10">
      <text style="fill: #cccccc; font: 8px 'Lato', sans-serif; text-anchor: end" x="22.68" y="252.76225" transform="rotate(-0 22.68 252.76225)">40</text>
     </g>
    </g>
    <g id="ytick_4">
     <g id="line2d_14">
      <path d="M 29.68 170.504 
L 711.36 170.504 
" clip-path="url(#p8a93769bfd)" style="fill: none; stroke: #cccccc; stroke-width: 0.8; stroke-linecap: square"/>
     </g>
     <g id="line2d_15">
      <g>
       <use xlink:href="#md9fc3ce783" x="29.68" y="170.504" style="fill: #cccccc; stroke: #cccccc; stroke-width: 0.8"/>
      </g>
     </g>
     <g id="text_11">
      <text style="fill: #cccccc; font: 8px 'Lato', sans-serif; text-anchor: end" x="22.68" y="173.45025" transform="rotate(-0 22.68 173.45025)">60</text>
     </g>
    </g>
    <g id="ytick_5">
     <g id="line2d_16">
      <path d="M 29.68 91.192 
L 711.36 91.192 
" clip-path="url(#p8a93769bfd)" style="fill: none; stroke: #cccccc; stroke-width: 0.8; stroke-linecap: square"/>
     </g>
     <g id="line2d_17">
      <g>
       <use xlink:href="#md9fc3ce783" x="29.68" y="91.192" style="fill: #cccccc; stroke: #cccccc; stroke-width: 0.8"/>
      </g>
     </g>
     <g id="text_12">
      <text style="fill: #cccccc; font: 8px 'Lato', sans-serif; text-anchor: end" x="22.68" y="94.13825" transform="rotate(-0 22.68 94.13825)">80</text>
     </g>
    </g>
    <g id="ytick_6">
     <g id="line2d_18">
      <path d="M 29.68 11.88 
L 711.36 11.88 
" clip-path="url(#p8a93769bfd)" style="fill: none; stroke: #cccccc; stroke-width: 0.8; stroke-linecap: square"/>
     </g>
     <g id="line2d_19">
      <g>
       <use xlink:href="#md9fc3ce783" x="29.68" y="11.88" style="fill: #cccccc; stroke: #cccccc; stroke-width: 0.8"/>
      </g>
     </g>
     <g id="text_13">
      <text style="fill: #cccccc; font: 8px 'Lato', sans-serif; text-anchor: end" x="22.68" y="14.82625" transform="rotate(-0 22.68 14.82625)">100</text>
     </g>
    </g>
   </g>
   <g id="line2d_20">
    <path d="M 60.665455 83.221144 
L 65.873094 83.221144 
L 71.080733 83.221144 
L 76.288373 83.221144 
L 81.496012 45.19104 
L 86.703652 44.041016 
L 91.911291 44.041016 
L 97.11893 44.358264 
L 102.32657 43.961704 
L 107.534209 43.961704 
L 112.741849 44.19964 
L 117.949488 43.961704 
L 123.157128 43.961704 
L 128.364767 43.565144 
L 133.572406 43.842736 
L 138.780046 43.842736 
L 143.987685 44.635856 
L 149.195325 44.635856 
L 154.402964 45.151384 
L 159.610604 45.151384 
L 164.818243 45.5876 
L 170.025882 45.5876 
L 175.233522 46.579 
L 180.441161 46.856592 
L 185.648801 46.856592 
L 190.85644 47.134184 
L 196.064079 52.32912 
L 201.271719 52.32912 
L 206.479358 53.5188 
L 211.686998 53.955016 
L 216.894637 53.955016 
L 222.102277 53.91536 
L 227.309916 53.91536 
L 232.517555 54.073984 
L 237.725195 56.136096 
L 242.932834 56.136096 
L 248.140474 57.841304 
L 253.348113 57.841304 
L 258.555752 58.594768 
L 263.763392 58.594768 
L 268.971031 58.832704 
L 274.178671 58.832704 
L 279.38631 59.229264 
L 284.59395 59.229264 
L 289.801589 59.546512 
L 295.009228 59.546512 
L 300.216868 59.625824 
L 305.424507 59.982728 
L 310.632147 59.982728 
L 315.839786 60.181008 
L 321.047426 60.181008 
L 326.255065 60.815504 
L 331.462704 60.894816 
L 336.670344 60.894816 
L 341.877983 61.172408 
L 347.085623 61.172408 
L 352.293262 61.45 
L 357.500901 61.687936 
L 362.708541 61.687936 
L 367.91618 62.005184 
L 373.12382 62.24312 
L 378.331459 62.24312 
L 383.539099 63.155208 
L 388.746738 64.463856 
L 393.954377 64.463856 
L 399.162017 67.20012 
L 404.369656 67.953584 
L 409.577296 67.953584 
L 414.784935 73.74336 
L 419.992574 73.74336 
L 425.200214 80.08832 
L 430.407853 87.186744 
L 435.615493 89.288512 
L 440.823132 91.707528 
L 446.030772 95.395536 
L 451.238411 99.1232 
L 456.44605 102.057744 
L 461.65369 104.87332 
L 466.861329 105.983688 
L 472.068969 107.25268 
L 477.276608 108.323392 
L 482.484248 109.116512 
L 487.691887 110.0286 
L 492.899526 110.663096 
L 498.107166 111.059656 
L 503.314805 111.932088 
L 508.522445 112.526928 
L 513.730084 114.866632 
L 518.937723 116.730464 
L 524.145363 118.871888 
L 529.353002 120.101224 
L 534.560642 120.934 
L 539.768281 121.965056 
L 544.975921 122.9168 
L 550.18356 123.670264 
L 555.391199 124.225448 
L 560.598839 124.542696 
L 565.806478 125.018568 
L 571.014118 125.49444 
L 576.221757 125.69272 
L 581.429396 126.208248 
L 586.637036 126.604808 
L 591.844675 126.922056 
L 597.052315 127.239304 
L 602.259954 127.47724 
L 607.467594 127.596208 
L 612.675233 127.754832 
L 617.882872 128.151392 
L 623.090512 128.191048 
L 628.298151 128.389328 
L 633.505791 128.66692 
L 638.71343 128.746232 
L 643.92107 128.825544 
L 649.128709 128.984168 
L 654.336348 129.182448 
L 659.543988 129.341072 
L 664.751627 129.301416 
L 669.959267 129.26176 
L 675.166906 129.420384 
L 680.374545 129.46004 
" clip-path="url(#p8a93769bfd)" style="fill: none; stroke: #000000; stroke-width: 1.5; stroke-linecap: square"/>
   </g>
   <g id="line2d_21">
    <path d="M 60.665455 42.970304 
L 65.873094 50.94116 
L 71.080733 55.541256 
L 76.288373 57.127496 
L 81.496012 58.118896 
L 86.703652 58.991328 
L 91.911291 59.86376 
L 97.11893 60.141352 
L 102.32657 60.26032 
L 107.534209 60.537912 
L 112.741849 60.379288 
L 117.949488 60.418944 
L 123.157128 60.617224 
L 128.364767 60.85516 
L 133.572406 60.85516 
L 138.780046 60.101696 
L 143.987685 59.982728 
L 149.195325 59.784448 
L 154.402964 59.625824 
L 159.610604 59.625824 
L 164.818243 59.625824 
L 170.025882 59.586168 
L 175.233522 59.705136 
L 180.441161 59.784448 
L 185.648801 59.86376 
L 190.85644 59.943072 
L 196.064079 59.744792 
L 201.271719 59.705136 
L 206.479358 59.705136 
L 211.686998 59.705136 
L 216.894637 59.66548 
L 222.102277 59.744792 
L 227.309916 59.744792 
L 232.517555 59.784448 
L 237.725195 59.784448 
L 242.932834 59.784448 
L 248.140474 59.66548 
L 253.348113 59.586168 
L 258.555752 59.625824 
L 263.763392 59.586168 
L 268.971031 59.586168 
L 274.178671 59.586168 
L 279.38631 59.586168 
L 284.59395 59.625824 
L 289.801589 59.66548 
L 295.009228 59.705136 
L 300.216868 59.705136 
L 305.424507 59.4672 
L 310.632147 59.427544 
L 315.839786 59.348232 
L 321.047426 59.26892 
L 326.255065 59.348232 
L 331.462704 59.348232 
L 336.670344 59.348232 
L 341.877983 59.387888 
L 347.085623 59.387888 
L 352.293262 59.387888 
L 357.500901 59.348232 
L 362.708541 59.348232 
L 367.91618 59.427544 
L 373.12382 59.427544 
L 378.331459 59.427544 
L 383.539099 59.427544 
L 388.746738 59.4672 
L 393.954377 59.546512 
L 399.162017 59.705136 
L 404.369656 59.705136 
L 409.577296 59.744792 
L 414.784935 59.784448 
L 419.992574 59.824104 
L 425.200214 59.824104 
L 430.407853 59.943072 
L 435.615493 60.022384 
L 440.823132 60.06204 
L 446.030772 60.26032 
L 451.238411 60.299976 
L 456.44605 60.379288 
L 461.65369 60.418944 
L 466.861329 60.4586 
L 472.068969 60.537912 
L 477.276608 60.617224 
L 482.484248 60.696536 
L 487.691887 60.775848 
L 492.899526 60.85516 
L 498.107166 60.974128 
L 503.314805 61.05344 
L 508.522445 61.093096 
L 513.730084 61.212064 
L 518.937723 61.212064 
L 524.145363 61.25172 
L 529.353002 61.25172 
L 534.560642 61.25172 
L 539.768281 61.25172 
L 544.975921 61.331032 
L 550.18356 61.410344 
L 555.391199 61.410344 
L 560.598839 61.370688 
L 565.806478 61.370688 
L 571.014118 61.45 
L 576.221757 61.529312 
L 581.429396 61.568968 
L 586.637036 61.608624 
L 591.844675 61.727592 
L 597.052315 61.727592 
L 602.259954 61.727592 
L 607.467594 61.806904 
L 612.675233 61.84656 
L 617.882872 61.925872 
L 623.090512 61.965528 
L 628.298151 61.965528 
L 633.505791 62.04484 
L 638.71343 62.124152 
L 643.92107 62.124152 
L 649.128709 62.24312 
L 654.336348 62.282776 
L 659.543988 62.322432 
L 664.751627 62.362088 
L 669.959267 62.401744 
L 675.166906 62.322432 
L 680.374545 62.282776 
" clip-path="url(#p8a93769bfd)" style="fill: none; stroke: #000000; stroke-width: 1.5; stroke-linecap: square"/>
   </g>
   <g id="line2d_22">
    <path d="M 60.665455 56.453344 
L 65.873094 36.149472 
L 71.080733 33.770112 
L 76.288373 33.09596 
L 81.496012 34.563232 
L 86.703652 35.118416 
L 91.911291 35.752912 
L 97.11893 36.546032 
L 102.32657 37.180528 
L 107.534209 38.489176 
L 112.741849 39.004704 
L 117.949488 39.678856 
L 123.157128 39.916792 
L 128.364767 40.392664 
L 133.572406 40.947848 
L 138.780046 41.42372 
L 143.987685 42.21684 
L 149.195325 42.335808 
L 154.402964 42.494432 
L 159.610604 42.732368 
L 164.818243 42.930648 
L 170.025882 43.327208 
L 175.233522 43.6048 
L 180.441161 43.961704 
L 185.648801 44.19964 
L 190.85644 44.39792 
L 196.064079 44.79448 
L 201.271719 45.072072 
L 206.479358 45.38932 
L 211.686998 45.706568 
L 216.894637 45.98416 
L 222.102277 46.301408 
L 227.309916 46.499688 
L 232.517555 46.856592 
L 237.725195 47.134184 
L 242.932834 47.610056 
L 248.140474 47.847992 
L 253.348113 48.125584 
L 258.555752 48.323864 
L 263.763392 48.522144 
L 268.971031 48.641112 
L 274.178671 48.799736 
L 279.38631 49.116984 
L 284.59395 49.196296 
L 289.801589 49.434232 
L 295.009228 49.5532 
L 300.216868 49.672168 
L 305.424507 49.711824 
L 310.632147 49.94976 
L 315.839786 50.14804 
L 321.047426 50.187696 
L 326.255065 49.989416 
L 331.462704 49.15664 
L 336.670344 48.918704 
L 341.877983 48.720424 
L 347.085623 48.5618 
L 352.293262 48.442832 
" clip-path="url(#p8a93769bfd)" style="fill: none; stroke: #000000; stroke-width: 1.5; stroke-linecap: square"/>
   </g>
   <g id="line2d_23">
    <path d="M 60.665455 228.917288 
L 65.873094 218.646384 
L 71.080733 205.520248 
L 76.288373 202.2288 
L 81.496012 200.761528 
L 86.703652 198.977008 
L 91.911291 199.532192 
L 97.11893 200.325312 
L 102.32657 200.721872 
L 107.534209 200.920152 
L 112.741849 197.430424 
L 117.949488 196.320056 
L 123.157128 193.50448 
L 128.364767 193.187232 
L 133.572406 191.482024 
L 138.780046 191.244088 
L 143.987685 190.688904 
L 149.195325 190.014752 
L 154.402964 188.74576 
L 159.610604 187.833672 
L 164.818243 187.15952 
L 170.025882 187.278488 
L 175.233522 187.318144 
L 180.441161 187.3578 
L 185.648801 187.75436 
L 190.85644 187.794016 
L 196.064079 187.437112 
L 201.271719 187.119864 
L 206.479358 186.842272 
L 211.686998 186.643992 
L 216.894637 186.326744 
L 222.102277 186.76296 
L 227.309916 186.445712 
L 232.517555 186.723304 
L 237.725195 186.76296 
L 242.932834 186.881928 
L 248.140474 186.842272 
L 253.348113 187.000896 
L 258.555752 187.040552 
L 263.763392 186.921584 
L 268.971031 186.683648 
L 274.178671 186.3664 
L 279.38631 186.247432 
L 284.59395 185.731904 
L 289.801589 185.652592 
L 295.009228 185.96984 
L 300.216868 185.692248 
L 305.424507 186.16812 
L 310.632147 186.287088 
L 315.839786 186.445712 
L 321.047426 186.406056 
L 326.255065 186.802616 
L 331.462704 186.96124 
L 336.670344 186.96124 
L 341.877983 187.3578 
L 347.085623 187.318144 
L 352.293262 187.55608 
L 357.500901 188.507824 
L 362.708541 188.587136 
L 367.91618 188.468168 
L 373.12382 188.071608 
L 378.331459 188.071608 
L 383.539099 187.75436 
L 388.746738 187.595736 
L 393.954377 187.595736 
L 399.162017 187.595736 
L 404.369656 187.199176 
L 409.577296 187.278488 
L 414.784935 187.15952 
L 419.992574 187.080208 
L 425.200214 187.080208 
L 430.407853 186.76296 
L 435.615493 186.76296 
L 440.823132 187.040552 
L 446.030772 187.199176 
L 451.238411 187.000896 
L 456.44605 187.000896 
L 461.65369 186.96124 
L 466.861329 187.080208 
L 472.068969 186.921584 
L 477.276608 186.802616 
L 482.484248 186.683648 
L 487.691887 186.76296 
L 492.899526 186.683648 
L 498.107166 185.890528 
L 503.314805 183.511168 
L 508.522445 181.171464 
L 513.730084 179.783504 
L 518.937723 179.267976 
L 524.145363 178.316232 
L 529.353002 178.157608 
" clip-path="url(#p8a93769bfd)" style="fill: none; stroke: #000000; stroke-width: 1.5; stroke-linecap: square"/>
   </g>
   <g id="line2d_24">
    <path d="M 60.665455 52.368776 
L 65.873094 52.368776 
L 71.080733 52.368776 
L 76.288373 52.368776 
L 81.496012 52.289464 
L 86.703652 51.417032 
L 91.911291 51.417032 
L 97.11893 50.861848 
L 102.32657 49.75148 
L 107.534209 49.75148 
L 112.741849 49.15664 
L 117.949488 49.35492 
L 123.157128 49.35492 
L 128.364767 49.394576 
L 133.572406 48.641112 
L 138.780046 48.641112 
L 143.987685 48.323864 
L 149.195325 48.323864 
L 154.402964 47.729024 
L 159.610604 47.729024 
L 164.818243 47.134184 
L 170.025882 47.134184 
L 175.233522 47.729024 
L 180.441161 47.847992 
L 185.648801 47.847992 
L 190.85644 47.451432 
L 196.064079 47.292808 
L 201.271719 47.292808 
L 206.479358 47.530744 
L 211.686998 47.530744 
L 216.894637 47.530744 
L 222.102277 47.213496 
L 227.309916 47.213496 
L 232.517555 47.094528 
L 237.725195 46.737624 
L 242.932834 46.737624 
L 248.140474 46.816936 
L 253.348113 46.816936 
L 258.555752 46.856592 
L 263.763392 46.856592 
L 268.971031 46.77728 
L 274.178671 46.77728 
L 279.38631 46.737624 
L 284.59395 46.737624 
L 289.801589 46.896248 
L 295.009228 46.896248 
L 300.216868 46.97556 
L 305.424507 46.816936 
L 310.632147 46.816936 
L 315.839786 46.97556 
L 321.047426 46.97556 
L 326.255065 46.896248 
L 331.462704 46.77728 
L 336.670344 46.77728 
L 341.877983 46.77728 
L 347.085623 46.77728 
L 352.293262 46.896248 
L 357.500901 47.015216 
L 362.708541 47.015216 
L 367.91618 46.856592 
L 373.12382 46.97556 
L 378.331459 46.97556 
L 383.539099 46.896248 
L 388.746738 46.77728 
L 393.954377 46.77728 
L 399.162017 46.737624 
L 404.369656 46.737624 
L 409.577296 46.737624 
L 414.784935 46.77728 
L 419.992574 46.77728 
L 425.200214 46.97556 
L 430.407853 46.97556 
L 435.615493 47.015216 
L 440.823132 47.015216 
L 446.030772 47.015216 
L 451.238411 46.896248 
L 456.44605 46.935904 
L 461.65369 46.856592 
L 466.861329 46.896248 
L 472.068969 46.856592 
L 477.276608 46.737624 
L 482.484248 46.816936 
L 487.691887 46.816936 
L 492.899526 46.77728 
L 498.107166 46.77728 
L 503.314805 46.816936 
L 508.522445 46.816936 
L 513.730084 46.737624 
L 518.937723 46.658312 
L 524.145363 46.539344 
L 529.353002 46.618656 
L 534.560642 46.658312 
L 539.768281 46.618656 
L 544.975921 46.539344 
L 550.18356 46.539344 
L 555.391199 46.499688 
L 560.598839 46.618656 
L 565.806478 46.658312 
L 571.014118 46.658312 
L 576.221757 46.658312 
L 581.429396 46.658312 
L 586.637036 46.697968 
L 591.844675 46.737624 
L 597.052315 46.816936 
L 602.259954 46.856592 
L 607.467594 46.896248 
L 612.675233 46.856592 
L 617.882872 46.856592 
L 623.090512 46.856592 
L 628.298151 46.856592 
L 633.505791 46.896248 
L 638.71343 46.935904 
L 643.92107 46.896248 
L 649.128709 46.816936 
L 654.336348 46.816936 
L 659.543988 46.935904 
L 664.751627 46.896248 
L 669.959267 46.896248 
L 675.166906 47.015216 
L 680.374545 47.015216 
" clip-path="url(#p8a93769bfd)" style="fill: none; stroke: #000000; stroke-width: 1.5; stroke-linecap: square"/>
   </g>
   <g id="line2d_25">
    <path d="M 60.665455 23.459552 
L 65.873094 23.419896 
L 71.080733 23.459552 
L 76.288373 23.816456 
L 81.496012 24.530264 
L 86.703652 25.244072 
L 91.911291 25.918224 
L 97.11893 26.830312 
L 102.32657 27.821712 
L 107.534209 27.94068 
L 112.741849 28.13896 
L 117.949488 28.297584 
L 123.157128 28.33724 
L 128.364767 28.33724 
L 133.572406 28.33724 
L 138.780046 28.297584 
L 143.987685 28.257928 
L 149.195325 28.257928 
L 154.402964 28.099304 
L 159.610604 28.099304 
L 164.818243 28.059648 
L 170.025882 28.019992 
L 175.233522 27.94068 
L 180.441161 27.94068 
L 185.648801 27.901024 
L 190.85644 27.861368 
L 196.064079 27.821712 
L 201.271719 27.7424 
L 206.479358 27.702744 
L 211.686998 27.623432 
L 216.894637 27.583776 
L 222.102277 27.54412 
L 227.309916 27.464808 
L 232.517555 27.385496 
L 237.725195 27.34584 
L 242.932834 27.306184 
L 248.140474 27.266528 
L 253.348113 27.187216 
L 258.555752 27.14756 
L 263.763392 27.107904 
L 268.971031 27.107904 
L 274.178671 27.068248 
L 279.38631 27.028592 
L 284.59395 26.988936 
L 289.801589 26.94928 
L 295.009228 26.94928 
L 300.216868 26.909624 
L 305.424507 26.869968 
L 310.632147 26.869968 
L 315.839786 26.830312 
L 321.047426 26.830312 
L 326.255065 26.830312 
L 331.462704 26.790656 
L 336.670344 26.790656 
L 341.877983 26.790656 
L 347.085623 26.790656 
L 352.293262 26.751 
L 357.500901 26.751 
L 362.708541 26.751 
L 367.91618 26.751 
L 373.12382 26.711344 
L 378.331459 26.711344 
L 383.539099 26.711344 
L 388.746738 26.711344 
L 393.954377 26.671688 
L 399.162017 26.671688 
L 404.369656 26.671688 
L 409.577296 26.671688 
L 414.784935 26.671688 
L 419.992574 26.632032 
L 425.200214 26.632032 
L 430.407853 26.632032 
L 435.615493 26.632032 
L 440.823132 26.632032 
L 446.030772 26.632032 
L 451.238411 26.592376 
L 456.44605 26.592376 
L 461.65369 26.592376 
L 466.861329 26.592376 
L 472.068969 26.592376 
L 477.276608 26.592376 
L 482.484248 26.592376 
L 487.691887 26.55272 
L 492.899526 26.55272 
L 498.107166 26.55272 
L 503.314805 26.592376 
L 508.522445 26.671688 
L 513.730084 26.671688 
L 518.937723 26.592376 
L 524.145363 26.513064 
L 529.353002 26.473408 
L 534.560642 26.433752 
L 539.768281 26.433752 
L 544.975921 26.394096 
L 550.18356 26.394096 
L 555.391199 26.35444 
L 560.598839 26.35444 
L 565.806478 26.35444 
L 571.014118 26.35444 
L 576.221757 26.35444 
L 581.429396 26.116504 
L 586.637036 25.918224 
L 591.844675 25.799256 
L 597.052315 25.719944 
L 602.259954 25.680288 
L 607.467594 25.600976 
" clip-path="url(#p8a93769bfd)" style="fill: none; stroke: #000000; stroke-width: 1.5; stroke-linecap: square"/>
   </g>
   <g id="line2d_26">
    <path d="M 60.665455 56.968872 
L 65.873094 57.28612 
L 71.080733 61.370688 
L 76.288373 60.418944 
L 81.496012 61.132752 
L 86.703652 59.348232 
L 91.911291 58.039584 
L 97.11893 58.237864 
L 102.32657 58.912016 
L 107.534209 59.308576 
L 112.741849 59.427544 
L 117.949488 59.744792 
L 123.157128 59.506856 
L 128.364767 59.07064 
L 133.572406 59.030984 
L 138.780046 59.110296 
L 143.987685 59.149952 
L 149.195325 59.308576 
L 154.402964 59.427544 
L 159.610604 59.546512 
L 164.818243 59.506856 
L 170.025882 59.308576 
L 175.233522 59.26892 
L 180.441161 59.784448 
L 185.648801 59.903416 
L 190.85644 60.06204 
L 196.064079 59.943072 
L 201.271719 59.705136 
L 206.479358 59.586168 
L 211.686998 59.4672 
L 216.894637 59.427544 
L 222.102277 59.427544 
L 227.309916 59.4672 
L 232.517555 59.546512 
L 237.725195 59.586168 
L 242.932834 59.66548 
L 248.140474 59.586168 
L 253.348113 59.4672 
L 258.555752 59.387888 
L 263.763392 59.625824 
L 268.971031 59.586168 
L 274.178671 59.784448 
L 279.38631 59.824104 
L 284.59395 59.784448 
L 289.801589 60.06204 
L 295.009228 59.943072 
L 300.216868 59.903416 
L 305.424507 60.06204 
L 310.632147 60.101696 
L 315.839786 59.982728 
L 321.047426 59.86376 
L 326.255065 59.903416 
L 331.462704 59.86376 
L 336.670344 59.86376 
L 341.877983 59.943072 
L 347.085623 60.022384 
L 352.293262 59.982728 
L 357.500901 59.982728 
L 362.708541 60.022384 
L 367.91618 60.06204 
L 373.12382 60.022384 
L 378.331459 60.141352 
L 383.539099 60.299976 
L 388.746738 60.141352 
L 393.954377 60.141352 
L 399.162017 59.982728 
L 404.369656 60.06204 
L 409.577296 60.022384 
L 414.784935 59.982728 
L 419.992574 59.903416 
L 425.200214 59.943072 
L 430.407853 59.903416 
L 435.615493 60.06204 
L 440.823132 59.903416 
L 446.030772 59.903416 
L 451.238411 59.982728 
L 456.44605 59.903416 
L 461.65369 59.824104 
L 466.861329 59.903416 
L 472.068969 59.86376 
L 477.276608 59.824104 
L 482.484248 59.744792 
L 487.691887 59.705136 
L 492.899526 59.705136 
L 498.107166 59.744792 
L 503.314805 59.903416 
L 508.522445 59.903416 
L 513.730084 59.705136 
L 518.937723 59.784448 
L 524.145363 59.86376 
L 529.353002 59.824104 
L 534.560642 59.86376 
L 539.768281 59.903416 
L 544.975921 60.022384 
L 550.18356 59.982728 
L 555.391199 59.982728 
L 560.598839 60.26032 
L 565.806478 60.379288 
L 571.014118 60.418944 
L 576.221757 60.498256 
L 581.429396 60.4586 
L 586.637036 60.498256 
L 591.844675 60.418944 
L 597.052315 60.4586 
L 602.259954 60.339632 
L 607.467594 60.4586 
L 612.675233 60.537912 
L 617.882872 60.617224 
L 623.090512 60.617224 
L 628.298151 60.577568 
L 633.505791 60.65688 
L 638.71343 60.65688 
L 643.92107 60.696536 
L 649.128709 60.736192 
L 654.336348 60.736192 
L 659.543988 60.736192 
L 664.751627 60.65688 
L 669.959267 60.736192 
L 675.166906 60.696536 
L 680.374545 60.696536 
" clip-path="url(#p8a93769bfd)" style="fill: none; stroke: #000000; stroke-width: 1.5; stroke-linecap: square"/>
   </g>
   <g id="line2d_27">
    <path d="M 60.665455 64.22592 
L 65.873094 64.22592 
L 71.080733 67.477712 
L 76.288373 69.698448 
L 81.496012 69.698448 
L 86.703652 73.426112 
L 91.911291 76.003752 
L 97.11893 76.003752 
L 102.32657 77.431368 
L 107.534209 77.431368 
L 112.741849 78.145176 
L 117.949488 78.145176 
L 123.157128 79.731416 
L 128.364767 79.731416 
L 133.572406 81.000408 
L 138.780046 82.388368 
L 143.987685 82.388368 
L 149.195325 83.340112 
L 154.402964 84.45048 
L 159.610604 84.45048 
L 164.818243 86.63156 
L 170.025882 88.81264 
L 175.233522 88.81264 
L 180.441161 90.874752 
L 185.648801 90.874752 
L 190.85644 91.271312 
L 196.064079 91.58856 
L 201.271719 91.58856 
L 206.479358 92.619616 
L 211.686998 92.619616 
L 216.894637 93.254112 
L 222.102277 93.254112 
L 227.309916 94.483448 
L 232.517555 94.483448 
L 237.725195 95.435192 
L 242.932834 95.435192 
L 248.140474 96.783496 
L 253.348113 96.783496 
L 258.555752 97.259368 
L 263.763392 97.893864 
L 268.971031 97.893864 
L 274.178671 98.766296 
L 279.38631 98.766296 
L 284.59395 99.242168 
L 289.801589 99.51976 
L 295.009228 99.51976 
L 300.216868 100.233568 
L 305.424507 100.233568 
L 310.632147 100.431848 
L 315.839786 100.669784 
L 321.047426 100.669784 
L 326.255065 101.066344 
L 331.462704 101.026688 
L 336.670344 101.026688 
L 341.877983 101.185312 
L 347.085623 103.802608 
L 352.293262 103.802608 
L 357.500901 107.569928 
L 362.708541 109.354448 
L 367.91618 109.354448 
L 373.12382 110.187224 
L 378.331459 110.187224 
L 383.539099 111.495872 
L 388.746738 111.495872 
L 393.954377 112.40796 
L 399.162017 113.0028 
L 404.369656 113.240736 
L 409.577296 113.59764 
L 414.784935 113.716608 
L 419.992574 113.676952 
L 425.200214 113.79592 
L 430.407853 114.033856 
L 435.615493 114.152824 
L 440.823132 114.19248 
L 446.030772 114.351104 
L 451.238411 114.58904 
L 456.44605 114.78732 
L 461.65369 114.906288 
L 466.861329 114.906288 
L 472.068969 115.144224 
L 477.276608 115.421816 
L 482.484248 115.620096 
L 487.691887 115.659752 
L 492.899526 115.77872 
L 498.107166 115.897688 
L 503.314805 115.937344 
L 508.522445 116.016656 
L 513.730084 116.37356 
L 518.937723 116.492528 
L 524.145363 116.452872 
L 529.353002 116.532184 
L 534.560642 116.730464 
L 539.768281 116.849432 
L 544.975921 117.047712 
L 550.18356 117.206336 
L 555.391199 117.404616 
L 560.598839 117.56324 
L 565.806478 117.642552 
L 571.014118 117.801176 
L 576.221757 117.9598 
L 581.429396 118.118424 
L 586.637036 118.316704 
L 591.844675 118.435672 
L 597.052315 118.514984 
L 602.259954 118.633952 
L 607.467594 118.792576 
L 612.675233 118.871888 
L 617.882872 118.9512 
L 623.090512 119.14948 
L 628.298151 119.228792 
L 633.505791 119.427072 
L 638.71343 119.9426 
L 643.92107 120.220192 
L 649.128709 120.418472 
L 654.336348 120.696064 
L 659.543988 120.894344 
L 664.751627 120.973656 
L 669.959267 121.290904 
L 675.166906 121.33056 
L 680.374545 121.489184 
" clip-path="url(#p8a93769bfd)" style="fill: none; stroke: #000000; stroke-width: 1.5; stroke-linecap: square"/>
   </g>
   <g id="line2d_28">
    <path d="M 60.665455 123.31336 
L 65.873094 123.31336 
L 71.080733 100.590472 
L 76.288373 100.590472 
L 81.496012 106.45956 
L 86.703652 106.45956 
L 91.911291 97.73524 
L 97.11893 97.73524 
L 102.32657 95.673128 
L 107.534209 115.699408 
L 112.741849 115.699408 
L 117.949488 130.015224 
L 123.157128 136.360184 
L 128.364767 136.360184 
L 133.572406 125.534096 
L 138.780046 111.61484 
L 143.987685 111.61484 
L 149.195325 101.224968 
L 154.402964 101.224968 
L 159.610604 94.880008 
L 164.818243 90.874752 
L 170.025882 90.874752 
L 175.233522 85.917752 
L 180.441161 85.917752 
L 185.648801 81.357312 
L 190.85644 81.357312 
L 196.064079 78.70036 
L 201.271719 78.70036 
L 206.479358 85.124632 
L 211.686998 85.124632 
L 216.894637 85.203944 
L 222.102277 85.203944 
L 227.309916 83.934952 
L 232.517555 82.784928 
L 237.725195 82.784928 
L 242.932834 81.555592 
L 248.140474 81.555592 
L 253.348113 80.2866 
L 258.555752 79.374512 
L 263.763392 79.374512 
L 268.971031 78.383112 
L 274.178671 78.383112 
L 279.38631 78.145176 
L 284.59395 77.70896 
L 289.801589 77.70896 
L 295.009228 77.193432 
L 300.216868 76.677904 
L 305.424507 76.677904 
L 310.632147 75.964096 
L 315.839786 75.448568 
L 321.047426 75.448568 
L 326.255065 74.774416 
L 331.462704 74.3382 
L 336.670344 74.3382 
L 341.877983 73.307144 
L 347.085623 73.307144 
L 352.293262 72.672648 
L 357.500901 72.55368 
L 362.708541 72.236432 
L 367.91618 71.839872 
L 373.12382 71.76056 
L 378.331459 71.205376 
L 383.539099 70.848472 
L 388.746738 70.610536 
L 393.954377 70.451912 
L 399.162017 70.253632 
L 404.369656 70.055352 
L 409.577296 69.738104 
L 414.784935 69.619136 
L 419.992574 69.460512 
L 425.200214 69.341544 
L 430.407853 69.143264 
L 435.615493 69.024296 
L 440.823132 68.944984 
L 446.030772 68.826016 
L 451.238411 68.707048 
L 456.44605 68.58808 
L 461.65369 68.508768 
L 466.861329 68.3898 
L 472.068969 68.310488 
L 477.276608 68.78636 
L 482.484248 70.650192 
L 487.691887 71.007096 
L 492.899526 71.443312 
L 498.107166 114.232136 
L 503.314805 172.566112 
L 508.522445 226.141368 
L 513.730084 184.819816 
L 518.937723 131.918712 
L 524.145363 119.030512 
L 529.353002 115.025256 
L 534.560642 113.716608 
L 539.768281 115.263192 
L 544.975921 117.444272 
L 550.18356 118.237392 
L 555.391199 118.514984 
L 560.598839 118.990856 
L 565.806478 119.387416 
L 571.014118 119.585696 
L 576.221757 119.625352 
L 581.429396 119.625352 
L 586.637036 119.625352 
L 591.844675 119.585696 
L 597.052315 119.625352 
L 602.259954 119.704664 
L 607.467594 119.823632 
L 612.675233 119.783976 
L 617.882872 119.783976 
L 623.090512 119.783976 
L 628.298151 119.74432 
L 633.505791 119.74432 
L 638.71343 119.74432 
L 643.92107 119.783976 
L 649.128709 119.823632 
L 654.336348 119.823632 
L 659.543988 119.823632 
L 664.751627 119.783976 
L 669.959267 119.704664 
L 675.166906 119.665008 
L 680.374545 119.625352 
" clip-path="url(#p8a93769bfd)" style="fill: none; stroke: #000000; stroke-width: 1.5; stroke-linecap: square"/>
   </g>
   <g id="line2d_29">
    <path d="M 60.665455 227.529328 
L 65.873094 227.529328 
L 71.080733 206.313368 
L 76.288373 196.161432 
L 81.496012 196.161432 
L 86.703652 190.847528 
L 91.911291 186.683648 
L 97.11893 186.683648 
L 102.32657 182.480112 
L 107.534209 179.783504 
L 112.741849 179.783504 
L 117.949488 177.285176 
L 123.157128 177.285176 
L 128.364767 175.500656 
L 133.572406 174.509256 
L 138.780046 174.07304 
L 143.987685 173.240264 
L 149.195325 172.764392 
L 154.402964 172.367832 
L 159.610604 172.129896 
L 164.818243 171.931616 
L 170.025882 171.733336 
L 175.233522 171.614368 
L 180.441161 171.416088 
L 185.648801 171.376432 
L 190.85644 171.217808 
L 196.064079 171.178152 
L 201.271719 171.059184 
L 206.479358 171.059184 
L 211.686998 171.059184 
L 216.894637 170.979872 
L 222.102277 170.940216 
L 227.309916 170.821248 
L 232.517555 170.821248 
L 237.725195 170.821248 
L 242.932834 170.741936 
L 248.140474 170.781592 
L 253.348113 170.741936 
L 258.555752 170.741936 
L 263.763392 170.70228 
L 268.971031 170.662624 
L 274.178671 170.662624 
L 279.38631 170.662624 
L 284.59395 170.583312 
L 289.801589 170.504 
L 295.009228 170.504 
L 300.216868 170.504 
L 305.424507 170.504 
L 310.632147 170.504 
L 315.839786 170.504 
L 321.047426 170.504 
L 326.255065 170.543656 
L 331.462704 170.504 
L 336.670344 170.622968 
L 341.877983 170.622968 
L 347.085623 170.70228 
L 352.293262 170.741936 
L 357.500901 170.741936 
L 362.708541 170.781592 
L 367.91618 170.741936 
L 373.12382 170.741936 
L 378.331459 170.70228 
L 383.539099 170.70228 
L 388.746738 170.70228 
L 393.954377 170.741936 
L 399.162017 170.741936 
L 404.369656 170.781592 
L 409.577296 170.821248 
L 414.784935 170.860904 
L 419.992574 170.821248 
L 425.200214 170.860904 
L 430.407853 170.860904 
L 435.615493 170.90056 
L 440.823132 170.90056 
L 446.030772 170.90056 
L 451.238411 170.860904 
L 456.44605 170.90056 
L 461.65369 170.90056 
L 466.861329 170.90056 
L 472.068969 170.940216 
L 477.276608 170.940216 
L 482.484248 170.979872 
L 487.691887 170.979872 
L 492.899526 171.019528 
L 498.107166 171.059184 
L 503.314805 171.059184 
L 508.522445 171.09884 
L 513.730084 171.09884 
L 518.937723 171.09884 
L 524.145363 171.09884 
L 529.353002 171.09884 
L 534.560642 171.138496 
L 539.768281 171.138496 
L 544.975921 171.178152 
L 550.18356 171.178152 
L 555.391199 171.178152 
L 560.598839 171.178152 
L 565.806478 171.257464 
L 571.014118 171.416088 
L 576.221757 171.574712 
L 581.429396 171.69368 
L 586.637036 171.772992 
L 591.844675 171.852304 
L 597.052315 171.971272 
L 602.259954 171.971272 
L 607.467594 172.050584 
L 612.675233 172.129896 
L 617.882872 172.129896 
L 623.090512 172.129896 
L 628.298151 172.169552 
L 633.505791 172.209208 
L 638.71343 172.367832 
L 643.92107 172.367832 
L 649.128709 172.447144 
L 654.336348 172.526456 
L 659.543988 172.566112 
L 664.751627 172.566112 
L 669.959267 172.605768 
L 675.166906 172.645424 
L 680.374545 172.645424 
" clip-path="url(#p8a93769bfd)" style="fill: none; stroke: #000000; stroke-width: 1.5; stroke-linecap: square"/>
   </g>
   <g id="line2d_30">
    <path d="M 60.665455 122.956456 
L 65.873094 110.901032 
L 71.080733 102.969832 
L 76.288373 98.845608 
L 81.496012 91.78684 
L 86.703652 95.1576 
L 91.911291 93.531704 
L 97.11893 92.897208 
L 102.32657 92.064432 
L 107.534209 91.707528 
L 112.741849 91.707528 
L 117.949488 91.58856 
L 123.157128 91.033376 
L 128.364767 90.478192 
L 133.572406 89.923008 
L 138.780046 89.764384 
L 143.987685 89.685072 
L 149.195325 89.526448 
L 154.402964 89.248856 
L 159.610604 89.01092 
L 164.818243 88.733328 
L 170.025882 88.535048 
L 175.233522 87.662616 
L 180.441161 87.583304 
L 185.648801 87.543648 
L 190.85644 87.781584 
L 196.064079 87.741928 
L 201.271719 87.82124 
L 206.479358 87.82124 
L 211.686998 87.781584 
L 216.894637 87.702272 
L 222.102277 87.62296 
L 227.309916 87.464336 
L 232.517555 87.266056 
L 237.725195 86.869496 
L 242.932834 86.512592 
L 248.140474 86.195344 
L 253.348113 85.798784 
L 258.555752 85.600504 
L 263.763392 85.322912 
L 268.971031 85.203944 
L 274.178671 85.04532 
L 279.38631 87.147088 
L 284.59395 93.135144 
L 289.801589 95.117944 
L 295.009228 95.831752 
L 300.216868 96.505904 
L 305.424507 96.902464 
L 310.632147 97.219712 
L 315.839786 96.267968 
L 321.047426 95.117944 
L 326.255065 94.324824 
L 331.462704 93.888608 
L 336.670344 93.690328 
L 341.877983 93.412736 
L 347.085623 93.293768 
L 352.293262 93.095488 
L 357.500901 92.857552 
L 362.708541 92.659272 
L 367.91618 92.540304 
L 373.12382 92.421336 
L 378.331459 92.262712 
L 383.539099 92.104088 
L 388.746738 92.064432 
L 393.954377 91.98512 
L 399.162017 91.905808 
L 404.369656 91.78684 
L 409.577296 91.747184 
L 414.784935 91.628216 
L 419.992574 91.548904 
L 425.200214 91.469592 
L 430.407853 91.429936 
L 435.615493 91.39028 
L 440.823132 91.231656 
L 446.030772 91.192 
L 451.238411 91.073032 
L 456.44605 90.99372 
L 461.65369 90.874752 
L 466.861329 90.79544 
L 472.068969 90.79544 
L 477.276608 90.716128 
L 482.484248 90.59716 
L 487.691887 90.557504 
L 492.899526 89.40748 
L 498.107166 87.147088 
L 503.314805 85.481536 
L 508.522445 84.291856 
L 513.730084 83.2608 
L 518.937723 82.705616 
L 524.145363 82.190088 
" clip-path="url(#p8a93769bfd)" style="fill: none; stroke: #000000; stroke-width: 1.5; stroke-linecap: square"/>
   </g>
   <g id="line2d_31">
    <path d="M 60.665455 99.995632 
L 65.873094 158.646856 
L 71.080733 163.524544 
L 76.288373 161.462432 
L 81.496012 154.879536 
L 86.703652 154.998504 
L 91.911291 147.582832 
L 97.11893 135.170504 
L 102.32657 129.499696 
L 107.534209 119.308104 
L 112.741849 111.337248 
L 117.949488 107.490616 
L 123.157128 106.618184 
L 128.364767 103.406048 
L 133.572406 101.542216 
L 138.780046 100.987032 
L 143.987685 98.766296 
L 149.195325 95.435192 
L 154.402964 93.531704 
L 159.610604 93.254112 
L 164.818243 92.143744 
L 170.025882 91.469592 
L 175.233522 90.676472 
L 180.441161 90.121288 
L 185.648801 88.41608 
L 190.85644 87.583304 
L 196.064079 87.107432 
L 201.271719 87.02812 
L 206.479358 86.116032 
L 211.686998 86.116032 
L 216.894637 84.767728 
L 222.102277 83.697016 
L 227.309916 83.45908 
L 232.517555 83.2608 
L 237.725195 82.586648 
L 242.932834 82.190088 
L 248.140474 82.586648 
L 253.348113 81.952152 
L 258.555752 81.436624 
L 263.763392 80.88144 
L 268.971031 80.722816 
L 274.178671 80.445224 
L 279.38631 80.08832 
L 284.59395 79.731416 
L 289.801589 79.850384 
L 295.009228 79.771072 
L 300.216868 79.969352 
L 305.424507 79.771072 
L 310.632147 79.929696 
L 315.839786 79.533136 
L 321.047426 79.255544 
L 326.255065 78.858984 
L 331.462704 78.819328 
L 336.670344 78.977952 
L 341.877983 78.462424 
L 347.085623 78.065864 
L 352.293262 77.748616 
L 357.500901 77.70896 
L 362.708541 77.629648 
L 367.91618 77.748616 
L 373.12382 76.955496 
L 378.331459 77.193432 
L 383.539099 77.629648 
L 388.746738 77.272744 
L 393.954377 77.352056 
L 399.162017 77.391712 
L 404.369656 77.272744 
L 409.577296 76.955496 
L 414.784935 77.074464 
L 419.992574 76.71756 
L 425.200214 76.638248 
L 430.407853 76.876184 
L 435.615493 76.558936 
L 440.823132 76.12272 
L 446.030772 75.765816 
L 451.238411 75.646848 
L 456.44605 75.210632 
L 461.65369 75.289944 
L 466.861329 75.52788 
L 472.068969 75.250288 
L 477.276608 75.448568 
L 482.484248 75.289944 
L 487.691887 75.170976 
L 492.899526 75.091664 
L 498.107166 75.210632 
L 503.314805 75.3296 
L 508.522445 74.814072 
L 513.730084 74.93304 
L 518.937723 74.774416 
L 524.145363 74.893384 
L 529.353002 74.73476 
L 534.560642 74.695104 
L 539.768281 74.377856 
L 544.975921 74.179576 
L 550.18356 73.664048 
L 555.391199 73.783016 
L 560.598839 73.386456 
L 565.806478 73.188176 
L 571.014118 73.386456 
L 576.221757 73.188176 
L 581.429396 73.14852 
L 586.637036 73.3468 
L 591.844675 73.14852 
L 597.052315 72.910584 
L 602.259954 72.514024 
L 607.467594 72.236432 
L 612.675233 72.117464 
L 617.882872 71.998496 
L 623.090512 71.839872 
L 628.298151 71.919184 
L 633.505791 71.839872 
L 638.71343 70.96744 
L 643.92107 68.905328 
L 649.128709 68.469112 
L 654.336348 67.913928 
L 659.543988 68.350144 
L 664.751627 68.429456 
L 669.959267 68.469112 
" clip-path="url(#p8a93769bfd)" style="fill: none; stroke: #000000; stroke-width: 1.5; stroke-linecap: square"/>
   </g>
   <g id="line2d_32">
    <path d="M 60.665455 276.266552 
L 65.873094 242.598608 
L 71.080733 211.825552 
L 76.288373 192.473424 
L 81.496012 174.905816 
L 86.703652 157.933048 
L 91.911291 150.834624 
L 97.11893 149.446664 
L 102.32657 147.860424 
L 107.534209 147.186272 
L 112.741849 142.94308 
L 117.949488 140.682688 
L 123.157128 138.858512 
L 128.364767 139.294728 
L 133.572406 137.946424 
L 138.780046 138.7792 
L 143.987685 138.699888 
L 149.195325 140.008536 
L 154.402964 139.056792 
L 159.610604 140.008536 
L 164.818243 139.929224 
L 170.025882 139.929224 
L 175.233522 140.36544 
L 180.441161 141.515464 
L 185.648801 141.396496 
L 190.85644 140.603376 
L 196.064079 139.691288 
L 201.271719 139.453352 
L 206.479358 139.849912 
L 211.686998 140.008536 
L 216.894637 139.493008 
L 222.102277 139.7706 
L 227.309916 140.603376 
L 232.517555 140.484408 
L 237.725195 139.929224 
L 242.932834 139.453352 
L 248.140474 139.453352 
L 253.348113 139.056792 
L 258.555752 139.730944 
L 263.763392 139.611976 
L 268.971031 139.889568 
L 274.178671 139.651632 
L 279.38631 139.7706 
L 284.59395 140.444752 
L 289.801589 140.206816 
L 295.009228 141.118904 
L 300.216868 140.880968 
L 305.424507 141.912024 
L 310.632147 141.55512 
L 315.839786 142.189616 
L 321.047426 142.34824 
L 326.255065 142.94308 
L 331.462704 142.705144 
L 336.670344 142.625832 
L 341.877983 142.863768 
L 347.085623 142.7448 
L 352.293262 142.7448 
L 357.500901 142.7448 
L 362.708541 142.863768 
L 367.91618 143.101704 
L 373.12382 143.220672 
L 378.331459 143.101704 
L 383.539099 143.101704 
L 388.746738 143.33964 
L 393.954377 143.260328 
L 399.162017 143.260328 
L 404.369656 143.379296 
L 409.577296 143.577576 
L 414.784935 143.379296 
L 419.992574 143.14136 
L 425.200214 142.903424 
L 430.407853 142.784456 
L 435.615493 142.784456 
L 440.823132 142.665488 
L 446.030772 142.54652 
L 451.238411 142.54652 
L 456.44605 142.189616 
L 461.65369 142.110304 
L 466.861329 142.110304 
L 472.068969 141.991336 
L 477.276608 142.229272 
L 482.484248 142.110304 
L 487.691887 142.110304 
L 492.899526 142.229272 
L 498.107166 142.34824 
L 503.314805 141.991336 
L 508.522445 141.872368 
L 513.730084 141.872368 
L 518.937723 141.872368 
L 524.145363 141.991336 
L 529.353002 142.705144 
L 534.560642 142.94308 
L 539.768281 143.181016 
L 544.975921 143.260328 
L 550.18356 143.379296 
L 555.391199 144.172416 
L 560.598839 144.053448 
L 565.806478 144.053448 
L 571.014118 143.974136 
L 576.221757 142.665488 
L 581.429396 142.784456 
L 586.637036 142.467208 
L 591.844675 142.824112 
L 597.052315 142.268928 
" clip-path="url(#p8a93769bfd)" style="fill: none; stroke: #000000; stroke-width: 1.5; stroke-linecap: square"/>
   </g>
  </g>
 </g>
 <defs>
  <clipPath id="p8a93769bfd">
   <rect x="29.68" y="11.88" width="681.68" height="396.56"/>
  </clipPath>
 </defs>
</svg>
