<?xml version="1.0" encoding="utf-8" standalone="no"?>
<!DOCTYPE svg PUBLIC "-//W3C//DTD SVG 1.1//EN"
  "http://www.w3.org/Graphics/SVG/1.1/DTD/svg11.dtd">
<svg xmlns:xlink="http://www.w3.org/1999/xlink" width="720pt" height="432pt" viewBox="0 0 720 432" xmlns="http://www.w3.org/2000/svg" version="1.1">
 <metadata>
  <rdf:RDF xmlns:dc="http://purl.org/dc/elements/1.1/" xmlns:cc="http://creativecommons.org/ns#" xmlns:rdf="http://www.w3.org/1999/02/22-rdf-syntax-ns#">
   <cc:Work>
    <dc:type rdf:resource="http://purl.org/dc/dcmitype/StillImage"/>
    <dc:date>2024-12-04T11:33:00.918210</dc:date>
    <dc:format>image/svg+xml</dc:format>
    <dc:creator>
     <cc:Agent>
      <dc:title>Matplotlib v3.9.3, https://matplotlib.org/</dc:title>
     </cc:Agent>
    </dc:creator>
   </cc:Work>
  </rdf:RDF>
 </metadata>
 <defs>
  <style type="text/css">*{stroke-linejoin: round; stroke-linecap: butt}</style>
 </defs>
 <g id="figure_1">
  <g id="patch_1">
   <path d="M 0 432 
L 720 432 
L 720 0 
L 0 0 
z
" style="fill: #ffffff"/>
  </g>
  <g id="axes_1">
   <g id="patch_2">
    <path d="M 90 384.48 
L 648 384.48 
L 648 51.84 
L 90 51.84 
z
" style="fill: #ffffff"/>
   </g>
   <g id="matplotlib.axis_1">
    <g id="xtick_1">
     <g id="line2d_1">
      <defs>
       <path id="md947d76620" d="M 0 0 
L 0 3.5 
" style="stroke: #000000; stroke-width: 0.8"/>
      </defs>
      <g>
       <use xlink:href="#md947d76620" x="115.363636" y="384.48" style="stroke: #000000; stroke-width: 0.8"/>
      </g>
     </g>
     <g id="text_1">
      <text style="font: 10px 'Lato', sans-serif; text-anchor: middle" x="115.363636" y="398.845625" transform="rotate(-0 115.363636 398.845625)">0</text>
     </g>
    </g>
    <g id="xtick_2">
     <g id="line2d_2">
      <g>
       <use xlink:href="#md947d76620" x="200.619557" y="384.48" style="stroke: #000000; stroke-width: 0.8"/>
      </g>
     </g>
     <g id="text_2">
      <text style="font: 10px 'Lato', sans-serif; text-anchor: middle" x="200.619557" y="398.845625" transform="rotate(-0 200.619557 398.845625)">20</text>
     </g>
    </g>
    <g id="xtick_3">
     <g id="line2d_3">
      <g>
       <use xlink:href="#md947d76620" x="285.875477" y="384.48" style="stroke: #000000; stroke-width: 0.8"/>
      </g>
     </g>
     <g id="text_3">
      <text style="font: 10px 'Lato', sans-serif; text-anchor: middle" x="285.875477" y="398.845625" transform="rotate(-0 285.875477 398.845625)">40</text>
     </g>
    </g>
    <g id="xtick_4">
     <g id="line2d_4">
      <g>
       <use xlink:href="#md947d76620" x="371.131398" y="384.48" style="stroke: #000000; stroke-width: 0.8"/>
      </g>
     </g>
     <g id="text_4">
      <text style="font: 10px 'Lato', sans-serif; text-anchor: middle" x="371.131398" y="398.845625" transform="rotate(-0 371.131398 398.845625)">60</text>
     </g>
    </g>
    <g id="xtick_5">
     <g id="line2d_5">
      <g>
       <use xlink:href="#md947d76620" x="456.387319" y="384.48" style="stroke: #000000; stroke-width: 0.8"/>
      </g>
     </g>
     <g id="text_5">
      <text style="font: 10px 'Lato', sans-serif; text-anchor: middle" x="456.387319" y="398.845625" transform="rotate(-0 456.387319 398.845625)">80</text>
     </g>
    </g>
    <g id="xtick_6">
     <g id="line2d_6">
      <g>
       <use xlink:href="#md947d76620" x="541.643239" y="384.48" style="stroke: #000000; stroke-width: 0.8"/>
      </g>
     </g>
     <g id="text_6">
      <text style="font: 10px 'Lato', sans-serif; text-anchor: middle" x="541.643239" y="398.845625" transform="rotate(-0 541.643239 398.845625)">100</text>
     </g>
    </g>
    <g id="xtick_7">
     <g id="line2d_7">
      <g>
       <use xlink:href="#md947d76620" x="626.89916" y="384.48" style="stroke: #000000; stroke-width: 0.8"/>
      </g>
     </g>
     <g id="text_7">
      <text style="font: 10px 'Lato', sans-serif; text-anchor: middle" x="626.89916" y="398.845625" transform="rotate(-0 626.89916 398.845625)">120</text>
     </g>
    </g>
   </g>
   <g id="matplotlib.axis_2">
    <g id="ytick_1">
     <g id="line2d_8">
      <defs>
       <path id="md1104cf1ab" d="M 0 0 
L -3.5 0 
" style="stroke: #000000; stroke-width: 0.8"/>
      </defs>
      <g>
       <use xlink:href="#md1104cf1ab" x="90" y="337.725621" style="stroke: #000000; stroke-width: 0.8"/>
      </g>
     </g>
     <g id="text_8">
      <text style="font: 10px 'Lato', sans-serif; text-anchor: end" x="83" y="341.408434" transform="rotate(-0 83 341.408434)">40</text>
     </g>
    </g>
    <g id="ytick_2">
     <g id="line2d_9">
      <g>
       <use xlink:href="#md1104cf1ab" x="90" y="290.297767" style="stroke: #000000; stroke-width: 0.8"/>
      </g>
     </g>
     <g id="text_9">
      <text style="font: 10px 'Lato', sans-serif; text-anchor: end" x="83" y="293.980579" transform="rotate(-0 83 293.980579)">50</text>
     </g>
    </g>
    <g id="ytick_3">
     <g id="line2d_10">
      <g>
       <use xlink:href="#md1104cf1ab" x="90" y="242.869912" style="stroke: #000000; stroke-width: 0.8"/>
      </g>
     </g>
     <g id="text_10">
      <text style="font: 10px 'Lato', sans-serif; text-anchor: end" x="83" y="246.552725" transform="rotate(-0 83 246.552725)">60</text>
     </g>
    </g>
    <g id="ytick_4">
     <g id="line2d_11">
      <g>
       <use xlink:href="#md1104cf1ab" x="90" y="195.442058" style="stroke: #000000; stroke-width: 0.8"/>
      </g>
     </g>
     <g id="text_11">
      <text style="font: 10px 'Lato', sans-serif; text-anchor: end" x="83" y="199.12487" transform="rotate(-0 83 199.12487)">70</text>
     </g>
    </g>
    <g id="ytick_5">
     <g id="line2d_12">
      <g>
       <use xlink:href="#md1104cf1ab" x="90" y="148.014203" style="stroke: #000000; stroke-width: 0.8"/>
      </g>
     </g>
     <g id="text_12">
      <text style="font: 10px 'Lato', sans-serif; text-anchor: end" x="83" y="151.697016" transform="rotate(-0 83 151.697016)">80</text>
     </g>
    </g>
    <g id="ytick_6">
     <g id="line2d_13">
      <g>
       <use xlink:href="#md1104cf1ab" x="90" y="100.586349" style="stroke: #000000; stroke-width: 0.8"/>
      </g>
     </g>
     <g id="text_13">
      <text style="font: 10px 'Lato', sans-serif; text-anchor: end" x="83" y="104.269161" transform="rotate(-0 83 104.269161)">90</text>
     </g>
    </g>
    <g id="ytick_7">
     <g id="line2d_14">
      <g>
       <use xlink:href="#md1104cf1ab" x="90" y="53.158494" style="stroke: #000000; stroke-width: 0.8"/>
      </g>
     </g>
     <g id="text_14">
      <text style="font: 10px 'Lato', sans-serif; text-anchor: end" x="83" y="56.841307" transform="rotate(-0 83 56.841307)">100</text>
     </g>
    </g>
   </g>
   <g id="line2d_15">
    <path d="M 115.363636 138.481205 
L 119.626432 138.481205 
L 123.889228 138.481205 
L 128.152024 138.481205 
L 132.41482 92.997892 
L 136.677617 91.622484 
L 140.940413 91.622484 
L 145.203209 92.001907 
L 149.466005 91.527629 
L 153.728801 91.527629 
L 157.991597 91.812196 
L 162.254393 91.527629 
L 166.517189 91.527629 
L 170.779985 91.05335 
L 175.042781 91.385345 
L 179.305577 91.385345 
L 183.568373 92.333902 
L 187.831169 92.333902 
L 192.093965 92.950464 
L 196.356761 92.950464 
L 200.619557 93.472171 
L 204.882353 93.472171 
L 209.145149 94.657867 
L 213.407945 94.989862 
L 217.670741 94.989862 
L 221.933537 95.321857 
L 226.196333 101.534906 
L 230.459129 101.534906 
L 234.721925 102.957742 
L 238.984721 103.479448 
L 243.247517 103.479448 
L 247.510313 103.43202 
L 251.773109 103.43202 
L 256.035905 103.621731 
L 260.298701 106.08798 
L 264.561497 106.08798 
L 268.824293 108.127378 
L 273.087089 108.127378 
L 277.349885 109.028507 
L 281.612681 109.028507 
L 285.875477 109.313074 
L 290.138273 109.313074 
L 294.40107 109.787353 
L 298.663866 109.787353 
L 302.926662 110.166775 
L 307.189458 110.166775 
L 311.452254 110.261631 
L 315.71505 110.688482 
L 319.977846 110.688482 
L 324.240642 110.925621 
L 328.503438 110.925621 
L 332.766234 111.684467 
L 337.02903 111.779322 
L 341.291826 111.779322 
L 345.554622 112.111317 
L 349.817418 112.111317 
L 354.080214 112.443312 
L 358.34301 112.72788 
L 362.605806 112.72788 
L 366.868602 113.107302 
L 371.131398 113.39187 
L 375.394194 113.39187 
L 379.65699 114.48271 
L 383.919786 116.047829 
L 388.182582 116.047829 
L 392.445378 119.320351 
L 396.708174 120.221481 
L 400.97097 120.221481 
L 405.233766 127.145947 
L 409.496562 127.145947 
L 413.759358 134.734404 
L 418.022154 143.22399 
L 422.28495 145.737666 
L 426.547746 148.630765 
L 430.810542 153.041556 
L 435.073338 157.499774 
L 439.336134 161.009435 
L 443.59893 164.376813 
L 447.861727 165.704793 
L 452.124523 167.222484 
L 456.387319 168.503036 
L 460.650115 169.451593 
L 464.912911 170.542434 
L 469.175707 171.30128 
L 473.438503 171.775558 
L 477.701299 172.818971 
L 481.964095 173.530389 
L 486.226891 176.328632 
L 490.489687 178.557742 
L 494.752483 181.118846 
L 499.015279 182.589109 
L 503.278075 183.585094 
L 507.540871 184.818218 
L 511.803667 185.956487 
L 516.066463 186.857616 
L 520.329259 187.521606 
L 524.592055 187.901029 
L 528.854851 188.470163 
L 533.117647 189.039297 
L 537.380443 189.276437 
L 541.643239 189.892999 
L 545.906035 190.367277 
L 550.168831 190.7467 
L 554.431627 191.126123 
L 558.694423 191.41069 
L 562.957219 191.552974 
L 567.220015 191.742685 
L 571.482811 192.216964 
L 575.745607 192.264391 
L 580.008403 192.501531 
L 584.271199 192.833526 
L 588.533995 192.928381 
L 592.796791 193.023237 
L 597.059587 193.212949 
L 601.322383 193.450088 
L 605.58518 193.639799 
L 609.847976 193.592371 
L 614.110772 193.544944 
L 618.373568 193.734655 
L 622.636364 193.782083 
" clip-path="url(#pa9e659bd4f)" style="fill: none; stroke: #e6e6e6; stroke-width: 1.5; stroke-linecap: square"/>
   </g>
   <g id="line2d_16">
    <path d="M 115.363636 90.341932 
L 119.626432 99.874931 
L 123.889228 105.376562 
L 128.152024 107.273676 
L 132.41482 108.459373 
L 136.677617 109.502785 
L 140.940413 110.546198 
L 145.203209 110.878193 
L 149.466005 111.020477 
L 153.728801 111.352472 
L 157.991597 111.16276 
L 162.254393 111.210188 
L 166.517189 111.447327 
L 170.779985 111.731895 
L 175.042781 111.731895 
L 179.305577 110.830765 
L 183.568373 110.688482 
L 187.831169 110.451343 
L 192.093965 110.261631 
L 196.356761 110.261631 
L 200.619557 110.261631 
L 204.882353 110.214203 
L 209.145149 110.356487 
L 213.407945 110.451343 
L 217.670741 110.546198 
L 221.933537 110.641054 
L 226.196333 110.403915 
L 230.459129 110.356487 
L 234.721925 110.356487 
L 238.984721 110.356487 
L 243.247517 110.309059 
L 247.510313 110.403915 
L 251.773109 110.403915 
L 256.035905 110.451343 
L 260.298701 110.451343 
L 264.561497 110.451343 
L 268.824293 110.309059 
L 273.087089 110.214203 
L 277.349885 110.261631 
L 281.612681 110.214203 
L 285.875477 110.214203 
L 290.138273 110.214203 
L 294.40107 110.214203 
L 298.663866 110.261631 
L 302.926662 110.309059 
L 307.189458 110.356487 
L 311.452254 110.356487 
L 315.71505 110.07192 
L 319.977846 110.024492 
L 324.240642 109.929636 
L 328.503438 109.83478 
L 332.766234 109.929636 
L 337.02903 109.929636 
L 341.291826 109.929636 
L 345.554622 109.977064 
L 349.817418 109.977064 
L 354.080214 109.977064 
L 358.34301 109.929636 
L 362.605806 109.929636 
L 366.868602 110.024492 
L 371.131398 110.024492 
L 375.394194 110.024492 
L 379.65699 110.024492 
L 383.919786 110.07192 
L 388.182582 110.166775 
L 392.445378 110.356487 
L 396.708174 110.356487 
L 400.97097 110.403915 
L 405.233766 110.451343 
L 409.496562 110.49877 
L 413.759358 110.49877 
L 418.022154 110.641054 
L 422.28495 110.73591 
L 426.547746 110.783338 
L 430.810542 111.020477 
L 435.073338 111.067905 
L 439.336134 111.16276 
L 443.59893 111.210188 
L 447.861727 111.257616 
L 452.124523 111.352472 
L 456.387319 111.447327 
L 460.650115 111.542183 
L 464.912911 111.637039 
L 469.175707 111.731895 
L 473.438503 111.874178 
L 477.701299 111.969034 
L 481.964095 112.016462 
L 486.226891 112.158745 
L 490.489687 112.158745 
L 494.752483 112.206173 
L 499.015279 112.206173 
L 503.278075 112.206173 
L 507.540871 112.206173 
L 511.803667 112.301029 
L 516.066463 112.395885 
L 520.329259 112.395885 
L 524.592055 112.348457 
L 528.854851 112.348457 
L 533.117647 112.443312 
L 537.380443 112.538168 
L 541.643239 112.585596 
L 545.906035 112.633024 
L 550.168831 112.775307 
L 554.431627 112.775307 
L 558.694423 112.775307 
L 562.957219 112.870163 
L 567.220015 112.917591 
L 571.482811 113.012447 
L 575.745607 113.059875 
L 580.008403 113.059875 
L 584.271199 113.15473 
L 588.533995 113.249586 
L 592.796791 113.249586 
L 597.059587 113.39187 
L 601.322383 113.439297 
L 605.58518 113.486725 
L 609.847976 113.534153 
L 614.110772 113.581581 
L 618.373568 113.486725 
L 622.636364 113.439297 
" clip-path="url(#pa9e659bd4f)" style="fill: none; stroke: #e6e6e6; stroke-width: 1.5; stroke-linecap: square"/>
   </g>
   <g id="line2d_17">
    <path d="M 115.363636 106.467403 
L 119.626432 82.184341 
L 123.889228 79.33867 
L 128.152024 78.532396 
L 132.41482 80.287227 
L 136.677617 80.951217 
L 140.940413 81.710063 
L 145.203209 82.65862 
L 149.466005 83.417465 
L 153.728801 84.982585 
L 157.991597 85.599147 
L 162.254393 86.40542 
L 166.517189 86.689987 
L 170.779985 87.259122 
L 175.042781 87.923112 
L 179.305577 88.492246 
L 183.568373 89.440803 
L 187.831169 89.583087 
L 192.093965 89.772798 
L 196.356761 90.057365 
L 200.619557 90.294504 
L 204.882353 90.768783 
L 209.145149 91.100778 
L 213.407945 91.527629 
L 217.670741 91.812196 
L 221.933537 92.049335 
L 226.196333 92.523614 
L 230.459129 92.855609 
L 234.721925 93.235031 
L 238.984721 93.614454 
L 243.247517 93.946449 
L 247.510313 94.325872 
L 251.773109 94.563011 
L 256.035905 94.989862 
L 260.298701 95.321857 
L 264.561497 95.890991 
L 268.824293 96.175558 
L 273.087089 96.507553 
L 277.349885 96.744693 
L 281.612681 96.981832 
L 285.875477 97.124115 
L 290.138273 97.313827 
L 294.40107 97.69325 
L 298.663866 97.788105 
L 302.926662 98.072673 
L 307.189458 98.214956 
L 311.452254 98.35724 
L 315.71505 98.404668 
L 319.977846 98.689235 
L 324.240642 98.926374 
L 328.503438 98.973802 
L 332.766234 98.736662 
L 337.02903 97.740678 
L 341.291826 97.45611 
L 345.554622 97.218971 
L 349.817418 97.02926 
L 354.080214 96.886976 
" clip-path="url(#pa9e659bd4f)" style="fill: none; stroke: #e6e6e6; stroke-width: 1.5; stroke-linecap: square"/>
   </g>
   <g id="line2d_18">
    <path d="M 115.363636 312.731142 
L 119.626432 300.447327 
L 123.889228 284.748708 
L 128.152024 280.812196 
L 132.41482 279.057365 
L 136.677617 276.923112 
L 140.940413 277.587102 
L 145.203209 278.535659 
L 149.466005 279.009937 
L 153.728801 279.247077 
L 157.991597 275.073425 
L 162.254393 273.745445 
L 166.517189 270.378068 
L 170.779985 269.998645 
L 175.042781 267.959247 
L 179.305577 267.67468 
L 183.568373 267.01069 
L 187.831169 266.204417 
L 192.093965 264.686725 
L 196.356761 263.595885 
L 200.619557 262.789611 
L 204.882353 262.931895 
L 209.145149 262.979322 
L 213.407945 263.02675 
L 217.670741 263.501029 
L 221.933537 263.548457 
L 226.196333 263.121606 
L 230.459129 262.742183 
L 234.721925 262.410188 
L 238.984721 262.173049 
L 243.247517 261.793626 
L 247.510313 262.315332 
L 251.773109 261.93591 
L 256.035905 262.267905 
L 260.298701 262.315332 
L 264.561497 262.457616 
L 268.824293 262.410188 
L 273.087089 262.5999 
L 277.349885 262.647327 
L 281.612681 262.505044 
L 285.875477 262.220477 
L 290.138273 261.841054 
L 294.40107 261.69877 
L 298.663866 261.082208 
L 302.926662 260.987353 
L 307.189458 261.366775 
L 311.452254 261.03478 
L 315.71505 261.603915 
L 319.977846 261.746198 
L 324.240642 261.93591 
L 328.503438 261.888482 
L 332.766234 262.36276 
L 337.02903 262.552472 
L 341.291826 262.552472 
L 345.554622 263.02675 
L 349.817418 262.979322 
L 354.080214 263.26389 
L 358.34301 264.402158 
L 362.605806 264.497014 
L 366.868602 264.35473 
L 371.131398 263.880452 
L 375.394194 263.880452 
L 379.65699 263.501029 
L 383.919786 263.311317 
L 388.182582 263.311317 
L 392.445378 263.311317 
L 396.708174 262.837039 
L 400.97097 262.931895 
L 405.233766 262.789611 
L 409.496562 262.694755 
L 413.759358 262.694755 
L 418.022154 262.315332 
L 422.28495 262.315332 
L 426.547746 262.647327 
L 430.810542 262.837039 
L 435.073338 262.5999 
L 439.336134 262.5999 
L 443.59893 262.552472 
L 447.861727 262.694755 
L 452.124523 262.505044 
L 456.387319 262.36276 
L 460.650115 262.220477 
L 464.912911 262.315332 
L 469.175707 262.220477 
L 473.438503 261.27192 
L 477.701299 258.426248 
L 481.964095 255.628005 
L 486.226891 253.96803 
L 490.489687 253.351468 
L 494.752483 252.213199 
L 499.015279 252.023488 
" clip-path="url(#pa9e659bd4f)" style="fill: none; stroke: #e6e6e6; stroke-width: 1.5; stroke-linecap: square"/>
   </g>
   <g id="line2d_19">
    <path d="M 115.363636 101.582334 
L 119.626432 101.582334 
L 123.889228 101.582334 
L 128.152024 101.582334 
L 132.41482 101.487478 
L 136.677617 100.444065 
L 140.940413 100.444065 
L 145.203209 99.780075 
L 149.466005 98.452095 
L 153.728801 98.452095 
L 157.991597 97.740678 
L 162.254393 97.977817 
L 166.517189 97.977817 
L 170.779985 98.025245 
L 175.042781 97.124115 
L 179.305577 97.124115 
L 183.568373 96.744693 
L 187.831169 96.744693 
L 192.093965 96.033275 
L 196.356761 96.033275 
L 200.619557 95.321857 
L 204.882353 95.321857 
L 209.145149 96.033275 
L 213.407945 96.175558 
L 217.670741 96.175558 
L 221.933537 95.70128 
L 226.196333 95.511568 
L 230.459129 95.511568 
L 234.721925 95.796136 
L 238.984721 95.796136 
L 243.247517 95.796136 
L 247.510313 95.416713 
L 251.773109 95.416713 
L 256.035905 95.274429 
L 260.298701 94.847578 
L 264.561497 94.847578 
L 268.824293 94.942434 
L 273.087089 94.942434 
L 277.349885 94.989862 
L 281.612681 94.989862 
L 285.875477 94.895006 
L 290.138273 94.895006 
L 294.40107 94.847578 
L 298.663866 94.847578 
L 302.926662 95.03729 
L 307.189458 95.03729 
L 311.452254 95.132146 
L 315.71505 94.942434 
L 319.977846 94.942434 
L 324.240642 95.132146 
L 328.503438 95.132146 
L 332.766234 95.03729 
L 337.02903 94.895006 
L 341.291826 94.895006 
L 345.554622 94.895006 
L 349.817418 94.895006 
L 354.080214 95.03729 
L 358.34301 95.179573 
L 362.605806 95.179573 
L 366.868602 94.989862 
L 371.131398 95.132146 
L 375.394194 95.132146 
L 379.65699 95.03729 
L 383.919786 94.895006 
L 388.182582 94.895006 
L 392.445378 94.847578 
L 396.708174 94.847578 
L 400.97097 94.847578 
L 405.233766 94.895006 
L 409.496562 94.895006 
L 413.759358 95.132146 
L 418.022154 95.132146 
L 422.28495 95.179573 
L 426.547746 95.179573 
L 430.810542 95.179573 
L 435.073338 95.03729 
L 439.336134 95.084718 
L 443.59893 94.989862 
L 447.861727 95.03729 
L 452.124523 94.989862 
L 456.387319 94.847578 
L 460.650115 94.942434 
L 464.912911 94.942434 
L 469.175707 94.895006 
L 473.438503 94.895006 
L 477.701299 94.942434 
L 481.964095 94.942434 
L 486.226891 94.847578 
L 490.489687 94.752723 
L 494.752483 94.610439 
L 499.015279 94.705295 
L 503.278075 94.752723 
L 507.540871 94.705295 
L 511.803667 94.610439 
L 516.066463 94.610439 
L 520.329259 94.563011 
L 524.592055 94.705295 
L 528.854851 94.752723 
L 533.117647 94.752723 
L 537.380443 94.752723 
L 541.643239 94.752723 
L 545.906035 94.800151 
L 550.168831 94.847578 
L 554.431627 94.942434 
L 558.694423 94.989862 
L 562.957219 95.03729 
L 567.220015 94.989862 
L 571.482811 94.989862 
L 575.745607 94.989862 
L 580.008403 94.989862 
L 584.271199 95.03729 
L 588.533995 95.084718 
L 592.796791 95.03729 
L 597.059587 94.942434 
L 601.322383 94.942434 
L 605.58518 95.084718 
L 609.847976 95.03729 
L 614.110772 95.03729 
L 618.373568 95.179573 
L 622.636364 95.179573 
" clip-path="url(#pa9e659bd4f)" style="fill: none; stroke: #e6e6e6; stroke-width: 1.5; stroke-linecap: square"/>
   </g>
   <g id="line2d_20">
    <path d="M 115.363636 67.007428 
L 119.626432 66.96 
L 123.889228 67.007428 
L 128.152024 67.434279 
L 132.41482 68.28798 
L 136.677617 69.141681 
L 140.940413 69.947955 
L 145.203209 71.038795 
L 149.466005 72.224492 
L 153.728801 72.366775 
L 157.991597 72.603915 
L 162.254393 72.793626 
L 166.517189 72.841054 
L 170.779985 72.841054 
L 175.042781 72.841054 
L 179.305577 72.793626 
L 183.568373 72.746198 
L 187.831169 72.746198 
L 192.093965 72.556487 
L 196.356761 72.556487 
L 200.619557 72.509059 
L 204.882353 72.461631 
L 209.145149 72.366775 
L 213.407945 72.366775 
L 217.670741 72.319348 
L 221.933537 72.27192 
L 226.196333 72.224492 
L 230.459129 72.129636 
L 234.721925 72.082208 
L 238.984721 71.987353 
L 243.247517 71.939925 
L 247.510313 71.892497 
L 251.773109 71.797641 
L 256.035905 71.702785 
L 260.298701 71.655358 
L 264.561497 71.60793 
L 268.824293 71.560502 
L 273.087089 71.465646 
L 277.349885 71.418218 
L 281.612681 71.37079 
L 285.875477 71.37079 
L 290.138273 71.323363 
L 294.40107 71.275935 
L 298.663866 71.228507 
L 302.926662 71.181079 
L 307.189458 71.181079 
L 311.452254 71.133651 
L 315.71505 71.086223 
L 319.977846 71.086223 
L 324.240642 71.038795 
L 328.503438 71.038795 
L 332.766234 71.038795 
L 337.02903 70.991368 
L 341.291826 70.991368 
L 345.554622 70.991368 
L 349.817418 70.991368 
L 354.080214 70.94394 
L 358.34301 70.94394 
L 362.605806 70.94394 
L 366.868602 70.94394 
L 371.131398 70.896512 
L 375.394194 70.896512 
L 379.65699 70.896512 
L 383.919786 70.896512 
L 388.182582 70.849084 
L 392.445378 70.849084 
L 396.708174 70.849084 
L 400.97097 70.849084 
L 405.233766 70.849084 
L 409.496562 70.801656 
L 413.759358 70.801656 
L 418.022154 70.801656 
L 422.28495 70.801656 
L 426.547746 70.801656 
L 430.810542 70.801656 
L 435.073338 70.754228 
L 439.336134 70.754228 
L 443.59893 70.754228 
L 447.861727 70.754228 
L 452.124523 70.754228 
L 456.387319 70.754228 
L 460.650115 70.754228 
L 464.912911 70.706801 
L 469.175707 70.706801 
L 473.438503 70.706801 
L 477.701299 70.754228 
L 481.964095 70.849084 
L 486.226891 70.849084 
L 490.489687 70.754228 
L 494.752483 70.659373 
L 499.015279 70.611945 
L 503.278075 70.564517 
L 507.540871 70.564517 
L 511.803667 70.517089 
L 516.066463 70.517089 
L 520.329259 70.469661 
L 524.592055 70.469661 
L 528.854851 70.469661 
L 533.117647 70.469661 
L 537.380443 70.469661 
L 541.643239 70.185094 
L 545.906035 69.947955 
L 550.168831 69.805671 
L 554.431627 69.710816 
L 558.694423 69.663388 
L 562.957219 69.568532 
" clip-path="url(#pa9e659bd4f)" style="fill: none; stroke: #e6e6e6; stroke-width: 1.5; stroke-linecap: square"/>
   </g>
   <g id="line2d_21">
    <path d="M 115.363636 107.083965 
L 119.626432 107.463388 
L 123.889228 112.348457 
L 128.152024 111.210188 
L 132.41482 112.06389 
L 136.677617 109.929636 
L 140.940413 108.364517 
L 145.203209 108.601656 
L 149.466005 109.40793 
L 153.728801 109.882208 
L 157.991597 110.024492 
L 162.254393 110.403915 
L 166.517189 110.119348 
L 170.779985 109.597641 
L 175.042781 109.550213 
L 179.305577 109.645069 
L 183.568373 109.692497 
L 187.831169 109.882208 
L 192.093965 110.024492 
L 196.356761 110.166775 
L 200.619557 110.119348 
L 204.882353 109.882208 
L 209.145149 109.83478 
L 213.407945 110.451343 
L 217.670741 110.593626 
L 221.933537 110.783338 
L 226.196333 110.641054 
L 230.459129 110.356487 
L 234.721925 110.214203 
L 238.984721 110.07192 
L 243.247517 110.024492 
L 247.510313 110.024492 
L 251.773109 110.07192 
L 256.035905 110.166775 
L 260.298701 110.214203 
L 264.561497 110.309059 
L 268.824293 110.214203 
L 273.087089 110.07192 
L 277.349885 109.977064 
L 281.612681 110.261631 
L 285.875477 110.214203 
L 290.138273 110.451343 
L 294.40107 110.49877 
L 298.663866 110.451343 
L 302.926662 110.783338 
L 307.189458 110.641054 
L 311.452254 110.593626 
L 315.71505 110.783338 
L 319.977846 110.830765 
L 324.240642 110.688482 
L 328.503438 110.546198 
L 332.766234 110.593626 
L 337.02903 110.546198 
L 341.291826 110.546198 
L 345.554622 110.641054 
L 349.817418 110.73591 
L 354.080214 110.688482 
L 358.34301 110.688482 
L 362.605806 110.73591 
L 366.868602 110.783338 
L 371.131398 110.73591 
L 375.394194 110.878193 
L 379.65699 111.067905 
L 383.919786 110.878193 
L 388.182582 110.878193 
L 392.445378 110.688482 
L 396.708174 110.783338 
L 400.97097 110.73591 
L 405.233766 110.688482 
L 409.496562 110.593626 
L 413.759358 110.641054 
L 418.022154 110.593626 
L 422.28495 110.783338 
L 426.547746 110.593626 
L 430.810542 110.593626 
L 435.073338 110.688482 
L 439.336134 110.593626 
L 443.59893 110.49877 
L 447.861727 110.593626 
L 452.124523 110.546198 
L 456.387319 110.49877 
L 460.650115 110.403915 
L 464.912911 110.356487 
L 469.175707 110.356487 
L 473.438503 110.403915 
L 477.701299 110.593626 
L 481.964095 110.593626 
L 486.226891 110.356487 
L 490.489687 110.451343 
L 494.752483 110.546198 
L 499.015279 110.49877 
L 503.278075 110.546198 
L 507.540871 110.593626 
L 511.803667 110.73591 
L 516.066463 110.688482 
L 520.329259 110.688482 
L 524.592055 111.020477 
L 528.854851 111.16276 
L 533.117647 111.210188 
L 537.380443 111.305044 
L 541.643239 111.257616 
L 545.906035 111.305044 
L 550.168831 111.210188 
L 554.431627 111.257616 
L 558.694423 111.115332 
L 562.957219 111.257616 
L 567.220015 111.352472 
L 571.482811 111.447327 
L 575.745607 111.447327 
L 580.008403 111.3999 
L 584.271199 111.494755 
L 588.533995 111.494755 
L 592.796791 111.542183 
L 597.059587 111.589611 
L 601.322383 111.589611 
L 605.58518 111.589611 
L 609.847976 111.494755 
L 614.110772 111.589611 
L 618.373568 111.542183 
L 622.636364 111.542183 
" clip-path="url(#pa9e659bd4f)" style="fill: none; stroke: #e6e6e6; stroke-width: 1.5; stroke-linecap: square"/>
   </g>
   <g id="line2d_22">
    <path d="M 115.363636 115.763262 
L 119.626432 115.763262 
L 123.889228 119.652346 
L 128.152024 122.308306 
L 132.41482 122.308306 
L 136.677617 126.766524 
L 140.940413 129.849335 
L 145.203209 129.849335 
L 149.466005 131.556738 
L 153.728801 131.556738 
L 157.991597 132.410439 
L 162.254393 132.410439 
L 166.517189 134.307553 
L 170.779985 134.307553 
L 175.042781 135.825245 
L 179.305577 137.48522 
L 183.568373 137.48522 
L 187.831169 138.623488 
L 192.093965 139.951468 
L 196.356761 139.951468 
L 200.619557 142.56 
L 204.882353 145.168532 
L 209.145149 145.168532 
L 213.407945 147.63478 
L 217.670741 147.63478 
L 221.933537 148.109059 
L 226.196333 148.488482 
L 230.459129 148.488482 
L 234.721925 149.721606 
L 238.984721 149.721606 
L 243.247517 150.480452 
L 247.510313 150.480452 
L 251.773109 151.950715 
L 256.035905 151.950715 
L 260.298701 153.088984 
L 264.561497 153.088984 
L 268.824293 154.701531 
L 273.087089 154.701531 
L 277.349885 155.270665 
L 281.612681 156.029511 
L 285.875477 156.029511 
L 290.138273 157.072923 
L 294.40107 157.072923 
L 298.663866 157.642058 
L 302.926662 157.974053 
L 307.189458 157.974053 
L 311.452254 158.827754 
L 315.71505 158.827754 
L 319.977846 159.064893 
L 324.240642 159.34946 
L 328.503438 159.34946 
L 332.766234 159.823739 
L 337.02903 159.776311 
L 341.291826 159.776311 
L 345.554622 159.966023 
L 349.817418 163.096261 
L 354.080214 163.096261 
L 358.34301 167.601907 
L 362.605806 169.736161 
L 366.868602 169.736161 
L 371.131398 170.732146 
L 375.394194 170.732146 
L 379.65699 172.297265 
L 383.919786 172.297265 
L 388.182582 173.388105 
L 392.445378 174.099523 
L 396.708174 174.38409 
L 400.97097 174.810941 
L 405.233766 174.953225 
L 409.496562 174.905797 
L 413.759358 175.04808 
L 418.022154 175.332647 
L 422.28495 175.474931 
L 426.547746 175.522359 
L 430.810542 175.71207 
L 435.073338 175.996637 
L 439.336134 176.233777 
L 443.59893 176.37606 
L 447.861727 176.37606 
L 452.124523 176.660627 
L 456.387319 176.992622 
L 460.650115 177.229762 
L 464.912911 177.277189 
L 469.175707 177.419473 
L 473.438503 177.561757 
L 477.701299 177.609184 
L 481.964095 177.70404 
L 486.226891 178.130891 
L 490.489687 178.273174 
L 494.752483 178.225747 
L 499.015279 178.320602 
L 503.278075 178.557742 
L 507.540871 178.700025 
L 511.803667 178.937164 
L 516.066463 179.126876 
L 520.329259 179.364015 
L 524.592055 179.553726 
L 528.854851 179.648582 
L 533.117647 179.838294 
L 537.380443 180.028005 
L 541.643239 180.217716 
L 545.906035 180.454856 
L 550.168831 180.597139 
L 554.431627 180.691995 
L 558.694423 180.834279 
L 562.957219 181.02399 
L 567.220015 181.118846 
L 571.482811 181.213701 
L 575.745607 181.450841 
L 580.008403 181.545696 
L 584.271199 181.782836 
L 588.533995 182.399398 
L 592.796791 182.731393 
L 597.059587 182.968532 
L 601.322383 183.300527 
L 605.58518 183.537666 
L 609.847976 183.632522 
L 614.110772 184.011945 
L 618.373568 184.059373 
L 622.636364 184.249084 
" clip-path="url(#pa9e659bd4f)" style="fill: none; stroke: #e6e6e6; stroke-width: 1.5; stroke-linecap: square"/>
   </g>
   <g id="line2d_23">
    <path d="M 115.363636 186.430765 
L 119.626432 186.430765 
L 123.889228 159.254605 
L 128.152024 159.254605 
L 132.41482 166.273927 
L 136.677617 166.273927 
L 140.940413 155.839799 
L 145.203209 155.839799 
L 149.466005 153.373551 
L 153.728801 177.324617 
L 157.991597 177.324617 
L 162.254393 194.446073 
L 166.517189 202.034529 
L 170.779985 202.034529 
L 175.042781 189.086725 
L 179.305577 172.439548 
L 183.568373 172.439548 
L 187.831169 160.01345 
L 192.093965 160.01345 
L 196.356761 152.424994 
L 200.619557 147.63478 
L 204.882353 147.63478 
L 209.145149 141.706299 
L 213.407945 141.706299 
L 217.670741 136.252095 
L 221.933537 136.252095 
L 226.196333 133.074429 
L 230.459129 133.074429 
L 234.721925 140.757742 
L 238.984721 140.757742 
L 243.247517 140.852597 
L 247.510313 140.852597 
L 251.773109 139.334906 
L 256.035905 137.959498 
L 260.298701 137.959498 
L 264.561497 136.489235 
L 268.824293 136.489235 
L 273.087089 134.971543 
L 277.349885 133.880703 
L 281.612681 133.880703 
L 285.875477 132.695006 
L 290.138273 132.695006 
L 294.40107 132.410439 
L 298.663866 131.888733 
L 302.926662 131.888733 
L 307.189458 131.272171 
L 311.452254 130.655609 
L 315.71505 130.655609 
L 319.977846 129.801907 
L 324.240642 129.185345 
L 328.503438 129.185345 
L 332.766234 128.379072 
L 337.02903 127.857365 
L 341.291826 127.857365 
L 345.554622 126.624241 
L 349.817418 126.624241 
L 354.080214 125.865395 
L 358.34301 125.723112 
L 362.605806 125.343689 
L 366.868602 124.86941 
L 371.131398 124.774555 
L 375.394194 124.110565 
L 379.65699 123.683714 
L 383.919786 123.399147 
L 388.182582 123.209435 
L 392.445378 122.972296 
L 396.708174 122.735157 
L 400.97097 122.355734 
L 405.233766 122.21345 
L 409.496562 122.023739 
L 413.759358 121.881455 
L 418.022154 121.644316 
L 422.28495 121.502033 
L 426.547746 121.407177 
L 430.810542 121.264893 
L 435.073338 121.12261 
L 439.336134 120.980326 
L 443.59893 120.885471 
L 447.861727 120.743187 
L 452.124523 120.648331 
L 456.387319 121.217465 
L 460.650115 123.446575 
L 464.912911 123.873425 
L 469.175707 124.395132 
L 473.438503 175.569787 
L 477.701299 245.336161 
L 481.964095 309.411192 
L 486.226891 259.991368 
L 490.489687 196.72261 
L 494.752483 181.308557 
L 499.015279 176.518344 
L 503.278075 174.953225 
L 507.540871 176.802911 
L 511.803667 179.411443 
L 516.066463 180.36 
L 520.329259 180.691995 
L 524.592055 181.261129 
L 528.854851 181.735408 
L 533.117647 181.972547 
L 537.380443 182.019975 
L 541.643239 182.019975 
L 545.906035 182.019975 
L 550.168831 181.972547 
L 554.431627 182.019975 
L 558.694423 182.114831 
L 562.957219 182.257114 
L 567.220015 182.209686 
L 571.482811 182.209686 
L 575.745607 182.209686 
L 580.008403 182.162258 
L 584.271199 182.162258 
L 588.533995 182.162258 
L 592.796791 182.209686 
L 597.059587 182.257114 
L 601.322383 182.257114 
L 605.58518 182.257114 
L 609.847976 182.209686 
L 614.110772 182.114831 
L 618.373568 182.067403 
L 622.636364 182.019975 
" clip-path="url(#pa9e659bd4f)" style="fill: none; stroke: #e6e6e6; stroke-width: 1.5; stroke-linecap: square"/>
   </g>
   <g id="line2d_24">
    <path d="M 115.363636 311.071167 
L 119.626432 311.071167 
L 123.889228 285.697265 
L 128.152024 273.555734 
L 132.41482 273.555734 
L 136.677617 267.200402 
L 140.940413 262.220477 
L 145.203209 262.220477 
L 149.466005 257.193124 
L 153.728801 253.96803 
L 157.991597 253.96803 
L 162.254393 250.980075 
L 166.517189 250.980075 
L 170.779985 248.845822 
L 175.042781 247.660125 
L 179.305577 247.138419 
L 183.568373 246.142434 
L 187.831169 245.5733 
L 192.093965 245.099021 
L 196.356761 244.814454 
L 200.619557 244.577315 
L 204.882353 244.340176 
L 209.145149 244.197892 
L 213.407945 243.960753 
L 217.670741 243.913325 
L 221.933537 243.723614 
L 226.196333 243.676186 
L 230.459129 243.533902 
L 234.721925 243.533902 
L 238.984721 243.533902 
L 243.247517 243.439046 
L 247.510313 243.391619 
L 251.773109 243.249335 
L 256.035905 243.249335 
L 260.298701 243.249335 
L 264.561497 243.154479 
L 268.824293 243.201907 
L 273.087089 243.154479 
L 277.349885 243.154479 
L 281.612681 243.107051 
L 285.875477 243.059624 
L 290.138273 243.059624 
L 294.40107 243.059624 
L 298.663866 242.964768 
L 302.926662 242.869912 
L 307.189458 242.869912 
L 311.452254 242.869912 
L 315.71505 242.869912 
L 319.977846 242.869912 
L 324.240642 242.869912 
L 328.503438 242.869912 
L 332.766234 242.91734 
L 337.02903 242.869912 
L 341.291826 243.012196 
L 345.554622 243.012196 
L 349.817418 243.107051 
L 354.080214 243.154479 
L 358.34301 243.154479 
L 362.605806 243.201907 
L 366.868602 243.154479 
L 371.131398 243.154479 
L 375.394194 243.107051 
L 379.65699 243.107051 
L 383.919786 243.107051 
L 388.182582 243.154479 
L 392.445378 243.154479 
L 396.708174 243.201907 
L 400.97097 243.249335 
L 405.233766 243.296763 
L 409.496562 243.249335 
L 413.759358 243.296763 
L 418.022154 243.296763 
L 422.28495 243.344191 
L 426.547746 243.344191 
L 430.810542 243.344191 
L 435.073338 243.296763 
L 439.336134 243.344191 
L 443.59893 243.344191 
L 447.861727 243.344191 
L 452.124523 243.391619 
L 456.387319 243.391619 
L 460.650115 243.439046 
L 464.912911 243.439046 
L 469.175707 243.486474 
L 473.438503 243.533902 
L 477.701299 243.533902 
L 481.964095 243.58133 
L 486.226891 243.58133 
L 490.489687 243.58133 
L 494.752483 243.58133 
L 499.015279 243.58133 
L 503.278075 243.628758 
L 507.540871 243.628758 
L 511.803667 243.676186 
L 516.066463 243.676186 
L 520.329259 243.676186 
L 524.592055 243.676186 
L 528.854851 243.771041 
L 533.117647 243.960753 
L 537.380443 244.150464 
L 541.643239 244.292748 
L 545.906035 244.387604 
L 550.168831 244.482459 
L 554.431627 244.624743 
L 558.694423 244.624743 
L 562.957219 244.719598 
L 567.220015 244.814454 
L 571.482811 244.814454 
L 575.745607 244.814454 
L 580.008403 244.861882 
L 584.271199 244.90931 
L 588.533995 245.099021 
L 592.796791 245.099021 
L 597.059587 245.193877 
L 601.322383 245.288733 
L 605.58518 245.336161 
L 609.847976 245.336161 
L 614.110772 245.383588 
L 618.373568 245.431016 
L 622.636364 245.431016 
" clip-path="url(#pa9e659bd4f)" style="fill: none; stroke: #e6e6e6; stroke-width: 1.5; stroke-linecap: square"/>
   </g>
   <g id="line2d_25">
    <path d="M 115.363636 186.003915 
L 119.626432 171.585847 
L 123.889228 162.100276 
L 128.152024 157.167779 
L 132.41482 148.725621 
L 136.677617 152.756989 
L 140.940413 150.812447 
L 145.203209 150.053601 
L 149.466005 149.057616 
L 153.728801 148.630765 
L 157.991597 148.630765 
L 162.254393 148.488482 
L 166.517189 147.824492 
L 170.779985 147.160502 
L 175.042781 146.496512 
L 179.305577 146.306801 
L 183.568373 146.211945 
L 187.831169 146.022233 
L 192.093965 145.690238 
L 196.356761 145.405671 
L 200.619557 145.073676 
L 204.882353 144.836537 
L 209.145149 143.793124 
L 213.407945 143.698269 
L 217.670741 143.650841 
L 221.933537 143.935408 
L 226.196333 143.88798 
L 230.459129 143.982836 
L 234.721925 143.982836 
L 238.984721 143.935408 
L 243.247517 143.840552 
L 247.510313 143.745696 
L 251.773109 143.555985 
L 256.035905 143.318846 
L 260.298701 142.844567 
L 264.561497 142.417716 
L 268.824293 142.038294 
L 273.087089 141.564015 
L 277.349885 141.326876 
L 281.612681 140.994881 
L 285.875477 140.852597 
L 290.138273 140.662886 
L 294.40107 143.176562 
L 298.663866 150.338168 
L 302.926662 152.709561 
L 307.189458 153.563262 
L 311.452254 154.369536 
L 315.71505 154.843814 
L 319.977846 155.223237 
L 324.240642 154.084969 
L 328.503438 152.709561 
L 332.766234 151.761004 
L 337.02903 151.239297 
L 341.291826 151.002158 
L 345.554622 150.670163 
L 349.817418 150.52788 
L 354.080214 150.29074 
L 358.34301 150.006173 
L 362.605806 149.769034 
L 366.868602 149.62675 
L 371.131398 149.484467 
L 375.394194 149.294755 
L 379.65699 149.105044 
L 383.919786 149.057616 
L 388.182582 148.96276 
L 392.445378 148.867905 
L 396.708174 148.725621 
L 400.97097 148.678193 
L 405.233766 148.53591 
L 409.496562 148.441054 
L 413.759358 148.346198 
L 418.022154 148.29877 
L 422.28495 148.251343 
L 426.547746 148.061631 
L 430.810542 148.014203 
L 435.073338 147.87192 
L 439.336134 147.777064 
L 443.59893 147.63478 
L 447.861727 147.539925 
L 452.124523 147.539925 
L 456.387319 147.445069 
L 460.650115 147.302785 
L 464.912911 147.255358 
L 469.175707 145.87995 
L 473.438503 143.176562 
L 477.701299 141.184592 
L 481.964095 139.761757 
L 486.226891 138.528632 
L 490.489687 137.864642 
L 494.752483 137.24808 
" clip-path="url(#pa9e659bd4f)" style="fill: none; stroke: #e6e6e6; stroke-width: 1.5; stroke-linecap: square"/>
   </g>
   <g id="line2d_26">
    <path d="M 115.363636 158.543187 
L 119.626432 228.688984 
L 123.889228 234.52261 
L 128.152024 232.056361 
L 132.41482 224.183338 
L 136.677617 224.325621 
L 140.940413 215.456612 
L 145.203209 200.611694 
L 149.466005 193.829511 
L 153.728801 181.640552 
L 157.991597 172.107553 
L 162.254393 167.507051 
L 166.517189 166.463639 
L 170.779985 162.621982 
L 175.042781 160.392873 
L 179.305577 159.728883 
L 183.568373 157.072923 
L 187.831169 153.088984 
L 192.093965 150.812447 
L 196.356761 150.480452 
L 200.619557 149.152472 
L 204.882353 148.346198 
L 209.145149 147.397641 
L 213.407945 146.733651 
L 217.670741 144.694253 
L 221.933537 143.698269 
L 226.196333 143.129134 
L 230.459129 143.034279 
L 234.721925 141.943438 
L 238.984721 141.943438 
L 243.247517 140.330891 
L 247.510313 139.050339 
L 251.773109 138.765772 
L 256.035905 138.528632 
L 260.298701 137.722359 
L 264.561497 137.24808 
L 268.824293 137.722359 
L 273.087089 136.963513 
L 277.349885 136.346951 
L 281.612681 135.682961 
L 285.875477 135.49325 
L 290.138273 135.161255 
L 294.40107 134.734404 
L 298.663866 134.307553 
L 302.926662 134.449837 
L 307.189458 134.354981 
L 311.452254 134.59212 
L 315.71505 134.354981 
L 319.977846 134.544693 
L 324.240642 134.070414 
L 328.503438 133.738419 
L 332.766234 133.264141 
L 337.02903 133.216713 
L 341.291826 133.406424 
L 345.554622 132.789862 
L 349.817418 132.315583 
L 354.080214 131.936161 
L 358.34301 131.888733 
L 362.605806 131.793877 
L 366.868602 131.936161 
L 371.131398 130.987604 
L 375.394194 131.272171 
L 379.65699 131.793877 
L 383.919786 131.367026 
L 388.182582 131.461882 
L 392.445378 131.50931 
L 396.708174 131.367026 
L 400.97097 130.987604 
L 405.233766 131.129887 
L 409.496562 130.703036 
L 413.759358 130.608181 
L 418.022154 130.892748 
L 422.28495 130.513325 
L 426.547746 129.991619 
L 430.810542 129.564768 
L 435.073338 129.422484 
L 439.336134 128.900778 
L 443.59893 128.995634 
L 447.861727 129.280201 
L 452.124523 128.948206 
L 456.387319 129.185345 
L 460.650115 128.995634 
L 464.912911 128.85335 
L 469.175707 128.758494 
L 473.438503 128.900778 
L 477.701299 129.043061 
L 481.964095 128.426499 
L 486.226891 128.568783 
L 490.489687 128.379072 
L 494.752483 128.521355 
L 499.015279 128.331644 
L 503.278075 128.284216 
L 507.540871 127.904793 
L 511.803667 127.667654 
L 516.066463 127.051092 
L 520.329259 127.193375 
L 524.592055 126.719097 
L 528.854851 126.481957 
L 533.117647 126.719097 
L 537.380443 126.481957 
L 541.643239 126.434529 
L 545.906035 126.671669 
L 550.168831 126.434529 
L 554.431627 126.149962 
L 558.694423 125.675684 
L 562.957219 125.343689 
L 567.220015 125.201405 
L 571.482811 125.059122 
L 575.745607 124.86941 
L 580.008403 124.964266 
L 584.271199 124.86941 
L 588.533995 123.825997 
L 592.796791 121.359749 
L 597.059587 120.838043 
L 601.322383 120.174053 
L 605.58518 120.695759 
L 609.847976 120.790615 
L 614.110772 120.838043 
" clip-path="url(#pa9e659bd4f)" style="fill: none; stroke: #e6e6e6; stroke-width: 1.5; stroke-linecap: square"/>
   </g>
   <g id="line2d_27">
    <path d="M 115.363636 369.36 
L 119.626432 329.093752 
L 123.889228 292.289737 
L 128.152024 269.144944 
L 132.41482 248.134404 
L 136.677617 227.835282 
L 140.940413 219.345696 
L 145.203209 217.685721 
L 149.466005 215.788607 
L 153.728801 214.982334 
L 157.991597 209.907553 
L 162.254393 207.204166 
L 166.517189 205.022484 
L 170.779985 205.544191 
L 175.042781 203.931644 
L 179.305577 204.927629 
L 183.568373 204.832773 
L 187.831169 206.397892 
L 192.093965 205.259624 
L 196.356761 206.397892 
L 200.619557 206.303036 
L 204.882353 206.303036 
L 209.145149 206.824743 
L 213.407945 208.200151 
L 217.670741 208.057867 
L 221.933537 207.10931 
L 226.196333 206.018469 
L 230.459129 205.733902 
L 234.721925 206.208181 
L 238.984721 206.397892 
L 243.247517 205.78133 
L 247.510313 206.113325 
L 251.773109 207.10931 
L 256.035905 206.967026 
L 260.298701 206.303036 
L 264.561497 205.733902 
L 268.824293 205.733902 
L 273.087089 205.259624 
L 277.349885 206.065897 
L 281.612681 205.923614 
L 285.875477 206.255609 
L 290.138273 205.971041 
L 294.40107 206.113325 
L 298.663866 206.919598 
L 302.926662 206.635031 
L 307.189458 207.725872 
L 311.452254 207.441305 
L 315.71505 208.674429 
L 319.977846 208.247578 
L 324.240642 209.006424 
L 328.503438 209.196136 
L 332.766234 209.907553 
L 337.02903 209.622986 
L 341.291826 209.52813 
L 345.554622 209.812698 
L 349.817418 209.670414 
L 354.080214 209.670414 
L 358.34301 209.670414 
L 362.605806 209.812698 
L 366.868602 210.097265 
L 371.131398 210.239548 
L 375.394194 210.097265 
L 379.65699 210.097265 
L 383.919786 210.381832 
L 388.182582 210.286976 
L 392.445378 210.286976 
L 396.708174 210.42926 
L 400.97097 210.666399 
L 405.233766 210.42926 
L 409.496562 210.144693 
L 413.759358 209.860125 
L 418.022154 209.717842 
L 422.28495 209.717842 
L 426.547746 209.575558 
L 430.810542 209.433275 
L 435.073338 209.433275 
L 439.336134 209.006424 
L 443.59893 208.911568 
L 447.861727 208.911568 
L 452.124523 208.769285 
L 456.387319 209.053852 
L 460.650115 208.911568 
L 464.912911 208.911568 
L 469.175707 209.053852 
L 473.438503 209.196136 
L 477.701299 208.769285 
L 481.964095 208.627001 
L 486.226891 208.627001 
L 490.489687 208.627001 
L 494.752483 208.769285 
L 499.015279 209.622986 
L 503.278075 209.907553 
L 507.540871 210.19212 
L 511.803667 210.286976 
L 516.066463 210.42926 
L 520.329259 211.377817 
L 524.592055 211.235533 
L 528.854851 211.235533 
L 533.117647 211.140678 
L 537.380443 209.575558 
L 541.643239 209.717842 
L 545.906035 209.338419 
L 550.168831 209.76527 
L 554.431627 209.10128 
" clip-path="url(#pa9e659bd4f)" style="fill: none; stroke: #e6e6e6; stroke-width: 1.5; stroke-linecap: square"/>
   </g>
   <g id="patch_3">
    <path d="M 90 384.48 
L 90 51.84 
" style="fill: none; stroke: #000000; stroke-width: 0.8; stroke-linejoin: miter; stroke-linecap: square"/>
   </g>
   <g id="patch_4">
    <path d="M 648 384.48 
L 648 51.84 
" style="fill: none; stroke: #000000; stroke-width: 0.8; stroke-linejoin: miter; stroke-linecap: square"/>
   </g>
   <g id="patch_5">
    <path d="M 90 384.48 
L 648 384.48 
" style="fill: none; stroke: #000000; stroke-width: 0.8; stroke-linejoin: miter; stroke-linecap: square"/>
   </g>
   <g id="patch_6">
    <path d="M 90 51.84 
L 648 51.84 
" style="fill: none; stroke: #000000; stroke-width: 0.8; stroke-linejoin: miter; stroke-linecap: square"/>
   </g>
  </g>
 </g>
 <defs>
  <clipPath id="pa9e659bd4f">
   <rect x="90" y="51.84" width="558" height="332.64"/>
  </clipPath>
 </defs>
</svg>
