<?xml version="1.0" encoding="utf-8" standalone="no"?>
<!DOCTYPE svg PUBLIC "-//W3C//DTD SVG 1.1//EN"
  "http://www.w3.org/Graphics/SVG/1.1/DTD/svg11.dtd">
<svg xmlns:xlink="http://www.w3.org/1999/xlink" width="720pt" height="288pt" viewBox="0 0 720 288" xmlns="http://www.w3.org/2000/svg" version="1.1">
 <metadata>
  <rdf:RDF xmlns:dc="http://purl.org/dc/elements/1.1/" xmlns:cc="http://creativecommons.org/ns#" xmlns:rdf="http://www.w3.org/1999/02/22-rdf-syntax-ns#">
   <cc:Work>
    <dc:type rdf:resource="http://purl.org/dc/dcmitype/StillImage"/>
    <dc:date>2024-12-09T00:02:47.711768</dc:date>
    <dc:format>image/svg+xml</dc:format>
    <dc:creator>
     <cc:Agent>
      <dc:title>Matplotlib v3.9.3, https://matplotlib.org/</dc:title>
     </cc:Agent>
    </dc:creator>
   </cc:Work>
  </rdf:RDF>
 </metadata>
 <defs>
  <style type="text/css">*{stroke-linejoin: round; stroke-linecap: butt}</style>
 </defs>
 <g id="figure_1">
  <g id="patch_1">
   <path d="M 0 288 
L 720 288 
L 720 0 
L 0 0 
z
" style="fill: #ffffff"/>
  </g>
  <g id="axes_1">
   <g id="patch_2">
    <path d="M 39.04 264.44 
L 711.36 264.44 
L 711.36 8.64 
L 39.04 8.64 
L 39.04 264.44 
z
" style="fill: none; opacity: 0"/>
   </g>
   <g id="patch_3">
    <path d="M 69.6 264.44 
L 97.381818 264.44 
L 97.381818 114.852004 
L 69.6 114.852004 
z
" clip-path="url(#p65683d912c)" style="fill: #7f6d5f"/>
   </g>
   <g id="patch_4">
    <path d="M 180.727273 264.44 
L 208.509091 264.44 
L 208.509091 127.592884 
L 180.727273 127.592884 
z
" clip-path="url(#p65683d912c)" style="fill: #7f6d5f"/>
   </g>
   <g id="patch_5">
    <path d="M 291.854545 264.44 
L 319.636364 264.44 
L 319.636364 99.797647 
L 291.854545 99.797647 
z
" clip-path="url(#p65683d912c)" style="fill: #7f6d5f"/>
   </g>
   <g id="patch_6">
    <path d="M 402.981818 264.44 
L 430.763636 264.44 
L 430.763636 70.694794 
L 402.981818 70.694794 
z
" clip-path="url(#p65683d912c)" style="fill: #7f6d5f"/>
   </g>
   <g id="patch_7">
    <path d="M 514.109091 264.44 
L 541.890909 264.44 
L 541.890909 47.073872 
L 514.109091 47.073872 
z
" clip-path="url(#p65683d912c)" style="fill: #7f6d5f"/>
   </g>
   <g id="patch_8">
    <path d="M 625.236364 264.44 
L 653.018182 264.44 
L 653.018182 20.820952 
L 625.236364 20.820952 
z
" clip-path="url(#p65683d912c)" style="fill: #7f6d5f"/>
   </g>
   <g id="patch_9">
    <path d="M 97.381818 264.44 
L 125.163636 264.44 
L 125.163636 231.883697 
L 97.381818 231.883697 
z
" clip-path="url(#p65683d912c)" style="fill: #2d7f5e"/>
   </g>
   <g id="patch_10">
    <path d="M 208.509091 264.44 
L 236.290909 264.44 
L 236.290909 243.23314 
L 208.509091 243.23314 
z
" clip-path="url(#p65683d912c)" style="fill: #2d7f5e"/>
   </g>
   <g id="patch_11">
    <path d="M 319.636364 264.44 
L 347.418182 264.44 
L 347.418182 240.9029 
L 319.636364 240.9029 
z
" clip-path="url(#p65683d912c)" style="fill: #2d7f5e"/>
   </g>
   <g id="patch_12">
    <path d="M 430.763636 264.44 
L 458.545455 264.44 
L 458.545455 251.782941 
L 430.763636 251.782941 
z
" clip-path="url(#p65683d912c)" style="fill: #2d7f5e"/>
   </g>
   <g id="patch_13">
    <path d="M 541.890909 264.44 
L 569.672727 264.44 
L 569.672727 255.85667 
L 541.890909 255.85667 
z
" clip-path="url(#p65683d912c)" style="fill: #2d7f5e"/>
   </g>
   <g id="patch_14">
    <path d="M 653.018182 264.44 
L 680.8 264.44 
L 680.8 246.401595 
L 653.018182 246.401595 
z
" clip-path="url(#p65683d912c)" style="fill: #2d7f5e"/>
   </g>
   <g id="matplotlib.axis_1">
    <g id="xtick_1">
     <g id="line2d_1">
      <defs>
       <path id="maa64f10be1" d="M 0 0 
L 0 3.5 
" style="stroke: #000000; stroke-width: 0.8"/>
      </defs>
      <g>
       <use xlink:href="#maa64f10be1" x="111.272727" y="264.44" style="stroke: #000000; stroke-width: 0.8"/>
      </g>
     </g>
     <g id="text_1">
      <text style="font: 8px 'Lato', sans-serif; text-anchor: middle" x="111.272727" y="277.3325" transform="rotate(-0 111.272727 277.3325)">2018</text>
     </g>
    </g>
    <g id="xtick_2">
     <g id="line2d_2">
      <g>
       <use xlink:href="#maa64f10be1" x="222.4" y="264.44" style="stroke: #000000; stroke-width: 0.8"/>
      </g>
     </g>
     <g id="text_2">
      <text style="font: 8px 'Lato', sans-serif; text-anchor: middle" x="222.4" y="277.3325" transform="rotate(-0 222.4 277.3325)">2019</text>
     </g>
    </g>
    <g id="xtick_3">
     <g id="line2d_3">
      <g>
       <use xlink:href="#maa64f10be1" x="333.527273" y="264.44" style="stroke: #000000; stroke-width: 0.8"/>
      </g>
     </g>
     <g id="text_3">
      <text style="font: 8px 'Lato', sans-serif; text-anchor: middle" x="333.527273" y="277.3325" transform="rotate(-0 333.527273 277.3325)">2020</text>
     </g>
    </g>
    <g id="xtick_4">
     <g id="line2d_4">
      <g>
       <use xlink:href="#maa64f10be1" x="444.654545" y="264.44" style="stroke: #000000; stroke-width: 0.8"/>
      </g>
     </g>
     <g id="text_4">
      <text style="font: 8px 'Lato', sans-serif; text-anchor: middle" x="444.654545" y="277.3325" transform="rotate(-0 444.654545 277.3325)">2021</text>
     </g>
    </g>
    <g id="xtick_5">
     <g id="line2d_5">
      <g>
       <use xlink:href="#maa64f10be1" x="555.781818" y="264.44" style="stroke: #000000; stroke-width: 0.8"/>
      </g>
     </g>
     <g id="text_5">
      <text style="font: 8px 'Lato', sans-serif; text-anchor: middle" x="555.781818" y="277.3325" transform="rotate(-0 555.781818 277.3325)">2022</text>
     </g>
    </g>
    <g id="xtick_6">
     <g id="line2d_6">
      <g>
       <use xlink:href="#maa64f10be1" x="666.909091" y="264.44" style="stroke: #000000; stroke-width: 0.8"/>
      </g>
     </g>
     <g id="text_6">
      <text style="font: 8px 'Lato', sans-serif; text-anchor: middle" x="666.909091" y="277.3325" transform="rotate(-0 666.909091 277.3325)">2023</text>
     </g>
    </g>
   </g>
   <g id="matplotlib.axis_2">
    <g id="ytick_1">
     <g id="line2d_7">
      <defs>
       <path id="m5295525df4" d="M 0 0 
L -3.5 0 
" style="stroke: #000000; stroke-width: 0.8"/>
      </defs>
      <g>
       <use xlink:href="#m5295525df4" x="39.04" y="264.44" style="stroke: #000000; stroke-width: 0.8"/>
      </g>
     </g>
     <g id="text_7">
      <text style="font: 8px 'Lato', sans-serif; text-anchor: end" x="32.04" y="267.38625" transform="rotate(-0 32.04 267.38625)">0</text>
     </g>
    </g>
    <g id="ytick_2">
     <g id="line2d_8">
      <g>
       <use xlink:href="#m5295525df4" x="39.04" y="147.089784" style="stroke: #000000; stroke-width: 0.8"/>
      </g>
     </g>
     <g id="text_8">
      <text style="font: 8px 'Lato', sans-serif; text-anchor: end" x="32.04" y="150.036034" transform="rotate(-0 32.04 150.036034)">7000</text>
     </g>
    </g>
    <g id="ytick_3">
     <g id="line2d_9">
      <g>
       <use xlink:href="#m5295525df4" x="39.04" y="29.739569" style="stroke: #000000; stroke-width: 0.8"/>
      </g>
     </g>
     <g id="text_9">
      <text style="font: 8px 'Lato', sans-serif; text-anchor: end" x="32.04" y="32.685819" transform="rotate(-0 32.04 32.685819)">14000</text>
     </g>
    </g>
   </g>
   <g id="text_10">
    <text style="font: 8px 'Lato', sans-serif; text-anchor: middle" x="83.490909" y="113.479504" transform="rotate(-0 83.490909 113.479504)">8923</text>
   </g>
   <g id="text_11">
    <text style="font: 8px 'Lato', sans-serif; text-anchor: middle" x="194.618182" y="126.220384" transform="rotate(-0 194.618182 126.220384)">8163</text>
   </g>
   <g id="text_12">
    <text style="font: 8px 'Lato', sans-serif; text-anchor: middle" x="305.745455" y="98.425147" transform="rotate(-0 305.745455 98.425147)">9821</text>
   </g>
   <g id="text_13">
    <text style="font: 8px 'Lato', sans-serif; text-anchor: middle" x="416.872727" y="69.322294" transform="rotate(-0 416.872727 69.322294)">11557</text>
   </g>
   <g id="text_14">
    <text style="font: 8px 'Lato', sans-serif; text-anchor: middle" x="528" y="45.701372" transform="rotate(-0 528 45.701372)">12966</text>
   </g>
   <g id="text_15">
    <text style="font: 8px 'Lato', sans-serif; text-anchor: middle" x="639.127273" y="19.448452" transform="rotate(-0 639.127273 19.448452)">14532</text>
   </g>
   <g id="text_16">
    <text style="font: 8px 'Lato', sans-serif; text-anchor: middle" x="111.272727" y="230.511197" transform="rotate(-0 111.272727 230.511197)">1942</text>
   </g>
   <g id="text_17">
    <text style="font: 8px 'Lato', sans-serif; text-anchor: middle" x="222.4" y="241.86064" transform="rotate(-0 222.4 241.86064)">1265</text>
   </g>
   <g id="text_18">
    <text style="font: 8px 'Lato', sans-serif; text-anchor: middle" x="333.527273" y="239.5304" transform="rotate(-0 333.527273 239.5304)">1404</text>
   </g>
   <g id="text_19">
    <text style="font: 8px 'Lato', sans-serif; text-anchor: middle" x="444.654545" y="250.410441" transform="rotate(-0 444.654545 250.410441)">755</text>
   </g>
   <g id="text_20">
    <text style="font: 8px 'Lato', sans-serif; text-anchor: middle" x="555.781818" y="254.48417" transform="rotate(-0 555.781818 254.48417)">512</text>
   </g>
   <g id="text_21">
    <text style="font: 8px 'Lato', sans-serif; text-anchor: middle" x="666.909091" y="245.029095" transform="rotate(-0 666.909091 245.029095)">1076</text>
   </g>
  </g>
 </g>
 <defs>
  <clipPath id="p65683d912c">
   <rect x="39.04" y="8.64" width="672.32" height="255.8"/>
  </clipPath>
 </defs>
</svg>
