<?xml version="1.0" encoding="utf-8" standalone="no"?>
<!DOCTYPE svg PUBLIC "-//W3C//DTD SVG 1.1//EN"
  "http://www.w3.org/Graphics/SVG/1.1/DTD/svg11.dtd">
<svg xmlns:xlink="http://www.w3.org/1999/xlink" width="720pt" height="288pt" viewBox="0 0 720 288" xmlns="http://www.w3.org/2000/svg" version="1.1">
 <metadata>
  <rdf:RDF xmlns:dc="http://purl.org/dc/elements/1.1/" xmlns:cc="http://creativecommons.org/ns#" xmlns:rdf="http://www.w3.org/1999/02/22-rdf-syntax-ns#">
   <cc:Work>
    <dc:type rdf:resource="http://purl.org/dc/dcmitype/StillImage"/>
    <dc:date>2024-12-04T19:41:18.944840</dc:date>
    <dc:format>image/svg+xml</dc:format>
    <dc:creator>
     <cc:Agent>
      <dc:title>Matplotlib v3.9.3, https://matplotlib.org/</dc:title>
     </cc:Agent>
    </dc:creator>
   </cc:Work>
  </rdf:RDF>
 </metadata>
 <defs>
  <style type="text/css">*{stroke-linejoin: round; stroke-linecap: butt}</style>
 </defs>
 <g id="figure_1">
  <g id="patch_1">
   <path d="M 0 288 
L 720 288 
L 720 0 
L 0 0 
z
" style="fill: #ffffff"/>
  </g>
  <g id="axes_1">
   <g id="patch_2">
    <path d="M 46.78 261.56 
L 709.2 261.56 
L 709.2 10.8 
L 46.78 10.8 
z
" style="fill: #ffffff"/>
   </g>
   <g id="patch_3">
    <path d="M 76.89 261.56 
L 104.262727 261.56 
L 104.262727 114.91932 
L 76.89 114.91932 
z
" clip-path="url(#p3cb92f08b9)" style="fill: #7f6d5f; stroke: #ffffff; stroke-linejoin: miter"/>
   </g>
   <g id="patch_4">
    <path d="M 186.380909 261.56 
L 213.753636 261.56 
L 213.753636 127.409168 
L 186.380909 127.409168 
z
" clip-path="url(#p3cb92f08b9)" style="fill: #7f6d5f; stroke: #ffffff; stroke-linejoin: miter"/>
   </g>
   <g id="patch_5">
    <path d="M 295.871818 261.56 
L 323.244545 261.56 
L 323.244545 100.161578 
L 295.871818 100.161578 
z
" clip-path="url(#p3cb92f08b9)" style="fill: #7f6d5f; stroke: #ffffff; stroke-linejoin: miter"/>
   </g>
   <g id="patch_6">
    <path d="M 405.362727 261.56 
L 432.735455 261.56 
L 432.735455 71.632135 
L 405.362727 71.632135 
z
" clip-path="url(#p3cb92f08b9)" style="fill: #7f6d5f; stroke: #ffffff; stroke-linejoin: miter"/>
   </g>
   <g id="patch_7">
    <path d="M 514.853636 261.56 
L 542.226364 261.56 
L 542.226364 48.476614 
L 514.853636 48.476614 
z
" clip-path="url(#p3cb92f08b9)" style="fill: #7f6d5f; stroke: #ffffff; stroke-linejoin: miter"/>
   </g>
   <g id="patch_8">
    <path d="M 624.344545 261.56 
L 651.717273 261.56 
L 651.717273 22.740952 
L 624.344545 22.740952 
z
" clip-path="url(#p3cb92f08b9)" style="fill: #7f6d5f; stroke: #ffffff; stroke-linejoin: miter"/>
   </g>
   <g id="patch_9">
    <path d="M 104.262727 261.56 
L 131.635455 261.56 
L 131.635455 229.645151 
L 104.262727 229.645151 
z
" clip-path="url(#p3cb92f08b9)" style="fill: #2d7f5e; stroke: #ffffff; stroke-linejoin: miter"/>
   </g>
   <g id="patch_10">
    <path d="M 213.753636 261.56 
L 241.126364 261.56 
L 241.126364 240.770976 
L 213.753636 240.770976 
z
" clip-path="url(#p3cb92f08b9)" style="fill: #2d7f5e; stroke: #ffffff; stroke-linejoin: miter"/>
   </g>
   <g id="patch_11">
    <path d="M 323.244545 261.56 
L 350.617273 261.56 
L 350.617273 238.486649 
L 323.244545 238.486649 
z
" clip-path="url(#p3cb92f08b9)" style="fill: #2d7f5e; stroke: #ffffff; stroke-linejoin: miter"/>
   </g>
   <g id="patch_12">
    <path d="M 432.735455 261.56 
L 460.108182 261.56 
L 460.108182 249.152322 
L 432.735455 249.152322 
z
" clip-path="url(#p3cb92f08b9)" style="fill: #2d7f5e; stroke: #ffffff; stroke-linejoin: miter"/>
   </g>
   <g id="patch_13">
    <path d="M 542.226364 261.56 
L 569.599091 261.56 
L 569.599091 253.145786 
L 542.226364 253.145786 
z
" clip-path="url(#p3cb92f08b9)" style="fill: #2d7f5e; stroke: #ffffff; stroke-linejoin: miter"/>
   </g>
   <g id="patch_14">
    <path d="M 651.717273 261.56 
L 679.09 261.56 
L 679.09 243.877004 
L 651.717273 243.877004 
z
" clip-path="url(#p3cb92f08b9)" style="fill: #2d7f5e; stroke: #ffffff; stroke-linejoin: miter"/>
   </g>
   <g id="matplotlib.axis_1">
    <g id="xtick_1">
     <g id="line2d_1">
      <defs>
       <path id="m73ea522fac" d="M 0 0 
L 0 3.5 
" style="stroke: #000000; stroke-width: 0.8"/>
      </defs>
      <g>
       <use xlink:href="#m73ea522fac" x="117.949091" y="261.56" style="stroke: #000000; stroke-width: 0.8"/>
      </g>
     </g>
     <g id="text_1">
      <text style="font: 10px 'Lato', sans-serif; text-anchor: middle" x="117.949091" y="275.925625" transform="rotate(-0 117.949091 275.925625)">2018</text>
     </g>
    </g>
    <g id="xtick_2">
     <g id="line2d_2">
      <g>
       <use xlink:href="#m73ea522fac" x="227.44" y="261.56" style="stroke: #000000; stroke-width: 0.8"/>
      </g>
     </g>
     <g id="text_2">
      <text style="font: 10px 'Lato', sans-serif; text-anchor: middle" x="227.44" y="275.925625" transform="rotate(-0 227.44 275.925625)">2019</text>
     </g>
    </g>
    <g id="xtick_3">
     <g id="line2d_3">
      <g>
       <use xlink:href="#m73ea522fac" x="336.930909" y="261.56" style="stroke: #000000; stroke-width: 0.8"/>
      </g>
     </g>
     <g id="text_3">
      <text style="font: 10px 'Lato', sans-serif; text-anchor: middle" x="336.930909" y="275.925625" transform="rotate(-0 336.930909 275.925625)">2020</text>
     </g>
    </g>
    <g id="xtick_4">
     <g id="line2d_4">
      <g>
       <use xlink:href="#m73ea522fac" x="446.421818" y="261.56" style="stroke: #000000; stroke-width: 0.8"/>
      </g>
     </g>
     <g id="text_4">
      <text style="font: 10px 'Lato', sans-serif; text-anchor: middle" x="446.421818" y="275.925625" transform="rotate(-0 446.421818 275.925625)">2021</text>
     </g>
    </g>
    <g id="xtick_5">
     <g id="line2d_5">
      <g>
       <use xlink:href="#m73ea522fac" x="555.912727" y="261.56" style="stroke: #000000; stroke-width: 0.8"/>
      </g>
     </g>
     <g id="text_5">
      <text style="font: 10px 'Lato', sans-serif; text-anchor: middle" x="555.912727" y="275.925625" transform="rotate(-0 555.912727 275.925625)">2022</text>
     </g>
    </g>
    <g id="xtick_6">
     <g id="line2d_6">
      <g>
       <use xlink:href="#m73ea522fac" x="665.403636" y="261.56" style="stroke: #000000; stroke-width: 0.8"/>
      </g>
     </g>
     <g id="text_6">
      <text style="font: 10px 'Lato', sans-serif; text-anchor: middle" x="665.403636" y="275.925625" transform="rotate(-0 665.403636 275.925625)">2023</text>
     </g>
    </g>
   </g>
   <g id="matplotlib.axis_2">
    <g id="ytick_1">
     <g id="line2d_7">
      <defs>
       <path id="m3caf72aa1f" d="M 0 0 
L -3.5 0 
" style="stroke: #000000; stroke-width: 0.8"/>
      </defs>
      <g>
       <use xlink:href="#m3caf72aa1f" x="46.78" y="261.56" style="stroke: #000000; stroke-width: 0.8"/>
      </g>
     </g>
     <g id="text_7">
      <text style="font: 10px 'Lato', sans-serif; text-anchor: end" x="39.78" y="265.242813" transform="rotate(-0 39.78 265.242813)">0</text>
     </g>
    </g>
    <g id="ytick_2">
     <g id="line2d_8">
      <g>
       <use xlink:href="#m3caf72aa1f" x="46.78" y="146.521923" style="stroke: #000000; stroke-width: 0.8"/>
      </g>
     </g>
     <g id="text_8">
      <text style="font: 10px 'Lato', sans-serif; text-anchor: end" x="39.78" y="150.204736" transform="rotate(-0 39.78 150.204736)">7000</text>
     </g>
    </g>
    <g id="ytick_3">
     <g id="line2d_9">
      <g>
       <use xlink:href="#m3caf72aa1f" x="46.78" y="31.483846" style="stroke: #000000; stroke-width: 0.8"/>
      </g>
     </g>
     <g id="text_9">
      <text style="font: 10px 'Lato', sans-serif; text-anchor: end" x="39.78" y="35.166659" transform="rotate(-0 39.78 35.166659)">14000</text>
     </g>
    </g>
   </g>
   <g id="text_10">
    <text style="font: 8px 'Lato', sans-serif; text-anchor: middle" x="90.576364" y="113.54682" transform="rotate(-0 90.576364 113.54682)">8923</text>
   </g>
   <g id="text_11">
    <text style="font: 8px 'Lato', sans-serif; text-anchor: middle" x="200.067273" y="126.036668" transform="rotate(-0 200.067273 126.036668)">8163</text>
   </g>
   <g id="text_12">
    <text style="font: 8px 'Lato', sans-serif; text-anchor: middle" x="309.558182" y="98.789078" transform="rotate(-0 309.558182 98.789078)">9821</text>
   </g>
   <g id="text_13">
    <text style="font: 8px 'Lato', sans-serif; text-anchor: middle" x="419.049091" y="70.259635" transform="rotate(-0 419.049091 70.259635)">11557</text>
   </g>
   <g id="text_14">
    <text style="font: 8px 'Lato', sans-serif; text-anchor: middle" x="528.54" y="47.104114" transform="rotate(-0 528.54 47.104114)">12966</text>
   </g>
   <g id="text_15">
    <text style="font: 8px 'Lato', sans-serif; text-anchor: middle" x="638.030909" y="21.368452" transform="rotate(-0 638.030909 21.368452)">14532</text>
   </g>
   <g id="text_16">
    <text style="font: 8px 'Lato', sans-serif; text-anchor: middle" x="117.949091" y="228.272651" transform="rotate(-0 117.949091 228.272651)">1942</text>
   </g>
   <g id="text_17">
    <text style="font: 8px 'Lato', sans-serif; text-anchor: middle" x="227.44" y="239.398476" transform="rotate(-0 227.44 239.398476)">1265</text>
   </g>
   <g id="text_18">
    <text style="font: 8px 'Lato', sans-serif; text-anchor: middle" x="336.930909" y="237.114149" transform="rotate(-0 336.930909 237.114149)">1404</text>
   </g>
   <g id="text_19">
    <text style="font: 8px 'Lato', sans-serif; text-anchor: middle" x="446.421818" y="247.779822" transform="rotate(-0 446.421818 247.779822)">755</text>
   </g>
   <g id="text_20">
    <text style="font: 8px 'Lato', sans-serif; text-anchor: middle" x="555.912727" y="251.773286" transform="rotate(-0 555.912727 251.773286)">512</text>
   </g>
   <g id="text_21">
    <text style="font: 8px 'Lato', sans-serif; text-anchor: middle" x="665.403636" y="242.504504" transform="rotate(-0 665.403636 242.504504)">1076</text>
   </g>
   <g id="legend_1">
    <g id="patch_15">
     <path d="M 53.78 47.18125 
L 182.978438 47.18125 
Q 184.978438 47.18125 184.978438 45.18125 
L 184.978438 17.8 
Q 184.978438 15.8 182.978438 15.8 
L 53.78 15.8 
Q 51.78 15.8 51.78 17.8 
L 51.78 45.18125 
Q 51.78 47.18125 53.78 47.18125 
z
" style="fill: #ffffff; opacity: 0.8; stroke: #cccccc; stroke-linejoin: miter"/>
    </g>
    <g id="patch_16">
     <path d="M 55.78 27.165625 
L 75.78 27.165625 
L 75.78 20.165625 
L 55.78 20.165625 
z
" style="fill: #7f6d5f; stroke: #ffffff; stroke-linejoin: miter"/>
    </g>
    <g id="text_22">
     <text style="font: 10px 'Lato', sans-serif; text-anchor: start" x="83.78" y="27.165625" transform="rotate(-0 83.78 27.165625)">global_releases_steam</text>
    </g>
    <g id="patch_17">
     <path d="M 55.78 41.35625 
L 75.78 41.35625 
L 75.78 34.35625 
L 55.78 34.35625 
z
" style="fill: #2d7f5e; stroke: #ffffff; stroke-linejoin: miter"/>
    </g>
    <g id="text_23">
     <text style="font: 10px 'Lato', sans-serif; text-anchor: start" x="83.78" y="41.35625" transform="rotate(-0 83.78 41.35625)">games_approved</text>
    </g>
   </g>
  </g>
 </g>
 <defs>
  <clipPath id="p3cb92f08b9">
   <rect x="46.78" y="10.8" width="662.42" height="250.76"/>
  </clipPath>
 </defs>
</svg>
