<?xml version="1.0" encoding="utf-8" standalone="no"?>
<!DOCTYPE svg PUBLIC "-//W3C//DTD SVG 1.1//EN"
  "http://www.w3.org/Graphics/SVG/1.1/DTD/svg11.dtd">
<svg xmlns:xlink="http://www.w3.org/1999/xlink" width="864pt" height="432pt" viewBox="0 0 864 432" xmlns="http://www.w3.org/2000/svg" version="1.1">
 <metadata>
  <rdf:RDF xmlns:dc="http://purl.org/dc/elements/1.1/" xmlns:cc="http://creativecommons.org/ns#" xmlns:rdf="http://www.w3.org/1999/02/22-rdf-syntax-ns#">
   <cc:Work>
    <dc:type rdf:resource="http://purl.org/dc/dcmitype/StillImage"/>
    <dc:date>2024-12-09T00:19:52.928615</dc:date>
    <dc:format>image/svg+xml</dc:format>
    <dc:creator>
     <cc:Agent>
      <dc:title>Matplotlib v3.9.3, https://matplotlib.org/</dc:title>
     </cc:Agent>
    </dc:creator>
   </cc:Work>
  </rdf:RDF>
 </metadata>
 <defs>
  <style type="text/css">*{stroke-linejoin: round; stroke-linecap: butt}</style>
 </defs>
 <g id="figure_1">
  <g id="patch_1">
   <path d="M 0 432 
L 864 432 
L 864 0 
L 0 0 
z
" style="fill: #ffffff"/>
  </g>
  <g id="axes_1">
   <g id="patch_2">
    <path d="M 149.38 408.44 
L 855.36 408.44 
L 855.36 8.64 
L 149.38 8.64 
L 149.38 408.44 
z
" style="fill: none; opacity: 0"/>
   </g>
   <g id="matplotlib.axis_1">
    <g id="xtick_1">
     <g id="line2d_1">
      <path d="M 149.38 408.44 
L 149.38 8.64 
" clip-path="url(#pd40754c62b)" style="fill: none; stroke: #cccccc; stroke-width: 0.8; stroke-linecap: square"/>
     </g>
     <g id="line2d_2">
      <defs>
       <path id="mb8dac29afa" d="M 0 0 
L 0 3.5 
" style="stroke: #000000; stroke-width: 0.8"/>
      </defs>
      <g>
       <use xlink:href="#mb8dac29afa" x="149.38" y="408.44" style="stroke: #000000; stroke-width: 0.8"/>
      </g>
     </g>
     <g id="text_1">
      <text style="font: 8px 'Lato', sans-serif; text-anchor: middle" x="149.38" y="421.3325" transform="rotate(-0 149.38 421.3325)">0</text>
     </g>
    </g>
    <g id="xtick_2">
     <g id="line2d_3">
      <path d="M 298.793757 408.44 
L 298.793757 8.64 
" clip-path="url(#pd40754c62b)" style="fill: none; stroke: #cccccc; stroke-width: 0.8; stroke-linecap: square"/>
     </g>
     <g id="line2d_4">
      <g>
       <use xlink:href="#mb8dac29afa" x="298.793757" y="408.44" style="stroke: #000000; stroke-width: 0.8"/>
      </g>
     </g>
     <g id="text_2">
      <text style="font: 8px 'Lato', sans-serif; text-anchor: middle" x="298.793757" y="421.3325" transform="rotate(-0 298.793757 421.3325)">20</text>
     </g>
    </g>
    <g id="xtick_3">
     <g id="line2d_5">
      <path d="M 448.207513 408.44 
L 448.207513 8.64 
" clip-path="url(#pd40754c62b)" style="fill: none; stroke: #cccccc; stroke-width: 0.8; stroke-linecap: square"/>
     </g>
     <g id="line2d_6">
      <g>
       <use xlink:href="#mb8dac29afa" x="448.207513" y="408.44" style="stroke: #000000; stroke-width: 0.8"/>
      </g>
     </g>
     <g id="text_3">
      <text style="font: 8px 'Lato', sans-serif; text-anchor: middle" x="448.207513" y="421.3325" transform="rotate(-0 448.207513 421.3325)">40</text>
     </g>
    </g>
    <g id="xtick_4">
     <g id="line2d_7">
      <path d="M 597.62127 408.44 
L 597.62127 8.64 
" clip-path="url(#pd40754c62b)" style="fill: none; stroke: #cccccc; stroke-width: 0.8; stroke-linecap: square"/>
     </g>
     <g id="line2d_8">
      <g>
       <use xlink:href="#mb8dac29afa" x="597.62127" y="408.44" style="stroke: #000000; stroke-width: 0.8"/>
      </g>
     </g>
     <g id="text_4">
      <text style="font: 8px 'Lato', sans-serif; text-anchor: middle" x="597.62127" y="421.3325" transform="rotate(-0 597.62127 421.3325)">60</text>
     </g>
    </g>
    <g id="xtick_5">
     <g id="line2d_9">
      <path d="M 747.035026 408.44 
L 747.035026 8.64 
" clip-path="url(#pd40754c62b)" style="fill: none; stroke: #cccccc; stroke-width: 0.8; stroke-linecap: square"/>
     </g>
     <g id="line2d_10">
      <g>
       <use xlink:href="#mb8dac29afa" x="747.035026" y="408.44" style="stroke: #000000; stroke-width: 0.8"/>
      </g>
     </g>
     <g id="text_5">
      <text style="font: 8px 'Lato', sans-serif; text-anchor: middle" x="747.035026" y="421.3325" transform="rotate(-0 747.035026 421.3325)">80</text>
     </g>
    </g>
   </g>
   <g id="matplotlib.axis_2">
    <g id="ytick_1">
     <g id="line2d_11">
      <defs>
       <path id="mc90d607a04" d="M 0 0 
L -3.5 0 
" style="stroke: #000000; stroke-width: 0.8"/>
      </defs>
      <g>
       <use xlink:href="#mc90d607a04" x="149.38" y="375.432393" style="stroke: #000000; stroke-width: 0.8"/>
      </g>
     </g>
     <g id="text_6">
      <text style="font: 8px 'Lato', sans-serif; text-anchor: end" x="142.38" y="378.378643" transform="rotate(-0 142.38 378.378643)">Skull and Bones</text>
     </g>
    </g>
    <g id="ytick_2">
     <g id="line2d_12">
      <g>
       <use xlink:href="#mc90d607a04" x="149.38" y="338.345195" style="stroke: #000000; stroke-width: 0.8"/>
      </g>
     </g>
     <g id="text_7">
      <text style="font: 8px 'Lato', sans-serif; text-anchor: end" x="142.38" y="341.291445" transform="rotate(-0 142.38 341.291445)">Suicide Squad: Kill The Justice League</text>
     </g>
    </g>
    <g id="ytick_3">
     <g id="line2d_13">
      <g>
       <use xlink:href="#mc90d607a04" x="149.38" y="301.257996" style="stroke: #000000; stroke-width: 0.8"/>
      </g>
     </g>
     <g id="text_8">
      <text style="font: 8px 'Lato', sans-serif; text-anchor: end" x="142.38" y="304.204246" transform="rotate(-0 142.38 304.204246)">Concord</text>
     </g>
    </g>
    <g id="ytick_4">
     <g id="line2d_14">
      <g>
       <use xlink:href="#mc90d607a04" x="149.38" y="264.170798" style="stroke: #000000; stroke-width: 0.8"/>
      </g>
     </g>
     <g id="text_9">
      <text style="font: 8px 'Lato', sans-serif; text-anchor: end" x="142.38" y="267.117048" transform="rotate(-0 142.38 267.117048)">F1 24</text>
     </g>
    </g>
    <g id="ytick_5">
     <g id="line2d_15">
      <g>
       <use xlink:href="#mc90d607a04" x="149.38" y="227.083599" style="stroke: #000000; stroke-width: 0.8"/>
      </g>
     </g>
     <g id="text_10">
      <text style="font: 8px 'Lato', sans-serif; text-anchor: end" x="142.38" y="230.029849" transform="rotate(-0 142.38 230.029849)">Star Wars Outlaws</text>
     </g>
    </g>
    <g id="ytick_6">
     <g id="line2d_16">
      <g>
       <use xlink:href="#mc90d607a04" x="149.38" y="189.996401" style="stroke: #000000; stroke-width: 0.8"/>
      </g>
     </g>
     <g id="text_11">
      <text style="font: 8px 'Lato', sans-serif; text-anchor: end" x="142.38" y="192.942651" transform="rotate(-0 142.38 192.942651)">NBA 2K25</text>
     </g>
    </g>
    <g id="ytick_7">
     <g id="line2d_17">
      <g>
       <use xlink:href="#mc90d607a04" x="149.38" y="152.909202" style="stroke: #000000; stroke-width: 0.8"/>
      </g>
     </g>
     <g id="text_12">
      <text style="font: 8px 'Lato', sans-serif; text-anchor: end" x="142.38" y="155.855452" transform="rotate(-0 142.38 155.855452)">Dragon Age: The Veilguard</text>
     </g>
    </g>
    <g id="ytick_8">
     <g id="line2d_18">
      <g>
       <use xlink:href="#mc90d607a04" x="149.38" y="115.822004" style="stroke: #000000; stroke-width: 0.8"/>
      </g>
     </g>
     <g id="text_13">
      <text style="font: 8px 'Lato', sans-serif; text-anchor: end" x="142.38" y="118.768254" transform="rotate(-0 142.38 118.768254)">Call of Duty: Black Ops 6</text>
     </g>
    </g>
    <g id="ytick_9">
     <g id="line2d_19">
      <g>
       <use xlink:href="#mc90d607a04" x="149.38" y="78.734805" style="stroke: #000000; stroke-width: 0.8"/>
      </g>
     </g>
     <g id="text_14">
      <text style="font: 8px 'Lato', sans-serif; text-anchor: end" x="142.38" y="81.637305" transform="rotate(-0 142.38 81.637305)">Dragon's Dogma 2</text>
     </g>
    </g>
    <g id="ytick_10">
     <g id="line2d_20">
      <g>
       <use xlink:href="#mc90d607a04" x="149.38" y="41.647607" style="stroke: #000000; stroke-width: 0.8"/>
      </g>
     </g>
     <g id="text_15">
      <text style="font: 8px 'Lato', sans-serif; text-anchor: end" x="142.38" y="44.593857" transform="rotate(-0 142.38 44.593857)">Tekken 8</text>
     </g>
    </g>
   </g>
   <g id="patch_3">
    <path d="M 149.38 390.267273 
L 590.150582 390.267273 
L 590.150582 360.597514 
L 149.38 360.597514 
z
" clip-path="url(#pd40754c62b)" style="fill: #008000"/>
   </g>
   <g id="patch_4">
    <path d="M 149.38 353.180074 
L 597.62127 353.180074 
L 597.62127 323.510315 
L 149.38 323.510315 
z
" clip-path="url(#pd40754c62b)" style="fill: #008000"/>
   </g>
   <g id="patch_5">
    <path d="M 149.38 316.092876 
L 612.562646 316.092876 
L 612.562646 286.423117 
L 149.38 286.423117 
z
" clip-path="url(#pd40754c62b)" style="fill: #008000"/>
   </g>
   <g id="patch_6">
    <path d="M 149.38 279.005677 
L 687.269524 279.005677 
L 687.269524 249.335918 
L 149.38 249.335918 
z
" clip-path="url(#pd40754c62b)" style="fill: #008000"/>
   </g>
   <g id="patch_7">
    <path d="M 149.38 241.918479 
L 709.681587 241.918479 
L 709.681587 212.24872 
L 149.38 212.24872 
z
" clip-path="url(#pd40754c62b)" style="fill: #008000"/>
   </g>
   <g id="patch_8">
    <path d="M 149.38 204.83128 
L 739.564339 204.83128 
L 739.564339 175.161521 
L 149.38 175.161521 
z
" clip-path="url(#pd40754c62b)" style="fill: #008000"/>
   </g>
   <g id="patch_9">
    <path d="M 149.38 167.744082 
L 761.976402 167.744082 
L 761.976402 138.074323 
L 149.38 138.074323 
z
" clip-path="url(#pd40754c62b)" style="fill: #008000"/>
   </g>
   <g id="patch_10">
    <path d="M 149.38 130.656883 
L 769.44709 130.656883 
L 769.44709 100.987124 
L 149.38 100.987124 
z
" clip-path="url(#pd40754c62b)" style="fill: #008000"/>
   </g>
   <g id="patch_11">
    <path d="M 149.38 93.569685 
L 791.859153 93.569685 
L 791.859153 63.899926 
L 149.38 63.899926 
z
" clip-path="url(#pd40754c62b)" style="fill: #008000"/>
   </g>
   <g id="patch_12">
    <path d="M 149.38 56.482486 
L 821.741905 56.482486 
L 821.741905 26.812727 
L 149.38 26.812727 
z
" clip-path="url(#pd40754c62b)" style="fill: #008000"/>
   </g>
   <g id="patch_13">
    <path d="M 149.38 390.267273 
L 403.383386 390.267273 
L 403.383386 360.597514 
L 149.38 360.597514 
z
" clip-path="url(#pd40754c62b)" style="fill: #ffa500"/>
   </g>
   <g id="patch_14">
    <path d="M 149.38 353.180074 
L 403.383386 353.180074 
L 403.383386 323.510315 
L 149.38 323.510315 
z
" clip-path="url(#pd40754c62b)" style="fill: #ffa500"/>
   </g>
   <g id="patch_15">
    <path d="M 149.38 316.092876 
L 276.381693 316.092876 
L 276.381693 286.423117 
L 149.38 286.423117 
z
" clip-path="url(#pd40754c62b)" style="fill: #ffa500"/>
   </g>
   <g id="patch_16">
    <path d="M 149.38 279.005677 
L 478.090265 279.005677 
L 478.090265 249.335918 
L 149.38 249.335918 
z
" clip-path="url(#pd40754c62b)" style="fill: #ffa500"/>
   </g>
   <g id="patch_17">
    <path d="M 149.38 241.918479 
L 545.326455 241.918479 
L 545.326455 212.24872 
L 149.38 212.24872 
z
" clip-path="url(#pd40754c62b)" style="fill: #ffa500"/>
   </g>
   <g id="patch_18">
    <path d="M 149.38 204.83128 
L 582.679894 204.83128 
L 582.679894 175.161521 
L 149.38 175.161521 
z
" clip-path="url(#pd40754c62b)" style="fill: #ffa500"/>
   </g>
   <g id="patch_19">
    <path d="M 149.38 167.744082 
L 433.266138 167.744082 
L 433.266138 138.074323 
L 149.38 138.074323 
z
" clip-path="url(#pd40754c62b)" style="fill: #ffa500"/>
   </g>
   <g id="patch_20">
    <path d="M 149.38 130.656883 
L 649.916085 130.656883 
L 649.916085 100.987124 
L 149.38 100.987124 
z
" clip-path="url(#pd40754c62b)" style="fill: #ffa500"/>
   </g>
   <g id="patch_21">
    <path d="M 149.38 93.569685 
L 627.504021 93.569685 
L 627.504021 63.899926 
L 149.38 63.899926 
z
" clip-path="url(#pd40754c62b)" style="fill: #ffa500"/>
   </g>
   <g id="patch_22">
    <path d="M 149.38 56.482486 
L 717.152275 56.482486 
L 717.152275 26.812727 
L 149.38 26.812727 
z
" clip-path="url(#pd40754c62b)" style="fill: #ffa500"/>
   </g>
   <g id="text_16">
    <text style="fill: #ffffff; font: 700 8px 'Lato', sans-serif; text-anchor: start" x="164.321376" y="377.692393" transform="rotate(-0 164.321376 377.692393)">25</text>
   </g>
   <g id="text_17">
    <text style="fill: #ffffff; font: 700 8px 'Lato', sans-serif; text-anchor: start" x="164.321376" y="340.605195" transform="rotate(-0 164.321376 340.605195)">26</text>
   </g>
   <g id="text_18">
    <text style="fill: #ffffff; font: 700 8px 'Lato', sans-serif; text-anchor: start" x="164.321376" y="303.517996" transform="rotate(-0 164.321376 303.517996)">45</text>
   </g>
   <g id="text_19">
    <text style="fill: #ffffff; font: 700 8px 'Lato', sans-serif; text-anchor: start" x="164.321376" y="266.430798" transform="rotate(-0 164.321376 266.430798)">28</text>
   </g>
   <g id="text_20">
    <text style="fill: #ffffff; font: 700 8px 'Lato', sans-serif; text-anchor: start" x="164.321376" y="229.343599" transform="rotate(-0 164.321376 229.343599)">22</text>
   </g>
   <g id="text_21">
    <text style="fill: #ffffff; font: 700 8px 'Lato', sans-serif; text-anchor: start" x="164.321376" y="192.256401" transform="rotate(-0 164.321376 192.256401)">21</text>
   </g>
   <g id="text_22">
    <text style="fill: #ffffff; font: 700 8px 'Lato', sans-serif; text-anchor: start" x="164.321376" y="155.169202" transform="rotate(-0 164.321376 155.169202)">44</text>
   </g>
   <g id="text_23">
    <text style="fill: #ffffff; font: 700 8px 'Lato', sans-serif; text-anchor: start" x="164.321376" y="118.082004" transform="rotate(-0 164.321376 118.082004)">16</text>
   </g>
   <g id="text_24">
    <text style="fill: #ffffff; font: 700 8px 'Lato', sans-serif; text-anchor: start" x="164.321376" y="80.994805" transform="rotate(-0 164.321376 80.994805)">22</text>
   </g>
   <g id="text_25">
    <text style="fill: #ffffff; font: 700 8px 'Lato', sans-serif; text-anchor: start" x="164.321376" y="43.907607" transform="rotate(-0 164.321376 43.907607)">14</text>
   </g>
   <g id="legend_1">
    <g id="patch_23">
     <path d="M 786.70875 404.44 
L 849.76 404.44 
Q 851.36 404.44 851.36 402.84 
L 851.36 381.11 
Q 851.36 379.51 849.76 379.51 
L 786.70875 379.51 
Q 785.10875 379.51 785.10875 381.11 
L 785.10875 402.84 
Q 785.10875 404.44 786.70875 404.44 
z
" style="fill: #ffffff; opacity: 0.8; stroke: #cccccc; stroke-linejoin: miter"/>
    </g>
    <g id="patch_24">
     <path d="M 788.30875 388.6025 
L 804.30875 388.6025 
L 804.30875 383.0025 
L 788.30875 383.0025 
z
" style="fill: #008000"/>
    </g>
    <g id="text_26">
     <text style="font: 8px 'Lato', sans-serif; text-anchor: start" x="810.70875" y="388.6025" transform="rotate(-0 810.70875 388.6025)">Metascore</text>
    </g>
    <g id="patch_25">
     <path d="M 788.30875 399.8675 
L 804.30875 399.8675 
L 804.30875 394.2675 
L 788.30875 394.2675 
z
" style="fill: #ffa500"/>
    </g>
    <g id="text_27">
     <text style="font: 8px 'Lato', sans-serif; text-anchor: start" x="810.70875" y="399.8675" transform="rotate(-0 810.70875 399.8675)">Userscore</text>
    </g>
   </g>
  </g>
 </g>
 <defs>
  <clipPath id="pd40754c62b">
   <rect x="149.38" y="8.64" width="705.98" height="399.8"/>
  </clipPath>
 </defs>
</svg>
