<?xml version="1.0" encoding="utf-8" standalone="no"?>
<!DOCTYPE svg PUBLIC "-//W3C//DTD SVG 1.1//EN"
  "http://www.w3.org/Graphics/SVG/1.1/DTD/svg11.dtd">
<svg xmlns:xlink="http://www.w3.org/1999/xlink" width="460.8pt" height="345.6pt" viewBox="0 0 460.8 345.6" xmlns="http://www.w3.org/2000/svg" version="1.1">
 <metadata>
  <rdf:RDF xmlns:dc="http://purl.org/dc/elements/1.1/" xmlns:cc="http://creativecommons.org/ns#" xmlns:rdf="http://www.w3.org/1999/02/22-rdf-syntax-ns#">
   <cc:Work>
    <dc:type rdf:resource="http://purl.org/dc/dcmitype/StillImage"/>
    <dc:date>2024-12-04T10:25:25.769036</dc:date>
    <dc:format>image/svg+xml</dc:format>
    <dc:creator>
     <cc:Agent>
      <dc:title>Matplotlib v3.9.3, https://matplotlib.org/</dc:title>
     </cc:Agent>
    </dc:creator>
   </cc:Work>
  </rdf:RDF>
 </metadata>
 <defs>
  <style type="text/css">*{stroke-linejoin: round; stroke-linecap: butt}</style>
 </defs>
 <g id="figure_1">
  <g id="patch_1">
   <path d="M 0 345.6 
L 460.8 345.6 
L 460.8 0 
L 0 0 
z
" style="fill: #ffffff"/>
  </g>
  <g id="axes_1">
   <g id="patch_2">
    <path d="M 342.6048 174.528 
C 342.6048 150.595201 334.533309 127.347852 319.702212 108.564417 
C 304.871115 89.780983 284.129954 76.537399 260.849857 70.98619 
L 236.16 174.528 
z
" style="fill: #1f77b4"/>
   </g>
   <g id="patch_3">
    <path d="M 260.849852 70.986186 
C 235.086666 64.842884 207.935754 68.530977 184.744829 81.324053 
C 161.553904 94.11713 143.952499 115.116267 135.407414 140.185439 
L 236.16 174.528 
z
" style="fill: #ff7f0e"/>
   </g>
   <g id="patch_4">
    <path d="M 135.407414 140.185439 
C 135.391432 140.232326 135.375482 140.279235 135.359563 140.326144 
C 135.343645 140.373053 135.327764 140.419955 135.311915 140.466886 
L 236.16 174.528 
z
" style="fill: #2ca02c"/>
   </g>
   <g id="patch_5">
    <path d="M 135.311915 140.466886 
C 130.352985 155.14927 128.65975 170.739022 130.350872 186.143679 
C 132.041989 201.548335 137.076997 216.399436 145.10308 229.656332 
C 153.129163 242.913231 163.954359 254.25883 176.820082 262.898075 
C 189.685804 271.53732 204.284339 277.263586 219.592686 279.675608 
L 236.16 174.528 
z
" style="fill: #d62728"/>
   </g>
   <g id="patch_6">
    <path d="M 219.592686 279.675608 
C 234.784357 282.069249 250.315863 281.142366 265.115033 276.958962 
C 279.914204 272.775552 293.63246 265.434153 305.322806 255.441547 
C 317.013153 245.448941 326.400261 233.040449 332.836063 219.072745 
C 339.271865 205.105041 342.6048 189.907069 342.6048 174.527981 
L 236.16 174.528 
z
" style="fill: #9467bd"/>
   </g>
   <g id="matplotlib.axis_1"/>
   <g id="matplotlib.axis_2"/>
   <g id="text_1">
    <text style="font: 10px 'Lato', sans-serif; text-anchor: start" x="286.285326" y="137.774849" transform="rotate(-0 286.285326 137.774849)">America</text>
   </g>
   <g id="text_2">
    <text style="font: 10px 'Lato', sans-serif; text-anchor: middle" x="340.587763" y="94.898519" transform="rotate(-0 340.587763 94.898519)">21.3%</text>
   </g>
   <g id="text_3">
    <text style="font: 10px 'Lato', sans-serif; text-anchor: end" x="205.310899" y="121.430631" transform="rotate(-0 205.310899 121.430631)">Asia</text>
   </g>
   <g id="text_4">
    <text style="font: 10px 'Lato', sans-serif; text-anchor: middle" x="171.891039" y="60.848065" transform="rotate(-0 171.891039 60.848065)">23.5%</text>
   </g>
   <g id="text_5">
    <text style="font: 10px 'Lato', sans-serif; text-anchor: end" x="175.679737" y="156.831885" transform="rotate(-0 175.679737 156.831885)">Australia</text>
   </g>
   <g id="text_6">
    <text style="font: 10px 'Lato', sans-serif; text-anchor: middle" x="110.159452" y="134.600678" transform="rotate(-0 110.159452 134.600678)">0.0%</text>
   </g>
   <g id="text_7">
    <text style="font: 10px 'Lato', sans-serif; text-anchor: end" x="181.525858" y="210.430014" transform="rotate(-0 181.525858 210.430014)">Cina</text>
   </g>
   <g id="text_8">
    <text style="font: 10px 'Lato', sans-serif; text-anchor: middle" x="122.33887" y="246.263446" transform="rotate(-0 122.33887 246.263446)">27.7%</text>
   </g>
   <g id="text_9">
    <text style="font: 10px 'Lato', sans-serif; text-anchor: start" x="277.657707" y="225.901107" transform="rotate(-0 277.657707 225.901107)">Europa</text>
   </g>
   <g id="text_10">
    <text style="font: 10px 'Lato', sans-serif; text-anchor: middle" x="322.613557" y="278.494889" transform="rotate(-0 322.613557 278.494889)">27.5%</text>
   </g>
  </g>
 </g>
</svg>
