<?xml version="1.0" encoding="utf-8" standalone="no"?>
<!DOCTYPE svg PUBLIC "-//W3C//DTD SVG 1.1//EN"
  "http://www.w3.org/Graphics/SVG/1.1/DTD/svg11.dtd">
<svg xmlns:xlink="http://www.w3.org/1999/xlink" width="720pt" height="288pt" viewBox="0 0 720 288" xmlns="http://www.w3.org/2000/svg" version="1.1">
 <metadata>
  <rdf:RDF xmlns:dc="http://purl.org/dc/elements/1.1/" xmlns:cc="http://creativecommons.org/ns#" xmlns:rdf="http://www.w3.org/1999/02/22-rdf-syntax-ns#">
   <cc:Work>
    <dc:type rdf:resource="http://purl.org/dc/dcmitype/StillImage"/>
    <dc:date>2024-12-09T11:13:22.298260</dc:date>
    <dc:format>image/svg+xml</dc:format>
    <dc:creator>
     <cc:Agent>
      <dc:title>Matplotlib v3.9.3, https://matplotlib.org/</dc:title>
     </cc:Agent>
    </dc:creator>
   </cc:Work>
  </rdf:RDF>
 </metadata>
 <defs>
  <style type="text/css">*{stroke-linejoin: round; stroke-linecap: butt}</style>
 </defs>
 <g id="figure_1">
  <g id="patch_1">
   <path d="M 0 288 
L 720 288 
L 720 0 
L 0 0 
z
" style="fill: #ffffff"/>
  </g>
  <g id="axes_1">
   <g id="patch_2">
    <path d="M 29.5 261.56 
L 709.2 261.56 
L 709.2 10.8 
L 29.5 10.8 
z
" style="fill: #ffffff"/>
   </g>
   <g id="matplotlib.axis_1">
    <g id="xtick_1">
     <g id="line2d_1">
      <defs>
       <path id="mea9bf4ffb4" d="M 0 0 
L 0 3.5 
" style="stroke: #000000; stroke-width: 0.8"/>
      </defs>
      <g>
       <use xlink:href="#mea9bf4ffb4" x="60.064867" y="261.56" style="stroke: #000000; stroke-width: 0.8"/>
      </g>
     </g>
     <g id="text_1">
      <text style="font: 10px 'Lato', sans-serif; text-anchor: middle" x="60.064867" y="275.925625" transform="rotate(-0 60.064867 275.925625)">0</text>
     </g>
    </g>
    <g id="xtick_2">
     <g id="line2d_2">
      <g>
       <use xlink:href="#mea9bf4ffb4" x="163.373413" y="261.56" style="stroke: #000000; stroke-width: 0.8"/>
      </g>
     </g>
     <g id="text_2">
      <text style="font: 10px 'Lato', sans-serif; text-anchor: middle" x="163.373413" y="275.925625" transform="rotate(-0 163.373413 275.925625)">5</text>
     </g>
    </g>
    <g id="xtick_3">
     <g id="line2d_3">
      <g>
       <use xlink:href="#mea9bf4ffb4" x="266.681958" y="261.56" style="stroke: #000000; stroke-width: 0.8"/>
      </g>
     </g>
     <g id="text_3">
      <text style="font: 10px 'Lato', sans-serif; text-anchor: middle" x="266.681958" y="275.925625" transform="rotate(-0 266.681958 275.925625)">10</text>
     </g>
    </g>
    <g id="xtick_4">
     <g id="line2d_4">
      <g>
       <use xlink:href="#mea9bf4ffb4" x="369.990504" y="261.56" style="stroke: #000000; stroke-width: 0.8"/>
      </g>
     </g>
     <g id="text_4">
      <text style="font: 10px 'Lato', sans-serif; text-anchor: middle" x="369.990504" y="275.925625" transform="rotate(-0 369.990504 275.925625)">15</text>
     </g>
    </g>
    <g id="xtick_5">
     <g id="line2d_5">
      <g>
       <use xlink:href="#mea9bf4ffb4" x="473.299049" y="261.56" style="stroke: #000000; stroke-width: 0.8"/>
      </g>
     </g>
     <g id="text_5">
      <text style="font: 10px 'Lato', sans-serif; text-anchor: middle" x="473.299049" y="275.925625" transform="rotate(-0 473.299049 275.925625)">20</text>
     </g>
    </g>
    <g id="xtick_6">
     <g id="line2d_6">
      <g>
       <use xlink:href="#mea9bf4ffb4" x="576.607595" y="261.56" style="stroke: #000000; stroke-width: 0.8"/>
      </g>
     </g>
     <g id="text_6">
      <text style="font: 10px 'Lato', sans-serif; text-anchor: middle" x="576.607595" y="275.925625" transform="rotate(-0 576.607595 275.925625)">25</text>
     </g>
    </g>
    <g id="xtick_7">
     <g id="line2d_7">
      <g>
       <use xlink:href="#mea9bf4ffb4" x="679.91614" y="261.56" style="stroke: #000000; stroke-width: 0.8"/>
      </g>
     </g>
     <g id="text_7">
      <text style="font: 10px 'Lato', sans-serif; text-anchor: middle" x="679.91614" y="275.925625" transform="rotate(-0 679.91614 275.925625)">30</text>
     </g>
    </g>
   </g>
   <g id="matplotlib.axis_2">
    <g id="ytick_1">
     <g id="line2d_8">
      <defs>
       <path id="m93fa41ead7" d="M 0 0 
L -3.5 0 
" style="stroke: #000000; stroke-width: 0.8"/>
      </defs>
      <g>
       <use xlink:href="#m93fa41ead7" x="29.5" y="255.860909" style="stroke: #000000; stroke-width: 0.8"/>
      </g>
     </g>
     <g id="text_8">
      <text style="font: 10px 'Lato', sans-serif; text-anchor: end" x="22.5" y="259.543722" transform="rotate(-0 22.5 259.543722)">55</text>
     </g>
    </g>
    <g id="ytick_2">
     <g id="line2d_9">
      <g>
       <use xlink:href="#m93fa41ead7" x="29.5" y="227.365455" style="stroke: #000000; stroke-width: 0.8"/>
      </g>
     </g>
     <g id="text_9">
      <text style="font: 10px 'Lato', sans-serif; text-anchor: end" x="22.5" y="231.048267" transform="rotate(-0 22.5 231.048267)">60</text>
     </g>
    </g>
    <g id="ytick_3">
     <g id="line2d_10">
      <g>
       <use xlink:href="#m93fa41ead7" x="29.5" y="198.87" style="stroke: #000000; stroke-width: 0.8"/>
      </g>
     </g>
     <g id="text_10">
      <text style="font: 10px 'Lato', sans-serif; text-anchor: end" x="22.5" y="202.552813" transform="rotate(-0 22.5 202.552813)">65</text>
     </g>
    </g>
    <g id="ytick_4">
     <g id="line2d_11">
      <g>
       <use xlink:href="#m93fa41ead7" x="29.5" y="170.374545" style="stroke: #000000; stroke-width: 0.8"/>
      </g>
     </g>
     <g id="text_11">
      <text style="font: 10px 'Lato', sans-serif; text-anchor: end" x="22.5" y="174.057358" transform="rotate(-0 22.5 174.057358)">70</text>
     </g>
    </g>
    <g id="ytick_5">
     <g id="line2d_12">
      <g>
       <use xlink:href="#m93fa41ead7" x="29.5" y="141.879091" style="stroke: #000000; stroke-width: 0.8"/>
      </g>
     </g>
     <g id="text_12">
      <text style="font: 10px 'Lato', sans-serif; text-anchor: end" x="22.5" y="145.561903" transform="rotate(-0 22.5 145.561903)">75</text>
     </g>
    </g>
    <g id="ytick_6">
     <g id="line2d_13">
      <g>
       <use xlink:href="#m93fa41ead7" x="29.5" y="113.383636" style="stroke: #000000; stroke-width: 0.8"/>
      </g>
     </g>
     <g id="text_13">
      <text style="font: 10px 'Lato', sans-serif; text-anchor: end" x="22.5" y="117.066449" transform="rotate(-0 22.5 117.066449)">80</text>
     </g>
    </g>
    <g id="ytick_7">
     <g id="line2d_14">
      <g>
       <use xlink:href="#m93fa41ead7" x="29.5" y="84.888182" style="stroke: #000000; stroke-width: 0.8"/>
      </g>
     </g>
     <g id="text_14">
      <text style="font: 10px 'Lato', sans-serif; text-anchor: end" x="22.5" y="88.570994" transform="rotate(-0 22.5 88.570994)">85</text>
     </g>
    </g>
    <g id="ytick_8">
     <g id="line2d_15">
      <g>
       <use xlink:href="#m93fa41ead7" x="29.5" y="56.392727" style="stroke: #000000; stroke-width: 0.8"/>
      </g>
     </g>
     <g id="text_15">
      <text style="font: 10px 'Lato', sans-serif; text-anchor: end" x="22.5" y="60.07554" transform="rotate(-0 22.5 60.07554)">90</text>
     </g>
    </g>
    <g id="ytick_9">
     <g id="line2d_16">
      <g>
       <use xlink:href="#m93fa41ead7" x="29.5" y="27.897273" style="stroke: #000000; stroke-width: 0.8"/>
      </g>
     </g>
     <g id="text_16">
      <text style="font: 10px 'Lato', sans-serif; text-anchor: end" x="22.5" y="31.580085" transform="rotate(-0 22.5 31.580085)">95</text>
     </g>
    </g>
   </g>
   <g id="PathCollection_1">
    <defs>
     <path id="mcefbeea450" d="M 0 3.535534 
C 0.937635 3.535534 1.836992 3.163008 2.5 2.5 
C 3.163008 1.836992 3.535534 0.937635 3.535534 0 
C 3.535534 -0.937635 3.163008 -1.836992 2.5 -2.5 
C 1.836992 -3.163008 0.937635 -3.535534 0 -3.535534 
C -0.937635 -3.535534 -1.836992 -3.163008 -2.5 -2.5 
C -3.163008 -1.836992 -3.535534 -0.937635 -3.535534 0 
C -3.535534 0.937635 -3.163008 1.836992 -2.5 2.5 
C -1.836992 3.163008 -0.937635 3.535534 0 3.535534 
z
" style="stroke: #000000"/>
    </defs>
    <g clip-path="url(#p2f94f7f24c)">
     <use xlink:href="#mcefbeea450" x="60.395455" y="193.170909" style="stroke: #000000"/>
     <use xlink:href="#mcefbeea450" x="60.643395" y="187.471818" style="stroke: #000000"/>
     <use xlink:href="#mcefbeea450" x="60.788027" y="198.87" style="stroke: #000000"/>
     <use xlink:href="#mcefbeea450" x="65.230294" y="187.471818" style="stroke: #000000"/>
     <use xlink:href="#mcefbeea450" x="67.379112" y="250.161818" style="stroke: #000000"/>
     <use xlink:href="#mcefbeea450" x="69.032049" y="62.091818" style="stroke: #000000"/>
     <use xlink:href="#mcefbeea450" x="69.879179" y="39.295455" style="stroke: #000000"/>
     <use xlink:href="#mcefbeea450" x="71.47013" y="62.091818" style="stroke: #000000"/>
     <use xlink:href="#mcefbeea450" x="78.247171" y="187.471818" style="stroke: #000000"/>
     <use xlink:href="#mcefbeea450" x="79.610844" y="170.374545" style="stroke: #000000"/>
     <use xlink:href="#mcefbeea450" x="83.474584" y="124.781818" style="stroke: #000000"/>
     <use xlink:href="#mcefbeea450" x="90.272286" y="62.091818" style="stroke: #000000"/>
     <use xlink:href="#mcefbeea450" x="133.723861" y="113.383636" style="stroke: #000000"/>
     <use xlink:href="#mcefbeea450" x="381.395768" y="244.462727" style="stroke: #000000"/>
     <use xlink:href="#mcefbeea450" x="456.397755" y="153.277273" style="stroke: #000000"/>
     <use xlink:href="#mcefbeea450" x="468.691497" y="227.365455" style="stroke: #000000"/>
     <use xlink:href="#mcefbeea450" x="678.304545" y="22.198182" style="stroke: #000000"/>
    </g>
   </g>
   <g id="PathCollection_2">
    <defs>
     <path id="m88f9ec4d55" d="M 0 3.535534 
C 0.937635 3.535534 1.836992 3.163008 2.5 2.5 
C 3.163008 1.836992 3.535534 0.937635 3.535534 0 
C 3.535534 -0.937635 3.163008 -1.836992 2.5 -2.5 
C 1.836992 -3.163008 0.937635 -3.535534 0 -3.535534 
C -0.937635 -3.535534 -1.836992 -3.163008 -2.5 -2.5 
C -3.163008 -1.836992 -3.535534 -0.937635 -3.535534 0 
C -3.535534 0.937635 -3.163008 1.836992 -2.5 2.5 
C -1.836992 3.163008 -0.937635 3.535534 0 3.535534 
z
" style="stroke: #008000"/>
    </defs>
    <g clip-path="url(#p2f94f7f24c)">
     <use xlink:href="#m88f9ec4d55" x="60.395455" y="193.170909" style="fill: #008000; stroke: #008000"/>
    </g>
   </g>
  </g>
 </g>
 <defs>
  <clipPath id="p2f94f7f24c">
   <rect x="29.5" y="10.8" width="679.7" height="250.76"/>
  </clipPath>
 </defs>
</svg>
