<?xml version="1.0" encoding="utf-8" standalone="no"?>
<!DOCTYPE svg PUBLIC "-//W3C//DTD SVG 1.1//EN"
  "http://www.w3.org/Graphics/SVG/1.1/DTD/svg11.dtd">
<svg xmlns:xlink="http://www.w3.org/1999/xlink" width="460.8pt" height="345.6pt" viewBox="0 0 460.8 345.6" xmlns="http://www.w3.org/2000/svg" version="1.1">
 <metadata>
  <rdf:RDF xmlns:dc="http://purl.org/dc/elements/1.1/" xmlns:cc="http://creativecommons.org/ns#" xmlns:rdf="http://www.w3.org/1999/02/22-rdf-syntax-ns#">
   <cc:Work>
    <dc:type rdf:resource="http://purl.org/dc/dcmitype/StillImage"/>
    <dc:date>2024-12-03T21:47:42.778676</dc:date>
    <dc:format>image/svg+xml</dc:format>
    <dc:creator>
     <cc:Agent>
      <dc:title>Matplotlib v3.9.3, https://matplotlib.org/</dc:title>
     </cc:Agent>
    </dc:creator>
   </cc:Work>
  </rdf:RDF>
 </metadata>
 <defs>
  <style type="text/css">*{stroke-linejoin: round; stroke-linecap: butt}</style>
 </defs>
 <g id="figure_1">
  <g id="patch_1">
   <path d="M 0 345.6 
L 460.8 345.6 
L 460.8 0 
L 0 0 
z
" style="fill: #ffffff"/>
  </g>
  <g id="axes_1">
   <g id="patch_2">
    <path d="M 342.6048 174.528 
C 342.6048 164.953297 341.312934 155.42222 338.764201 146.192979 
C 336.215468 136.963738 332.433093 128.120436 327.519546 119.902651 
L 236.16 174.528 
z
" style="fill: #1f77b4"/>
   </g>
   <g id="patch_3">
    <path d="M 327.519545 119.902656 
C 320.083053 107.465308 310.184525 96.676512 298.43202 88.199029 
C 286.679516 79.721546 273.318712 73.732588 259.170344 70.600048 
C 245.021977 67.467507 230.381805 67.256866 216.149173 69.981062 
C 201.916539 72.705263 188.388967 78.307352 176.397429 86.44321 
L 236.16 174.528 
z
" style="fill: #ff7f0e"/>
   </g>
   <g id="patch_4">
    <path d="M 176.397429 86.44321 
C 176.348411 86.476469 176.299424 86.509759 176.250463 86.5431 
C 176.201502 86.57644 176.152553 86.609826 176.103643 86.643249 
L 236.16 174.528 
z
" style="fill: #2ca02c"/>
   </g>
   <g id="patch_5">
    <path d="M 176.103643 86.643249 
C 161.027695 96.945453 148.853224 110.955666 140.755332 127.321595 
C 132.657441 143.687525 128.905324 161.865111 129.861132 180.099856 
C 130.816941 198.334602 136.448913 216.020324 146.21343 231.449958 
C 155.977948 246.879592 169.550427 259.540237 185.620822 268.209841 
L 236.16 174.528 
z
" style="fill: #d62728"/>
   </g>
   <g id="patch_6">
    <path d="M 185.620822 268.209841 
C 201.835039 276.957033 220.04581 281.346738 238.464689 280.947847 
C 256.883567 280.548955 274.887225 275.374974 290.707547 265.934025 
C 306.527869 256.493076 319.629439 243.104692 328.725641 227.083665 
C 337.821844 211.062637 342.6048 192.951179 342.6048 174.527981 
L 236.16 174.528 
z
" style="fill: #9467bd"/>
   </g>
   <g id="matplotlib.axis_1"/>
   <g id="matplotlib.axis_2"/>
   <g id="text_1">
    <text style="font: 10px 'Lato', sans-serif; text-anchor: start" x="297.722521" y="160.351988" transform="rotate(-0 297.722521 160.351988)">America</text>
   </g>
   <g id="text_2">
    <text style="font: 10px 'Lato', sans-serif; text-anchor: middle" x="364.415252" y="141.934225" transform="rotate(-0 364.415252 141.934225)">8.6%</text>
   </g>
   <g id="text_3">
    <text style="font: 10px 'Lato', sans-serif; text-anchor: start" x="249.966206" y="114.996228" transform="rotate(-0 249.966206 114.996228)">Asia</text>
   </g>
   <g id="text_4">
    <text style="font: 10px 'Lato', sans-serif; text-anchor: middle" x="264.922929" y="47.443058" transform="rotate(-0 264.922929 47.443058)">25.9%</text>
   </g>
   <g id="text_5">
    <text style="font: 10px 'Lato', sans-serif; text-anchor: end" x="200.214266" y="124.562067" transform="rotate(-0 200.214266 124.562067)">Australia</text>
   </g>
   <g id="text_6">
    <text style="font: 10px 'Lato', sans-serif; text-anchor: middle" x="161.273055" y="67.37189" transform="rotate(-0 161.273055 67.37189)">0.1%</text>
   </g>
   <g id="text_7">
    <text style="font: 10px 'Lato', sans-serif; text-anchor: end" x="172.380678" y="180.696114" transform="rotate(-0 172.380678 180.696114)">Cina</text>
   </g>
   <g id="text_8">
    <text style="font: 10px 'Lato', sans-serif; text-anchor: middle" x="103.286412" y="184.317821" transform="rotate(-0 103.286412 184.317821)">32.6%</text>
   </g>
   <g id="text_9">
    <text style="font: 10px 'Lato', sans-serif; text-anchor: start" x="268.888501" y="232.196628" transform="rotate(-0 268.888501 232.196628)">Europa</text>
   </g>
   <g id="text_10">
    <text style="font: 10px 'Lato', sans-serif; text-anchor: middle" x="304.344377" y="291.610559" transform="rotate(-0 304.344377 291.610559)">32.9%</text>
   </g>
  </g>
 </g>
</svg>
