<?xml version="1.0" encoding="utf-8" standalone="no"?>
<!DOCTYPE svg PUBLIC "-//W3C//DTD SVG 1.1//EN"
  "http://www.w3.org/Graphics/SVG/1.1/DTD/svg11.dtd">
<svg xmlns:xlink="http://www.w3.org/1999/xlink" width="460.8pt" height="345.6pt" viewBox="0 0 460.8 345.6" xmlns="http://www.w3.org/2000/svg" version="1.1">
 <metadata>
  <rdf:RDF xmlns:dc="http://purl.org/dc/elements/1.1/" xmlns:cc="http://creativecommons.org/ns#" xmlns:rdf="http://www.w3.org/1999/02/22-rdf-syntax-ns#">
   <cc:Work>
    <dc:type rdf:resource="http://purl.org/dc/dcmitype/StillImage"/>
    <dc:date>2024-12-03T11:06:03.477441</dc:date>
    <dc:format>image/svg+xml</dc:format>
    <dc:creator>
     <cc:Agent>
      <dc:title>Matplotlib v3.9.3, https://matplotlib.org/</dc:title>
     </cc:Agent>
    </dc:creator>
   </cc:Work>
  </rdf:RDF>
 </metadata>
 <defs>
  <style type="text/css">*{stroke-linejoin: round; stroke-linecap: butt}</style>
 </defs>
 <g id="figure_1">
  <g id="patch_1">
   <path d="M 0 345.6 
L 460.8 345.6 
L 460.8 0 
L 0 0 
z
" style="fill: #ffffff"/>
  </g>
  <g id="axes_1">
   <g id="patch_2">
    <path d="M 29.5 319.16 
L 450 319.16 
L 450 10.8 
L 29.5 10.8 
z
" style="fill: #ffffff"/>
   </g>
   <g id="PathCollection_1">
    <defs>
     <path id="m632570c8be" d="M 0 3.535534 
C 0.937635 3.535534 1.836992 3.163008 2.5 2.5 
C 3.163008 1.836992 3.535534 0.937635 3.535534 0 
C 3.535534 -0.937635 3.163008 -1.836992 2.5 -2.5 
C 1.836992 -3.163008 0.937635 -3.535534 0 -3.535534 
C -0.937635 -3.535534 -1.836992 -3.163008 -2.5 -2.5 
C -3.163008 -1.836992 -3.535534 -0.937635 -3.535534 0 
C -3.535534 0.937635 -3.163008 1.836992 -2.5 2.5 
C -1.836992 3.163008 -0.937635 3.535534 0 3.535534 
z
" style="stroke: #000000"/>
    </defs>
    <g clip-path="url(#p325ff47ee8)">
     <use xlink:href="#m632570c8be" x="48.613636" y="240.452727" style="stroke: #000000"/>
     <use xlink:href="#m632570c8be" x="48.767026" y="233.264848" style="stroke: #000000"/>
     <use xlink:href="#m632570c8be" x="48.856503" y="247.640606" style="stroke: #000000"/>
     <use xlink:href="#m632570c8be" x="51.604736" y="233.264848" style="stroke: #000000"/>
     <use xlink:href="#m632570c8be" x="53.956711" y="75.131515" style="stroke: #000000"/>
     <use xlink:href="#m632570c8be" x="54.480793" y="46.38" style="stroke: #000000"/>
     <use xlink:href="#m632570c8be" x="55.465043" y="75.131515" style="stroke: #000000"/>
     <use xlink:href="#m632570c8be" x="59.657695" y="233.264848" style="stroke: #000000"/>
     <use xlink:href="#m632570c8be" x="60.501338" y="211.701212" style="stroke: #000000"/>
     <use xlink:href="#m632570c8be" x="62.891662" y="154.198182" style="stroke: #000000"/>
     <use xlink:href="#m632570c8be" x="67.097096" y="75.131515" style="stroke: #000000"/>
     <use xlink:href="#m632570c8be" x="247.202178" y="305.143636" style="stroke: #000000"/>
     <use xlink:href="#m632570c8be" x="430.886364" y="24.816364" style="stroke: #000000"/>
     <use xlink:href="#m632570c8be" x="301.208143" y="283.58" style="stroke: #000000"/>
    </g>
   </g>
   <g id="PathCollection_2">
    <defs>
     <path id="m4c99274293" d="M 0 3.535534 
C 0.937635 3.535534 1.836992 3.163008 2.5 2.5 
C 3.163008 1.836992 3.535534 0.937635 3.535534 0 
C 3.535534 -0.937635 3.163008 -1.836992 2.5 -2.5 
C 1.836992 -3.163008 0.937635 -3.535534 0 -3.535534 
C -0.937635 -3.535534 -1.836992 -3.163008 -2.5 -2.5 
C -3.163008 -1.836992 -3.535534 -0.937635 -3.535534 0 
C -3.535534 0.937635 -3.163008 1.836992 -2.5 2.5 
C -1.836992 3.163008 -0.937635 3.535534 0 3.535534 
z
" style="stroke: #ff0000"/>
    </defs>
    <g clip-path="url(#p325ff47ee8)">
     <use xlink:href="#m4c99274293" x="48.613636" y="240.452727" style="fill: #ff0000; stroke: #ff0000"/>
    </g>
   </g>
   <g id="matplotlib.axis_1">
    <g id="xtick_1">
     <g id="line2d_1">
      <defs>
       <path id="m514f284b6a" d="M 0 0 
L 0 3.5 
" style="stroke: #000000; stroke-width: 0.8"/>
      </defs>
      <g>
       <use xlink:href="#m514f284b6a" x="48.409117" y="319.16" style="stroke: #000000; stroke-width: 0.8"/>
      </g>
     </g>
     <g id="text_1">
      <text style="font: 10px 'Lato', sans-serif; text-anchor: middle" x="48.409117" y="333.525625" transform="rotate(-0 48.409117 333.525625)">0</text>
     </g>
    </g>
    <g id="xtick_2">
     <g id="line2d_2">
      <g>
       <use xlink:href="#m514f284b6a" x="112.321495" y="319.16" style="stroke: #000000; stroke-width: 0.8"/>
      </g>
     </g>
     <g id="text_2">
      <text style="font: 10px 'Lato', sans-serif; text-anchor: middle" x="112.321495" y="333.525625" transform="rotate(-0 112.321495 333.525625)">5</text>
     </g>
    </g>
    <g id="xtick_3">
     <g id="line2d_3">
      <g>
       <use xlink:href="#m514f284b6a" x="176.233873" y="319.16" style="stroke: #000000; stroke-width: 0.8"/>
      </g>
     </g>
     <g id="text_3">
      <text style="font: 10px 'Lato', sans-serif; text-anchor: middle" x="176.233873" y="333.525625" transform="rotate(-0 176.233873 333.525625)">10</text>
     </g>
    </g>
    <g id="xtick_4">
     <g id="line2d_4">
      <g>
       <use xlink:href="#m514f284b6a" x="240.146251" y="319.16" style="stroke: #000000; stroke-width: 0.8"/>
      </g>
     </g>
     <g id="text_4">
      <text style="font: 10px 'Lato', sans-serif; text-anchor: middle" x="240.146251" y="333.525625" transform="rotate(-0 240.146251 333.525625)">15</text>
     </g>
    </g>
    <g id="xtick_5">
     <g id="line2d_5">
      <g>
       <use xlink:href="#m514f284b6a" x="304.058629" y="319.16" style="stroke: #000000; stroke-width: 0.8"/>
      </g>
     </g>
     <g id="text_5">
      <text style="font: 10px 'Lato', sans-serif; text-anchor: middle" x="304.058629" y="333.525625" transform="rotate(-0 304.058629 333.525625)">20</text>
     </g>
    </g>
    <g id="xtick_6">
     <g id="line2d_6">
      <g>
       <use xlink:href="#m514f284b6a" x="367.971007" y="319.16" style="stroke: #000000; stroke-width: 0.8"/>
      </g>
     </g>
     <g id="text_6">
      <text style="font: 10px 'Lato', sans-serif; text-anchor: middle" x="367.971007" y="333.525625" transform="rotate(-0 367.971007 333.525625)">25</text>
     </g>
    </g>
    <g id="xtick_7">
     <g id="line2d_7">
      <g>
       <use xlink:href="#m514f284b6a" x="431.883385" y="319.16" style="stroke: #000000; stroke-width: 0.8"/>
      </g>
     </g>
     <g id="text_7">
      <text style="font: 10px 'Lato', sans-serif; text-anchor: middle" x="431.883385" y="333.525625" transform="rotate(-0 431.883385 333.525625)">30</text>
     </g>
    </g>
   </g>
   <g id="matplotlib.axis_2">
    <g id="ytick_1">
     <g id="line2d_8">
      <defs>
       <path id="me58b06f6e0" d="M 0 0 
L -3.5 0 
" style="stroke: #000000; stroke-width: 0.8"/>
      </defs>
      <g>
       <use xlink:href="#me58b06f6e0" x="29.5" y="283.58" style="stroke: #000000; stroke-width: 0.8"/>
      </g>
     </g>
     <g id="text_8">
      <text style="font: 10px 'Lato', sans-serif; text-anchor: end" x="22.5" y="287.262812" transform="rotate(-0 22.5 287.262812)">60</text>
     </g>
    </g>
    <g id="ytick_2">
     <g id="line2d_9">
      <g>
       <use xlink:href="#me58b06f6e0" x="29.5" y="247.640606" style="stroke: #000000; stroke-width: 0.8"/>
      </g>
     </g>
     <g id="text_9">
      <text style="font: 10px 'Lato', sans-serif; text-anchor: end" x="22.5" y="251.323419" transform="rotate(-0 22.5 251.323419)">65</text>
     </g>
    </g>
    <g id="ytick_3">
     <g id="line2d_10">
      <g>
       <use xlink:href="#me58b06f6e0" x="29.5" y="211.701212" style="stroke: #000000; stroke-width: 0.8"/>
      </g>
     </g>
     <g id="text_10">
      <text style="font: 10px 'Lato', sans-serif; text-anchor: end" x="22.5" y="215.384025" transform="rotate(-0 22.5 215.384025)">70</text>
     </g>
    </g>
    <g id="ytick_4">
     <g id="line2d_11">
      <g>
       <use xlink:href="#me58b06f6e0" x="29.5" y="175.761818" style="stroke: #000000; stroke-width: 0.8"/>
      </g>
     </g>
     <g id="text_11">
      <text style="font: 10px 'Lato', sans-serif; text-anchor: end" x="22.5" y="179.444631" transform="rotate(-0 22.5 179.444631)">75</text>
     </g>
    </g>
    <g id="ytick_5">
     <g id="line2d_12">
      <g>
       <use xlink:href="#me58b06f6e0" x="29.5" y="139.822424" style="stroke: #000000; stroke-width: 0.8"/>
      </g>
     </g>
     <g id="text_12">
      <text style="font: 10px 'Lato', sans-serif; text-anchor: end" x="22.5" y="143.505237" transform="rotate(-0 22.5 143.505237)">80</text>
     </g>
    </g>
    <g id="ytick_6">
     <g id="line2d_13">
      <g>
       <use xlink:href="#me58b06f6e0" x="29.5" y="103.88303" style="stroke: #000000; stroke-width: 0.8"/>
      </g>
     </g>
     <g id="text_13">
      <text style="font: 10px 'Lato', sans-serif; text-anchor: end" x="22.5" y="107.565843" transform="rotate(-0 22.5 107.565843)">85</text>
     </g>
    </g>
    <g id="ytick_7">
     <g id="line2d_14">
      <g>
       <use xlink:href="#me58b06f6e0" x="29.5" y="67.943636" style="stroke: #000000; stroke-width: 0.8"/>
      </g>
     </g>
     <g id="text_14">
      <text style="font: 10px 'Lato', sans-serif; text-anchor: end" x="22.5" y="71.626449" transform="rotate(-0 22.5 71.626449)">90</text>
     </g>
    </g>
    <g id="ytick_8">
     <g id="line2d_15">
      <g>
       <use xlink:href="#me58b06f6e0" x="29.5" y="32.004242" style="stroke: #000000; stroke-width: 0.8"/>
      </g>
     </g>
     <g id="text_15">
      <text style="font: 10px 'Lato', sans-serif; text-anchor: end" x="22.5" y="35.687055" transform="rotate(-0 22.5 35.687055)">95</text>
     </g>
    </g>
   </g>
   <g id="patch_3">
    <path d="M 29.5 319.16 
L 29.5 10.8 
" style="fill: none; stroke: #000000; stroke-width: 0.8; stroke-linejoin: miter; stroke-linecap: square"/>
   </g>
   <g id="patch_4">
    <path d="M 450 319.16 
L 450 10.8 
" style="fill: none; stroke: #000000; stroke-width: 0.8; stroke-linejoin: miter; stroke-linecap: square"/>
   </g>
   <g id="patch_5">
    <path d="M 29.5 319.16 
L 450 319.16 
" style="fill: none; stroke: #000000; stroke-width: 0.8; stroke-linejoin: miter; stroke-linecap: square"/>
   </g>
   <g id="patch_6">
    <path d="M 29.5 10.8 
L 450 10.8 
" style="fill: none; stroke: #000000; stroke-width: 0.8; stroke-linejoin: miter; stroke-linecap: square"/>
   </g>
  </g>
 </g>
 <defs>
  <clipPath id="p325ff47ee8">
   <rect x="29.5" y="10.8" width="420.5" height="308.36"/>
  </clipPath>
 </defs>
</svg>
