<?xml version="1.0" encoding="utf-8" standalone="no"?>
<!DOCTYPE svg PUBLIC "-//W3C//DTD SVG 1.1//EN"
  "http://www.w3.org/Graphics/SVG/1.1/DTD/svg11.dtd">
<svg xmlns:xlink="http://www.w3.org/1999/xlink" width="460.8pt" height="345.6pt" viewBox="0 0 460.8 345.6" xmlns="http://www.w3.org/2000/svg" version="1.1">
 <metadata>
  <rdf:RDF xmlns:dc="http://purl.org/dc/elements/1.1/" xmlns:cc="http://creativecommons.org/ns#" xmlns:rdf="http://www.w3.org/1999/02/22-rdf-syntax-ns#">
   <cc:Work>
    <dc:type rdf:resource="http://purl.org/dc/dcmitype/StillImage"/>
    <dc:date>2024-12-09T11:00:34.139036</dc:date>
    <dc:format>image/svg+xml</dc:format>
    <dc:creator>
     <cc:Agent>
      <dc:title>Matplotlib v3.9.3, https://matplotlib.org/</dc:title>
     </cc:Agent>
    </dc:creator>
   </cc:Work>
  </rdf:RDF>
 </metadata>
 <defs>
  <style type="text/css">*{stroke-linejoin: round; stroke-linecap: butt}</style>
 </defs>
 <g id="figure_1">
  <g id="patch_1">
   <path d="M 0 345.6 
L 460.8 345.6 
L 460.8 0 
L 0 0 
z
" style="fill: #ffffff"/>
  </g>
  <g id="axes_1">
   <g id="patch_2">
    <path d="M 342.6048 174.528 
C 342.6048 149.997199 334.124909 126.204794 318.609671 107.203805 
C 303.094432 88.202816 281.477888 75.137132 257.442401 70.232483 
L 236.16 174.528 
z
" style="fill: #1f77b4"/>
   </g>
   <g id="patch_3">
    <path d="M 257.442408 70.232486 
C 232.956768 65.235983 207.476703 69.018401 185.498387 80.912314 
C 163.520071 92.806227 146.417054 112.068325 137.20734 135.299612 
L 236.16 174.528 
z
" style="fill: #ff7f0e"/>
   </g>
   <g id="patch_4">
    <path d="M 137.20734 135.299612 
C 137.188637 135.346787 137.169971 135.393978 137.151337 135.441182 
C 137.132702 135.488386 137.114094 135.535603 137.095529 135.582832 
L 236.16 174.528 
z
" style="fill: #2ca02c"/>
   </g>
   <g id="patch_5">
    <path d="M 137.095529 135.582832 
C 131.404223 150.059755 128.954901 165.609805 129.920461 181.135268 
C 130.886021 196.660731 135.243209 211.78747 142.684422 225.447654 
C 150.125634 239.107838 160.471559 250.972281 172.991861 260.203445 
C 185.512161 269.43461 199.905119 275.810037 215.154696 278.879677 
L 236.16 174.528 
z
" style="fill: #d62728"/>
   </g>
   <g id="patch_6">
    <path d="M 215.154696 278.879677 
C 230.604112 281.989548 246.553093 281.629987 261.846664 277.827037 
C 277.140235 274.024088 291.400117 266.871815 303.593661 256.888167 
C 315.787204 246.90452 325.612775 234.336467 332.358898 220.09408 
C 339.105021 205.851693 342.6048 190.287287 342.6048 174.527981 
L 236.16 174.528 
z
" style="fill: #9467bd"/>
   </g>
   <g id="matplotlib.axis_1"/>
   <g id="matplotlib.axis_2"/>
   <g id="text_1">
    <text style="font: 10px 'Lato', sans-serif; text-anchor: start" x="285.629804" y="136.958484" transform="rotate(-0 285.629804 136.958484)">America</text>
   </g>
   <g id="text_2">
    <text style="font: 10px 'Lato', sans-serif; text-anchor: middle" x="339.222091" y="93.197759" transform="rotate(-0 339.222091 93.197759)">21.8%</text>
   </g>
   <g id="text_3">
    <text style="font: 10px 'Lato', sans-serif; text-anchor: end" x="205.763017" y="121.183597" transform="rotate(-0 205.763017 121.183597)">Asia</text>
   </g>
   <g id="text_4">
    <text style="font: 10px 'Lato', sans-serif; text-anchor: middle" x="172.832953" y="60.333411" transform="rotate(-0 172.832953 60.333411)">22.2%</text>
   </g>
   <g id="text_5">
    <text style="font: 10px 'Lato', sans-serif; text-anchor: end" x="176.7548" y="153.900909" transform="rotate(-0 176.7548 153.900909)">Australia</text>
   </g>
   <g id="text_6">
    <text style="font: 10px 'Lato', sans-serif; text-anchor: middle" x="112.399167" y="128.494477" transform="rotate(-0 112.399167 128.494477)">0.0%</text>
   </g>
   <g id="text_7">
    <text style="font: 10px 'Lato', sans-serif; text-anchor: end" x="180.074651" y="207.904793" transform="rotate(-0 180.074651 207.904793)">Cina</text>
   </g>
   <g id="text_8">
    <text style="font: 10px 'Lato', sans-serif; text-anchor: middle" x="119.315524" y="241.002568" transform="rotate(-0 119.315524 241.002568)">27.8%</text>
   </g>
   <g id="text_9">
    <text style="font: 10px 'Lato', sans-serif; text-anchor: start" x="276.620197" y="226.769099" transform="rotate(-0 276.620197 226.769099)">Europa</text>
   </g>
   <g id="text_10">
    <text style="font: 10px 'Lato', sans-serif; text-anchor: middle" x="320.452076" y="280.303206" transform="rotate(-0 320.452076 280.303206)">28.2%</text>
   </g>
  </g>
 </g>
</svg>
