<?xml version="1.0" encoding="utf-8" standalone="no"?>
<!DOCTYPE svg PUBLIC "-//W3C//DTD SVG 1.1//EN"
  "http://www.w3.org/Graphics/SVG/1.1/DTD/svg11.dtd">
<svg xmlns:xlink="http://www.w3.org/1999/xlink" width="460.8pt" height="345.6pt" viewBox="0 0 460.8 345.6" xmlns="http://www.w3.org/2000/svg" version="1.1">
 <metadata>
  <rdf:RDF xmlns:dc="http://purl.org/dc/elements/1.1/" xmlns:cc="http://creativecommons.org/ns#" xmlns:rdf="http://www.w3.org/1999/02/22-rdf-syntax-ns#">
   <cc:Work>
    <dc:type rdf:resource="http://purl.org/dc/dcmitype/StillImage"/>
    <dc:date>2024-12-03T22:02:24.966313</dc:date>
    <dc:format>image/svg+xml</dc:format>
    <dc:creator>
     <cc:Agent>
      <dc:title>Matplotlib v3.9.3, https://matplotlib.org/</dc:title>
     </cc:Agent>
    </dc:creator>
   </cc:Work>
  </rdf:RDF>
 </metadata>
 <defs>
  <style type="text/css">*{stroke-linejoin: round; stroke-linecap: butt}</style>
 </defs>
 <g id="figure_1">
  <g id="patch_1">
   <path d="M 0 345.6 
L 460.8 345.6 
L 460.8 0 
L 0 0 
z
" style="fill: #ffffff"/>
  </g>
  <g id="axes_1">
   <g id="patch_2">
    <path d="M 57.6 307.584 
L 70.460116 307.584 
L 70.460116 182.804211 
L 57.6 182.804211 
z
" clip-path="url(#p613c9363be)" style="fill: #ebf3fb; opacity: 0.8"/>
   </g>
   <g id="patch_3">
    <path d="M 57.6 182.804211 
L 70.460116 182.804211 
L 70.460116 175.83477 
L 57.6 175.83477 
z
" clip-path="url(#p613c9363be)" style="fill: #f7fbff; opacity: 0.8"/>
   </g>
   <g id="patch_4">
    <path d="M 57.6 175.83477 
L 70.460116 175.83477 
L 70.460116 163.30318 
L 57.6 163.30318 
z
" clip-path="url(#p613c9363be)" style="fill: #f6faff; opacity: 0.8"/>
   </g>
   <g id="patch_5">
    <path d="M 57.6 163.30318 
L 70.460116 163.30318 
L 70.460116 139.580277 
L 57.6 139.580277 
z
" clip-path="url(#p613c9363be)" style="fill: #f5f9fe; opacity: 0.8"/>
   </g>
   <g id="patch_6">
    <path d="M 57.6 139.580277 
L 70.460116 139.580277 
L 70.460116 76.185175 
L 57.6 76.185175 
z
" clip-path="url(#p613c9363be)" style="fill: #f1f7fd; opacity: 0.8"/>
   </g>
   <g id="patch_7">
    <path d="M 57.6 76.185175 
L 70.460116 76.185175 
L 70.460116 42.544222 
L 57.6 42.544222 
z
" clip-path="url(#p613c9363be)" style="fill: #f4f9fe; opacity: 0.8"/>
   </g>
   <g id="patch_8">
    <path d="M 57.6 42.544222 
L 70.460116 42.544222 
L 70.460116 41.472 
L 57.6 41.472 
z
" clip-path="url(#p613c9363be)" style="fill: #f7fbff; opacity: 0.8"/>
   </g>
   <g id="patch_9">
    <path d="M 70.460116 307.584 
L 350.521303 307.584 
L 350.521303 259.727298 
L 70.460116 259.727298 
z
" clip-path="url(#p613c9363be)" style="fill: #64a9d3; opacity: 0.8"/>
   </g>
   <g id="patch_10">
    <path d="M 350.521303 307.584 
L 414.72 307.584 
L 414.72 259.727298 
L 350.521303 259.727298 
z
" clip-path="url(#p613c9363be)" style="fill: #dfecf7; opacity: 0.8"/>
   </g>
   <g id="patch_11">
    <path d="M 70.460116 259.727298 
L 71.929 259.727298 
L 71.929 41.472 
L 70.460116 41.472 
z
" clip-path="url(#p613c9363be)" style="fill: #f5f9fe; opacity: 0.8"/>
   </g>
   <g id="patch_12">
    <path d="M 71.929 259.727298 
L 74.108635 259.727298 
L 74.108635 259.727298 
L 71.929 259.727298 
z
" clip-path="url(#p613c9363be)" style="fill: #f7fbff; opacity: 0.8"/>
   </g>
   <g id="patch_13">
    <path d="M 71.929 259.727298 
L 74.108635 259.727298 
L 74.108635 41.472 
L 71.929 41.472 
z
" clip-path="url(#p613c9363be)" style="fill: #f4f9fe; opacity: 0.8"/>
   </g>
   <g id="patch_14">
    <path d="M 74.108635 259.727298 
L 86.459898 259.727298 
L 86.459898 254.633744 
L 74.108635 254.633744 
z
" clip-path="url(#p613c9363be)" style="fill: #f7fbff; opacity: 0.8"/>
   </g>
   <g id="patch_15">
    <path d="M 74.108635 254.633744 
L 86.459898 254.633744 
L 86.459898 152.623116 
L 74.108635 152.623116 
z
" clip-path="url(#p613c9363be)" style="fill: #eef5fc; opacity: 0.8"/>
   </g>
   <g id="patch_16">
    <path d="M 74.108635 152.623116 
L 86.459898 152.623116 
L 86.459898 91.221369 
L 74.108635 91.221369 
z
" clip-path="url(#p613c9363be)" style="fill: #f2f7fd; opacity: 0.8"/>
   </g>
   <g id="patch_17">
    <path d="M 74.108635 91.221369 
L 86.459898 91.221369 
L 86.459898 41.472 
L 74.108635 41.472 
z
" clip-path="url(#p613c9363be)" style="fill: #f2f8fd; opacity: 0.8"/>
   </g>
   <g id="patch_18">
    <path d="M 86.459898 259.727298 
L 164.551631 259.727298 
L 164.551631 41.472 
L 86.459898 41.472 
z
" clip-path="url(#p613c9363be)" style="fill: #3888c1; opacity: 0.8"/>
   </g>
   <g id="patch_19">
    <path d="M 164.551631 259.727298 
L 207.928807 259.727298 
L 207.928807 251.104705 
L 164.551631 251.104705 
z
" clip-path="url(#p613c9363be)" style="fill: #f5f9fe; opacity: 0.8"/>
   </g>
   <g id="patch_20">
    <path d="M 207.928807 259.727298 
L 409.822577 259.727298 
L 409.822577 251.104705 
L 207.928807 251.104705 
z
" clip-path="url(#p613c9363be)" style="fill: #eaf2fb; opacity: 0.8"/>
   </g>
   <g id="patch_21">
    <path d="M 409.822577 259.727298 
L 414.72 259.727298 
L 414.72 251.104705 
L 409.822577 251.104705 
z
" clip-path="url(#p613c9363be)" style="fill: #f7fbff; opacity: 0.8"/>
   </g>
   <g id="patch_22">
    <path d="M 164.551631 251.104705 
L 414.72 251.104705 
L 414.72 148.026306 
L 164.551631 148.026306 
z
" clip-path="url(#p613c9363be)" style="fill: #08306b; opacity: 0.8"/>
   </g>
   <g id="patch_23">
    <path d="M 164.551631 148.026306 
L 169.56616 148.026306 
L 169.56616 62.611 
L 164.551631 62.611 
z
" clip-path="url(#p613c9363be)" style="fill: #f4f9fe; opacity: 0.8"/>
   </g>
   <g id="patch_24">
    <path d="M 164.551631 62.611 
L 169.56616 62.611 
L 169.56616 41.472 
L 164.551631 41.472 
z
" clip-path="url(#p613c9363be)" style="fill: #f6faff; opacity: 0.8"/>
   </g>
   <g id="patch_25">
    <path d="M 169.56616 148.026306 
L 173.335144 148.026306 
L 173.335144 148.026306 
L 169.56616 148.026306 
z
" clip-path="url(#p613c9363be)" style="fill: #f7fbff; opacity: 0.8"/>
   </g>
   <g id="patch_26">
    <path d="M 169.56616 148.026306 
L 173.335144 148.026306 
L 173.335144 41.472 
L 169.56616 41.472 
z
" clip-path="url(#p613c9363be)" style="fill: #f5f9fe; opacity: 0.8"/>
   </g>
   <g id="patch_27">
    <path d="M 173.335144 148.026306 
L 191.435976 148.026306 
L 191.435976 136.932851 
L 173.335144 136.932851 
z
" clip-path="url(#p613c9363be)" style="fill: #f6faff; opacity: 0.8"/>
   </g>
   <g id="patch_28">
    <path d="M 173.335144 136.932851 
L 191.435976 136.932851 
L 191.435976 115.602945 
L 173.335144 115.602945 
z
" clip-path="url(#p613c9363be)" style="fill: #f5f9fe; opacity: 0.8"/>
   </g>
   <g id="patch_29">
    <path d="M 173.335144 115.602945 
L 191.435976 115.602945 
L 191.435976 61.659232 
L 173.335144 61.659232 
z
" clip-path="url(#p613c9363be)" style="fill: #f0f6fd; opacity: 0.8"/>
   </g>
   <g id="patch_30">
    <path d="M 173.335144 61.659232 
L 191.435976 61.659232 
L 191.435976 53.374849 
L 173.335144 53.374849 
z
" clip-path="url(#p613c9363be)" style="fill: #f6faff; opacity: 0.8"/>
   </g>
   <g id="patch_31">
    <path d="M 173.335144 53.374849 
L 191.435976 53.374849 
L 191.435976 41.472 
L 173.335144 41.472 
z
" clip-path="url(#p613c9363be)" style="fill: #f5fafe; opacity: 0.8"/>
   </g>
   <g id="patch_32">
    <path d="M 191.435976 148.026306 
L 210.936022 148.026306 
L 210.936022 144.976847 
L 191.435976 144.976847 
z
" clip-path="url(#p613c9363be)" style="fill: #f7fbff; opacity: 0.8"/>
   </g>
   <g id="patch_33">
    <path d="M 191.435976 144.976847 
L 210.936022 144.976847 
L 210.936022 41.472 
L 191.435976 41.472 
z
" clip-path="url(#p613c9363be)" style="fill: #e7f1fa; opacity: 0.8"/>
   </g>
   <g id="patch_34">
    <path d="M 210.936022 148.026306 
L 219.282786 148.026306 
L 219.282786 144.412546 
L 210.936022 144.412546 
z
" clip-path="url(#p613c9363be)" style="fill: #f7fbff; opacity: 0.8"/>
   </g>
   <g id="patch_35">
    <path d="M 210.936022 144.412546 
L 219.282786 144.412546 
L 219.282786 95.368655 
L 210.936022 95.368655 
z
" clip-path="url(#p613c9363be)" style="fill: #f4f9fe; opacity: 0.8"/>
   </g>
   <g id="patch_36">
    <path d="M 210.936022 95.368655 
L 219.282786 95.368655 
L 219.282786 92.477647 
L 210.936022 92.477647 
z
" clip-path="url(#p613c9363be)" style="fill: #f7fbff; opacity: 0.8"/>
   </g>
   <g id="patch_37">
    <path d="M 210.936022 92.477647 
L 219.282786 92.477647 
L 219.282786 46.118263 
L 210.936022 46.118263 
z
" clip-path="url(#p613c9363be)" style="fill: #f5f9fe; opacity: 0.8"/>
   </g>
   <g id="patch_38">
    <path d="M 210.936022 46.118263 
L 219.282786 46.118263 
L 219.282786 41.472 
L 210.936022 41.472 
z
" clip-path="url(#p613c9363be)" style="fill: #f7fbff; opacity: 0.8"/>
   </g>
   <g id="patch_39">
    <path d="M 219.282786 148.026306 
L 374.425835 148.026306 
L 374.425835 41.472 
L 219.282786 41.472 
z
" clip-path="url(#p613c9363be)" style="fill: #3d8dc4; opacity: 0.8"/>
   </g>
   <g id="patch_40">
    <path d="M 374.425835 148.026306 
L 414.72 148.026306 
L 414.72 41.472 
L 374.425835 41.472 
z
" clip-path="url(#p613c9363be)" style="fill: #d6e6f4; opacity: 0.8"/>
   </g>
   <g id="text_1">
    <text style="font: 10px 'Lato', sans-serif; text-anchor: middle" x="64.030058" y="252.55973" transform="rotate(-0 64.030058 252.55973)">Balatro</text>
   </g>
   <g id="text_2">
    <text style="font: 10px 'Lato', sans-serif; text-anchor: middle" x="64.030058" y="186.685115" transform="rotate(-0 64.030058 186.685115)">Life Is Strange: Double Exposure</text>
   </g>
   <g id="text_3">
    <text style="font: 10px 'Lato', sans-serif; text-anchor: middle" x="64.030058" y="176.9346" transform="rotate(-0 64.030058 176.9346)">WWE 2K24</text>
   </g>
   <g id="text_4">
    <text style="font: 10px 'Lato', sans-serif; text-anchor: middle" x="64.030058" y="158.807354" transform="rotate(-0 64.030058 158.807354)">NBA 2k25</text>
   </g>
   <g id="text_5">
    <text style="font: 10px 'Lato', sans-serif; text-anchor: middle" x="64.030058" y="115.248351" transform="rotate(-0 64.030058 115.248351)">Dragon Age: The Veilguard</text>
   </g>
   <g id="text_6">
    <text style="font: 10px 'Lato', sans-serif; text-anchor: middle" x="64.030058" y="66.730323" transform="rotate(-0 64.030058 66.730323)">Pacific Drive</text>
   </g>
   <g id="text_7">
    <text style="font: 10px 'Lato', sans-serif; text-anchor: middle" x="64.030058" y="49.373736" transform="rotate(-0 64.030058 49.373736)">Concord</text>
   </g>
   <g id="text_8">
    <text style="font: 10px 'Lato', sans-serif; text-anchor: middle" x="210.490709" y="291.021274" transform="rotate(-0 210.490709 291.021274)">Call of Duty: Black Ops 6</text>
   </g>
   <g id="text_9">
    <text style="font: 10px 'Lato', sans-serif; text-anchor: middle" x="382.620652" y="291.021274" transform="rotate(-0 382.620652 291.021274)">Warhammer 40,000: Space Marine 2</text>
   </g>
   <g id="text_10">
    <text style="font: 10px 'Lato', sans-serif; text-anchor: middle" x="71.194558" y="157.965274" transform="rotate(-0 71.194558 157.965274)">Animal Well</text>
   </g>
   <g id="text_11">
    <text style="font: 10px 'Lato', sans-serif; text-anchor: middle" x="73.018817" y="267.092923" transform="rotate(-0 73.018817 267.092923)">Deadlock</text>
   </g>
   <g id="text_12">
    <text style="font: 10px 'Lato', sans-serif; text-anchor: middle" x="73.018817" y="157.965274" transform="rotate(-0 73.018817 157.965274)">Metaphor: ReFantazio</text>
   </g>
   <g id="text_13">
    <text style="font: 10px 'Lato', sans-serif; text-anchor: middle" x="80.284266" y="264.546146" transform="rotate(-0 80.284266 264.546146)">Cat Quest III</text>
   </g>
   <g id="text_14">
    <text style="font: 10px 'Lato', sans-serif; text-anchor: middle" x="80.284266" y="210.994055" transform="rotate(-0 80.284266 210.994055)">Dragon Ball: Sparkling! Zero</text>
   </g>
   <g id="text_15">
    <text style="font: 10px 'Lato', sans-serif; text-anchor: middle" x="80.284266" y="129.287868" transform="rotate(-0 80.284266 129.287868)">Tekken 8</text>
   </g>
   <g id="text_16">
    <text style="font: 10px 'Lato', sans-serif; text-anchor: middle" x="80.284266" y="73.71231" transform="rotate(-0 80.284266 73.71231)">Persona 3 Reload</text>
   </g>
   <g id="text_17">
    <text style="font: 10px 'Lato', sans-serif; text-anchor: middle" x="125.505765" y="157.855899" transform="rotate(-0 125.505765 157.855899)">Dragon's Dogma 2</text>
   </g>
   <g id="text_18">
    <text style="font: 10px 'Lato', sans-serif; text-anchor: middle" x="186.240219" y="262.781627" transform="rotate(-0 186.240219 262.781627)">Like a Dragon: Infinite Wealth</text>
   </g>
   <g id="text_19">
    <text style="font: 10px 'Lato', sans-serif; text-anchor: middle" x="308.875692" y="262.781627" transform="rotate(-0 308.875692 262.781627)">Fairlight 84</text>
   </g>
   <g id="text_20">
    <text style="font: 10px 'Lato', sans-serif; text-anchor: middle" x="412.271288" y="262.781627" transform="rotate(-0 412.271288 262.781627)">The Plucky Squire</text>
   </g>
   <g id="text_21">
    <text style="font: 10px 'Lato', sans-serif; text-anchor: middle" x="289.635816" y="206.931131" transform="rotate(-0 289.635816 206.931131)">Black Myth: Wukong</text>
   </g>
   <g id="text_22">
    <text style="font: 10px 'Lato', sans-serif; text-anchor: middle" x="167.058896" y="112.684278" transform="rotate(-0 167.058896 112.684278)">Strinova</text>
   </g>
   <g id="text_23">
    <text style="font: 10px 'Lato', sans-serif; text-anchor: middle" x="167.058896" y="59.407125" transform="rotate(-0 167.058896 59.407125)">Bloodstrike</text>
   </g>
   <g id="text_24">
    <text style="font: 10px 'Lato', sans-serif; text-anchor: middle" x="171.450652" y="155.391931" transform="rotate(-0 171.450652 155.391931)">Marvel Rivals</text>
   </g>
   <g id="text_25">
    <text style="font: 10px 'Lato', sans-serif; text-anchor: middle" x="171.450652" y="102.114778" transform="rotate(-0 171.450652 102.114778)">Frostpunk 2</text>
   </g>
   <g id="text_26">
    <text style="font: 10px 'Lato', sans-serif; text-anchor: middle" x="182.38556" y="149.845204" transform="rotate(-0 182.38556 149.845204)">F1 24</text>
   </g>
   <g id="text_27">
    <text style="font: 10px 'Lato', sans-serif; text-anchor: middle" x="182.38556" y="133.633523" transform="rotate(-0 182.38556 133.633523)">Farming Simulator 25</text>
   </g>
   <g id="text_28">
    <text style="font: 10px 'Lato', sans-serif; text-anchor: middle" x="182.38556" y="95.996714" transform="rotate(-0 182.38556 95.996714)">S.T.A.L.K.E.R 2: Hearth of Chornobyl</text>
   </g>
   <g id="text_29">
    <text style="font: 10px 'Lato', sans-serif; text-anchor: middle" x="182.38556" y="64.882666" transform="rotate(-0 182.38556 64.882666)">Goat Simulator 3</text>
   </g>
   <g id="text_30">
    <text style="font: 10px 'Lato', sans-serif; text-anchor: middle" x="182.38556" y="54.78905" transform="rotate(-0 182.38556 54.78905)">Suicide Squad: Kill the Justice League</text>
   </g>
   <g id="text_31">
    <text style="font: 10px 'Lato', sans-serif; text-anchor: middle" x="201.185999" y="153.867202" transform="rotate(-0 201.185999 153.867202)">Neva</text>
   </g>
   <g id="text_32">
    <text style="font: 10px 'Lato', sans-serif; text-anchor: middle" x="201.185999" y="100.590048" transform="rotate(-0 201.185999 100.590048)">Manor Lords</text>
   </g>
   <g id="text_33">
    <text style="font: 10px 'Lato', sans-serif; text-anchor: middle" x="215.109404" y="153.585051" transform="rotate(-0 215.109404 153.585051)">Skull and Bones</text>
   </g>
   <g id="text_34">
    <text style="font: 10px 'Lato', sans-serif; text-anchor: middle" x="215.109404" y="127.256225" transform="rotate(-0 215.109404 127.256225)">Silent Hill 2</text>
   </g>
   <g id="text_35">
    <text style="font: 10px 'Lato', sans-serif; text-anchor: middle" x="215.109404" y="101.288776" transform="rotate(-0 215.109404 101.288776)">Star Wars Outlaws</text>
   </g>
   <g id="text_36">
    <text style="font: 10px 'Lato', sans-serif; text-anchor: middle" x="215.109404" y="76.66358" transform="rotate(-0 215.109404 76.66358)">Senua's Saga: Hellblade II</text>
   </g>
   <g id="text_37">
    <text style="font: 10px 'Lato', sans-serif; text-anchor: middle" x="215.109404" y="51.160757" transform="rotate(-0 215.109404 51.160757)">Prince of Persia: The Lost Crown</text>
   </g>
   <g id="text_38">
    <text style="font: 10px 'Lato', sans-serif; text-anchor: middle" x="296.854311" y="102.114778" transform="rotate(-0 296.854311 102.114778)">Helldivers II</text>
   </g>
   <g id="text_39">
    <text style="font: 10px 'Lato', sans-serif; text-anchor: middle" x="394.572918" y="102.044466" transform="rotate(-0 394.572918 102.044466)">V Rising</text>
   </g>
   <g id="text_40">
    <text style="font: 10px 'Lato', sans-serif; text-anchor: middle" x="64.030058" y="243.47848" transform="rotate(-0 64.030058 243.47848)">America</text>
   </g>
   <g id="text_41">
    <text style="font: 10px 'Lato', sans-serif; text-anchor: middle" x="64.030058" y="177.603865" transform="rotate(-0 64.030058 177.603865)">America</text>
   </g>
   <g id="text_42">
    <text style="font: 10px 'Lato', sans-serif; text-anchor: middle" x="64.030058" y="167.85335" transform="rotate(-0 64.030058 167.85335)">America</text>
   </g>
   <g id="text_43">
    <text style="font: 10px 'Lato', sans-serif; text-anchor: middle" x="64.030058" y="149.726104" transform="rotate(-0 64.030058 149.726104)">America</text>
   </g>
   <g id="text_44">
    <text style="font: 10px 'Lato', sans-serif; text-anchor: middle" x="64.030058" y="106.167101" transform="rotate(-0 64.030058 106.167101)">America</text>
   </g>
   <g id="text_45">
    <text style="font: 10px 'Lato', sans-serif; text-anchor: middle" x="64.030058" y="57.649073" transform="rotate(-0 64.030058 57.649073)">America</text>
   </g>
   <g id="text_46">
    <text style="font: 10px 'Lato', sans-serif; text-anchor: middle" x="64.030058" y="40.292486" transform="rotate(-0 64.030058 40.292486)">America</text>
   </g>
   <g id="text_47">
    <text style="font: 10px 'Lato', sans-serif; text-anchor: middle" x="210.490709" y="281.940024" transform="rotate(-0 210.490709 281.940024)">America</text>
   </g>
   <g id="text_48">
    <text style="font: 10px 'Lato', sans-serif; text-anchor: middle" x="382.620652" y="281.940024" transform="rotate(-0 382.620652 281.940024)">America</text>
   </g>
   <g id="text_49">
    <text style="font: 10px 'Lato', sans-serif; text-anchor: middle" x="71.194558" y="148.884024" transform="rotate(-0 71.194558 148.884024)">America</text>
   </g>
   <g id="text_50">
    <text style="font: 10px 'Lato', sans-serif; text-anchor: middle" x="73.018817" y="258.011673" transform="rotate(-0 73.018817 258.011673)">America</text>
   </g>
   <g id="text_51">
    <text style="font: 10px 'Lato', sans-serif; text-anchor: middle" x="73.018817" y="148.884024" transform="rotate(-0 73.018817 148.884024)">Asia</text>
   </g>
   <g id="text_52">
    <text style="font: 10px 'Lato', sans-serif; text-anchor: middle" x="80.284266" y="255.464896" transform="rotate(-0 80.284266 255.464896)">Asia</text>
   </g>
   <g id="text_53">
    <text style="font: 10px 'Lato', sans-serif; text-anchor: middle" x="80.284266" y="201.912805" transform="rotate(-0 80.284266 201.912805)">Asia</text>
   </g>
   <g id="text_54">
    <text style="font: 10px 'Lato', sans-serif; text-anchor: middle" x="80.284266" y="120.206618" transform="rotate(-0 80.284266 120.206618)">Asia</text>
   </g>
   <g id="text_55">
    <text style="font: 10px 'Lato', sans-serif; text-anchor: middle" x="80.284266" y="64.63106" transform="rotate(-0 80.284266 64.63106)">Asia</text>
   </g>
   <g id="text_56">
    <text style="font: 10px 'Lato', sans-serif; text-anchor: middle" x="125.505765" y="148.884024" transform="rotate(-0 125.505765 148.884024)">Asia</text>
   </g>
   <g id="text_57">
    <text style="font: 10px 'Lato', sans-serif; text-anchor: middle" x="186.240219" y="253.700377" transform="rotate(-0 186.240219 253.700377)">Asia</text>
   </g>
   <g id="text_58">
    <text style="font: 10px 'Lato', sans-serif; text-anchor: middle" x="308.875692" y="253.700377" transform="rotate(-0 308.875692 253.700377)">Asia</text>
   </g>
   <g id="text_59">
    <text style="font: 10px 'Lato', sans-serif; text-anchor: middle" x="412.271288" y="253.700377" transform="rotate(-0 412.271288 253.700377)">Australia</text>
   </g>
   <g id="text_60">
    <text style="font: 10px 'Lato', sans-serif; text-anchor: middle" x="289.635816" y="197.849881" transform="rotate(-0 289.635816 197.849881)">Cina</text>
   </g>
   <g id="text_61">
    <text style="font: 10px 'Lato', sans-serif; text-anchor: middle" x="167.058896" y="103.603028" transform="rotate(-0 167.058896 103.603028)">Cina</text>
   </g>
   <g id="text_62">
    <text style="font: 10px 'Lato', sans-serif; text-anchor: middle" x="167.058896" y="50.325875" transform="rotate(-0 167.058896 50.325875)">Cina</text>
   </g>
   <g id="text_63">
    <text style="font: 10px 'Lato', sans-serif; text-anchor: middle" x="171.450652" y="146.310681" transform="rotate(-0 171.450652 146.310681)">Cina</text>
   </g>
   <g id="text_64">
    <text style="font: 10px 'Lato', sans-serif; text-anchor: middle" x="171.450652" y="93.033528" transform="rotate(-0 171.450652 93.033528)">Europa</text>
   </g>
   <g id="text_65">
    <text style="font: 10px 'Lato', sans-serif; text-anchor: middle" x="182.38556" y="140.763954" transform="rotate(-0 182.38556 140.763954)">Europa</text>
   </g>
   <g id="text_66">
    <text style="font: 10px 'Lato', sans-serif; text-anchor: middle" x="182.38556" y="124.552273" transform="rotate(-0 182.38556 124.552273)">Europa</text>
   </g>
   <g id="text_67">
    <text style="font: 10px 'Lato', sans-serif; text-anchor: middle" x="182.38556" y="86.915464" transform="rotate(-0 182.38556 86.915464)">Europa</text>
   </g>
   <g id="text_68">
    <text style="font: 10px 'Lato', sans-serif; text-anchor: middle" x="182.38556" y="55.801416" transform="rotate(-0 182.38556 55.801416)">Europa</text>
   </g>
   <g id="text_69">
    <text style="font: 10px 'Lato', sans-serif; text-anchor: middle" x="182.38556" y="45.7078" transform="rotate(-0 182.38556 45.7078)">Europa</text>
   </g>
   <g id="text_70">
    <text style="font: 10px 'Lato', sans-serif; text-anchor: middle" x="201.185999" y="144.785952" transform="rotate(-0 201.185999 144.785952)">Europa</text>
   </g>
   <g id="text_71">
    <text style="font: 10px 'Lato', sans-serif; text-anchor: middle" x="201.185999" y="91.508798" transform="rotate(-0 201.185999 91.508798)">Europa</text>
   </g>
   <g id="text_72">
    <text style="font: 10px 'Lato', sans-serif; text-anchor: middle" x="215.109404" y="144.503801" transform="rotate(-0 215.109404 144.503801)">Europa</text>
   </g>
   <g id="text_73">
    <text style="font: 10px 'Lato', sans-serif; text-anchor: middle" x="215.109404" y="118.174975" transform="rotate(-0 215.109404 118.174975)">Europa</text>
   </g>
   <g id="text_74">
    <text style="font: 10px 'Lato', sans-serif; text-anchor: middle" x="215.109404" y="92.207526" transform="rotate(-0 215.109404 92.207526)">Europa</text>
   </g>
   <g id="text_75">
    <text style="font: 10px 'Lato', sans-serif; text-anchor: middle" x="215.109404" y="67.58233" transform="rotate(-0 215.109404 67.58233)">Europa</text>
   </g>
   <g id="text_76">
    <text style="font: 10px 'Lato', sans-serif; text-anchor: middle" x="215.109404" y="42.079507" transform="rotate(-0 215.109404 42.079507)">Europa</text>
   </g>
   <g id="text_77">
    <text style="font: 10px 'Lato', sans-serif; text-anchor: middle" x="296.854311" y="93.033528" transform="rotate(-0 296.854311 93.033528)">Europa</text>
   </g>
   <g id="text_78">
    <text style="font: 10px 'Lato', sans-serif; text-anchor: middle" x="394.572918" y="93.033528" transform="rotate(-0 394.572918 93.033528)">Europa</text>
   </g>
  </g>
 </g>
 <defs>
  <clipPath id="p613c9363be">
   <rect x="57.6" y="41.472" width="357.12" height="266.112"/>
  </clipPath>
 </defs>
</svg>
